<svg xmlns="http://www.w3.org/2000/svg" width="85" height="85" viewBox="0 0 85 85">
  <g id="img12" transform="translate(-494.711 -4482)">
    <rect id="Rect치ngulo_454644" data-name="Rect치ngulo 454644" width="85" height="85" transform="translate(494.711 4482)" fill="#5bc0be"/>
    <rect id="Rect치ngulo_454645" data-name="Rect치ngulo 454645" width="65" height="65" transform="translate(504.711 4492)" fill="#e5eaff"/>
    <g id="Grupo_1185948" data-name="Grupo 1185948" transform="translate(514.113 4500.804)">
      <g id="Grupo_1185946" data-name="Grupo 1185946" transform="translate(0.677 0.677)">
        <path id="Trazado_999322" data-name="Trazado 999322" d="M171.648,127.132l-1.414-.347-2.947-2.029-1.263-2.436L165.281,121H146.822l-1.19.657-1.9,3.429-4.17,2.519v6.8H164.52v7.162l.464.509,1.521-1.205,1.925-2.647,1.809-1.444h1.77l.486-.56V127.6Z" transform="translate(-127.652 -110.76)" fill="#8cc825"/>
        <g id="Grupo_1185943" data-name="Grupo 1185943" transform="translate(6.836 16.601)">
          <path id="Trazado_999323" data-name="Trazado 999323" d="M88.747,191.488l-.4.245-3.981.609-1.1,1.334v4.232l.919.629h4.566Z" transform="translate(-83.262 -191.488)" fill="#77ab1e"/>
        </g>
        <g id="Grupo_1185944" data-name="Grupo 1185944" transform="translate(22.522 10.241)">
          <path id="Trazado_999324" data-name="Trazado 999324" d="M430.521,121h-5.976a7.116,7.116,0,0,0,6.907,6.6c.1,0,.205,0,.307-.008v-5.358A1.238,1.238,0,0,0,430.521,121Z" transform="translate(-409.438 -121.001)" fill="#a2e82d"/>
          <path id="Trazado_999325" data-name="Trazado 999325" d="M432.122,289.656a6.983,6.983,0,0,0-6.529,4.86l-.312.385v1.018l.312.342h5.6a1.238,1.238,0,0,0,1.238-1.238v-5.358c-.1,0-.2-.008-.307-.008Z" transform="translate(-410.109 -274.439)" fill="#a2e82d"/>
          <path id="Trazado_999326" data-name="Trazado 999326" d="M262.5,163.873h-.753l-2.436,1.47-1.714,2.867-.481,2.334.568,2.869h8.936l.532-.629a7.815,7.815,0,0,0,.226-1.869,7.342,7.342,0,0,0-4.877-7.043Z" transform="translate(-257.116 -160.005)" fill="#a2e82d"/>
        </g>
        <path id="Trazado_999327" data-name="Trazado 999327" d="M221.048,167.564a7.341,7.341,0,0,1,4.877-7.043,6.569,6.569,0,0,0-2.067-.332,7.169,7.169,0,0,0-6.945,7.375,7.816,7.816,0,0,0,.226,1.869l1.116.629h4.135l-1.116-.629A7.81,7.81,0,0,1,221.048,167.564Z" transform="translate(-198.018 -146.412)" fill="#98d829"/>
        <path id="Trazado_999328" data-name="Trazado 999328" d="M89.737,15.762H88.572l-2.252,1.491v.939l-1.207.415-1.852,3.94v4.782l2,3.268,1.057.438v.828l2.522,1.451.894.15a9.6,9.6,0,0,0,0-17.7Z" transform="translate(-76.426 -15.017)" fill="#ffeb7e"/>
        <path id="Trazado_999329" data-name="Trazado 999329" d="M14.93,17.1a9.6,9.6,0,0,1,5.882-8.851,9.6,9.6,0,1,0,0,17.7A9.6,9.6,0,0,1,14.93,17.1Z" transform="translate(-7.502 -7.5)" fill="#ffe02f"/>
        <path id="Trazado_999330" data-name="Trazado 999330" d="M86.32,42.689l-1.207.415-1.851,3.94v4.782l2,3.268,1.057.438a6.428,6.428,0,0,0,0-12.842Z" transform="translate(-76.426 -39.514)" fill="#ffd500"/>
        <path id="Trazado_999331" data-name="Trazado 999331" d="M46.868,49.034a9.56,9.56,0,0,1,2.466-6.421c-.1,0-.2-.007-.3-.007a6.429,6.429,0,0,0,0,12.857c.1,0,.2,0,.3-.007A9.559,9.559,0,0,1,46.868,49.034Z" transform="translate(-39.439 -39.438)" fill="#fbc700"/>
        <path id="Trazado_999332" data-name="Trazado 999332" d="M96.785,267.982l-1.85-.679L92.7,265.5l-.758-2.226-1.233-.629H67.131l-1,.629-1.015,2.255v15.647l1.263,2.614.752.677H90.71l.752-1.057,1.239-2.246,2.145-2.036,2.346-.32.733-.938v-8.629Z" transform="translate(-59.917 -239.622)" fill="#98d829"/>
        <g id="Grupo_1185945" data-name="Grupo 1185945" transform="translate(0 25.268)">
          <path id="Trazado_999333" data-name="Trazado 999333" d="M12.986,287.546l-.58,1.289-2.707,2.2H8.188L7.5,291.9v8.629l1.183.712,1.534.545,2.165,1.395.6,1.247Z" transform="translate(-7.501 -287.546)" fill="#8cc825"/>
        </g>
        <path id="Trazado_999334" data-name="Trazado 999334" d="M190.764,305.515h-.925l-2.631,1.871-1.43,2.561v4.659l1.43,2.978,2.356,1.929,1.2.087a7.523,7.523,0,0,0,0-14.085Z" transform="translate(-169.693 -278.626)" fill="#bced6b"/>
        <path id="Trazado_999335" data-name="Trazado 999335" d="M145.287,309.206a7.341,7.341,0,0,1,4.877-7.043,6.569,6.569,0,0,0-2.067-.332,7.388,7.388,0,0,0,0,14.75,6.57,6.57,0,0,0,2.067-.332,7.341,7.341,0,0,1-4.877-7.043Z" transform="translate(-129.093 -275.274)" fill="#a2e82d"/>
        <path id="Trazado_999336" data-name="Trazado 999336" d="M354.761,262.643h-5.976a7.116,7.116,0,0,0,6.907,6.6c.1,0,.205,0,.307-.008v-5.358A1.238,1.238,0,0,0,354.761,262.643Z" transform="translate(-317.992 -239.622)" fill="#bced6b"/>
        <path id="Trazado_999337" data-name="Trazado 999337" d="M8.74,262.643h5.976a7.116,7.116,0,0,1-6.907,6.6c-.1,0-.205,0-.307-.008v-5.358A1.238,1.238,0,0,1,8.74,262.643Z" transform="translate(-7.502 -239.622)" fill="#a2e82d"/>
        <path id="Trazado_999338" data-name="Trazado 999338" d="M354.761,437.9h-5.976a7.116,7.116,0,0,1,6.907-6.6c.1,0,.205,0,.307.008v5.358A1.238,1.238,0,0,1,354.761,437.9Z" transform="translate(-317.992 -393.06)" fill="#bced6b"/>
        <path id="Trazado_999339" data-name="Trazado 999339" d="M8.74,437.9h5.976a7.116,7.116,0,0,0-6.907-6.6c-.1,0-.205,0-.307.008v5.358A1.238,1.238,0,0,0,8.74,437.9Z" transform="translate(-7.502 -393.06)" fill="#a2e82d"/>
      </g>
      <g id="Grupo_1185947" data-name="Grupo 1185947" transform="translate(0 0)">
        <path id="Trazado_999340" data-name="Trazado 999340" d="M148.893,302.383a7.633,7.633,0,1,0-7.621,8.052A7.854,7.854,0,0,0,148.893,302.383Zm-7.621,6.7a6.713,6.713,0,1,1,6.268-6.7A6.5,6.5,0,0,1,141.271,309.081Z" transform="translate(-121.591 -267.774)"/>
        <path id="Trazado_999341" data-name="Trazado 999341" d="M189.452,326.758c-1.275-.336-1.941-.884-1.941-1.251a1.213,1.213,0,0,1,1.3-1.017,2.425,2.425,0,0,1,1.511.678.677.677,0,0,0,.973-.941,3.964,3.964,0,0,0-1.927-1.037v-.7a.677.677,0,0,0-1.353,0v.758a2.422,2.422,0,0,0-1.859,2.261c0,1.133,1.075,2.066,2.95,2.56,1.063.28,1.151.71,1.151,1.164,0,.421-.412,1.047-1.548,1.047a2.031,2.031,0,0,1-1.681-.812.677.677,0,0,0-1.153.709,3.355,3.355,0,0,0,2.141,1.391v.713a.677.677,0,0,0,1.353,0v-.7a2.419,2.419,0,0,0,.082-4.819Z" transform="translate(-169.013 -292.776)"/>
        <path id="Trazado_999342" data-name="Trazado 999342" d="M92.595,70.208c-.9-.237-1.289-.607-1.289-.743a.717.717,0,0,1,.775-.565,1.6,1.6,0,0,1,.979.444.677.677,0,0,0,.972-.942,3.061,3.061,0,0,0-1.362-.781v-.369a.677.677,0,0,0-1.353,0v.423a1.938,1.938,0,0,0-1.363,1.789c0,.919.837,1.667,2.3,2.052.709.187.709.437.709.679s-.254.587-.954.587A1.328,1.328,0,0,1,91,72.359a.677.677,0,1,0-.994.919,2.678,2.678,0,0,0,1.312.775v.378a.677.677,0,0,0,1.353,0v-.367a1.946,1.946,0,0,0-.075-3.855Z" transform="translate(-81.72 -60.569)"/>
        <path id="Trazado_999343" data-name="Trazado 999343" d="M42.21,35.1a7.105,7.105,0,1,0,7.105,7.105A7.113,7.113,0,0,0,42.21,35.1Zm0,12.857a5.752,5.752,0,1,1,5.752-5.752A5.759,5.759,0,0,1,42.21,47.962Z" transform="translate(-31.938 -31.938)"/>
        <path id="Trazado_999344" data-name="Trazado 999344" d="M44.281,10.241H20.545a10.273,10.273,0,1,0-13.71,9.713v3.067H1.915A1.917,1.917,0,0,0,0,24.936V44.281A1.917,1.917,0,0,0,1.915,46.2H17.992a.677.677,0,0,0,0-1.353H8.48a7.746,7.746,0,0,0-7.127-6.6V30.969a7.746,7.746,0,0,0,7.127-6.6h22.4a7.746,7.746,0,0,0,7.127,6.6v7.278a7.746,7.746,0,0,0-7.127,6.6H21.15a.677.677,0,1,0,0,1.353h16.3a1.917,1.917,0,0,0,1.915-1.915V33.416h4.921A1.917,1.917,0,0,0,46.2,31.5V23.408a.677.677,0,1,0-1.353,0v2.061a7.512,7.512,0,0,0-5.482,2.887v-3.42a1.917,1.917,0,0,0-1.915-1.915H34.053a8.551,8.551,0,0,0,.084-1.192,7.854,7.854,0,0,0-7.621-8.052,7.854,7.854,0,0,0-7.621,8.052,8.551,8.551,0,0,0,.084,1.192H8.189V20.333a10.28,10.28,0,0,0,12.272-8.739H37.716a7.746,7.746,0,0,0,7.127,6.6v2.06a.677.677,0,1,0,1.353,0V12.156a1.917,1.917,0,0,0-1.915-1.915ZM7.105,44.843H1.915a.562.562,0,0,1-.562-.562V39.6A6.387,6.387,0,0,1,7.105,44.843Zm30.9-.562a.562.562,0,0,1-.562.562h-5.19a6.387,6.387,0,0,1,5.752-5.24ZM39.361,31.11a6.347,6.347,0,0,1,5.482-4.287V31.5a.562.562,0,0,1-.562.562H39.361Zm-1.915-6.736a.562.562,0,0,1,.562.562v4.678a6.387,6.387,0,0,1-5.752-5.24ZM26.516,15.13a6.5,6.5,0,0,1,6.268,6.7,7.179,7.179,0,0,1-.1,1.192H29.359A2.567,2.567,0,0,0,27.275,21.2c-1.275-.336-1.942-.884-1.942-1.251a1.213,1.213,0,0,1,1.3-1.017,2.427,2.427,0,0,1,1.511.679.677.677,0,0,0,.972-.941,3.965,3.965,0,0,0-1.927-1.037v-.7a.677.677,0,0,0-1.353,0v.758a2.422,2.422,0,0,0-1.86,2.261c0,1.133,1.075,2.066,2.95,2.56a1.758,1.758,0,0,1,.968.509h-7.55a7.188,7.188,0,0,1-.1-1.192A6.5,6.5,0,0,1,26.516,15.13ZM1.353,29.614V24.936a.562.562,0,0,1,.562-.562h5.19A6.387,6.387,0,0,1,1.353,29.614Zm8.919-10.422a8.92,8.92,0,1,1,8.919-8.92A8.93,8.93,0,0,1,10.273,19.192Zm34.57-2.358a6.387,6.387,0,0,1-5.752-5.24h5.19a.562.562,0,0,1,.562.562Z" transform="translate(0 0)"/>
      </g>
    </g>
  </g>
</svg>
