<svg xmlns="http://www.w3.org/2000/svg" width="249" height="147.454" viewBox="0 0 249 147.454">
  <g id="img4" transform="translate(-1150.571 -726)">
    <rect id="Rectángulo_454936" data-name="Rectángulo 454936" width="249" height="147" rx="10" transform="translate(1150.571 726)" fill="#a8b8ff"/>
    <g id="OBJECTS" transform="translate(1112.506 689.24)">
      <g id="Grupo_1183562" data-name="Grupo 1183562" transform="translate(58.922 44.856)">
        <g id="Grupo_1183559" data-name="Grupo 1183559" transform="translate(0 7.498)">
          <path id="Trazado_998626" data-name="Trazado 998626" d="M66.474,303.228c-8.267-20.152-14.759-59.681,17.343-75.117,29.7-14.283,55.6,21.241,86.978,14.66S221.768,210,246.576,229.588s9.872,73.639,9.872,73.639H66.474Z" transform="translate(-59.722 -171.868)" fill="#a1afe2"/>
          <path id="Trazado_998627" data-name="Trazado 998627" d="M294.937,114.848c15.066,26.276,65.491,8.785,74.8-9.7s-3.484-36.987-34.147-37.36S285.7,98.745,294.937,114.848Z" transform="translate(-216.456 -67.785)" fill="#a1afe2"/>
        </g>
        <g id="Grupo_1183560" data-name="Grupo 1183560" transform="translate(21.694 8.751)">
          <path id="Trazado_998628" data-name="Trazado 998628" d="M126.963,86.341h32.658a.9.9,0,0,0,.891-.959c-.092-1.393-.713-3.807-3.909-3.765,0,0,1.594-9.958-5.02-10s-5.669,8.211-5.669,8.211-.781-7.778-7.565-6.6-5.537,8.615-5.537,8.615-2.268-1.132-3.767.144a3.208,3.208,0,0,0-.959,2.441,3.063,3.063,0,0,0-1.545.229A.893.893,0,0,0,126.963,86.341Z" transform="translate(-126.064 -71.619)" fill="#fff"/>
          <path id="Trazado_998629" data-name="Trazado 998629" d="M497.759,159.312h34.206a1.811,1.811,0,0,0,1.562-2.72c-1.263-2.211-4.013-4.827-9.849-3.925,0,0-1.891-10.7-9.256-8.733s-4.442,10.723-4.442,10.723-2.127-2.538-3.969-1.543A2.664,2.664,0,0,0,504.618,156s-3.434-1.512-3.583,1.383a7.315,7.315,0,0,0-3.666-.059A1.03,1.03,0,0,0,497.759,159.312Z" transform="translate(-375.516 -120.125)" fill="#fff"/>
          <path id="Trazado_998630" data-name="Trazado 998630" d="M338.7,206.42c-.838-1.043-2.464-2.158-5.272-.974,0,0-4.531-9.338-12.045-4.42,0,0,.884-9.89-6.022-8.564s-3.481,11.6-3.481,11.6-2.583-.633-2.749,1.665a3.191,3.191,0,0,0-2.994.562,1.849,1.849,0,0,0-.34.394.665.665,0,0,0,.557,1.025h31.735A.791.791,0,0,0,338.7,206.42Z" transform="translate(-246.95 -152.864)" fill="#fff"/>
        </g>
        <g id="Grupo_1183561" data-name="Grupo 1183561" transform="translate(2.464 0)">
          <path id="Trazado_998631" data-name="Trazado 998631" d="M208.048,203.872a.746.746,0,1,0-.746.746A.746.746,0,0,0,208.048,203.872Z" transform="translate(-161.005 -151.371)" fill="none" stroke="#2e2854" stroke-linecap="round" stroke-linejoin="round" stroke-miterlimit="10" stroke-width="1"/>
          <path id="Trazado_998632" data-name="Trazado 998632" d="M624.816,435.323a.746.746,0,1,0-.746.746A.746.746,0,0,0,624.816,435.323Z" transform="translate(-441.489 -307.137)" fill="none" stroke="#2e2854" stroke-linecap="round" stroke-linejoin="round" stroke-miterlimit="10" stroke-width="1"/>
          <path id="Trazado_998633" data-name="Trazado 998633" d="M460.578,143.7a.746.746,0,1,0-.746.746A.746.746,0,0,0,460.578,143.7Z" transform="translate(-330.957 -110.875)" fill="none" stroke="#2e2854" stroke-linecap="round" stroke-linejoin="round" stroke-miterlimit="10" stroke-width="1"/>
          <path id="Trazado_998634" data-name="Trazado 998634" d="M551.648,300.877a.746.746,0,1,0-.746.746A.746.746,0,0,0,551.648,300.877Z" transform="translate(-392.247 -216.655)" fill="none" stroke="#2e2854" stroke-linecap="round" stroke-linejoin="round" stroke-miterlimit="10" stroke-width="1"/>
          <path id="Trazado_998635" data-name="Trazado 998635" d="M172.66,45.6a.746.746,0,1,0-.746.746A.746.746,0,0,0,172.66,45.6Z" transform="translate(-137.189 -44.856)" fill="none" stroke="#2e2854" stroke-linecap="round" stroke-linejoin="round" stroke-miterlimit="10" stroke-width="1"/>
          <path id="Trazado_998636" data-name="Trazado 998636" d="M586.092,45.6a.746.746,0,1,0-.746.746A.746.746,0,0,0,586.092,45.6Z" transform="translate(-415.427 -44.856)" fill="none" stroke="#2e2854" stroke-linecap="round" stroke-linejoin="round" stroke-miterlimit="10" stroke-width="1"/>
          <path id="Trazado_998637" data-name="Trazado 998637" d="M83.759,120.47a.746.746,0,1,0-.746.746A.746.746,0,0,0,83.759,120.47Z" transform="translate(-77.359 -95.242)" fill="none" stroke="#2e2854" stroke-linecap="round" stroke-linejoin="round" stroke-miterlimit="10" stroke-width="1"/>
          <path id="Trazado_998638" data-name="Trazado 998638" d="M321.791,356.849a.746.746,0,1,0-.746.746A.746.746,0,0,0,321.791,356.849Z" transform="translate(-237.554 -254.324)" fill="none" stroke="#2e2854" stroke-linecap="round" stroke-linejoin="round" stroke-miterlimit="10" stroke-width="1"/>
          <path id="Trazado_998639" data-name="Trazado 998639" d="M153.346,417.375a.746.746,0,1,0-.746.746A.746.746,0,0,0,153.346,417.375Z" transform="translate(-124.191 -295.058)" fill="none" stroke="#2e2854" stroke-linecap="round" stroke-linejoin="round" stroke-miterlimit="10" stroke-width="1"/>
          <line id="Línea_27251" data-name="Línea 27251" transform="translate(6.299 104.224)" fill="none" stroke="#2e2854" stroke-linecap="round" stroke-linejoin="round" stroke-miterlimit="10" stroke-width="2"/>
          <line id="Línea_27252" data-name="Línea 27252" transform="translate(150.354 79.7)" fill="none" stroke="#2e2854" stroke-linecap="round" stroke-linejoin="round" stroke-miterlimit="10" stroke-width="2"/>
          <line id="Línea_27253" data-name="Línea 27253" transform="translate(194.163 94.252)" fill="none" stroke="#2e2854" stroke-linecap="round" stroke-linejoin="round" stroke-miterlimit="10" stroke-width="2"/>
          <line id="Línea_27254" data-name="Línea 27254" transform="translate(0 59.363)" fill="none" stroke="#2e2854" stroke-linecap="round" stroke-linejoin="round" stroke-miterlimit="10" stroke-width="2"/>
          <line id="Línea_27255" data-name="Línea 27255" transform="translate(60.284 43.51)" fill="none" stroke="#2e2854" stroke-linecap="round" stroke-linejoin="round" stroke-miterlimit="10" stroke-width="2"/>
          <line id="Línea_27256" data-name="Línea 27256" transform="translate(197.233 42.562)" fill="none" stroke="#2e2854" stroke-linecap="round" stroke-linejoin="round" stroke-miterlimit="10" stroke-width="2"/>
          <line id="Línea_27257" data-name="Línea 27257" transform="translate(140.187 123.458)" fill="none" stroke="#2e2854" stroke-linecap="round" stroke-linejoin="round" stroke-miterlimit="10" stroke-width="2"/>
          <line id="Línea_27258" data-name="Línea 27258" transform="translate(101.207 37.709)" fill="none" stroke="#2e2854" stroke-linecap="round" stroke-linejoin="round" stroke-miterlimit="10" stroke-width="2"/>
          <line id="Línea_27259" data-name="Línea 27259" transform="translate(58.701 8.752)" fill="none" stroke="#2e2854" stroke-linecap="round" stroke-linejoin="round" stroke-miterlimit="10" stroke-width="2"/>
          <line id="Línea_27260" data-name="Línea 27260" transform="translate(187.531 11.323)" fill="none" stroke="#2e2854" stroke-linecap="round" stroke-linejoin="round" stroke-miterlimit="10" stroke-width="2"/>
        </g>
      </g>
      <g id="Grupo_1183582" data-name="Grupo 1183582" transform="translate(96.356 102.311)">
        <g id="Grupo_1183570" data-name="Grupo 1183570" transform="translate(0 41.778)">
          <g id="Grupo_1183564" data-name="Grupo 1183564" transform="translate(36.104 14.932)">
            <path id="Trazado_998640" data-name="Trazado 998640" d="M289.5,400.341a1.094,1.094,0,0,1-1.016-.688l-1.673-4.176a1.094,1.094,0,0,1,2.031-.814l1.673,4.176a1.095,1.095,0,0,1-1.015,1.5Z" transform="translate(-286.041 -393.977)" fill="#423978"/>
            <path id="Trazado_998641" data-name="Trazado 998641" d="M294.315,462.082l.663-3.67,3.8.3,2.624,3.374Z" transform="translate(-291.141 -437.341)" fill="#2e2854"/>
            <g id="Grupo_1183563" data-name="Grupo 1183563" transform="translate(0 3.045)">
              <path id="Trazado_998642" data-name="Trazado 998642" d="M287.029,403.585a2.4,2.4,0,0,1,3.158.817s1.4.5,2.214,4.175,1.18,9.97.367,12.567-3.411,2.991-4.7-.3a12.557,12.557,0,0,1-.675-4.525,5.59,5.59,0,0,1-2.788-5.038c0-3.673,1.364-4.828,1.364-4.828S285.405,404.441,287.029,403.585Z" transform="translate(-284.609 -403.288)" fill="#2e2854"/>
              <path id="Trazado_998643" data-name="Trazado 998643" d="M293.428,406.651a1.673,1.673,0,1,0-1.673,1.673A1.673,1.673,0,0,0,293.428,406.651Z" transform="translate(-288.293 -404.425)" fill="#423978"/>
              <circle id="Elipse_13647" data-name="Elipse 13647" cx="0.813" cy="0.813" r="0.813" transform="translate(2.361 8.857)" fill="#423978"/>
            </g>
          </g>
          <g id="Grupo_1183565" data-name="Grupo 1183565" transform="translate(0 13.023)">
            <path id="Trazado_998644" data-name="Trazado 998644" d="M202.284,393.533l-5.273-5.392s-4.752,5.824-15.12,10.062l-.169,3.988,2.46,2.519S195.87,400.852,202.284,393.533Z" transform="translate(-179.262 -388.141)" fill="#e8614e"/>
            <path id="Trazado_998645" data-name="Trazado 998645" d="M174.2,419.907l3.148,8.658,1.771-3.148-2.291-6.506C175.988,419.254,175.115,419.588,174.2,419.907Z" transform="translate(-174.2 -408.848)" fill="#2e2854"/>
            <path id="Trazado_998646" data-name="Trazado 998646" d="M216.152,420.917s1.211.236,1.27-.679" transform="translate(-202.434 -409.742)" fill="none" stroke="#2e2854" stroke-linecap="round" stroke-linejoin="round" stroke-miterlimit="10" stroke-width="0.5"/>
          </g>
          <g id="Grupo_1183569" data-name="Grupo 1183569" transform="translate(14.924)">
            <g id="Grupo_1183567" data-name="Grupo 1183567">
              <path id="Trazado_998647" data-name="Trazado 998647" d="M226.5,348.315s-1.522,5.09-6.664,11.544l7.084,8.028a38.841,38.841,0,0,0,7.542-8.791l4.054,8.791,9.865-5.457-5.824-13.38Z" transform="translate(-219.84 -348.315)" fill="#ffc55c"/>
              <g id="Grupo_1183566" data-name="Grupo 1183566" transform="translate(0 10.042)">
                <path id="Trazado_998648" data-name="Trazado 998648" d="M220.99,379.024c-.362.491-.744.991-1.15,1.5l7.084,8.028s.689-.563,1.722-1.576Z" transform="translate(-219.84 -379.024)" fill="#f99645"/>
                <path id="Trazado_998649" data-name="Trazado 998649" d="M284.254,386.2l-10,5.261.886,1.922,9.865-5.457Z" transform="translate(-256.461 -383.853)" fill="#f99645"/>
              </g>
            </g>
            <g id="Grupo_1183568" data-name="Grupo 1183568" transform="translate(5.274 3.293)">
              <path id="Trazado_998650" data-name="Trazado 998650" d="M238.615,358.384a47.312,47.312,0,0,0,16.411.433" transform="translate(-237.749 -358.384)" fill="none" stroke="#2e2854" stroke-linecap="round" stroke-linejoin="round" stroke-miterlimit="10" stroke-width="0.5"/>
              <path id="Trazado_998651" data-name="Trazado 998651" d="M235.967,361.3s4.014,2.243,5.116-2.912" transform="translate(-235.967 -358.384)" fill="none" stroke="#2e2854" stroke-linecap="round" stroke-linejoin="round" stroke-miterlimit="10" stroke-width="0.5"/>
              <path id="Trazado_998652" data-name="Trazado 998652" d="M241.5,382.79A38.842,38.842,0,0,0,249.045,374a27.847,27.847,0,0,0,1.85-3.539" transform="translate(-239.693 -366.51)" fill="none" stroke="#2e2854" stroke-linecap="round" stroke-linejoin="round" stroke-miterlimit="10" stroke-width="0.5"/>
            </g>
          </g>
        </g>
        <g id="Grupo_1183576" data-name="Grupo 1183576" transform="translate(20.343 0)">
          <path id="Trazado_998653" data-name="Trazado 998653" d="M246.813,234.824s-1.259,1.2-2.335.231-.439-2.755-.439-2.755l-1.4-4.25s-1.312-5.51,3.489-5.483c0,0-.321-1.141.013-1.279s.669,1.22.669,1.22.118-1.22.708-1.23.59,1.112.59,1.112a6.139,6.139,0,0,0,2.243-1.112c1.437-.994,4.25-1.348,6.218,1.525,0,0,3.739-.02,3.581,2.656s-2.6,4.927-2.6,4.927Z" transform="translate(-240.494 -220.556)" fill="#2e2854"/>
          <g id="Grupo_1183571" data-name="Grupo 1183571" transform="translate(8.707 16.453)">
            <path id="Trazado_998654" data-name="Trazado 998654" d="M263.58,270.871l-.544,3.8,3.161.374.413-4.172Z" transform="translate(-263.036 -270.871)" fill="#e8614e"/>
            <path id="Trazado_998655" data-name="Trazado 998655" d="M267.087,272.733l.184-1.862h-3.03l-.223,1.558A5.057,5.057,0,0,0,267.087,272.733Z" transform="translate(-263.697 -270.871)" fill="#d85345"/>
          </g>
          <g id="Grupo_1183575" data-name="Grupo 1183575" transform="translate(0 6.811)">
            <path id="Trazado_998656" data-name="Trazado 998656" d="M287.006,246.757s1.425-.977,1.423.75c0,2.441-2.446,3.657-2.446,3.657Z" transform="translate(-269.772 -244.815)" fill="#e8614e"/>
            <path id="Trazado_998657" data-name="Trazado 998657" d="M240.525,242.645s-2.639-2.435-3.857.256c-1.2,2.659,2.073,5.149,3.935,3.968a7.786,7.786,0,0,0,7.267,4.959c5.562.026,5.9-6.48,5.772-8.5a4.147,4.147,0,0,1-3.555.144c-2.027-.807-2.125-2.066-2.755-2.086s-.335,1.535-1.417,1.515-2.125-1.515-2.125-1.515-.177,2.539-.905,2.342-.866-1.4-1.358-1.712S240.525,242.645,240.525,242.645Z" transform="translate(-236.41 -241.385)" fill="#e8614e"/>
            <g id="Grupo_1183572" data-name="Grupo 1183572" transform="translate(1.302 1.93)">
              <path id="Trazado_998658" data-name="Trazado 998658" d="M240.391,248.072a1.8,1.8,0,0,1,2.243-.59" transform="translate(-240.391 -247.286)" fill="none" stroke="#2e2854" stroke-linecap="round" stroke-linejoin="round" stroke-miterlimit="10" stroke-width="0.5"/>
              <path id="Trazado_998659" data-name="Trazado 998659" d="M244.208,249.016a1.809,1.809,0,0,1-.745-1.526" transform="translate(-242.457 -247.423)" fill="none" stroke="#2e2854" stroke-linecap="round" stroke-linejoin="round" stroke-miterlimit="10" stroke-width="0.5"/>
            </g>
            <g id="Grupo_1183573" data-name="Grupo 1183573" transform="translate(8.543 2.693)">
              <path id="Trazado_998660" data-name="Trazado 998660" d="M275.376,250.372a5.181,5.181,0,0,1,.42,1.22h-.564" transform="translate(-271.08 -250.126)" fill="none" stroke="#2e2854" stroke-linecap="round" stroke-linejoin="round" stroke-miterlimit="10" stroke-width="0.5"/>
              <path id="Trazado_998661" data-name="Trazado 998661" d="M266.757,257.346s2.361,1.22,4.211,0" transform="translate(-265.376 -254.819)" fill="none" stroke="#2e2854" stroke-linecap="round" stroke-linejoin="round" stroke-miterlimit="10" stroke-width="0.5"/>
              <path id="Trazado_998662" data-name="Trazado 998662" d="M262.535,250.154a1.567,1.567,0,0,1,2.44.118" transform="translate(-262.535 -249.619)" fill="none" stroke="#2e2854" stroke-linecap="round" stroke-linejoin="round" stroke-miterlimit="10" stroke-width="0.5"/>
              <path id="Trazado_998663" data-name="Trazado 998663" d="M279.634,250.927a1.351,1.351,0,0,1,2.076.125" transform="translate(-274.043 -250.195)" fill="none" stroke="#2e2854" stroke-linecap="round" stroke-linejoin="round" stroke-miterlimit="10" stroke-width="0.5"/>
            </g>
            <g id="Grupo_1183574" data-name="Grupo 1183574" transform="translate(5.769 5.392)">
              <path id="Trazado_998664" data-name="Trazado 998664" d="M281.1,259.755a1.469,1.469,0,0,0-.33,2.9,6.666,6.666,0,0,0,1.391-2.445A1.463,1.463,0,0,0,281.1,259.755Z" transform="translate(-271.268 -259.14)" fill="#d85345"/>
              <path id="Trazado_998665" data-name="Trazado 998665" d="M254.051,259.343a1.469,1.469,0,1,0,1.469-1.469A1.469,1.469,0,0,0,254.051,259.343Z" transform="translate(-254.051 -257.874)" fill="#d85345"/>
            </g>
          </g>
        </g>
        <g id="Grupo_1183581" data-name="Grupo 1183581" transform="translate(5.24 11.88)">
          <path id="Trazado_998666" data-name="Trazado 998666" d="M237.809,279.54h0l-3.869.151-3.347-.924h0a23.477,23.477,0,0,0-12.648,5.939l.62,3.58,3.539,1.73h0a24.485,24.485,0,0,1,2.391-1.363,133.43,133.43,0,0,1-1.526,14.3,53.868,53.868,0,0,0,20.232,1.023S245.954,284.277,237.809,279.54Z" transform="translate(-208.881 -271.612)" fill="#49ad9f"/>
          <g id="Grupo_1183578" data-name="Grupo 1183578" transform="translate(0 13.094)">
            <path id="Trazado_998667" data-name="Trazado 998667" d="M203.448,302.239l-4.159-5.31a29.909,29.909,0,0,0-8.4,13.231c-.616,1.627-.879,2.873-.459,2.938s.774-1.1.774-1.1c-.208,1.245-.334,2.62.131,2.574.6-.059.929-1.9.929-1.9-.108,1.34-.153,2.594.3,2.621.659.039.758-1.107.817-2.042a9.662,9.662,0,0,1,.413-2.017c.039,1.358.177,3.892.826,3.793s.374-.94.374-2.2a6.7,6.7,0,0,1,.281-2.051s.933,1.326,1.51.958-.6-1.761-.6-1.761C197.79,306.205,201.019,303.79,203.448,302.239Z" transform="translate(-190.225 -296.929)" fill="#e8614e"/>
            <g id="Grupo_1183577" data-name="Grupo 1183577" transform="translate(0 2.213)">
              <path id="Trazado_998668" data-name="Trazado 998668" d="M196.459,342.1c.049-.606.11-1.147.144-1.447" transform="translate(-194.421 -328.566)" fill="none" stroke="#2e2854" stroke-linecap="round" stroke-linejoin="round" stroke-miterlimit="10" stroke-width="0.5"/>
              <path id="Trazado_998669" data-name="Trazado 998669" d="M193.217,340.576c.061-.362.207-.975.269-1.19" transform="translate(-192.239 -327.716)" fill="none" stroke="#2e2854" stroke-linecap="round" stroke-linejoin="round" stroke-miterlimit="10" stroke-width="0.5"/>
              <path id="Trazado_998670" data-name="Trazado 998670" d="M197.093,303.7a29.83,29.83,0,0,0-6.2,11.018c-.616,1.626-.879,2.873-.459,2.938s.774-1.1.774-1.1c-.208,1.245-.334,2.62.131,2.574.6-.059.929-1.9.929-1.9-.108,1.34-.153,2.594.3,2.621.659.039.758-1.107.817-2.042a9.662,9.662,0,0,1,.413-2.017c.039,1.358.177,3.892.826,3.793s.374-.94.374-2.2a6.7,6.7,0,0,1,.281-2.051s.933,1.326,1.51.958-.6-1.761-.6-1.761" transform="translate(-190.225 -303.697)" fill="none" stroke="#2e2854" stroke-linecap="round" stroke-linejoin="round" stroke-miterlimit="10" stroke-width="0.5"/>
            </g>
          </g>
          <path id="Trazado_998671" data-name="Trazado 998671" d="M259.653,278.149a25.76,25.76,0,0,0-3.032.24c1.186,1.16,4.3,3.608,7.216.774A7.84,7.84,0,0,0,259.653,278.149Z" transform="translate(-234.909 -271.195)" fill="#e8614e"/>
          <path id="Trazado_998672" data-name="Trazado 998672" d="M237.973,305.762a35.771,35.771,0,0,1,3.447-1.574Z" transform="translate(-222.359 -288.72)" fill="none" stroke="#2e2854" stroke-linecap="round" stroke-linejoin="round" stroke-miterlimit="10" stroke-width="0.5"/>
          <path id="Trazado_998673" data-name="Trazado 998673" d="M230.662,310.364h0A24.484,24.484,0,0,1,233.053,309Z" transform="translate(-217.439 -291.96)" fill="none" stroke="#2e2854" stroke-linecap="round" stroke-linejoin="round" stroke-miterlimit="10" stroke-width="0.5"/>
          <g id="Grupo_1183580" data-name="Grupo 1183580" transform="translate(28.928)">
            <path id="Trazado_998674" data-name="Trazado 998674" d="M281.09,286.775a48.754,48.754,0,0,0,5.678-2.65l.749-4.359-3.576-2.679c-3.073.887-5.252,1.362-5.252,1.362Z" transform="translate(-278.689 -270.482)" fill="#49ad9f"/>
            <path id="Trazado_998675" data-name="Trazado 998675" d="M297.579,270.531a133.509,133.509,0,0,0,12.569-7.857s2.44-.957,2.177-1.351-2.062.435-2.062.435,3.056-1.707,2.653-2.17-3.162,1.1-3.162,1.1,3.34-2.083,2.907-2.614-3.538,1.576-3.538,1.576,3.174-2.167,2.692-2.689-3.935,1.929-3.935,1.929.374-1.889-.256-1.928-1.417,2.3-1.417,2.3a74.99,74.99,0,0,1-11.454,4.23Z" transform="translate(-289.499 -256.887)" fill="#e8614e"/>
            <g id="Grupo_1183579" data-name="Grupo 1183579" transform="translate(11.488)">
              <path id="Trazado_998676" data-name="Trazado 998676" d="M313.819,268.607c4.969-2.936,9.16-5.933,9.16-5.933s2.44-.957,2.178-1.351-2.062.435-2.062.435,3.056-1.707,2.653-2.17-3.162,1.1-3.162,1.1,3.34-2.083,2.907-2.614-3.538,1.576-3.538,1.576,3.174-2.167,2.692-2.689-3.935,1.929-3.935,1.929.374-1.889-.256-1.928-1.417,2.3-1.417,2.3" transform="translate(-313.819 -256.887)" fill="none" stroke="#2e2854" stroke-linecap="round" stroke-linejoin="round" stroke-miterlimit="10" stroke-width="0.5"/>
              <path id="Trazado_998677" data-name="Trazado 998677" d="M337.505,263.912a15.284,15.284,0,0,1,1.673,2.9" transform="translate(-329.76 -261.615)" fill="none" stroke="#2e2854" stroke-linecap="round" stroke-linejoin="round" stroke-miterlimit="10" stroke-width="0.5"/>
              <path id="Trazado_998678" data-name="Trazado 998678" d="M335.038,265.874a2.481,2.481,0,0,0-.146-2.864" transform="translate(-328.001 -261.008)" fill="none" stroke="#2e2854" stroke-linecap="round" stroke-linejoin="round" stroke-miterlimit="10" stroke-width="0.5"/>
            </g>
          </g>
        </g>
      </g>
      <g id="Grupo_1183616" data-name="Grupo 1183616" transform="translate(143.867 58.721)">
        <g id="Grupo_1183602" data-name="Grupo 1183602" transform="translate(0 24.22)">
          <g id="Grupo_1183597" data-name="Grupo 1183597">
            <g id="Grupo_1183583" data-name="Grupo 1183583" transform="translate(0 48.144)">
              <path id="Trazado_998679" data-name="Trazado 998679" d="M337.385,418.431l-3.5.276-3.122-1.863s.133-.8.369-2.147h0l4.012-.122,2.815,1.963h0Z" transform="translate(-327.077 -379.904)" fill="#d85648"/>
              <path id="Trazado_998680" data-name="Trazado 998680" d="M328.973,425.823l-9.483-2.642,3.686-1.666L329.8,423.1Z" transform="translate(-319.49 -384.575)" fill="#fff"/>
              <path id="Trazado_998681" data-name="Trazado 998681" d="M331.891,343.342c1.119-6.393,4.56-25.138,7.161-29.558,3.148-5.352,10.783-5.234,10.783-5.234l-11.116,36.634Z" transform="translate(-327.836 -308.549)" fill="#465aaf"/>
            </g>
            <g id="Grupo_1183584" data-name="Grupo 1183584" transform="translate(16.686 19.905)">
              <path id="Trazado_998682" data-name="Trazado 998682" d="M431.25,226.487a12.654,12.654,0,0,1,1.945-1.972l3.748-.7,2.99-1.528a11.2,11.2,0,0,1,7.451,4.2c5.51,6.3,4.315,20.228,2.73,28.805a96.936,96.936,0,0,1-16.306.841c-1.729-.086-3.468-.206-5.181-.349l-1.491-19.551C428.292,232.814,429.161,229.118,431.25,226.487Z" transform="translate(-408.621 -222.254)" fill="#fff"/>
              <path id="Trazado_998683" data-name="Trazado 998683" d="M384.251,272.434c2.511-1.662,3.758-4.468,4.78-7.49a16.462,16.462,0,0,0,3.305.551c-1,5.622-2.042,13.121-1.814,19h0c-10.5-.875-20.005-2.6-20.005-2.6C372.052,275.615,378.9,275.976,384.251,272.434Z" transform="translate(-370.517 -250.965)" fill="#d85648"/>
              <path id="Trazado_998684" data-name="Trazado 998684" d="M431.7,265.337a115.147,115.147,0,0,1,1.813-15.419c.839-4.722,1.648-8.12,1.648-8.12" transform="translate(-411.693 -235.388)" fill="none" stroke="#2e2854" stroke-linecap="round" stroke-linejoin="round" stroke-miterlimit="10" stroke-width="0.5"/>
              <path id="Trazado_998685" data-name="Trazado 998685" d="M452.4,222.223c-.928,1.242-3.345,3.778-6.738,2.232A9.456,9.456,0,0,1,452.4,222.223Z" transform="translate(-421.092 -222.195)" fill="#e8614e"/>
            </g>
            <g id="Grupo_1183585" data-name="Grupo 1183585" transform="translate(3.457 47.357)">
              <path id="Trazado_998686" data-name="Trazado 998686" d="M340.31,419.986s.1-.784.267-2.092h0l3.694-.19,2.747,1.905h0l-.582,1.811h0l-4.042.074Z" transform="translate(-336.959 -381.223)" fill="#e8614e"/>
              <path id="Trazado_998687" data-name="Trazado 998687" d="M338.722,428.665l-8.66-2.333,3.351-1.648,6.127,1.435Z" transform="translate(-330.062 -385.921)" fill="#fff"/>
              <path id="Trazado_998688" data-name="Trazado 998688" d="M341.127,342.814c.646-5,2.325-17.694,3.511-23.685,1.5-7.556,3.813-12.984,14.99-12.987,13.065,0,32.6,5.587,32.6,5.587s-1.431,11.309-8.554,11.309h-9.051s-11.924-1.705-18.732-4.421l-8.325,25.912Z" transform="translate(-337.509 -306.143)" fill="#5767bf"/>
            </g>
            <g id="Grupo_1183588" data-name="Grupo 1183588" transform="translate(23.068 26.598)">
              <g id="Grupo_1183587" data-name="Grupo 1183587" transform="translate(0 7.884)">
                <path id="Trazado_998689" data-name="Trazado 998689" d="M397.361,279.114c3.673-1.1,9.288-2.387,10.94-5.536a20.058,20.058,0,0,0,1.341-6.458h0l5.926-.35L421,269.385c-.611,3.071-1.606,6.163-3.23,8.129-4.25,5.142-13.065,6.506-16.739,6.559s-6.165,1.03-6.874,2.545-.82,2.04-1.24,2.079-.3-.721-.3-.721-.257,1.581-.939,1.594c-.628.012-.484-1.227-.457-1.426-.026.177-.2,1.159-.8,1.111-.668-.053-.379-2.033.2-4.211S393.688,280.216,397.361,279.114Z" transform="translate(-390.035 -266.77)" fill="#e8614e"/>
                <g id="Grupo_1183586" data-name="Grupo 1183586" transform="translate(0 10.164)">
                  <path id="Trazado_998690" data-name="Trazado 998690" d="M397.94,326.177a5.744,5.744,0,0,1,.892-2.643" transform="translate(-395.355 -315.136)" fill="none" stroke="#2e2854" stroke-linecap="round" stroke-linejoin="round" stroke-miterlimit="10" stroke-width="0.5"/>
                  <path id="Trazado_998691" data-name="Trazado 998691" d="M393.684,324.965a8.133,8.133,0,0,1,1.109-3.437" transform="translate(-392.491 -313.786)" fill="none" stroke="#2e2854" stroke-linecap="round" stroke-linejoin="round" stroke-miterlimit="10" stroke-width="0.5"/>
                  <path id="Trazado_998692" data-name="Trazado 998692" d="M417.772,299.625c-4.25,5.142-13.065,6.506-16.739,6.559s-6.165,1.03-6.874,2.545-.82,2.04-1.24,2.079-.3-.721-.3-.721-.257,1.581-.939,1.594c-.628.012-.484-1.227-.457-1.426-.026.177-.2,1.159-.8,1.111-.668-.053-.379-2.033.2-4.211s3.07-4.828,6.742-5.929" transform="translate(-390.035 -299.045)" fill="none" stroke="#2e2854" stroke-linecap="round" stroke-linejoin="round" stroke-miterlimit="10" stroke-width="0.5"/>
                  <path id="Trazado_998693" data-name="Trazado 998693" d="M466.209,297.852s-.1,1.3-1.281.827" transform="translate(-440.438 -297.852)" fill="none" stroke="#2e2854" stroke-linecap="round" stroke-linejoin="round" stroke-miterlimit="10" stroke-width="0.5"/>
                </g>
              </g>
              <path id="Trazado_998694" data-name="Trazado 998694" d="M450.649,242.66l11.675.63a56.387,56.387,0,0,1-.967,9.869A20.64,20.64,0,0,1,450,250.894C450.308,247.539,450.382,244.038,450.649,242.66Z" transform="translate(-430.388 -242.66)" fill="#fff"/>
              <path id="Trazado_998695" data-name="Trazado 998695" d="M487.7,244.586" transform="translate(-455.76 -243.956)" fill="none" stroke="#2e2854" stroke-linecap="round" stroke-linejoin="round" stroke-miterlimit="10" stroke-width="0.5"/>
              <path id="Trazado_998696" data-name="Trazado 998696" d="M450,250.894c.312-3.355.386-6.856.653-8.234" transform="translate(-430.388 -242.66)" fill="none" stroke="#2e2854" stroke-linecap="round" stroke-linejoin="round" stroke-miterlimit="10" stroke-width="0.5"/>
              <path id="Trazado_998697" data-name="Trazado 998697" d="M450,267.84" transform="translate(-430.388 -259.606)" fill="none" stroke="#2e2854" stroke-linecap="round" stroke-linejoin="round" stroke-miterlimit="10" stroke-width="0.5"/>
              <path id="Trazado_998698" data-name="Trazado 998698" d="M485.7,244.586a56.388,56.388,0,0,1-.967,9.869" transform="translate(-453.769 -243.956)" fill="none" stroke="#2e2854" stroke-linecap="round" stroke-linejoin="round" stroke-miterlimit="10" stroke-width="0.5"/>
            </g>
            <g id="Grupo_1183596" data-name="Grupo 1183596" transform="translate(33.098)">
              <g id="Grupo_1183589" data-name="Grupo 1183589" transform="translate(9.184 18.056)">
                <path id="Trazado_998699" data-name="Trazado 998699" d="M451.959,216.539l.944,3.07-3.03.918-1.082-3.437Z" transform="translate(-448.791 -216.539)" fill="#e8614e"/>
                <path id="Trazado_998700" data-name="Trazado 998700" d="M451.959,216.539l.344,1.118a5.446,5.446,0,0,1-3.136.627l-.376-1.194Z" transform="translate(-448.791 -216.539)" fill="#d85345"/>
              </g>
              <g id="Grupo_1183595" data-name="Grupo 1183595">
                <path id="Trazado_998701" data-name="Trazado 998701" d="M436.607,176.938a1.647,1.647,0,0,0,1.981-1.062c.472-1.437-.335-4.617-.335-4.617l-.079-2.683s.944-3.463-.61-5.431-3.07.1-3.07.1-.2-1.437-.531-1.456-.216,1.535-.216,1.535a5.953,5.953,0,0,0-4.781-1.987c-3.03.2-4.774-.27-6.2,2.145-1.81,3.07,1.515,6.828,1.515,6.828Z" transform="translate(-421.731 -161.323)" fill="#2e2854"/>
                <g id="Grupo_1183594" data-name="Grupo 1183594" transform="translate(0 5.226)">
                  <path id="Trazado_998702" data-name="Trazado 998702" d="M441.053,179.293s-.059,2.224-.807,2.145-.551-2.7-1.141-2.794-.256,1.161-.984,1.22-.728-2.125-.728-2.125a3.271,3.271,0,0,1-4.23-.433s-1.555,4.368-5.214,2.775c0,0-1.129,12.912,8.559,10.822C444.535,189.17,441.053,179.293,441.053,179.293Z" transform="translate(-425.553 -177.305)" fill="#e8614e"/>
                  <g id="Grupo_1183591" data-name="Grupo 1183591" transform="translate(15.5 1.197)">
                    <path id="Trazado_998703" data-name="Trazado 998703" d="M468.106,181.756s3.433-2.2,4.506.741c1.043,2.86-1.771,5.693-4.067,3.975Z" transform="translate(-468.106 -180.965)" fill="#e8614e"/>
                    <g id="Grupo_1183590" data-name="Grupo 1183590" transform="translate(1.151 2.077)">
                      <path id="Trazado_998704" data-name="Trazado 998704" d="M473.814,187.9s-.348-.807-2.187-.522" transform="translate(-471.627 -187.318)" fill="none" stroke="#2e2854" stroke-linecap="round" stroke-linejoin="round" stroke-miterlimit="10" stroke-width="0.5"/>
                      <path id="Trazado_998705" data-name="Trazado 998705" d="M474.124,189.285a2.868,2.868,0,0,0,.4-1.854" transform="translate(-473.307 -187.394)" fill="none" stroke="#2e2854" stroke-linecap="round" stroke-linejoin="round" stroke-miterlimit="10" stroke-width="0.5"/>
                    </g>
                  </g>
                  <path id="Trazado_998706" data-name="Trazado 998706" d="M423.436,187.033a1.812,1.812,0,0,0-2.657,1.431c-.413,2.4.964,4.388,3.266,3.306Z" transform="translate(-420.707 -183.722)" fill="#e8614e"/>
                  <g id="Grupo_1183592" data-name="Grupo 1183592" transform="translate(3.635 3.759)">
                    <path id="Trazado_998707" data-name="Trazado 998707" d="M443,188.8a3.744,3.744,0,0,1-.5,1.725.94.94,0,0,0,.866.131" transform="translate(-439.004 -188.799)" fill="none" stroke="#2e2854" stroke-linecap="round" stroke-linejoin="round" stroke-miterlimit="10" stroke-width="0.5"/>
                    <path id="Trazado_998708" data-name="Trazado 998708" d="M453.327,189.841a1.765,1.765,0,0,0-2.65.144" transform="translate(-444.511 -189.139)" fill="none" stroke="#2e2854" stroke-linecap="round" stroke-linejoin="round" stroke-miterlimit="10" stroke-width="0.5"/>
                    <path id="Trazado_998709" data-name="Trazado 998709" d="M434.314,191s-1.141-1.39-2.492.223" transform="translate(-431.822 -189.907)" fill="none" stroke="#2e2854" stroke-linecap="round" stroke-linejoin="round" stroke-miterlimit="10" stroke-width="0.5"/>
                    <path id="Trazado_998710" data-name="Trazado 998710" d="M444.423,199.053a7.012,7.012,0,0,1-3.819.436" transform="translate(-437.732 -195.7)" fill="none" stroke="#2e2854" stroke-linecap="round" stroke-linejoin="round" stroke-miterlimit="10" stroke-width="0.5"/>
                  </g>
                  <g id="Grupo_1183593" data-name="Grupo 1183593" transform="translate(3.232 8.265)">
                    <path id="Trazado_998711" data-name="Trazado 998711" d="M456.072,204.094a1.515,1.515,0,1,1,1.515,1.515A1.515,1.515,0,0,1,456.072,204.094Z" transform="translate(-447.74 -202.579)" fill="#d85345"/>
                    <path id="Trazado_998712" data-name="Trazado 998712" d="M430.591,205.745a1.515,1.515,0,1,1,1.53,2.577A7.651,7.651,0,0,1,430.591,205.745Z" transform="translate(-430.591 -204.482)" fill="#d85345"/>
                  </g>
                </g>
              </g>
            </g>
          </g>
          <g id="Grupo_1183601" data-name="Grupo 1183601" transform="translate(4.931 28.939)">
            <path id="Trazado_998713" data-name="Trazado 998713" d="M391.446,357.812h32.7a2.115,2.115,0,0,1,2.115,2.115h0a2.115,2.115,0,0,1-2.115,2.115h-32.7a2.115,2.115,0,0,1-2.115-2.115h0A2.115,2.115,0,0,1,391.446,357.812Z" transform="translate(-371.424 -322.498)" fill="#e35d76"/>
            <path id="Trazado_998714" data-name="Trazado 998714" d="M342.19,434.816l-6.693-1.784a.683.683,0,0,1-.465-.9h0a.683.683,0,0,1,.819-.424l6.788,1.829Z" transform="translate(-334.852 -372.217)" fill="#e35d76"/>
            <g id="Grupo_1183598" data-name="Grupo 1183598" transform="translate(0 0.458)">
              <path id="Trazado_998715" data-name="Trazado 998715" d="M502.95,300a.7.7,0,0,0,.7-.7V255.407a2.8,2.8,0,0,1,2.793-2.793h3.227a.7.7,0,1,0,0-1.393H506.44a4.191,4.191,0,0,0-4.186,4.186V299.3A.7.7,0,0,0,502.95,300Z" transform="translate(-447.421 -251.221)" fill="#5d4082"/>
              <path id="Trazado_998716" data-name="Trazado 998716" d="M398.4,372.141H432.59a.7.7,0,1,0,0-1.393H398.4a.7.7,0,0,0,0,1.393Z" transform="translate(-377.06 -331.662)" fill="#5d4082"/>
              <path id="Trazado_998717" data-name="Trazado 998717" d="M391.911,360.2a.7.7,0,0,0,.693-.636l3.232-37.116a2.967,2.967,0,0,1,2.354-2.631,83.224,83.224,0,0,1,29.891-.584.7.7,0,1,0,.28-1.364,84.807,84.807,0,0,0-30.449.584,4.368,4.368,0,0,0-3.463,3.875l-3.232,37.116a.7.7,0,0,0,.633.754C391.87,360.2,391.89,360.2,391.911,360.2Z" transform="translate(-372.691 -295.344)" fill="#5d4082"/>
              <path id="Trazado_998718" data-name="Trazado 998718" d="M342.35,407.932a.7.7,0,0,0,.657-.465l5.815-16.514,6.31,1.212a.7.7,0,1,0,.263-1.368l-6.9-1.325a.7.7,0,0,0-.788.453l-5.8,16.472-6.462-1.723a.7.7,0,1,0-.359,1.346l7.084,1.889A.67.67,0,0,0,342.35,407.932Z" transform="translate(-334.57 -344.255)" fill="#5d4082"/>
              <circle id="Elipse_13648" data-name="Elipse 13648" cx="2.755" cy="2.755" r="2.755" transform="translate(52.775 45.324)" fill="#5d4082"/>
              <path id="Trazado_998719" data-name="Trazado 998719" d="M387.491,443.492a1.914,1.914,0,1,1,1.914,1.914A1.914,1.914,0,0,1,387.491,443.492Z" transform="translate(-370.186 -379.331)" fill="#5d4082"/>
            </g>
            <path id="Trazado_998720" data-name="Trazado 998720" d="M527.617,249.82h-9.684a.653.653,0,0,0-.653.653v1a.653.653,0,0,0,.653.653h9.684a1.154,1.154,0,0,0,1.154-1.154h0A1.154,1.154,0,0,0,527.617,249.82Z" transform="translate(-457.533 -249.82)" fill="#2e2854"/>
            <g id="Grupo_1183600" data-name="Grupo 1183600" transform="translate(32.232 25.239)">
              <path id="Trazado_998721" data-name="Trazado 998721" d="M433.138,350.3a23.3,23.3,0,1,0,23.3-23.3A23.3,23.3,0,0,0,433.138,350.3Zm1.989,0a21.308,21.308,0,1,1,21.308,21.308A21.332,21.332,0,0,1,435.127,350.3Z" transform="translate(-433.138 -327.003)" fill="#2e2854"/>
              <g id="Grupo_1183599" data-name="Grupo 1183599" transform="translate(3.979 3.979)">
                <path id="Trazado_998722" data-name="Trazado 998722" d="M445.306,358.489a19.318,19.318,0,1,0,19.318-19.318A19.34,19.34,0,0,0,445.306,358.489Zm1.194,0a18.125,18.125,0,1,1,18.124,18.124A18.145,18.145,0,0,1,446.5,358.489Z" transform="translate(-445.306 -339.171)" fill="#fff"/>
                <path id="Trazado_998723" data-name="Trazado 998723" d="M533.513,360.215h0a.709.709,0,0,1,0-1l3.117-3.117,1,1-3.117,3.117A.709.709,0,0,1,533.513,360.215Z" transform="translate(-504.529 -350.561)" fill="#fff"/>
              </g>
            </g>
            <path id="Trazado_998724" data-name="Trazado 998724" d="M371.279,432.581a7.215,7.215,0,1,0,7.215-7.215A7.215,7.215,0,0,0,371.279,432.581Zm1.791,0a5.424,5.424,0,1,1,5.424,5.424A5.43,5.43,0,0,1,373.07,432.581Z" transform="translate(-359.275 -367.962)" fill="#2e2854"/>
          </g>
        </g>
        <g id="Grupo_1183615" data-name="Grupo 1183615" transform="translate(67.735)">
          <g id="Grupo_1183604" data-name="Grupo 1183604" transform="translate(15.632 57.137)">
            <path id="Trazado_998725" data-name="Trazado 998725" d="M665.227,440.716l1.229-3.957,5.2-.922h0c.812,1.316,1.317,2.1,1.317,2.1l-2.529,3.855-3.913.81S666.042,441.915,665.227,440.716Z" transform="translate(-635.536 -378.987)" fill="#e35d76"/>
            <path id="Trazado_998726" data-name="Trazado 998726" d="M582.623,449.283l4.339-1.642,3.888,1.519h0l-.123,2.194-4.919,1.717-3.03-1.481s-.061-.842-.155-2.306Z" transform="translate(-579.944 -386.931)" fill="#e35d76"/>
            <path id="Trazado_998727" data-name="Trazado 998727" d="M585.214,462.427H574.431l2.833-3.2,7.949-.236Z" transform="translate(-574.431 -394.572)" fill="#2e2854"/>
            <path id="Trazado_998728" data-name="Trazado 998728" d="M676.461,445.112l-8.918,6.062.546-4.237,6.442-4.664Z" transform="translate(-637.095 -383.318)" fill="#2e2854"/>
            <path id="Trazado_998729" data-name="Trazado 998729" d="M579.818,295.619c.157-14.3,1.023-33.239,1.023-33.239l20.385-.393s-1.023,27.469,1.93,35.891c2.268,6.468,8.322,16.6,11.01,20.959l-6.428,4.879c-3.3-4.855-11.955-18.085-15.405-28.009-.557-1.6-1.056-3.253-1.5-4.91l-1.877,33.42-8.227.123C580.4,319.268,579.7,306.714,579.818,295.619Z" transform="translate(-578.047 -261.986)" fill="#5767bf"/>
            <g id="Grupo_1183603" data-name="Grupo 1183603" transform="translate(3.148 2.952)">
              <path id="Trazado_998730" data-name="Trazado 998730" d="M623.7,344.946c-3.3-4.855-11.955-18.085-15.405-28.009-.558-1.6-1.056-3.253-1.5-4.91a121.1,121.1,0,0,1-3.272-18.493" transform="translate(-597.153 -286.169)" fill="none" stroke="#2e2854" stroke-linecap="round" stroke-linejoin="round" stroke-miterlimit="10" stroke-width="0.5"/>
              <path id="Trazado_998731" data-name="Trazado 998731" d="M604.082,272.457s-10.665.905-18.339,0" transform="translate(-585.192 -271.984)" fill="none" stroke="#2e2854" stroke-linecap="round" stroke-linejoin="round" stroke-miterlimit="10" stroke-width="0.5"/>
              <path id="Trazado_998732" data-name="Trazado 998732" d="M623.531,271.614s-.2,6.257,5.628,6.1" transform="translate(-610.623 -271.417)" fill="none" stroke="#2e2854" stroke-linecap="round" stroke-linejoin="round" stroke-miterlimit="10" stroke-width="0.5"/>
              <path id="Trazado_998733" data-name="Trazado 998733" d="M585.829,271.012s.63,3.975-1.771,4.447" transform="translate(-584.058 -271.012)" fill="none" stroke="#2e2854" stroke-linecap="round" stroke-linejoin="round" stroke-miterlimit="10" stroke-width="0.5"/>
              <path id="Trazado_998734" data-name="Trazado 998734" d="M599.592,271.614s-1.023,6.729,1.928,6.533" transform="translate(-594.397 -271.417)" fill="none" stroke="#2e2854" stroke-linecap="round" stroke-linejoin="round" stroke-miterlimit="10" stroke-width="0.5"/>
            </g>
          </g>
          <g id="Grupo_1183605" data-name="Grupo 1183605" transform="translate(4.888 21.655)">
            <path id="Trazado_998735" data-name="Trazado 998735" d="M549.6,178.786c3.227-4.993,2.6-17.754,6.787-21.846a12.175,12.175,0,0,1,1.911-1.518h0l3.66-.293,3.18-1.515h0c3.091.311,6.177,2.276,8.311,6.982,4.408,9.717,4.25,29.974,4.25,29.974s-15.466.731-25.3-.551l-10.822-.5v-5.116A12.354,12.354,0,0,0,549.6,178.786Z" transform="translate(-541.576 -153.569)" fill="#49ad9f"/>
            <path id="Trazado_998736" data-name="Trazado 998736" d="M581.5,173.411s-3.471,14.277-2.413,28.731" transform="translate(-566.687 -166.893)" fill="none" stroke="#2e2854" stroke-linecap="round" stroke-linejoin="round" stroke-miterlimit="10" stroke-width="0.5"/>
            <path id="Trazado_998737" data-name="Trazado 998737" d="M599.564,153.522c-.874,1.213-3.554,4.284-6.84,1.808A10.835,10.835,0,0,1,599.564,153.522Z" transform="translate(-575.998 -153.477)" fill="#e35d76"/>
          </g>
          <g id="Grupo_1183607" data-name="Grupo 1183607" transform="translate(0 52.167)">
            <path id="Trazado_998738" data-name="Trazado 998738" d="M539.443,246.929a9.6,9.6,0,0,1-2.729.341c-2.2.1-4.88-1.662-5.877.966a3.112,3.112,0,0,0,1.6,3.888l7.766-.6Z" transform="translate(-529.308 -246.785)" fill="#e35d76"/>
            <g id="Grupo_1183606" data-name="Grupo 1183606" transform="translate(0 0.642)">
              <path id="Trazado_998739" data-name="Trazado 998739" d="M537.524,253.916l-2.151.128s-3.673,1.814-5.588,1.315c-1.337-.348-2.482-2.135-3.051-3.183a.869.869,0,0,1,.343-1.175l3.417-1.9,5.22-.351Z" transform="translate(-526.628 -248.747)" fill="#e35d76"/>
              <path id="Trazado_998740" data-name="Trazado 998740" d="M535.372,254.765s-3.673,1.814-5.588,1.315c-1.337-.348-2.482-2.135-3.051-3.183a.869.869,0,0,1,.343-1.175l3.417-1.9" transform="translate(-526.628 -249.468)" fill="none" stroke="#2e2854" stroke-linecap="round" stroke-linejoin="round" stroke-miterlimit="10" stroke-width="0.5"/>
            </g>
          </g>
          <path id="Trazado_998741" data-name="Trazado 998741" d="M556.69,246.05l.469,6.6,2.763-.256-1.642-6.533Z" transform="translate(-546.859 -193.996)" fill="#fff"/>
          <g id="Grupo_1183608" data-name="Grupo 1183608" transform="translate(11.421 25.602)">
            <path id="Trazado_998742" data-name="Trazado 998742" d="M585.875,168.627s1.337,13.165-4.054,21.855-19.676,8.884-19.676,8.884l-.59-7.556s8.79-.971,11.531-6.638,2.479-14.692,3.581-19.624Z" transform="translate(-561.554 -165.548)" fill="#49ad9f"/>
            <path id="Trazado_998743" data-name="Trazado 998743" d="M581.82,190.481c-5.391,8.689-19.676,8.884-19.676,8.884l-.59-7.556s8.79-.971,11.531-6.638,2.479-14.692,3.581-19.624" transform="translate(-561.554 -165.547)" fill="none" stroke="#2e2854" stroke-linecap="round" stroke-linejoin="round" stroke-miterlimit="10" stroke-width="0.5"/>
          </g>
          <g id="Grupo_1183614" data-name="Grupo 1183614" transform="translate(14.735)">
            <path id="Trazado_998744" data-name="Trazado 998744" d="M584.777,105.3s1.807,1.384,3.447.3a2.932,2.932,0,0,0,1.233-2.953l1.656-2.5a2.057,2.057,0,0,0,1.171-1.89,1.373,1.373,0,0,0-1.06-1.335s1.307-4.377-2.11-4.376a2.718,2.718,0,0,0-.788-1.86c-.806-.753-2.139.091-2.139.091a1.594,1.594,0,0,0-2.089-1.034,2.3,2.3,0,0,0-.937-2.225c-1.188-.745-2.79.3-2.79.3a3.236,3.236,0,0,0-3.361.1,3.563,3.563,0,0,0-1.372,3.275s-.493-1.743-1-1.618-.164,1.665-.116,1.637a1.965,1.965,0,0,0-2.183,1.5,2.67,2.67,0,0,0,.352,2.75,3.632,3.632,0,0,0-.893,3.156,2.564,2.564,0,0,0,2.159,1.778s-1.032,2.933,1.937,3.247Z" transform="translate(-571.688 -87.255)" fill="#633936"/>
            <g id="Grupo_1183609" data-name="Grupo 1183609" transform="translate(8.766 18.959)">
              <path id="Trazado_998745" data-name="Trazado 998745" d="M601.436,145.234l.388,3.925-3.077.132-.252-3.687Z" transform="translate(-598.494 -145.234)" fill="#e35d76"/>
              <path id="Trazado_998746" data-name="Trazado 998746" d="M598.625,147.506l-.13-1.9,2.942-.37.168,1.706A3.931,3.931,0,0,1,598.625,147.506Z" transform="translate(-598.495 -145.235)" fill="#d94a64"/>
            </g>
            <g id="Grupo_1183613" data-name="Grupo 1183613" transform="translate(1.363 7.309)">
              <path id="Trazado_998747" data-name="Trazado 998747" d="M593.818,113.444s3.792-2.263,4.589,1.119c.625,2.652-2.684,5.183-4.728,3.563a6.427,6.427,0,0,1-5.507,4.363c-4.286.316-6.291-3.733-6.367-5.516a39.693,39.693,0,0,1,.433-5.283,1.622,1.622,0,0,0,1.323-.861c.407-.829.777-.638.928.08s.758.782,1.2-.079,1.114-1.77,1.489-.818.421,1.71,1,1.738c.932.046,1.658-1.465,1.658-1.465s-.27,2.275,2.535,2.7c0,0-.408,1.507.2,1.625S593.818,113.444,593.818,113.444Z" transform="translate(-579.853 -109.606)" fill="#e35d76"/>
              <g id="Grupo_1183610" data-name="Grupo 1183610" transform="translate(14.997 5.135)">
                <path id="Trazado_998748" data-name="Trazado 998748" d="M624.059,126.407a2.259,2.259,0,0,0-2.341-1.08" transform="translate(-621.718 -125.31)" fill="none" stroke="#2e2854" stroke-linecap="round" stroke-linejoin="round" stroke-miterlimit="10" stroke-width="0.5"/>
                <path id="Trazado_998749" data-name="Trazado 998749" d="M622.682,127.433a2.448,2.448,0,0,0,.956-1.594" transform="translate(-622.367 -125.666)" fill="none" stroke="#2e2854" stroke-linecap="round" stroke-linejoin="round" stroke-miterlimit="10" stroke-width="0.5"/>
              </g>
              <g id="Grupo_1183611" data-name="Grupo 1183611" transform="translate(2.835 3.629)">
                <path id="Trazado_998750" data-name="Trazado 998750" d="M593.123,120.705a7.933,7.933,0,0,0-.584,1.325l.685.179" transform="translate(-589.918 -120.705)" fill="none" stroke="#2e2854" stroke-linecap="round" stroke-linejoin="round" stroke-miterlimit="10" stroke-width="0.5"/>
                <path id="Trazado_998751" data-name="Trazado 998751" d="M603.007,122.588s-1.456-1.317-2.629,0" transform="translate(-595.194 -121.579)" fill="none" stroke="#2e2854" stroke-linecap="round" stroke-linejoin="round" stroke-miterlimit="10" stroke-width="0.5"/>
                <path id="Trazado_998752" data-name="Trazado 998752" d="M586.286,121.386s-.581-1.25-1.762-.108" transform="translate(-584.524 -120.767)" fill="none" stroke="#2e2854" stroke-linecap="round" stroke-linejoin="round" stroke-miterlimit="10" stroke-width="0.5"/>
                <path id="Trazado_998753" data-name="Trazado 998753" d="M595.793,130.2a6.1,6.1,0,0,1-4.065-.114" transform="translate(-589.372 -127.016)" fill="none" stroke="#2e2854" stroke-linecap="round" stroke-linejoin="round" stroke-miterlimit="10" stroke-width="0.5"/>
              </g>
              <g id="Grupo_1183612" data-name="Grupo 1183612" transform="translate(2.17 7.967)">
                <path id="Trazado_998754" data-name="Trazado 998754" d="M582.491,134.475a1.416,1.416,0,1,1,1.281,2.314A7.055,7.055,0,0,1,582.491,134.475Z" transform="translate(-582.491 -133.969)" fill="#d94a64"/>
                <path id="Trazado_998755" data-name="Trazado 998755" d="M605.558,134.792a1.417,1.417,0,1,1-1.729,1.012A1.417,1.417,0,0,1,605.558,134.792Z" transform="translate(-596.82 -134.492)" fill="#d94a64"/>
              </g>
              <path id="Trazado_998756" data-name="Trazado 998756" d="M578.437,118.116s-1.3-1.086-2.12.123-.735,3.95,1.781,4.364Z" transform="translate(-575.855 -115.032)" fill="#e35d76"/>
            </g>
          </g>
        </g>
      </g>
      <g id="Grupo_1183634" data-name="Grupo 1183634" transform="translate(67.04 66.91)">
        <g id="Grupo_1183622" data-name="Grupo 1183622" transform="translate(5.569)">
          <path id="Trazado_998757" data-name="Trazado 998757" d="M121.658,120.456c3.07-.551,2.125-6.034-.787-7.5a7.682,7.682,0,0,0-6.089,0s-8.341-1.154-9.692,7.5a9.362,9.362,0,0,0,2.037,8.024s-9.147,2.208-3.952,9.173l13.538-.2,1.22-3.621a8.731,8.731,0,0,0,1.3-5.431Z" transform="translate(-101.579 -112.299)" fill="#2e2854"/>
          <g id="Grupo_1183621" data-name="Grupo 1183621" transform="translate(1.878 5.205)">
            <path id="Trazado_998758" data-name="Trazado 998758" d="M120.7,131.364s.265,1.695.984,1.613c.931-.1,2.361-4.762,2.361-4.762a8.293,8.293,0,0,0,6.611,2.382,1.228,1.228,0,0,0,.905.57c.551,0,.289-2.046.8-2.112s1.062,2.112,2.138,2.112c0,0,1.339,10.407-6.559,10.874C119.706,142.528,120.7,131.364,120.7,131.364Z" transform="translate(-116.302 -128.216)" fill="#ff98aa"/>
            <g id="Grupo_1183618" data-name="Grupo 1183618" transform="translate(0 1.888)">
              <path id="Trazado_998759" data-name="Trazado 998759" d="M111.724,135.25c-.669-1.653-3.088-1.85-4.151.433s1.411,5.516,4.756,3.725l-.388-2.382Z" transform="translate(-107.323 -133.989)" fill="#ff98aa"/>
              <g id="Grupo_1183617" data-name="Grupo 1183617" transform="translate(1.633 2.087)">
                <path id="Trazado_998760" data-name="Trazado 998760" d="M112.317,141a2.426,2.426,0,0,1,1.856-.61" transform="translate(-112.317 -140.372)" fill="none" stroke="#2e2854" stroke-linecap="round" stroke-linejoin="round" stroke-miterlimit="10" stroke-width="0.5"/>
                <path id="Trazado_998761" data-name="Trazado 998761" d="M115.7,142.328a3.038,3.038,0,0,1-.678-1.6" transform="translate(-114.135 -140.61)" fill="none" stroke="#2e2854" stroke-linecap="round" stroke-linejoin="round" stroke-miterlimit="10" stroke-width="0.5"/>
              </g>
            </g>
            <path id="Trazado_998762" data-name="Trazado 998762" d="M161.633,137.149a1.383,1.383,0,0,1,1.725,1.141c.453,1.535-.551,4.841-2.381,4.368Z" transform="translate(-143.432 -134.197)" fill="#ff98aa"/>
            <path id="Trazado_998763" data-name="Trazado 998763" d="M127.569,155.633a1.613,1.613,0,1,1,1.613-1.613A1.613,1.613,0,0,1,127.569,155.633Zm10.092-2.6a1.613,1.613,0,1,0-1.372,2.888A8.43,8.43,0,0,0,137.661,153.032Z" transform="translate(-119.863 -144.496)" fill="#ff8095"/>
            <g id="Grupo_1183620" data-name="Grupo 1183620" transform="translate(4.284 1.643)">
              <path id="Trazado_998764" data-name="Trazado 998764" d="M139.435,153.188a8.167,8.167,0,0,0,4.565,0" transform="translate(-133.219 -146.665)" fill="none" stroke="#2e2854" stroke-linecap="round" stroke-linejoin="round" stroke-miterlimit="10" stroke-width="0.5"/>
              <path id="Trazado_998765" data-name="Trazado 998765" d="M147.322,143.361a4.013,4.013,0,0,1,.536,1.385l-.743.029" transform="translate(-138.387 -140.051)" fill="none" stroke="#2e2854" stroke-linecap="round" stroke-linejoin="round" stroke-miterlimit="10" stroke-width="0.5"/>
              <g id="Grupo_1183619" data-name="Grupo 1183619">
                <circle id="Elipse_13649" data-name="Elipse 13649" cx="2.401" cy="2.401" r="2.401" transform="translate(2.408 3.395) rotate(-45)" fill="#2e2854" stroke="#2e2854" stroke-linecap="round" stroke-linejoin="round" stroke-miterlimit="10" stroke-width="0.5"/>
                <ellipse id="Elipse_13650" data-name="Elipse 13650" cx="2.168" cy="2.401" rx="2.168" ry="2.401" transform="translate(9.868 1.264)" fill="#2e2854" stroke="#2e2854" stroke-linecap="round" stroke-linejoin="round" stroke-miterlimit="10" stroke-width="0.5"/>
                <path id="Trazado_998766" data-name="Trazado 998766" d="M145.512,142.676a.9.9,0,0,1,.781-.459,1,1,0,0,1,.9.459" transform="translate(-137.308 -139.281)" fill="none" stroke="#2e2854" stroke-linecap="round" stroke-linejoin="round" stroke-miterlimit="10" stroke-width="0.5"/>
                <line id="Línea_27261" data-name="Línea 27261" x2="3.461" y2="1.606" transform="translate(0 1.264)" fill="none" stroke="#2e2854" stroke-linecap="round" stroke-linejoin="round" stroke-miterlimit="10" stroke-width="0.5"/>
              </g>
            </g>
          </g>
        </g>
        <g id="Grupo_1183623" data-name="Grupo 1183623" transform="translate(25.502 24.055)">
          <path id="Trazado_998767" data-name="Trazado 998767" d="M180.768,300.851a3.922,3.922,0,0,1,1.5,2.95c-.066,1.771-.721,3.056-3.293,3.266l-.236-5.142Z" transform="translate(-173.441 -263.249)" fill="#ff98aa"/>
          <path id="Trazado_998768" data-name="Trazado 998768" d="M163.491,185.862a11.193,11.193,0,0,1,4.187,7.587c1.207,8.369-.207,12.14.157,18.286.21,3.542,1.981,9.222,2.151,10.258s.184,2.1-2.151,2.545A72.725,72.725,0,0,1,162.8,205.2,88.921,88.921,0,0,1,163.491,185.862Z" transform="translate(-162.536 -185.862)" fill="#ffc55c"/>
        </g>
        <g id="Grupo_1183627" data-name="Grupo 1183627" transform="translate(0 46.124)">
          <g id="Grupo_1183624" data-name="Grupo 1183624" transform="translate(1.207 61.838)">
            <path id="Trazado_998769" data-name="Trazado 998769" d="M93.46,442.456l-4.4.06h0c-.5,1.729-.817,2.748-.817,2.748l1.18,2.335,5.693.446s.3-.915.807-2.508h0Z" transform="translate(-88.239 -442.456)" fill="#ff98aa"/>
            <path id="Trazado_998770" data-name="Trazado 998770" d="M189.72,448.34s-.117-.755-.33-2.1h0l-4.356-1.334-3.023,2.835c.137.617.265,1.2.384,1.75l4.253.806Z" transform="translate(-151.347 -444.103)" fill="#ff98aa"/>
          </g>
          <path id="Trazado_998771" data-name="Trazado 998771" d="M120.585,318.823c2.241-.444,5.17-1.045,7.379-1.5-1.456-9.228-7.4-46.334-10.967-60.738l-6.926-3.234-10.586,3.234a110.858,110.858,0,0,0-1.377,21.585c.34,9.6-5.231,29.743-7.368,37.078l6.863,3.02c2.31-7.211,9.031-28.4,12.789-42.406C110.391,275.862,117.561,305.174,120.585,318.823Z" transform="translate(-88.715 -253.35)" fill="#5d4082"/>
          <g id="Grupo_1183625" data-name="Grupo 1183625" transform="translate(0 64.645)">
            <path id="Trazado_998772" data-name="Trazado 998772" d="M183.848,460.017l10.269-2.974-3.608-1.63-7.326,1.148Z" transform="translate(-150.93 -453.983)" fill="#fff"/>
            <path id="Trazado_998773" data-name="Trazado 998773" d="M94.886,457.074l-2.256-3.253-6.874-2.781-1.207,3.306Z" transform="translate(-84.549 -451.04)" fill="#fff"/>
          </g>
          <g id="Grupo_1183626" data-name="Grupo 1183626" transform="translate(6.083 5.142)">
            <path id="Trazado_998774" data-name="Trazado 998774" d="M119.208,281.929s4.985-1.182,4.355-6.114" transform="translate(-113.957 -273.611)" fill="none" stroke="#2e2854" stroke-linecap="round" stroke-linejoin="round" stroke-miterlimit="10" stroke-width="0.5"/>
            <path id="Trazado_998775" data-name="Trazado 998775" d="M135.645,269.076a54.715,54.715,0,0,1-16.437,0" transform="translate(-113.957 -269.076)" fill="none" stroke="#2e2854" stroke-linecap="round" stroke-linejoin="round" stroke-miterlimit="10" stroke-width="0.5"/>
            <path id="Trazado_998776" data-name="Trazado 998776" d="M113.124,300.851a125.618,125.618,0,0,1-9.974,46.31" transform="translate(-103.15 -290.46)" fill="none" stroke="#2e2854" stroke-linecap="round" stroke-linejoin="round" stroke-miterlimit="10" stroke-width="0.5"/>
            <path id="Trazado_998777" data-name="Trazado 998777" d="M165.351,310.357s6.425,26.012,8.55,44.823" transform="translate(-145.011 -296.858)" fill="none" stroke="#2e2854" stroke-linecap="round" stroke-linejoin="round" stroke-miterlimit="10" stroke-width="0.5"/>
            <path id="Trazado_998778" data-name="Trazado 998778" d="M111.727,347.72c2.31-7.211,9.031-28.4,12.789-42.406.855-3.189,1.558-6.006,2.019-8.2" transform="translate(-108.922 -287.944)" fill="none" stroke="#2e2854" stroke-linecap="round" stroke-linejoin="round" stroke-miterlimit="10" stroke-width="0.5"/>
          </g>
        </g>
        <path id="Trazado_998779" data-name="Trazado 998779" d="M108.279,172.439a11.038,11.038,0,0,1,8.126-.992l-.249-3.214s3.791-1.482,6.742,0l-.184,3.332a10.443,10.443,0,0,1,4.262,1.989l-.221,4.6s.761,7.661,1.535,10.757a24.091,24.091,0,0,1,.511,9.95,49.823,49.823,0,0,1-17.512,0Z" transform="translate(-100.519 -149.499)" fill="#ffc55c"/>
        <g id="Grupo_1183628" data-name="Grupo 1183628" transform="translate(7.76 18.075)">
          <line id="Línea_27262" data-name="Línea 27262" x2="0.285" y2="3.387" transform="translate(9.139 0.289)" fill="none" stroke="#2e2854" stroke-linecap="round" stroke-linejoin="round" stroke-miterlimit="10" stroke-width="0.5"/>
          <line id="Línea_27263" data-name="Línea 27263" x2="0.4" y2="3.451" transform="translate(10.421 0.067)" fill="none" stroke="#2e2854" stroke-linecap="round" stroke-linejoin="round" stroke-miterlimit="10" stroke-width="0.5"/>
          <line id="Línea_27264" data-name="Línea 27264" x2="0.215" y2="3.371" transform="translate(11.964 0.01)" fill="none" stroke="#2e2854" stroke-linecap="round" stroke-linejoin="round" stroke-miterlimit="10" stroke-width="0.5"/>
          <line id="Línea_27265" data-name="Línea 27265" x1="0.063" y2="3.28" transform="translate(13.439 0.238)" fill="none" stroke="#2e2854" stroke-linecap="round" stroke-linejoin="round" stroke-miterlimit="10" stroke-width="0.5"/>
          <path id="Trazado_998780" data-name="Trazado 998780" d="M108.279,172.439a11.038,11.038,0,0,1,8.126-.992l-.249-3.214s3.791-1.482,6.742,0l-.184,3.332" transform="translate(-108.279 -167.574)" fill="none" stroke="#2e2854" stroke-linecap="round" stroke-linejoin="round" stroke-miterlimit="10" stroke-width="0.5"/>
        </g>
        <g id="Grupo_1183630" data-name="Grupo 1183630" transform="translate(22.851 59.229)">
          <path id="Trazado_998781" data-name="Trazado 998781" d="M170.081,296.658a8.209,8.209,0,0,1,1.241.918c1.259,1.161.631,2.014.275,2.328l-2.125-1.623Z" transform="translate(-164.553 -295.601)" fill="#ff98aa"/>
          <path id="Trazado_998782" data-name="Trazado 998782" d="M165.77,295.711l45.2,55.895a.5.5,0,0,1-.772.627l-45.416-55.721a.635.635,0,0,1,.984-.8Z" transform="translate(-161.302 -294.805)" fill="#fff"/>
          <g id="Grupo_1183629" data-name="Grupo 1183629">
            <path id="Trazado_998783" data-name="Trazado 998783" d="M157.867,293.426a14.755,14.755,0,0,1,2.091,1.057l.238,1.469c.1,1.5,1.751,2.676,1.3,3.384s-2.145.905-4.23.374-2.833-3.345-2.833-3.345l.843-2.059Z" transform="translate(-154.43 -293.426)" fill="#ff98aa"/>
            <path id="Trazado_998784" data-name="Trazado 998784" d="M160.2,301.148c.1,1.5,1.751,2.676,1.3,3.384s-2.145.905-4.23.374-2.833-3.345-2.833-3.345" transform="translate(-154.43 -298.623)" fill="none" stroke="#2e2854" stroke-linecap="round" stroke-linejoin="round" stroke-miterlimit="10" stroke-width="0.5"/>
          </g>
        </g>
        <g id="Grupo_1183633" data-name="Grupo 1183633" transform="translate(3.428 22.94)">
          <path id="Trazado_998785" data-name="Trazado 998785" d="M99.363,182.451a9.073,9.073,0,0,0-2.775,2.668c-3.935,5.746.393,16.214,4.093,23.061s9.524,12.042,12.278,11.754,3.8-2.309,3.332-3.988-9.078-13.2-14.272-26.734Z" transform="translate(-95.031 -182.451)" fill="#ffc55c"/>
          <path id="Trazado_998786" data-name="Trazado 998786" d="M112.309,222.094c3.7,6.847,9.524,12.042,12.278,11.754s3.8-2.309,3.332-3.988-9.078-13.2-14.272-26.734" transform="translate(-106.659 -196.365)" fill="none" stroke="#2e2854" stroke-linecap="round" stroke-linejoin="round" stroke-miterlimit="10" stroke-width="0.5"/>
          <g id="Grupo_1183632" data-name="Grupo 1183632" transform="translate(17.929 34.375)">
            <path id="Trazado_998787" data-name="Trazado 998787" d="M153.3,287.571l1.493,1.915a9.272,9.272,0,0,1-3.437,2.938l-1.5-1.745Z" transform="translate(-149.858 -287.571)" fill="#ffc55c"/>
            <g id="Grupo_1183631" data-name="Grupo 1183631" transform="translate(0.754 0.332)">
              <line id="Línea_27266" data-name="Línea 27266" x2="1.637" y2="1.916" transform="translate(0 2.095)" fill="none" stroke="#2e2854" stroke-linecap="round" stroke-linejoin="round" stroke-miterlimit="10" stroke-width="0.5"/>
              <line id="Línea_27267" data-name="Línea 27267" x1="1.777" y1="1.954" transform="translate(0.773 1.396)" fill="none" stroke="#2e2854" stroke-linecap="round" stroke-linejoin="round" stroke-miterlimit="10" stroke-width="0.5"/>
              <line id="Línea_27268" data-name="Línea 27268" x2="1.742" y2="1.977" transform="translate(1.584 0.663)" fill="none" stroke="#2e2854" stroke-linecap="round" stroke-linejoin="round" stroke-miterlimit="10" stroke-width="0.5"/>
              <line id="Línea_27269" data-name="Línea 27269" x2="1.61" y2="1.938" transform="translate(2.318)" fill="none" stroke="#2e2854" stroke-linecap="round" stroke-linejoin="round" stroke-miterlimit="10" stroke-width="0.5"/>
            </g>
            <path id="Trazado_998788" data-name="Trazado 998788" d="M153.3,287.571l1.493,1.915a9.272,9.272,0,0,1-3.437,2.938l-1.5-1.745Z" transform="translate(-149.858 -287.571)" fill="none" stroke="#2e2854" stroke-linecap="round" stroke-linejoin="round" stroke-miterlimit="10" stroke-width="0.5"/>
          </g>
        </g>
      </g>
      <g id="Grupo_1183635" data-name="Grupo 1183635" transform="translate(58.533 47.71)">
        <rect id="Rectángulo_455072" data-name="Rectángulo 455072" width="94.294" height="7.322" transform="translate(56.386)" fill="none"/>
        <rect id="Rectángulo_455073" data-name="Rectángulo 455073" width="124.015" height="13.758" transform="translate(41.526 6.968)" fill="none"/>
        <line id="Línea_27270" data-name="Línea 27270" x2="206.959" transform="translate(0 136.004)" fill="none" stroke="#2e2854" stroke-linecap="round" stroke-linejoin="round" stroke-miterlimit="10" stroke-width="1"/>
      </g>
    </g>
  </g>
</svg>
