<svg xmlns="http://www.w3.org/2000/svg" xmlns:xlink="http://www.w3.org/1999/xlink" width="52" height="59" viewBox="0 0 52 59">
  <defs>
    <clipPath id="clip-path">
      <rect id="Rect치ngulo_455065" data-name="Rect치ngulo 455065" width="52" height="59" transform="translate(1013.332 4119)" fill="#fff" stroke="#707070" stroke-width="1"/>
    </clipPath>
    <clipPath id="clip-path-2">
      <rect id="Rect치ngulo_455064" data-name="Rect치ngulo 455064" width="55.609" height="42.971" fill="none"/>
    </clipPath>
  </defs>
  <g id="Enmascarar_grupo_1099012" data-name="Enmascarar grupo 1099012" transform="translate(-1013.332 -4119)" clip-path="url(#clip-path)">
    <g id="Grupo_1183543" data-name="Grupo 1183543" transform="translate(1036.25 4112.628) rotate(45)" clip-path="url(#clip-path-2)">
      <path id="Trazado_998623" data-name="Trazado 998623" d="M108.089,54.875a2.312,2.312,0,0,0-3.225,3.311l.109.109a1.264,1.264,0,0,1-1.762,1.812,0,0,0,0,0,0,0h0l0,0,0,0,0,0s0,0,0,0l-2.649-2.649a2.311,2.311,0,0,0-3.268,3.268l2.636,2.636a1.264,1.264,0,1,1-1.785,1.79l-5.167-5.167A2.311,2.311,0,0,0,89.7,63.242l5.164,5.164a1.264,1.264,0,1,1-1.785,1.79L80.428,57.55a2.311,2.311,0,0,0-3.268,3.268L96.125,79.784a1.263,1.263,0,0,1-.7,2.141L82.751,83.916A3.127,3.127,0,0,0,80.064,87a1.264,1.264,0,0,0,1.264,1.264h23.834a11.3,11.3,0,0,0,8.043-3.331l3.976-3.976a11.36,11.36,0,0,0,.372-15.674Z" transform="translate(-67.426 -47.816)" fill="#fff"/>
      <path id="Trazado_998624" data-name="Trazado 998624" d="M108.089,54.875a2.312,2.312,0,0,0-3.225,3.311l.109.109a1.264,1.264,0,0,1-1.762,1.812,0,0,0,0,0,0,0h0l0,0,0,0,0,0s0,0,0,0l-2.649-2.649a2.311,2.311,0,0,0-3.268,3.268l2.636,2.636a1.264,1.264,0,1,1-1.785,1.79l-5.167-5.167A2.311,2.311,0,0,0,89.7,63.242l5.164,5.164a1.264,1.264,0,1,1-1.785,1.79L80.428,57.55a2.311,2.311,0,0,0-3.268,3.268L96.125,79.784a1.263,1.263,0,0,1-.7,2.141L82.751,83.916A3.127,3.127,0,0,0,80.064,87a1.264,1.264,0,0,0,1.264,1.264h23.834a11.3,11.3,0,0,0,8.043-3.331l3.976-3.976a11.36,11.36,0,0,0,.372-15.674Z" transform="translate(-67.426 -47.816)" fill="none" stroke="#000" stroke-miterlimit="10" stroke-width="1"/>
      <path id="Trazado_998625" data-name="Trazado 998625" d="M91.109,34.379a4.838,4.838,0,0,0-6.842.015,4.731,4.731,0,0,0-1.223,2.09,4.842,4.842,0,0,0-7.586,2.525,4.844,4.844,0,0,0-6.357.44,4.784,4.784,0,0,0-1.213,2.04L63.408,37.01a4.838,4.838,0,0,0-6.842,6.842L73.774,61.061l-10.207,1.6a5.662,5.662,0,0,0-4.838,5.579,3.8,3.8,0,0,0,3.792,3.792H86.354a13.81,13.81,0,0,0,9.83-4.072l3.976-3.976a13.885,13.885,0,0,0,.452-19.162ZM98.374,62.2,94.4,66.174a11.3,11.3,0,0,1-8.043,3.331H62.521a1.264,1.264,0,0,1-1.264-1.264,3.127,3.127,0,0,1,2.687-3.079L76.62,63.171a1.263,1.263,0,0,0,.7-2.141L58.353,42.065A2.311,2.311,0,0,1,61.621,38.8L74.267,51.443a1.264,1.264,0,1,0,1.785-1.79l-5.164-5.164a2.311,2.311,0,0,1,3.268-3.268l5.167,5.167a1.264,1.264,0,1,0,1.785-1.79l-2.636-2.636a2.311,2.311,0,0,1,3.268-3.268l2.649,2.649c.005,0,0,0,0,0l0,0,0,0,0,0h0a0,0,0,0,1,0,0,1.264,1.264,0,0,0,1.762-1.812l-.109-.109a2.312,2.312,0,0,1,3.225-3.311l9.464,10.4A11.361,11.361,0,0,1,98.374,62.2" transform="translate(-48.618 -29.063)"/>
    </g>
  </g>
</svg>
