<svg xmlns="http://www.w3.org/2000/svg" width="40" height="39.996" viewBox="0 0 40 39.996">
  <g id="Grupo_1311721" data-name="Grupo 1311721" transform="translate(0 -0.028)">
    <g id="Grupo_1311720" data-name="Grupo 1311720" transform="translate(0 0.028)">
      <path id="Trazado_1059133" data-name="Trazado 1059133" d="M25.156.028C13.107-.036,6.043,13.961,13.138,23.575L11.8,24.91a2.354,2.354,0,0,0-2.668.458L.685,33.819a2.348,2.348,0,0,0,0,3.315l2.21,2.21a2.359,2.359,0,0,0,3.315,0l8.451-8.451a2.36,2.36,0,0,0,.458-2.668l1.335-1.335c9.618,7.1,23.613.028,23.547-12.018A14.86,14.86,0,0,0,25.156.028Zm-11.6,29.759L5.1,38.239a.786.786,0,0,1-1.1,0l-2.21-2.21a.79.79,0,0,1,0-1.1l8.451-8.451a.786.786,0,0,1,1.1,0l2.21,2.21A.789.789,0,0,1,13.555,29.788Zm.552-2.762-1.1-1.1L14.127,24.8a14.981,14.981,0,0,0,1.1,1.1Zm11.049,1.128A13.3,13.3,0,0,1,11.875,14.872c.73-17.619,25.835-17.614,26.562,0A13.3,13.3,0,0,1,25.156,28.153Z" transform="translate(0 -0.028)" fill="#2142dc"/>
      <path id="Trazado_1059134" data-name="Trazado 1059134" d="M183.509,40.031a11.6,11.6,0,0,0-5.231,1.23.781.781,0,0,0,.7,1.4,10.157,10.157,0,1,1-4.558,4.558.781.781,0,0,0-1.4-.7A11.766,11.766,0,0,0,183.51,63.468C199.055,62.825,199.052,40.673,183.509,40.031Z" transform="translate(-158.353 -36.906)" fill="#2142dc"/>
      <path id="Trazado_1059135" data-name="Trazado 1059135" d="M265.8,166.123a3.779,3.779,0,0,0,1.6-.358.781.781,0,0,0-.666-1.414,2.194,2.194,0,1,1-1.716-4.035v2.05a.781.781,0,0,0,.781.781h2.313l.944,1.989a.781.781,0,1,0,1.411-.67l-1.156-2.435a.781.781,0,0,0-.706-.446h-2.026v-1.413H268.3a.781.781,0,0,0,0-1.562h-2.5A3.757,3.757,0,0,0,265.8,166.123Z" transform="translate(-241.59 -146.221)" fill="#2142dc"/>
      <path id="Trazado_1059136" data-name="Trazado 1059136" d="M296.147,122.629a1.172,1.172,0,0,0,0-2.344h0A1.172,1.172,0,0,0,296.147,122.629Z" transform="translate(-271.936 -110.89)" fill="#2142dc"/>
      <path id="Trazado_1059137" data-name="Trazado 1059137" d="M220.595,97.742a8.6,8.6,0,0,0,8.594-8.594c-.472-11.4-16.717-11.4-17.187,0A8.6,8.6,0,0,0,220.595,97.742Zm0-15.625a7.039,7.039,0,0,1,7.031,7.031c-.386,9.328-13.678,9.325-14.062,0A7.039,7.039,0,0,1,220.595,82.117Z" transform="translate(-195.439 -74.304)" fill="#2142dc"/>
      <path id="Trazado_1059138" data-name="Trazado 1059138" d="M213.258,82.4a.781.781,0,1,0-.052-1.1h0A.781.781,0,0,0,213.258,82.4Z" transform="translate(-196.361 -74.708)" fill="#2142dc"/>
    </g>
  </g>
</svg>
