<svg xmlns="http://www.w3.org/2000/svg" width="40" height="40.001" viewBox="0 0 40 40.001">
  <g id="Grupo_1311717" data-name="Grupo 1311717" transform="translate(-0.005)">
    <g id="Grupo_1311716" data-name="Grupo 1311716" transform="translate(0.005 0)">
      <path id="Trazado_1059125" data-name="Trazado 1059125" d="M13.2,254.894a3.83,3.83,0,0,0-1.11-2.067l-2.981-3.321-.021-.023A1.987,1.987,0,0,0,6.14,252.1l.009.012,1.357,1.844c.514.7.508.713.348,1.1l-.179.428a1.352,1.352,0,0,1-.343-.184l-1.863-1.284a3.025,3.025,0,0,1-.486-.373,2.853,2.853,0,0,1-.13-.585l-.342-2.094a1.672,1.672,0,0,1,.083-1.183c.024-.072.049-.15.077-.237l.677-2.1a2.637,2.637,0,0,0-.316-2.973,1.655,1.655,0,0,0-1.41-.661,1.838,1.838,0,0,0-1.477,1.06L.429,247.923a2.884,2.884,0,0,0-.424,1.782c0,.07,0,.145,0,.227,0,.738.021,1.395.04,2.03.023.757.044,1.473.036,2.316a2.937,2.937,0,0,0,.723,2.231c.08.109.171.233.274.379,1,1.424,1.453,1.8,2.436,3.195,1.159,1.648,1.041,2.074.692,3.339-.031.112-.063.228-.1.35a.781.781,0,0,0,.755.983h8.041a.781.781,0,0,0,.747-.553,12.233,12.233,0,0,0-.076-7.867C13.439,255.84,13.307,255.372,13.2,254.894Zm-.886,8.3H5.88c.28-1.224.209-2.166-1.086-4.008-.512-.728-.887-1.191-1.249-1.639s-.7-.871-1.186-1.555c-.111-.157-.207-.289-.293-.405a1.482,1.482,0,0,1-.42-1.292c.008-.874-.015-1.638-.037-2.377-.019-.624-.038-1.269-.039-1.986,0-.086,0-.166,0-.239a1.414,1.414,0,0,1,.224-1l1.717-3.058a.668.668,0,0,1,.218-.265.146.146,0,0,1,.057.039c.406.542.4.561.079,1.555l-.677,2.1-.075.228a3.037,3.037,0,0,0-.141,1.923l.342,2.094a2.272,2.272,0,0,0,1.271,1.993l1.863,1.284A2,2,0,0,0,8.156,257a1.505,1.505,0,0,0,.955-.9l.184-.442a2.314,2.314,0,0,0-.532-2.623l-1.352-1.837a.359.359,0,0,1,.09-.541c.077-.064.323-.213.464-.082l2.966,3.3a2.32,2.32,0,0,1,.745,1.351c.614,2.728,1.579,4.288.642,7.972Z" transform="translate(-0.005 -224.755)" fill="#2142dc"/>
      <path id="Trazado_1059126" data-name="Trazado 1059126" d="M343.231,247.875l-1.717-3.058a1.665,1.665,0,0,0-2.887-.4,2.637,2.637,0,0,0-.316,2.973l.677,2.1c.028.087.054.165.077.236a1.672,1.672,0,0,1,.083,1.183L338.806,253a2.853,2.853,0,0,1-.13.585,3.032,3.032,0,0,1-.486.373l-1.863,1.285a1.352,1.352,0,0,1-.343.184l-.179-.428c-.159-.383-.166-.4.348-1.1l1.357-1.844.009-.012a1.911,1.911,0,0,0-.362-2.65,1.874,1.874,0,0,0-2.59.037l-.021.023-2.981,3.32a3.83,3.83,0,0,0-1.11,2.067c-.1.478-.235.946-.375,1.441a12.233,12.233,0,0,0-.076,7.867.781.781,0,0,0,.747.553h8.042a.781.781,0,0,0,.755-.983c-.033-.122-.065-.238-.1-.35-.35-1.265-.467-1.691.692-3.339.482-.685.824-1.108,1.186-1.555s.738-.912,1.249-1.639c.1-.146.193-.269.274-.379a2.937,2.937,0,0,0,.723-2.231c-.008-.843.014-1.559.036-2.316.019-.635.038-1.292.04-2.03,0-.082,0-.157,0-.227A2.886,2.886,0,0,0,343.231,247.875Zm-1.139,1.768c0,.074,0,.153,0,.239,0,.716-.02,1.361-.039,1.986-.022.739-.045,1.5-.037,2.377a1.482,1.482,0,0,1-.42,1.292c-.085.116-.182.248-.293.405-.482.685-.824,1.107-1.186,1.555s-.738.912-1.25,1.639c-1.3,1.842-1.367,2.784-1.086,4.008h-6.438a10.737,10.737,0,0,1,.243-6.433c.141-.5.286-1.012.4-1.539a2.32,2.32,0,0,1,.745-1.351l2.966-3.3c.14-.131.387.018.464.082a.359.359,0,0,1,.09.541l-1.352,1.838a2.314,2.314,0,0,0-.532,2.623l.184.442c.492,1.13,1.64,1.225,2.667.488l1.863-1.285a2.272,2.272,0,0,0,1.271-1.993l.341-2.094a3.035,3.035,0,0,0-.141-1.923l-.075-.228-.674-2.088,0-.009c-.321-.994-.327-1.013.079-1.555a.146.146,0,0,1,.057-.039.667.667,0,0,1,.218.265l1.717,3.058a1.413,1.413,0,0,1,.224,1Z" transform="translate(-303.656 -224.707)" fill="#2142dc"/>
      <path id="Trazado_1059127" data-name="Trazado 1059127" d="M86.872,20.88a1.565,1.565,0,0,0,.577.07,1.838,1.838,0,0,0,1.477-1.06l1.717-3.058a2.884,2.884,0,0,0,.424-1.782c0-.07,0-.145,0-.227,0-.738-.021-1.395-.04-2.03-.023-.757-.044-1.473-.036-2.316a2.937,2.937,0,0,0-.723-2.232c-.08-.109-.171-.233-.274-.379-.512-.728-.887-1.191-1.25-1.639s-.7-.871-1.186-1.555C86.4,3.024,86.515,2.6,86.865,1.333c.031-.112.063-.228.1-.35A.781.781,0,0,0,86.206,0H78.164a.781.781,0,0,0-.747.553,12.232,12.232,0,0,0,.076,7.867c.14.5.272.963.375,1.442a4.048,4.048,0,0,0,.362,1.065,7.115,7.115,0,0,0-2.483,1.316,7.128,7.128,0,0,0-2.445-1.3,4.027,4.027,0,0,0,.369-1.077c.1-.478.235-.946.375-1.442A12.233,12.233,0,0,0,74.122.553.781.781,0,0,0,73.375,0H65.333a.781.781,0,0,0-.755.984c.033.122.065.238.1.35.35,1.265.467,1.691-.692,3.339-.482.685-.824,1.108-1.186,1.555s-.738.912-1.25,1.639c-.1.146-.193.269-.274.379a2.937,2.937,0,0,0-.723,2.232c.008.843-.014,1.559-.036,2.316-.019.635-.039,1.291-.04,2.03,0,.082,0,.158,0,.228a2.884,2.884,0,0,0,.424,1.782l1.717,3.058a1.838,1.838,0,0,0,1.477,1.06,1.563,1.563,0,0,0,.538-.058,7.257,7.257,0,0,0,1.449,2.074l.9.9a.781.781,0,0,0,1.1-1.1l-.9-.9a5.682,5.682,0,0,1-1.333-2.109,2.709,2.709,0,0,0-.032-2.436l-.184-.571a5.614,5.614,0,0,1,.838-2.029,2.123,2.123,0,0,0,.5.594,1.874,1.874,0,0,0,2.59-.037l.021-.023,2.66-2.963A5.61,5.61,0,0,1,75.2,13.848a.781.781,0,0,0,1.1,0,5.6,5.6,0,0,1,2.992-1.569l2.667,2.971.021.023a1.875,1.875,0,0,0,2.59.037,2.134,2.134,0,0,0,.479-.559,5.6,5.6,0,0,1,.83,2.08l-.157.486a2.734,2.734,0,0,0-.059,2.385,5.677,5.677,0,0,1-1.351,2.159l-6.78,6.78a2.528,2.528,0,0,1-3.571,0l-.9-.9a.781.781,0,0,0-1.1,1.1l.9.9a4.092,4.092,0,0,0,5.781,0l6.78-6.78A7.257,7.257,0,0,0,86.872,20.88ZM64.915,14.26c.008-.113.031-.252.065-.46l.342-2.094a2.92,2.92,0,0,1,.13-.585,3.034,3.034,0,0,1,.486-.373L67.8,9.463a1.353,1.353,0,0,1,.343-.184l.179.428c.159.383.166.4-.348,1.1l-.731.994a7.287,7.287,0,0,0-2.326,2.463Zm3.518-.07c-.141.131-.387-.018-.464-.082a.359.359,0,0,1-.09-.541l1.352-1.837a2.314,2.314,0,0,0,.532-2.623l-.184-.442a1.506,1.506,0,0,0-.955-.9,2,2,0,0,0-1.712.417L65.049,9.461a2.271,2.271,0,0,0-1.27,1.993l-.342,2.094a3.036,3.036,0,0,0,.141,1.923l.075.228.677,2.1c.321.994.327,1.013-.079,1.555a.146.146,0,0,1-.057.039.667.667,0,0,1-.218-.265l-1.717-3.058a1.414,1.414,0,0,1-.224-1c0-.074,0-.153,0-.239,0-.716.02-1.361.039-1.985.022-.739.045-1.5.037-2.377a1.482,1.482,0,0,1,.42-1.292c.085-.116.182-.248.293-.405.482-.685.824-1.108,1.186-1.555,1.458-1.819,2.942-3.648,2.336-5.647h6.438c.938,3.684-.028,5.243-.642,7.972a2.32,2.32,0,0,1-.745,1.351Zm15.138-.082c-.077.064-.324.213-.464.082l-2.966-3.3A2.32,2.32,0,0,1,79.4,9.534C79.283,9.007,79.137,8.492,79,8a10.735,10.735,0,0,1-.243-6.433h6.438c-.28,1.224-.209,2.166,1.086,4.008.512.728.887,1.191,1.249,1.639s.7.871,1.186,1.556c.111.157.208.289.293.405a1.481,1.481,0,0,1,.42,1.292c-.008.874.015,1.638.037,2.377.019.624.038,1.269.039,1.986,0,.086,0,.166,0,.239a1.415,1.415,0,0,1-.224,1l-1.717,3.058a.666.666,0,0,1-.218.265.145.145,0,0,1-.057-.039c-.406-.542-.4-.561-.079-1.555l.677-2.1c.027-.084.052-.159.075-.228a3.036,3.036,0,0,0,.141-1.923l-.342-2.094A2.272,2.272,0,0,0,86.49,9.461L84.627,8.177a2,2,0,0,0-1.712-.417,1.506,1.506,0,0,0-.955.9l-.184.442a2.314,2.314,0,0,0,.532,2.623l1.352,1.838a.359.359,0,0,1-.09.541Zm.77-2.252L83.567,10.8c-.514-.7-.508-.713-.348-1.1l.179-.428a1.354,1.354,0,0,1,.343.184L85.6,10.747a3.041,3.041,0,0,1,.486.373,2.85,2.85,0,0,1,.13.585L86.56,13.8a3.8,3.8,0,0,1,.068.543,7.284,7.284,0,0,0-2.287-2.487Z" transform="translate(-55.748 0)" fill="#2142dc"/>
      <path id="Trazado_1059128" data-name="Trazado 1059128" d="M192.752,237.1a3.771,3.771,0,0,0,5.357,3.4.781.781,0,0,0-.666-1.414,2.194,2.194,0,1,1-1.716-4.035v2.05a.781.781,0,0,0,.781.781h2.313l1.066,2.246a.781.781,0,1,0,1.411-.67l-1.278-2.692a.781.781,0,0,0-.706-.446H197.29v-1.413h1.717a.781.781,0,0,0,0-1.563h-2.5A3.761,3.761,0,0,0,192.752,237.1Z" transform="translate(-177.693 -215.114)" fill="#2142dc"/>
      <path id="Trazado_1059129" data-name="Trazado 1059129" d="M228.187,196.191a1.172,1.172,0,0,0-1.172-1.172h0a1.172,1.172,0,1,0,1.172,1.172Z" transform="translate(-208.199 -179.783)" fill="#2142dc"/>
      <path id="Trazado_1059130" data-name="Trazado 1059130" d="M173.472,320.267h0a.781.781,0,1,0,.782.781A.781.781,0,0,0,173.472,320.267Z" transform="translate(-159.2 -295.246)" fill="#2142dc"/>
    </g>
  </g>
</svg>
