<svg xmlns="http://www.w3.org/2000/svg" width="40" height="35.945" viewBox="0 0 40 35.945">
  <g id="Grupo_1311719" data-name="Grupo 1311719" transform="translate(0 -25.948)">
    <g id="Grupo_1311718" data-name="Grupo 1311718" transform="translate(0 25.948)">
      <path id="Trazado_1059131" data-name="Trazado 1059131" d="M39.222,60.33H36.275a2.333,2.333,0,0,0,.134-.781V49.256a2.357,2.357,0,0,0,3.126-2.21V39.232a7.044,7.044,0,0,0-4.378-6.513,3.906,3.906,0,1,0-5.309,0,7.07,7.07,0,0,0-3.986,4.2A7.058,7.058,0,0,0,23.506,34.7a3.907,3.907,0,1,0-7.012,0,7.058,7.058,0,0,0-2.356,2.211,7.07,7.07,0,0,0-3.986-4.2,3.906,3.906,0,1,0-5.309,0A7.044,7.044,0,0,0,.465,39.232v7.814a2.357,2.357,0,0,0,3.126,2.21V59.549a2.333,2.333,0,0,0,.134.781H.777a.781.781,0,0,0,0,1.563H39.222a.781.781,0,0,0,0-1.563ZM8.279,59.549V57.986H9.841v1.563A.781.781,0,0,1,8.279,59.549ZM7.5,51.734a.781.781,0,0,0-.781.781v3.907H5.153V46.264H9.841V56.423H8.279V52.516A.781.781,0,0,0,7.5,51.734ZM11.4,59.549V43.82l1.563,2.823V59.549a2.333,2.333,0,0,0,.134.781H11.27a2.333,2.333,0,0,0,.134-.781ZM25.47,46.4a2.361,2.361,0,0,0-1.563,0V43.139H25.47ZM17.656,56.423V54.86h1.563v1.563A.781.781,0,0,1,17.656,56.423Zm3.126,0V54.86h1.563v1.563A.781.781,0,0,1,20.781,56.423ZM22.344,53.3H20.781V47.046a.781.781,0,0,1,1.563,0Zm-3.126,0H17.656V47.046a.781.781,0,0,1,1.563,0Zm-3.126-6.9a2.361,2.361,0,0,0-1.563,0V43.139h1.563ZM14.53,59.548V48.609a.781.781,0,0,1,1.563,0v10.94A.781.781,0,0,1,14.53,59.548Zm3.126,0v-.781h4.688v.781a2.333,2.333,0,0,0,.134.781H17.522a2.333,2.333,0,0,0,.134-.781Zm6.251,0V48.609a.781.781,0,0,1,1.563,0v10.94A.781.781,0,0,1,23.907,59.548Zm3.126,0V46.643L28.6,43.82V59.549a2.333,2.333,0,0,0,.134.781H26.9a2.334,2.334,0,0,0,.134-.781Zm7.814-3.126H33.284V46.265h1.563Zm-3.126,0H30.158V46.265h1.563Zm-1.563,3.126V57.986h1.563v1.563A.781.781,0,0,1,30.158,59.549Zm3.126,0V57.986h1.563v1.563A.781.781,0,0,1,33.284,59.549Zm3.907-11.721a.782.782,0,0,1-.781-.781v-5.47h1.563v5.47A.782.782,0,0,1,37.191,47.827ZM30.158,29.855A2.344,2.344,0,1,1,32.5,32.2,2.347,2.347,0,0,1,30.158,29.855ZM32.5,33.762a5.476,5.476,0,0,1,5.47,5.47v.781H35.628a.781.781,0,0,0-.781.781V44.7H30.158V40.795a.781.781,0,0,0-.432-.7l-2.673-1.337a5.477,5.477,0,0,1,5.45-5Zm-4.2,7.367-1.266,2.287V40.795q0-.151-.007-.3ZM20,30.637a2.344,2.344,0,1,1-2.344,2.344A2.347,2.347,0,0,1,20,30.637Zm-2.534,5.316a3.922,3.922,0,0,0,5.068,0,5.473,5.473,0,0,1,2.936,4.843v.781H23.125a.781.781,0,0,0-.781.781v2.478A2.36,2.36,0,0,0,20,45.3a2.36,2.36,0,0,0-2.344-.464V42.358a.781.781,0,0,0-.781-.781H14.53v-.781A5.472,5.472,0,0,1,17.466,35.952Zm-4.5,4.843v2.622L11.7,41.129l1.272-.636Q12.967,40.643,12.967,40.795ZM7.5,27.511a2.344,2.344,0,1,1-2.344,2.344A2.347,2.347,0,0,1,7.5,27.511Zm0,6.251a5.477,5.477,0,0,1,5.45,5L10.273,40.1a.781.781,0,0,0-.432.7V44.7H5.153V40.795a.781.781,0,0,0-.781-.781H2.027v-.781A5.476,5.476,0,0,1,7.5,33.762ZM2.809,47.827a.782.782,0,0,1-.781-.781v-5.47H3.59v5.47A.782.782,0,0,1,2.809,47.827ZM5.153,59.549V57.986H6.716v1.563A.781.781,0,0,1,5.153,59.549Z" transform="translate(0 -25.948)" fill="#2142dc"/>
      <path id="Trazado_1059132" data-name="Trazado 1059132" d="M87.559,311.727a.782.782,0,1,0-.781.782.781.781,0,0,0,.781-.782Z" transform="translate(-79.281 -288.676)" fill="#2142dc"/>
    </g>
  </g>
</svg>
