<svg xmlns="http://www.w3.org/2000/svg" width="50" height="49.984" viewBox="0 0 50 49.984">
  <g id="img28" transform="translate(0 -0.077)">
    <g id="Grupo_1311735" data-name="Grupo 1311735" transform="translate(0 0.077)">
      <path id="Trazado_1059170" data-name="Trazado 1059170" d="M47.07,5.14H42.578V2.991a2.93,2.93,0,0,0-5.859,0V5.14H32.813V2.991a2.93,2.93,0,0,0-5.859,0V5.14H23.047V2.991a2.93,2.93,0,0,0-5.859,0V5.14H13.281V2.991a2.93,2.93,0,0,0-5.859,0V5.14H2.93A2.933,2.933,0,0,0,0,8.07V47.132a2.933,2.933,0,0,0,2.93,2.93H47.07A2.933,2.933,0,0,0,50,47.132V8.07a2.933,2.933,0,0,0-2.93-2.93Zm-8.4-2.149a.977.977,0,0,1,1.953,0V8.851a.977.977,0,0,1-1.953,0Zm-9.766,0a.977.977,0,0,1,1.953,0V8.851a.977.977,0,0,1-1.953,0Zm-9.766,0a.977.977,0,0,1,1.953,0V8.851a.977.977,0,0,1-1.953,0Zm-9.766,0a.977.977,0,0,1,1.953,0V8.851a.977.977,0,0,1-1.953,0ZM48.047,47.132a.978.978,0,0,1-.977.977H2.93a.978.978,0,0,1-.977-.977V15.687H20.605a.977.977,0,0,0,0-1.953H1.953V8.07a.978.978,0,0,1,.977-.977H7.422V8.851a2.93,2.93,0,0,0,5.859,0V7.093h3.906V8.851a2.93,2.93,0,0,0,5.859,0V7.093h3.906V8.851a2.93,2.93,0,0,0,5.859,0V7.093h3.906V8.851a2.93,2.93,0,0,0,5.859,0V7.093H47.07a.978.978,0,0,1,.977.977v5.664H29.394a.977.977,0,0,0,0,1.953H48.047Z" transform="translate(0 -0.077)" fill="#2142dc"/>
      <path id="Trazado_1059171" data-name="Trazado 1059171" d="M247.022,141.877a.977.977,0,0,0,0-1.953h0A.977.977,0,0,0,247.022,141.877Z" transform="translate(-222.022 -126.267)" fill="#2142dc"/>
      <path id="Trazado_1059172" data-name="Trazado 1059172" d="M114.391,196.024A9.05,9.05,0,0,0,108,211.448l8.475,8.475a5.146,5.146,0,0,0,7.226,0l8.475-8.475a9.036,9.036,0,0,0-12.087-13.4A8.968,8.968,0,0,0,114.391,196.024Zm11.4,1.953a7.036,7.036,0,0,1,5.008,2.074,7.116,7.116,0,0,1,0,10.016l-8.475,8.475a3.183,3.183,0,0,1-4.463,0l-8.475-8.475A7.082,7.082,0,0,1,119.4,200.052a.982.982,0,0,0,1.381,0A7.036,7.036,0,0,1,125.788,197.977Z" transform="translate(-95.067 -176.889)" fill="#2142dc"/>
      <path id="Trazado_1059173" data-name="Trazado 1059173" d="M192.982,298.062a4.714,4.714,0,0,0,6.7,4.248.977.977,0,1,0-.832-1.767A2.743,2.743,0,1,1,196.7,295.5v2.563a.977.977,0,0,0,.977.977h2.891l1.232,2.594a.977.977,0,0,0,1.764-.838l-1.5-3.151a.976.976,0,0,0-.882-.558h-2.532v-1.766H200.8a.977.977,0,0,0,0-1.953h-3.123A4.7,4.7,0,0,0,192.982,298.062Z" transform="translate(-174.136 -264.724)" fill="#2142dc"/>
      <path id="Trazado_1059174" data-name="Trazado 1059174" d="M227.609,257.972a1.465,1.465,0,0,0,0-2.93h0A1.465,1.465,0,0,0,227.609,257.972Z" transform="translate(-204.067 -230.143)" fill="#2142dc"/>
    </g>
  </g>
</svg>
