<svg xmlns="http://www.w3.org/2000/svg" width="50" height="44.959" viewBox="0 0 50 44.959">
  <g id="img26" transform="translate(0.001 -25.818)">
    <g id="Grupo_1311729" data-name="Grupo 1311729" transform="translate(-0.001 25.819)">
      <path id="Trazado_1059161" data-name="Trazado 1059161" d="M48.619,65.263A10.764,10.764,0,0,0,36.33,49.685C41.064,33.566,23.549,19.911,9.085,28.44a.976.976,0,0,0,1,1.679C23.774,22.1,39.847,36.006,33.9,50.709a10.783,10.783,0,0,0-5.085,6.731A16.68,16.68,0,0,1,9.876,58.562a.976.976,0,0,0-.763-.111l-.537.144-5.108,1.37-.012,0a.386.386,0,0,1-.38-.1.374.374,0,0,1-.1-.375q.759-2.834,1.519-5.663a.976.976,0,0,0-.111-.763,16.669,16.669,0,0,1-.123-17.123.976.976,0,1,0-1.679-1A18.629,18.629,0,0,0,2.5,53.723q-.706,2.632-1.412,5.266a2.315,2.315,0,0,0,.619,2.27,2.349,2.349,0,0,0,2.274.592l5.1-1.368.138-.037A18.638,18.638,0,0,0,28.5,60.054,10.777,10.777,0,0,0,44.479,69.4l2.737.734A1.74,1.74,0,0,0,48.9,69.7a1.716,1.716,0,0,0,.458-1.683Zm-1.881-.652a.976.976,0,0,0-.111.763l.746,2.782-2.782-.746a.977.977,0,0,0-.763.111,8.788,8.788,0,1,1,2.91-2.91Z" transform="translate(0.001 -25.819)" fill="#2142dc"/>
      <path id="Trazado_1059162" data-name="Trazado 1059162" d="M349.387,321.486a3.842,3.842,0,0,0-2.045.583,3.867,3.867,0,0,0-4.777,6.018l3.577,3.576a1.709,1.709,0,0,0,2.4,0l3.577-3.577a3.867,3.867,0,0,0-2.734-6.6Zm1.353,5.22-3.4,3.4-3.4-3.4A1.914,1.914,0,0,1,346.653,324a.977.977,0,0,0,1.381,0,1.914,1.914,0,1,1,2.707,2.707Z" transform="translate(-308.102 -292.617)" fill="#2142dc"/>
      <path id="Trazado_1059163" data-name="Trazado 1059163" d="M134.629,194.116a4.724,4.724,0,0,0,2-.447.976.976,0,0,0-.832-1.767,2.742,2.742,0,1,1-2.144-5.043v2.562a.976.976,0,0,0,.976.976h2.891l1.164,2.452a.976.976,0,1,0,1.764-.838L139.019,189a.976.976,0,0,0-.882-.558H135.6v-1.766h2.146a.976.976,0,0,0,0-1.953h-3.122a4.7,4.7,0,0,0,0,9.39Z" transform="translate(-117.269 -169.21)" fill="#2142dc"/>
      <path id="Trazado_1059164" data-name="Trazado 1059164" d="M164.334,149.33a1.465,1.465,0,0,0,0-2.929h0A1.465,1.465,0,0,0,164.334,149.33Z" transform="translate(-146.974 -134.627)" fill="#2142dc"/>
      <path id="Trazado_1059165" data-name="Trazado 1059165" d="M90.635,128.141a10.753,10.753,0,0,0,10.74-10.74c-.59-14.249-20.893-14.244-21.481,0a10.753,10.753,0,0,0,10.74,10.74Zm0-19.528a8.8,8.8,0,0,1,8.788,8.788c-.483,11.658-17.094,11.654-17.575,0a8.8,8.8,0,0,1,8.788-8.787Z" transform="translate(-72.094 -98.817)" fill="#2142dc"/>
      <path id="Trazado_1059166" data-name="Trazado 1059166" d="M53.638,80.821a.976.976,0,0,0,0-1.953h0A.976.976,0,0,0,53.638,80.821Z" transform="translate(-47.524 -73.688)" fill="#2142dc"/>
    </g>
  </g>
</svg>
