<svg xmlns="http://www.w3.org/2000/svg" width="39.721" height="50.843" viewBox="0 0 39.721 50.843">
  <g id="img29" transform="translate(-56.001)">
    <g id="Grupo_1311737" data-name="Grupo 1311737" transform="translate(56.001 0)">
      <path id="Trazado_1059175" data-name="Trazado 1059175" d="M95.722,20.158A10.938,10.938,0,0,0,85.791,9.28v-6.3A2.982,2.982,0,0,0,82.812,0H58.98A2.982,2.982,0,0,0,56,2.979V47.864a2.982,2.982,0,0,0,2.979,2.979H82.812a2.982,2.982,0,0,0,2.979-2.979V31.037a10.938,10.938,0,0,0,9.93-10.878ZM57.987,2.979a.994.994,0,0,1,.993-.993H82.812a.994.994,0,0,1,.993.993v.993H76.854a.993.993,0,0,0-.993.993h-9.93a.993.993,0,0,0-.993-.993H57.987ZM83.805,47.864a.994.994,0,0,1-.993.993H58.98a.994.994,0,0,1-.993-.993V46.87h8.44a.993.993,0,0,0,0-1.986h-8.44V5.958h6.225a1.987,1.987,0,0,0,1.719.993h9.93a1.987,1.987,0,0,0,1.719-.993h6.225V9.28A10.977,10.977,0,0,0,74.463,23.7,6.329,6.329,0,0,0,70.9,24.927a6.279,6.279,0,0,0-8.179,9.485l5.559,5.559a3.729,3.729,0,0,0,5.238,0l5.559-5.559A6.252,6.252,0,0,0,80.9,30.365a10.91,10.91,0,0,0,2.9.671V44.884H75.364a.993.993,0,0,0,0,1.986h8.441ZM78.926,29.842a4.273,4.273,0,0,1-1.256,3.166l-5.559,5.559a1.734,1.734,0,0,1-2.429,0l-5.559-5.559a4.293,4.293,0,0,1,6.071-6.071.993.993,0,0,0,1.4,0,4.318,4.318,0,0,1,3.6-1.22l-.689,2.57A1.744,1.744,0,0,0,74.976,30a1.77,1.77,0,0,0,1.711.446ZM84.8,29.1a8.917,8.917,0,0,1-4.665-1.313.993.993,0,0,0-.777-.113l-2.829.759.759-2.83a.993.993,0,0,0-.113-.777,8.968,8.968,0,0,1,7.625-13.6C96.654,11.712,96.652,28.606,84.8,29.1Z" transform="translate(-56.001 0)" fill="#2142dc"/>
      <path id="Trazado_1059176" data-name="Trazado 1059176" d="M293.325,175.93a.993.993,0,0,0-.9-.567h-2.575v-1.8h2.182a.993.993,0,0,0,0-1.986H288.86a4.775,4.775,0,1,0,2.034,9.095.993.993,0,0,0-.846-1.8,2.789,2.789,0,1,1-2.181-5.129v2.606a.993.993,0,0,0,.993.993h2.94l1.355,2.854a.993.993,0,0,0,1.794-.852Z" transform="translate(-261.436 -154.543)" fill="#2142dc"/>
      <path id="Trazado_1059177" data-name="Trazado 1059177" d="M318.736,136.235a1.49,1.49,0,0,0,0-2.979h0A1.49,1.49,0,0,0,318.736,136.235Z" transform="translate(-291.311 -120.023)" fill="#2142dc"/>
      <path id="Trazado_1059178" data-name="Trazado 1059178" d="M106.166,116.315H115.7a.993.993,0,0,0,0-1.986h-9.533A.993.993,0,0,0,106.166,116.315Z" transform="translate(-100.294 -102.976)" fill="#2142dc"/>
      <path id="Trazado_1059179" data-name="Trazado 1059179" d="M106.166,156.316H113.9a.993.993,0,0,0,0-1.986h-7.738A.993.993,0,0,0,106.166,156.316Z" transform="translate(-100.294 -139.005)" fill="#2142dc"/>
      <path id="Trazado_1059180" data-name="Trazado 1059180" d="M106.166,196.317H113.9a.993.993,0,0,0,0-1.986h-7.738A.993.993,0,0,0,106.166,196.317Z" transform="translate(-100.294 -175.034)" fill="#2142dc"/>
      <path id="Trazado_1059181" data-name="Trazado 1059181" d="M196.99,452h0a.993.993,0,1,0,.994.993A.993.993,0,0,0,196.99,452Z" transform="translate(-182.095 -407.116)" fill="#2142dc"/>
    </g>
  </g>
</svg>
