<svg xmlns="http://www.w3.org/2000/svg" width="50" height="49.997" viewBox="0 0 50 49.997">
  <g id="img25" transform="translate(0 -0.015)">
    <g id="Grupo_1311732" data-name="Grupo 1311732" transform="translate(0 0.014)">
      <path id="Trazado_1059167" data-name="Trazado 1059167" d="M150.087,153.2a11.95,11.95,0,0,0,4.987-1.12,2.925,2.925,0,0,0-2.5-5.291,5.851,5.851,0,0,1-5.421-10.358V141.5a2.933,2.933,0,0,0,2.93,2.93h6.433l1.634,3.442a2.925,2.925,0,1,0,5.291-2.5v0l-2.432-5.121a2.941,2.941,0,0,0-2.646-1.681h-5.351v-2.918h4.44a2.93,2.93,0,0,0,0-5.859h-4.787a3.905,3.905,0,1,0-4.88.227C134.1,133.116,135.933,152.8,150.087,153.2Zm0-28.3a1.953,1.953,0,0,1,0,3.906h0A1.953,1.953,0,0,1,150.088,124.906Zm0,6.836h7.369a.977.977,0,0,1,0,1.953H152.04a.977.977,0,0,0-.977.977v4.871a.977.977,0,0,0,.977.977h6.327a.981.981,0,0,1,.881.564l2.433,5.124a.972.972,0,1,1-1.76.826l-1.9-4a.976.976,0,0,0-.882-.558h-7.05a.978.978,0,0,1-.977-.977V134.95a.977.977,0,0,0-1.257-.935,7.805,7.805,0,1,0,5.558,14.543.972.972,0,0,1,.831,1.758,9.752,9.752,0,1,1-4.155-18.573Z" transform="translate(-124.919 -110.948)" fill="#2142dc"/>
      <path id="Trazado_1059168" data-name="Trazado 1059168" d="M47.084,44.152V18.6a2.946,2.946,0,0,0,.755-.1,2.922,2.922,0,0,0,.7-5.353L26.491.422A2.927,2.927,0,0,0,23.542.4L1.467,13.148A2.922,2.922,0,0,0,2.161,18.5a2.936,2.936,0,0,0,.755.1V44.152a2.93,2.93,0,0,0,.015,5.859H47.069a2.93,2.93,0,0,0,.015-5.859Zm-45-27.988a.973.973,0,0,1,.359-1.324L24.517,2.1a.972.972,0,0,1,.98.008l.012.007,22.05,12.731a.969.969,0,0,1-.959,1.683l-.017-.009-21.1-12.18a.976.976,0,0,0-.977,0l-6.748,3.9a.977.977,0,1,0,.977,1.691L25,6.309,45.131,17.932v26.22H4.869V17.932l6.259-3.614a.977.977,0,0,0-.977-1.691l-6.738,3.89-.012.007a.97.97,0,0,1-1.319-.359ZM47.069,48.058H2.93a.977.977,0,0,1,0-1.953H47.069a.977.977,0,0,1,0,1.953Z" transform="translate(0 -0.014)" fill="#2142dc"/>
      <path id="Trazado_1059169" data-name="Trazado 1059169" d="M138.955,107.279a.977.977,0,0,0,0-1.953h0A.977.977,0,0,0,138.955,107.279Z" transform="translate(-124.509 -95.042)" fill="#2142dc"/>
    </g>
  </g>
</svg>
