<svg xmlns="http://www.w3.org/2000/svg" width="50" height="55.683" viewBox="0 0 50 55.683">
  <g id="img27" transform="translate(-26.146)">
    <path id="Trazado_1059156" data-name="Trazado 1059156" d="M74.357,183.257a3.13,3.13,0,0,0-4.037,1.821l-.008.017-3.6,7.666a2.923,2.923,0,0,0-3.555,1.1c-.269.412-1.154,1.819-2.091,3.31-.891,1.416-1.811,2.881-2.07,3.277a12.846,12.846,0,0,1-2.4,2.393c-1.893,1.614-4.225,3.6-5.451,6.992a13.236,13.236,0,0,0-2.947-4.688,1.087,1.087,0,0,0-1.581,1.491c1.717,1.821,3.6,4.6,3.131,10.016H40.994v-3.614a1.087,1.087,0,0,0-.265-.711l-3.814-4.406a16,16,0,0,1-4.062-7.171c-.965-2.9-2.083-6.62-2.981-9.608-.679-2.258-1.216-4.043-1.473-4.767a.816.816,0,0,1,.373-1.116c.444-.185.922.108,1.247.765l3.993,8.5a4.266,4.266,0,0,0,.115,2.214,48.228,48.228,0,0,0,2.7,7.4,1.087,1.087,0,1,0,1.962-.936,45.973,45.973,0,0,1-2.569-7.049c-.3-1.081-.02-1.265.073-1.325a.752.752,0,0,1,1.025.22c.258.394,1.175,1.853,2.061,3.263l.586.932a1.087,1.087,0,1,0,1.84-1.157l-.586-.932c-.933-1.483-1.814-2.885-2.082-3.295a2.922,2.922,0,0,0-3.555-1.1l-3.6-7.666-.008-.017a3.13,3.13,0,0,0-4.037-1.821,2.967,2.967,0,0,0-1.59,3.837l0,.01c.239.668.8,2.522,1.441,4.668.9,3,2.025,6.736,3,9.668a18.018,18.018,0,0,0,4.481,7.907l3.549,4.1v4.3a1.087,1.087,0,0,0,1.087,1.087H62.385a1.087,1.087,0,0,0,1.087-1.087v-4.3l3.549-4.1A18.018,18.018,0,0,0,71.5,201.44c.975-2.931,2.1-6.666,3-9.668.645-2.146,1.2-4,1.441-4.668l0-.01a2.966,2.966,0,0,0-1.59-3.837Zm-.463,3.122c-.258.724-.795,2.509-1.473,4.767-.9,2.988-2.016,6.706-2.981,9.608a16,16,0,0,1-4.062,7.171l-3.814,4.406a1.087,1.087,0,0,0-.265.711v3.614H52.546c-.606-6.987,2.61-9.729,5.459-12.158a14.444,14.444,0,0,0,2.81-2.858c.512-.782,3.628-5.77,4.161-6.586a.752.752,0,0,1,1.025-.22c.093.061.375.245.073,1.325a45.956,45.956,0,0,1-2.569,7.049,1.087,1.087,0,0,0,1.962.936,48.212,48.212,0,0,0,2.7-7.4,4.266,4.266,0,0,0,.115-2.214l3.993-8.5c.325-.657.8-.95,1.247-.765a.816.816,0,0,1,.373,1.116Z" transform="translate(0 -163.147)" fill="#2142dc"/>
    <path id="Trazado_1059157" data-name="Trazado 1059157" d="M106.62,28.7a6.076,6.076,0,0,0,8.583,0L125.42,18.481c9.357-10.038-3.7-24.3-14.509-15.976C100.1-5.825,87.05,8.454,96.4,18.481ZM97.94,4.741a8.639,8.639,0,0,1,12.2,0,1.087,1.087,0,0,0,1.537,0c8.433-7.76,19.96,3.78,12.2,12.2L113.666,27.161a3.929,3.929,0,0,1-5.509,0L97.94,16.944a8.639,8.639,0,0,1,0-12.2Z" transform="translate(-59.766 0)" fill="#2142dc"/>
    <path id="Trazado_1059158" data-name="Trazado 1059158" d="M194.032,116.762a5.7,5.7,0,0,0,2.414-.54,1.087,1.087,0,0,0-.926-1.967,3.493,3.493,0,1,1-2.575-6.48v3.32a1.087,1.087,0,0,0,1.087,1.087h3.634l1.673,3.523a1.087,1.087,0,1,0,1.963-.932l-1.967-4.143a1.087,1.087,0,0,0-.982-.621h-3.234V107.6h2.759a1.087,1.087,0,0,0,0-2.174h-3.845a5.667,5.667,0,0,0,0,11.333Z" transform="translate(-144.616 -93.972)" fill="#2142dc"/>
    <path id="Trazado_1059159" data-name="Trazado 1059159" d="M226.972,66.813a1.63,1.63,0,0,0,0-3.26h0A1.63,1.63,0,0,0,226.972,66.813Z" transform="translate(-177.555 -56.647)" fill="#2142dc"/>
    <path id="Trazado_1059160" data-name="Trazado 1059160" d="M179.5,353.14a1.087,1.087,0,1,0,1.088,1.087,1.086,1.086,0,0,0-1.088-1.087Z" transform="translate(-135.717 -314.762)" fill="#2142dc"/>
  </g>
</svg>
