<svg xmlns="http://www.w3.org/2000/svg" width="156" height="154" viewBox="0 0 156 154">
  <g id="img3" transform="translate(-204.14 -1111)">
    <rect id="Rect치ngulo_455114" data-name="Rect치ngulo 455114" width="156" height="154" rx="20" transform="translate(204.14 1111)" fill="#a8b8ff"/>
    <g id="Fill_out_line" data-name="Fill out line" transform="translate(216.998 1122.859)">
      <path id="Trazado_999358" data-name="Trazado 999358" d="M377.2,37.1a4.1,4.1,0,0,0,4.1-4.1V30.552A6.552,6.552,0,0,0,374.742,24H360V37.1Z" transform="translate(-273.564 -6.362)" fill="#f0bca1"/>
      <path id="Trazado_999359" data-name="Trazado 999359" d="M143.693,119.006H88V30.552A6.552,6.552,0,0,1,94.552,24H156.8a6.552,6.552,0,0,0-6.552,6.552v81.9A6.552,6.552,0,0,1,143.693,119.006Z" transform="translate(-57.258 -6.362)" fill="#ffd9b5"/>
      <path id="Trazado_999360" data-name="Trazado 999360" d="M308.1,424a4.1,4.1,0,0,1,4.1,4.1v2.457H304V424Z" transform="translate(-229.031 -324.46)" fill="#f5c9aa"/>
      <path id="Trazado_999361" data-name="Trazado 999361" d="M81.331,433.009a4.1,4.1,0,0,0,4.1,4.1H28.1a4.1,4.1,0,0,1-4.1-4.1V428.1a4.1,4.1,0,0,1,4.1-4.1H85.427a4.1,4.1,0,0,0-4.1,4.1Z" transform="translate(-6.362 -324.46)" fill="#ffe3cd"/>
      <path id="Trazado_999362" data-name="Trazado 999362" d="M392,56h6.552v2.457a4.1,4.1,0,0,0,4.1,4.1H392Z" transform="translate(-299.012 -31.81)" fill="#f5c9aa"/>
      <path id="Trazado_999363" data-name="Trazado 999363" d="M222.552,120.38H216L217.638,104h3.276Z" transform="translate(-159.049 -69.982)" fill="#ba8b5d"/>
      <path id="Trazado_999364" data-name="Trazado 999364" d="M134.552,145.828A6.56,6.56,0,0,1,128,139.276v-1.638A1.638,1.638,0,0,1,129.638,136h9.828a1.638,1.638,0,0,1,1.638,1.638v1.638A6.56,6.56,0,0,1,134.552,145.828Z" transform="translate(-89.067 -95.429)" fill="#fab53f"/>
      <path id="Trazado_999365" data-name="Trazado 999365" d="M278.552,145.828A6.56,6.56,0,0,1,272,139.276v-1.638A1.638,1.638,0,0,1,273.638,136h9.828a1.638,1.638,0,0,1,1.638,1.638v1.638A6.56,6.56,0,0,1,278.552,145.828Z" transform="translate(-203.583 -95.429)" fill="#fab53f"/>
      <rect id="Rect치ngulo_455115" data-name="Rect치ngulo 455115" width="15.863" height="6.043" rx="3.022" transform="translate(52.259 50.748)" fill="#9f764a"/>
      <path id="Trazado_999366" data-name="Trazado 999366" d="M175.313,64.735a3.276,3.276,0,0,0-3.276-3.276H170.4a9.266,9.266,0,0,0-13.1,0h-3.276a9.266,9.266,0,0,0-13.1,0h-1.638a3.276,3.276,0,1,0,0,6.552h1.638a9.266,9.266,0,0,1,13.1,0h3.276a9.266,9.266,0,0,1,13.1,0h1.638A3.276,3.276,0,0,0,175.313,64.735Z" transform="translate(-95.429 -33.993)" fill="#9f764a"/>
      <path id="Trazado_999367" data-name="Trazado 999367" d="M379.847,147.276l-2.543,5.086-1.466,2.932L360.19,186.589l-8.19,8.19,1.149-8.047.489-3.419,15.647-31.3,1.466-2.93L373.295,144Z" transform="translate(-267.202 -101.791)" fill="#529ddf"/>
      <path id="Trazado_999368" data-name="Trazado 999368" d="M364.652,339.276l-2.443,2.443-4.6-2.3L358.1,336Z" transform="translate(-271.664 -254.478)" fill="#4384c3"/>
      <path id="Trazado_999369" data-name="Trazado 999369" d="M357.747,355,352,360.747l1.149-8.047Z" transform="translate(-267.202 -267.759)" fill="#68737f"/>
      <path id="Trazado_999370" data-name="Trazado 999370" d="M374.217,139.448l-6.552-3.276a1.638,1.638,0,0,0-2.2.733l-2.544,5.087-1.591-.8a5.324,5.324,0,0,0-7.274,2.665l-3.374,7.874,3.011,1.291,3.374-7.874a2.047,2.047,0,0,1,2.8-1.025l1.591.8-15.648,31.3a1.638,1.638,0,0,0-.157.5l-1.638,11.466a1.638,1.638,0,0,0,2.78,1.39l8.19-8.19a1.641,1.641,0,0,0,.307-.426l19.656-39.313a1.638,1.638,0,0,0-.732-2.2Zm-21.735,39.808-4.527,4.527.906-6.338,15.529-31.058,3.622,1.811Zm16.994-33.988-3.622-1.811,1.811-3.622,3.622,1.811Z" transform="translate(-260.84 -95.428)"/>
      <path id="Trazado_999371" data-name="Trazado 999371" d="M83.276,24.19a4.92,4.92,0,0,1,4.914-4.914h55.7a8.149,8.149,0,0,0-1.642,4.914V43.847h3.276V24.19a4.92,4.92,0,0,1,4.914-4.914h1.638a4.92,4.92,0,0,1,4.914,4.914v2.457a2.457,2.457,0,1,1-4.914,0V24.19a1.638,1.638,0,0,0-1.638-1.638H147.16v3.276H148.8v.819a5.7,5.7,0,0,0,.554,2.457H147.16V32.38h7.371a5.74,5.74,0,0,0,5.733-5.733V24.19a8.2,8.2,0,0,0-8.19-8.19H88.191A8.2,8.2,0,0,0,80,24.19V94.626h3.276Z" transform="translate(-50.896)"/>
      <path id="Trazado_999372" data-name="Trazado 999372" d="M91.35,398.742a4.92,4.92,0,0,1-4.914,4.914H79.065a2.46,2.46,0,0,1-2.457-2.457v-4.914a2.457,2.457,0,0,1,4.914,0v.819H78.246v3.276H83.16a1.638,1.638,0,0,0,1.638-1.638v-2.457a5.74,5.74,0,0,0-5.733-5.733H21.733A5.74,5.74,0,0,0,16,396.285V401.2a5.74,5.74,0,0,0,5.733,5.733h64.7a8.2,8.2,0,0,0,8.19-8.19V384H91.35Zm-17.465,4.914H21.733a2.46,2.46,0,0,1-2.457-2.457v-4.914a2.46,2.46,0,0,1,2.457-2.457H73.885a5.7,5.7,0,0,0-.554,2.457V401.2A5.7,5.7,0,0,0,73.885,403.656Z" transform="translate(0 -292.65)"/>
      <path id="Trazado_999373" data-name="Trazado 999373" d="M128,69.295a6.552,6.552,0,1,0,13.1,0V67.657a1.628,1.628,0,0,0-.235-.842h0l-4.2-7a7.629,7.629,0,0,1,9.275.31l-1.409,14.087h-.156a4.914,4.914,0,0,0,0,9.828h9.828a4.914,4.914,0,1,0,0-9.828h-.156l-1.409-14.086a7.629,7.629,0,0,1,9.275-.31l-4.2,7h0a1.628,1.628,0,0,0-.235.842v1.638a6.552,6.552,0,0,0,13.1,0V67.657a1.628,1.628,0,0,0-.235-.842h0l-3.511-5.851a4.914,4.914,0,0,0-1.17-9.686h-.991a10.9,10.9,0,0,0-13.752-.526V48h-3.276v2.751a10.9,10.9,0,0,0-13.752.526h-.991a4.914,4.914,0,0,0-1.17,9.686l-3.511,5.851h0a1.628,1.628,0,0,0-.235.842Zm6.552,3.276a3.28,3.28,0,0,1-3.276-3.276h6.552A3.28,3.28,0,0,1,134.551,72.571Zm2.021-6.552H132.53l2.021-3.368Zm19.274,13.1a1.64,1.64,0,0,1-1.638,1.638h-9.828a1.638,1.638,0,1,1,0-3.276h9.828A1.64,1.64,0,0,1,155.845,79.123Zm-8.018-4.914,1.31-13.1h.311l1.31,13.1Zm18.229-8.19h-4.042l2.021-3.368Zm-2.021,6.552a3.28,3.28,0,0,1-3.276-3.276h6.552A3.28,3.28,0,0,1,164.036,72.571ZM132.913,54.552h1.638a1.638,1.638,0,0,0,1.158-.48,7.628,7.628,0,0,1,10.788,0,1.638,1.638,0,0,0,1.158.48h3.276a1.638,1.638,0,0,0,1.158-.48,7.628,7.628,0,0,1,10.788,0,1.638,1.638,0,0,0,1.158.48h1.638a1.638,1.638,0,0,1,0,3.276h-.991a10.906,10.906,0,0,0-14.4,0H148.3a10.906,10.906,0,0,0-14.4,0h-.991a1.638,1.638,0,0,1,0-3.276Z" transform="translate(-89.066 -25.448)"/>
      <path id="Trazado_999374" data-name="Trazado 999374" d="M112,224h9.828v3.276H112Z" transform="translate(-76.344 -165.411)"/>
      <path id="Trazado_999375" data-name="Trazado 999375" d="M112,256h13.1v3.276H112Z" transform="translate(-76.344 -190.859)"/>
      <path id="Trazado_999376" data-name="Trazado 999376" d="M192,256h13.1v3.276H192Z" transform="translate(-139.963 -190.859)"/>
      <path id="Trazado_999377" data-name="Trazado 999377" d="M272,256h19.656v3.276H272Z" transform="translate(-203.583 -190.859)"/>
      <path id="Trazado_999378" data-name="Trazado 999378" d="M112,384h13.1v3.276H112Z" transform="translate(-76.344 -292.65)"/>
      <path id="Trazado_999379" data-name="Trazado 999379" d="M192,384h19.656v3.276H192Z" transform="translate(-139.963 -292.65)"/>
      <path id="Trazado_999380" data-name="Trazado 999380" d="M112,288h6.552v3.276H112Z" transform="translate(-76.344 -216.307)"/>
      <path id="Trazado_999381" data-name="Trazado 999381" d="M160,288h16.38v3.276H160Z" transform="translate(-114.515 -216.307)"/>
      <path id="Trazado_999382" data-name="Trazado 999382" d="M256,288h19.656v3.276H256Z" transform="translate(-190.859 -216.307)"/>
      <path id="Trazado_999383" data-name="Trazado 999383" d="M112,352h6.552v3.276H112Z" transform="translate(-76.344 -267.202)"/>
      <path id="Trazado_999384" data-name="Trazado 999384" d="M160,352h16.38v3.276H160Z" transform="translate(-114.515 -267.202)"/>
      <path id="Trazado_999385" data-name="Trazado 999385" d="M256,352h14.742v3.276H256Z" transform="translate(-190.859 -267.202)"/>
      <path id="Trazado_999386" data-name="Trazado 999386" d="M112,320h27.847v3.276H112Z" transform="translate(-76.344 -241.754)"/>
    </g>
  </g>
</svg>
