<svg xmlns="http://www.w3.org/2000/svg" width="50" height="50.04" viewBox="0 0 50 50.04">
  <g id="img34" transform="translate(-0.207)">
    <g id="Grupo_1311743" data-name="Grupo 1311743" transform="translate(0.207 0)">
      <path id="Trazado_1059191" data-name="Trazado 1059191" d="M351.156,374.9a.977.977,0,0,0-.883-.558h-2.534v-1.767h2.148a.977.977,0,0,0,0-1.955h-3.125a4.7,4.7,0,1,0,2,8.95.977.977,0,0,0-.833-1.768,2.745,2.745,0,1,1-2.146-5.048v2.565a.977.977,0,0,0,.977.977h2.893l1.2,2.536a.977.977,0,0,0,1.766-.838Z" transform="translate(-308.654 -334.404)" fill="#2142dc"/>
      <path id="Trazado_1059192" data-name="Trazado 1059192" d="M376.69,335.231a1.466,1.466,0,0,0,0-2.932h0A1.466,1.466,0,0,0,376.69,335.231Z" transform="translate(-338.582 -299.825)" fill="#2142dc"/>
      <path id="Trazado_1059193" data-name="Trazado 1059193" d="M44.027,29.542C48.914,15.2,37.85-.141,22.688,0,10.607-.245-.039,10.4.211,22.482.067,37.643,15.4,48.709,29.749,43.821A10.764,10.764,0,0,0,39.5,50.04c11.553-.169,14.811-15.6,4.53-20.5Zm-4.53-1a10.686,10.686,0,0,0-4.565,1.018,37.755,37.755,0,0,0,.637-6.1h7.618a20.448,20.448,0,0,1-1,5.423,10.731,10.731,0,0,0-2.69-.341ZM2.188,23.459H6.375a.977.977,0,0,0,0-1.955H2.188A20.432,20.432,0,0,1,7.1,9.15a22.319,22.319,0,0,0,4.092,3.124,34.719,34.719,0,0,0-1.138,5.7.977.977,0,0,0,1.942.224,33.064,33.064,0,0,1,.959-4.985,22.4,22.4,0,0,0,8.759,2.2V21.5H15.17a.977.977,0,0,0,0,1.955h6.541v6.09a22.407,22.407,0,0,0-8.759,2.2,33.09,33.09,0,0,1-.959-4.985.977.977,0,0,0-1.942.224,34.729,34.729,0,0,0,1.138,5.7A22.325,22.325,0,0,0,7.1,35.813,20.434,20.434,0,0,1,2.188,23.459Zm41-1.955H35.569a36.4,36.4,0,0,0-1.377-9.234A22.322,22.322,0,0,0,38.279,9.15,20.433,20.433,0,0,1,43.188,21.5Zm-10.58,9.541q-.3.248-.575.517a22.649,22.649,0,0,0-8.367-2.013v-6.09h9.949a35.01,35.01,0,0,1-1,7.558l-.006.028ZM21.711,42.87c-3.8-.584-6.865-5.291-8.165-9.229a20.624,20.624,0,0,1,8.165-2.135ZM23.665,21.5v-6.09a22.34,22.34,0,0,0,7.785-1.757q.5-.21.98-.442A34.649,34.649,0,0,1,33.614,21.5Zm0-19.413c2.453.418,4.765,2.4,6.594,5.7a23.229,23.229,0,0,1,1.576,3.532,20.624,20.624,0,0,1-8.17,2.138Zm-1.955,0V13.457a20.623,20.623,0,0,1-8.165-2.135c1.3-3.935,4.373-8.647,8.165-9.229Zm11.853,8.261a24.894,24.894,0,0,0-1.6-3.516A17.164,17.164,0,0,0,29.134,3a20.551,20.551,0,0,1,7.8,4.731A20.421,20.421,0,0,1,33.564,10.354ZM14.313,5.361a23.185,23.185,0,0,0-2.5,5,20.435,20.435,0,0,1-3.38-2.631A20.55,20.55,0,0,1,16.26,2.99a15.6,15.6,0,0,0-1.947,2.371Zm-2.5,29.244a19.925,19.925,0,0,0,4.443,7.368,20.549,20.549,0,0,1-7.822-4.737A20.436,20.436,0,0,1,11.817,34.605Zm16.93,4.685q0,.083,0,.166a8.568,8.568,0,0,1-5.083,3.415V31.506A20.7,20.7,0,0,1,30.7,33.113,10.691,10.691,0,0,0,28.747,39.291Zm10.75,8.8a8.805,8.805,0,0,1-8.8-8.8c.483-11.668,17.109-11.665,17.591,0A8.805,8.805,0,0,1,39.5,48.086Z" transform="translate(-0.207 0)" fill="#2142dc"/>
      <path id="Trazado_1059194" data-name="Trazado 1059194" d="M99.347,222a.977.977,0,0,0,0-1.955h0A.977.977,0,0,0,99.347,222Z" transform="translate(-88.781 -198.539)" fill="#2142dc"/>
    </g>
  </g>
</svg>
