<svg xmlns="http://www.w3.org/2000/svg" width="50" height="50.006" viewBox="0 0 50 50.006">
  <g id="img30" transform="translate(-0.031)">
    <g id="Grupo_1311739" data-name="Grupo 1311739" transform="translate(0.031 0)">
      <path id="Trazado_1059182" data-name="Trazado 1059182" d="M47.093,2.893a9.908,9.908,0,0,0-13.964,0,2.279,2.279,0,0,1-3.283,0c-7.424-7.2-19.474.113-16.459,10.193a20.112,20.112,0,0,0,2.3,5.175,7.543,7.543,0,0,0-.592.531,1.441,1.441,0,0,1-2.076,0,7.645,7.645,0,0,0-12.621,7.8c1.417,5.3,6.949,10.63,10.9,13a2.988,2.988,0,0,0-.251,1.2v1.65A1.942,1.942,0,0,0,12.9,44.382a9.456,9.456,0,0,0,.177,1.848,6.388,6.388,0,0,1,.084,2.546.976.976,0,1,0,1.886.505c.48-1.687-.2-3.353-.193-4.9h.27a1.942,1.942,0,0,0,1.939-1.939v-1.65a2.989,2.989,0,0,0-.248-1.2,28.614,28.614,0,0,0,9.718-10.073c.574.394,1.135.75,1.675,1.064a3.682,3.682,0,0,0-.437,1.749v2.226a2.278,2.278,0,0,0,2.276,2.276h.2a14.559,14.559,0,0,0,.242,5.365c.357,2.211.726,4.5.17,6.572a.976.976,0,0,0,1.886.505c.664-2.478.243-5.087-.128-7.388-.316-1.959-.616-3.818-.13-5.054h.641a2.278,2.278,0,0,0,2.276-2.276V32.337a3.682,3.682,0,0,0-.437-1.749c7.329-4.333,21.364-18.221,12.324-27.7Zm-31.985,37.9v1.637H13V40.795a1.046,1.046,0,0,1,.046-.309,6.409,6.409,0,0,0,.758.26.975.975,0,0,0,.5,0,6.578,6.578,0,0,0,.758-.258A1.046,1.046,0,0,1,15.108,40.795Zm-1.055-2.012C8.884,36.773-2.183,26.024,3.686,20.176a5.64,5.64,0,0,1,7.949,0,3.389,3.389,0,0,0,4.833,0q.141-.141.292-.271a39.777,39.777,0,0,0,8.174,8.454C22.426,33.333,16.665,37.892,14.053,38.782Zm19.2-6.445v2.226a.328.328,0,0,1-.323.323H30.045a.328.328,0,0,1-.323-.323V32.337a1.741,1.741,0,0,1,.224-.858,9.255,9.255,0,0,0,1.29.462.975.975,0,0,0,.5,0,9.255,9.255,0,0,0,1.29-.462,1.742,1.742,0,0,1,.224.858ZM47.7,12.582c-1.2,5.843-10.5,15.488-16.214,17.4C23.956,27.07,9.181,12.331,17.26,4.276a7.951,7.951,0,0,1,11.207,0,4.235,4.235,0,0,0,6.04,0,7.951,7.951,0,0,1,11.207,0A8.05,8.05,0,0,1,47.7,12.582Z" transform="translate(-0.031 0)" fill="#2142dc"/>
      <path id="Trazado_1059183" data-name="Trazado 1059183" d="M272.093,134.835a.976.976,0,0,0-.882-.558h-2.9v-2.162h2.478a.976.976,0,0,0,0-1.953h-3.454a5.09,5.09,0,1,0,2.168,9.7.976.976,0,0,0-.832-1.766,3.138,3.138,0,1,1-2.313-5.821v2.982a.976.976,0,0,0,.976.976h3.264l1.5,3.165a.976.976,0,0,0,1.764-.837Z" transform="translate(-236.64 -117.456)" fill="#2142dc"/>
      <path id="Trazado_1059184" data-name="Trazado 1059184" d="M300.925,91.217a1.464,1.464,0,0,0,0-2.929h0A1.464,1.464,0,0,0,300.925,91.217Z" transform="translate(-270.234 -79.669)" fill="#2142dc"/>
      <path id="Trazado_1059185" data-name="Trazado 1059185" d="M55.455,275.831a.976.976,0,1,0-1.674,1.005,22.863,22.863,0,0,0,2.938,3.807A.976.976,0,1,0,58.14,279.3,20.891,20.891,0,0,1,55.455,275.831Z" transform="translate(-48.408 -248.475)" fill="#2142dc"/>
      <path id="Trazado_1059186" data-name="Trazado 1059186" d="M42.587,233.247a.976.976,0,0,0-.976-.976h0a.976.976,0,1,0,.977.976Z" transform="translate(-36.67 -209.595)" fill="#2142dc"/>
    </g>
  </g>
</svg>
