<svg xmlns="http://www.w3.org/2000/svg" width="37.703" height="64.348" viewBox="0 0 37.703 64.348">
  <g id="img32" transform="translate(-106.002)">
    <g id="Grupo_1311745" data-name="Grupo 1311745" transform="translate(106.002 0)">
      <path id="Trazado_1059195" data-name="Trazado 1059195" d="M113.513,33.934h12.154l1.779,1.779a2.517,2.517,0,0,0,3.555,0l1.779-1.779h12.154a2.516,2.516,0,0,0,2.514-2.514V2.514A2.516,2.516,0,0,0,144.933,0h-31.42A2.516,2.516,0,0,0,111,2.514V31.42a2.516,2.516,0,0,0,2.514,2.514Zm31.42-31.42V31.42H132.258a1.257,1.257,0,0,0-.889.368l-2.147,2.147-2.147-2.147a1.257,1.257,0,0,0-.889-.368H113.513V2.514Z" transform="translate(-110.371 0)" fill="#2142dc"/>
      <path id="Trazado_1059196" data-name="Trazado 1059196" d="M139.9,316.666a5.533,5.533,0,0,0,.573-2.458v-2.154a5.566,5.566,0,0,0-11.131,0v1.74a5.58,5.58,0,0,0-8.977,0v-1.74a5.566,5.566,0,0,0-11.131,0v2.154a5.533,5.533,0,0,0,.573,2.458A8.747,8.747,0,0,0,106,323.9v2.154a1.257,1.257,0,0,0,1.257,1.257H116.2a8.878,8.878,0,0,0-.148,1.616v2.154a1.257,1.257,0,0,0,1.257,1.257H119.2a1.257,1.257,0,0,0,0-2.514h-.628v-.9a6.346,6.346,0,0,1,2.9-5.283,5.592,5.592,0,0,0,6.779,0,6.253,6.253,0,0,1,2.894,5.284v.9h-.629a1.257,1.257,0,0,0,0,2.514h1.886a1.257,1.257,0,0,0,1.257-1.257V328.93a8.867,8.867,0,0,0-.148-1.616h8.945a1.257,1.257,0,0,0,1.257-1.257V323.9A8.748,8.748,0,0,0,139.9,316.666Zm-8.045-4.613a3.052,3.052,0,0,1,6.1,0v2.154a3.052,3.052,0,0,1-6.1,0Zm-20.108,0a3.052,3.052,0,0,1,6.1,0v2.154a3.052,3.052,0,0,1-6.1,0ZM108.516,324.8v-.9a6.252,6.252,0,0,1,2.894-5.284,5.593,5.593,0,0,0,6.78,0,11.9,11.9,0,0,1,1.1.793,5.528,5.528,0,0,0,.57,2.281,8.776,8.776,0,0,0-2.779,3.107h-8.566Zm13.286-5.565v-2.155a3.052,3.052,0,0,1,6.1,0v2.155A3.052,3.052,0,0,1,121.8,319.235Zm19.39,5.565h-8.566a8.78,8.78,0,0,0-2.779-3.107,5.529,5.529,0,0,0,.57-2.282,11.932,11.932,0,0,1,1.1-.792,5.592,5.592,0,0,0,6.78,0,6.253,6.253,0,0,1,2.894,5.284Z" transform="translate(-106.002 -267.994)" fill="#2142dc"/>
      <path id="Trazado_1059197" data-name="Trazado 1059197" d="M202.79,114.406a6.594,6.594,0,0,0,2.792-.624,1.257,1.257,0,1,0-1.071-2.274,4.04,4.04,0,1,1-2.978-7.494v3.839a1.257,1.257,0,0,0,1.257,1.257h4.2l1.934,4.074a1.257,1.257,0,0,0,2.271-1.078l-2.275-4.792a1.257,1.257,0,0,0-1.135-.718h-3.74v-2.783h3.19a1.257,1.257,0,0,0,0-2.514H202.79A6.553,6.553,0,0,0,202.79,114.406Z" transform="translate(-184.926 -88.569)" fill="#2142dc"/>
      <path id="Trazado_1059198" data-name="Trazado 1059198" d="M235.1,63.2a1.885,1.885,0,0,0,0-3.77h0A1.885,1.885,0,0,0,235.1,63.2Z" transform="translate(-217.236 -51.957)" fill="#2142dc"/>
      <path id="Trazado_1059199" data-name="Trazado 1059199" d="M247.254,492h0a1.257,1.257,0,1,0,1.258,1.257A1.256,1.256,0,0,0,247.253,492Z" transform="translate(-228.403 -430.168)" fill="#2142dc"/>
    </g>
  </g>
</svg>
