<svg xmlns="http://www.w3.org/2000/svg" width="124" height="124" viewBox="0 0 124 124">
  <g id="img35" transform="translate(-1234.5 -458)">
    <g id="Elipse_12108" data-name="Elipse 12108" transform="translate(1241.5 465)" fill="#2142dc" stroke="rgba(255,255,255,0.4)" stroke-width="7">
      <circle cx="55" cy="55" r="55" stroke="none"/>
      <circle cx="55" cy="55" r="58.5" fill="none"/>
    </g>
    <g id="Grupo_1311748" data-name="Grupo 1311748" transform="translate(1249.568 471.026)">
      <path id="Trazado_1059201" data-name="Trazado 1059201" d="M59.733,31.488a7.742,7.742,0,0,0,7.733-7.733C67.041,13.5,52.423,13.5,52,23.755a7.742,7.742,0,0,0,7.733,7.733Zm0-12.889a5.155,5.155,0,1,1-5.155,5.155A5.161,5.161,0,0,1,59.733,18.6Z" transform="translate(-12.801)" fill="#e8ebfc"/>
      <path id="Trazado_1059202" data-name="Trazado 1059202" d="M83.767,36.552A6.767,6.767,0,1,0,77,29.786a6.774,6.774,0,0,0,6.767,6.766Zm0-10.955a4.189,4.189,0,1,1-4.189,4.189A4.194,4.194,0,0,1,83.767,25.6Z" transform="translate(-21.69 -2.486)" fill="#e8ebfc"/>
      <path id="Trazado_1059203" data-name="Trazado 1059203" d="M35.767,36.552A6.767,6.767,0,1,0,29,29.786a6.774,6.774,0,0,0,6.767,6.766Zm0-10.955a4.189,4.189,0,1,1-4.189,4.189A4.194,4.194,0,0,1,35.767,25.6Z" transform="translate(-4.622 -2.486)" fill="#e8ebfc"/>
      <path id="Trazado_1059204" data-name="Trazado 1059204" d="M33.289,88.311H71.955a1.289,1.289,0,0,0,1.289-1.289V79.289A1.289,1.289,0,0,0,71.955,78H33.289A1.289,1.289,0,0,0,32,79.289v7.733A1.289,1.289,0,0,0,33.289,88.311Zm1.289-7.733H70.666v5.155H34.578Z" transform="translate(-5.689 -22.023)" fill="#e8ebfc"/>
      <path id="Trazado_1059205" data-name="Trazado 1059205" d="M76.576,62.163a1.289,1.289,0,0,0,1.289-1.289V55.719a1.289,1.289,0,0,0-1.289-1.289H75.288V52.767a9.475,9.475,0,0,0-8.534-9.349,6.833,6.833,0,0,1-8.04.509c-.031-.031-.061-.063-.093-.092a10.891,10.891,0,0,0-6.554-3.116,8.237,8.237,0,0,1-10.355-.008,10.921,10.921,0,0,0-6.854,3.248,6.843,6.843,0,0,1-7.82-.651,8.991,8.991,0,0,0-8.46,9.392v1.73H17.289A1.289,1.289,0,0,0,16,55.719v5.155a1.289,1.289,0,0,0,1.289,1.289h3.222V78.274H17.289A1.289,1.289,0,0,0,16,79.563v5.8a1.289,1.289,0,0,0,1.289,1.289H76.576a1.289,1.289,0,0,0,1.289-1.289v-5.8a1.289,1.289,0,0,0-1.289-1.289H73.354V62.163ZM67.37,46.133a6.848,6.848,0,0,1,5.34,6.635V54.43H61.755c0-2.163.161-4.941-.741-6.941a9.338,9.338,0,0,0,6.357-1.356Zm-26.3-2.721a10.732,10.732,0,0,0,11.624.018,8.225,8.225,0,0,1,4.282,2.4,8.122,8.122,0,0,1,2.2,5.564V54.43H34.688V51.395l0-.087a7.6,7.6,0,0,1,6.38-7.9ZM21.153,52.571a6.325,6.325,0,0,1,5.247-6.56,9.188,9.188,0,0,0,6.3,1.363,9.89,9.89,0,0,0-.591,4.063V54.43H21.155V52.658Zm-2.575,4.437h56.71v2.578H18.578Zm56.71,27.066H18.578V80.852h56.71Zm-4.511-5.8H23.089V62.163H70.777Z" transform="translate(0 -8.764)" fill="#e8ebfc"/>
    </g>
  </g>
</svg>
