<svg xmlns="http://www.w3.org/2000/svg" width="70" height="70" viewBox="0 0 70 70">
  <g id="img45" transform="translate(-269 -958.088)">
    <circle id="Elipse_5614" data-name="Elipse 5614" cx="35" cy="35" r="35" transform="translate(269 958.087)" fill="#fff"/>
    <g id="Grupo_1311759" data-name="Grupo 1311759" transform="translate(257.928 970.819)">
      <g id="Grupo_1311758" data-name="Grupo 1311758" transform="translate(26.072)">
        <path id="Trazado_1059253" data-name="Trazado 1059253" d="M63.476,1.74h-.87V.87a.87.87,0,0,0-.87-.87H54.777a.87.87,0,0,0-.87.87v.87H38.25V.87A.87.87,0,0,0,37.38,0H30.421a.87.87,0,0,0-.87.87v.87h-.87a2.61,2.61,0,1,0,0,5.219h.87V43.667a.878.878,0,0,0,1.145.825l15.382-5.128,15.382,5.128a.878.878,0,0,0,1.145-.825V6.959h.87a2.61,2.61,0,0,0,0-5.219Zm-9.569,1.74v1.74H38.25V3.479ZM28.682,5.219a.87.87,0,0,1,0-1.74h.87v1.74ZM60.866,42.46,46.354,37.622a.87.87,0,0,0-.55,0L31.291,42.46V10.438H42.164a.87.87,0,0,0,0-1.74H31.291V1.74H36.51V6.089a.87.87,0,0,0,.87.87h17.4a.87.87,0,0,0,.87-.87V1.74h5.219V8.7H49.993a.87.87,0,0,0,0,1.74H60.866Zm2.61-37.241h-.87V3.479h.87A.87.87,0,0,1,63.476,5.219Z" transform="translate(-26.072)" fill="#2142dc"/>
        <path id="Trazado_1059254" data-name="Trazado 1059254" d="M195.883,248.761a4.2,4.2,0,0,0,5.964,3.784.87.87,0,1,0-.741-1.574,2.443,2.443,0,1,1-1.91-4.493v2.283a.87.87,0,0,0,.87.87h2.575l1.187,2.5a.87.87,0,0,0,1.571-.746l-1.423-3a.87.87,0,0,0-.786-.5h-2.255v-1.573h1.912a.87.87,0,0,0,0-1.74h-2.781A4.187,4.187,0,0,0,195.883,248.761Z" transform="translate(-181.112 -223.304)" fill="#2142dc"/>
        <path id="Trazado_1059255" data-name="Trazado 1059255" d="M230.279,206.253h0a1.3,1.3,0,1,0,1.305,1.3A1.3,1.3,0,0,0,230.278,206.253Z" transform="translate(-211.324 -188.312)" fill="#2142dc"/>
        <path id="Trazado_1059256" data-name="Trazado 1059256" d="M146.072,175.568a9.579,9.579,0,0,0,9.568,9.568c12.694-.526,12.69-18.613,0-19.137A9.579,9.579,0,0,0,146.072,175.568Zm17.4,0a7.838,7.838,0,0,1-7.829,7.829c-10.386-.43-10.383-15.229,0-15.658A7.838,7.838,0,0,1,163.469,175.568Z" transform="translate(-135.634 -151.559)" fill="#2142dc"/>
        <path id="Trazado_1059257" data-name="Trazado 1059257" d="M246.987,101.741a.87.87,0,0,0,0-1.74h0A.87.87,0,0,0,246.987,101.741Z" transform="translate(-226.98 -91.302)" fill="#2142dc"/>
      </g>
    </g>
  </g>
</svg>
