<svg xmlns="http://www.w3.org/2000/svg" width="70" height="70" viewBox="0 0 70 70">
  <g id="img43" transform="translate(-269 -958.088)">
    <circle id="Elipse_5614" data-name="Elipse 5614" cx="35" cy="35" r="35" transform="translate(269 958.087)" fill="#fff"/>
    <g id="Grupo_1311755" data-name="Grupo 1311755" transform="translate(284 972.477)">
      <g id="Grupo_1311754" data-name="Grupo 1311754" transform="translate(0 0.662)">
        <path id="Trazado_1059244" data-name="Trazado 1059244" d="M20,.662a20.023,20.023,0,0,0-20,20c1.1,26.533,38.905,26.525,40,0a20.023,20.023,0,0,0-20-20ZM20,39.1A18.458,18.458,0,0,1,1.562,20.662c1.013-24.46,35.866-24.453,36.875,0A18.458,18.458,0,0,1,20,39.1Z" transform="translate(0 -0.662)" fill="#2142dc"/>
        <path id="Trazado_1059245" data-name="Trazado 1059245" d="M68.643,45.783a16.941,16.941,0,0,0-20.991-2.307.781.781,0,0,0,.84,1.317c10-6.5,23.636.976,23.531,12.922A15.33,15.33,0,0,1,56.711,73.028C44.765,73.13,37.289,59.5,43.789,49.5a.781.781,0,0,0-1.318-.84A16.907,16.907,0,0,0,56.711,74.59c14.978-.014,22.514-18.207,11.932-28.807Z" transform="translate(-36.711 -37.715)" fill="#2142dc"/>
        <path id="Trazado_1059246" data-name="Trazado 1059246" d="M123.544,109.119a9.4,9.4,0,0,0,13.356,8.469,2.34,2.34,0,0,0-2-4.233,4.681,4.681,0,0,1-4.337-8.286v4.05a2.346,2.346,0,0,0,2.344,2.344h5.147l1.455,3.064a2.34,2.34,0,0,0,4.233-2v0l-2.093-4.408a2.353,2.353,0,0,0-2.116-1.345h-4.281v-2.334h3.552a2.344,2.344,0,0,0,0-4.687h-3.83a3.124,3.124,0,1,0-3.9.181A9.381,9.381,0,0,0,123.544,109.119Zm9.367-13.272a1.563,1.563,0,0,1,0,3.125h0A1.563,1.563,0,0,1,132.911,95.847Zm0,5.469h5.9a.781.781,0,0,1,0,1.563h-4.333a.781.781,0,0,0-.781.781v3.9a.781.781,0,0,0,.781.781h5.061a.784.784,0,0,1,.7.451l2.093,4.409a.778.778,0,1,1-1.408.661l-1.668-3.512a.781.781,0,0,0-.706-.446H132.91a.782.782,0,0,1-.781-.781v-5.237a.781.781,0,0,0-1.006-.748,6.245,6.245,0,1,0,4.447,11.635.778.778,0,0,1,.664,1.406,7.8,7.8,0,1,1-3.324-14.859Z" transform="translate(-113.892 -86.971)" fill="#2142dc"/>
        <path id="Trazado_1059247" data-name="Trazado 1059247" d="M101.121,102.56a.781.781,0,1,0-.552-1.334h0A.784.784,0,0,0,101.121,102.56Z" transform="translate(-92.501 -93.159)" fill="#2142dc"/>
      </g>
    </g>
  </g>
</svg>
