<svg xmlns="http://www.w3.org/2000/svg" xmlns:xlink="http://www.w3.org/1999/xlink" width="1326.49" height="414.251" viewBox="0 0 1326.49 414.251">
  <defs>
    <linearGradient id="linear-gradient" x1="0.513" y1="1" x2="0.5" y2="0.5" gradientUnits="objectBoundingBox">
      <stop offset="0" stop-color="#ffefd6" stop-opacity="0.38"/>
      <stop offset="0.397" stop-color="#eae7fb"/>
      <stop offset="1" stop-color="#eae7fb"/>
    </linearGradient>
  </defs>
  <g id="imgfondo4" transform="translate(0)">
    <path id="Union_5" data-name="Union 5" d="M.488,405.018V217.985L0,217.412V62.74C56.853,13.79,174.081-1.661,283.057.139c87.128,1.439,169.8,15.183,244.03,34.549,65.65,17.128,125.658,38.688,193.529,53.942,167.611,37.674,355.519,3.624,522.663-34.2q40.861-9.247,82.026-18.244V195.4h1.183V405.018Z" transform="translate(0.003 0)" opacity="0.2" fill="url(#linear-gradient)"/>
    <path id="Union_6" data-name="Union 6" d="M1048.261,346.853c-107.423,0-211.762-20.662-313.889-42.1-100.18-21.029-212.8-39.958-313.263-19.014-40.68,8.48-76.646,20.465-115.994,29.987-44.492,10.766-94.041,18.407-146.262,19.206C99.82,335.838,36.746,328.908,0,307.476V0H1326.488V207.283H1325.3v71.333c-33.7,33.179-112.3,54.831-192.873,63.727a765.676,765.676,0,0,1-84.159,4.51Z" transform="translate(1326.488 414.251) rotate(180)" fill="#f8efea" opacity="0.2"/>
  </g>
</svg>
