<svg xmlns="http://www.w3.org/2000/svg" width="85" height="85" viewBox="0 0 85 85">
  <g id="img6" transform="translate(-494.711 -4482)">
    <rect id="Rect치ngulo_454644" data-name="Rect치ngulo 454644" width="85" height="85" transform="translate(494.711 4482)" fill="#2142dc"/>
    <rect id="Rect치ngulo_454645" data-name="Rect치ngulo 454645" width="65" height="65" transform="translate(504.711 4492)" fill="#e5eaff"/>
    <g id="Grupo_1311713" data-name="Grupo 1311713" transform="translate(512.374 4489.119)">
      <g id="Grupo_1311684" data-name="Grupo 1311684" transform="translate(24.021 12.406)">
        <path id="Trazado_1059080" data-name="Trazado 1059080" d="M259.538,19.178a12.977,12.977,0,0,0-11.952,7.92,7.046,7.046,0,0,1,3.627,6.163v4.5A2.821,2.821,0,0,1,252.8,40.3v.879a2.808,2.808,0,0,1-.565,1.694,12.974,12.974,0,1,0,7.3-23.7Z" transform="translate(-247.586 -19.178)" fill="#fe646f"/>
      </g>
      <path id="Trazado_1059081" data-name="Trazado 1059081" d="M347.276,19.178a13.033,13.033,0,0,0-2.526.247,12.967,12.967,0,0,1,7.457,4.441,9.64,9.64,0,0,1,0,16.572,12.966,12.966,0,0,1-7.457,4.441,12.974,12.974,0,1,0,2.526-25.7Z" transform="translate(-311.302 -6.772)" fill="#fd4755"/>
      <path id="Trazado_1059082" data-name="Trazado 1059082" d="M284.065,53.482a9.662,9.662,0,0,0-9.317,7.149,7.015,7.015,0,0,1,.992,3.6v3.756a9.644,9.644,0,1,0,8.326-14.51Z" transform="translate(-248.092 -37.748)" fill="#dff6fd"/>
      <g id="Grupo_1311685" data-name="Grupo 1311685" transform="translate(33.967 15.734)">
        <path id="Trazado_1059083" data-name="Trazado 1059083" d="M356.671,157.3a9.681,9.681,0,0,1-6.573,5.032A9.648,9.648,0,0,0,361.75,152.9,10.731,10.731,0,0,1,356.671,157.3Z" transform="translate(-350.098 -143.253)" fill="#c8effe"/>
        <path id="Trazado_1059084" data-name="Trazado 1059084" d="M356.671,58.725a10.731,10.731,0,0,1,5.079,4.4A9.647,9.647,0,0,0,350.1,53.693,9.681,9.681,0,0,1,356.671,58.725Z" transform="translate(-350.098 -53.482)" fill="#c8effe"/>
      </g>
      <g id="Grupo_1311706" data-name="Grupo 1311706" transform="translate(0.728 19.439)">
        <g id="Grupo_1311686" data-name="Grupo 1311686" transform="translate(7.463 0)">
          <path id="Trazado_1059085" data-name="Trazado 1059085" d="M85.65,103.045H87.2V101.6a2.492,2.492,0,0,1,2.489-2.489h8.92A2.492,2.492,0,0,1,101.1,101.6v1.442h1.549a2.7,2.7,0,0,1,1.231.3V98.724a7.049,7.049,0,0,0-7.049-7.049H91.468a7.049,7.049,0,0,0-7.049,7.049v4.616A2.705,2.705,0,0,1,85.65,103.045Z" transform="translate(-84.419 -91.675)" fill="#ffe177"/>
        </g>
        <g id="Grupo_1311688" data-name="Grupo 1311688" transform="translate(18.464)">
          <g id="Grupo_1311687" data-name="Grupo 1311687">
            <path id="Trazado_1059086" data-name="Trazado 1059086" d="M199.218,91.674h-1.407a7.044,7.044,0,0,1,3.37,6.013v1.433a2.492,2.492,0,0,1,2.306,2.481v1.442h1.549a2.7,2.7,0,0,1,1.231.3V98.723A7.049,7.049,0,0,0,199.218,91.674Z" transform="translate(-197.811 -91.674)" fill="#ffd15b"/>
          </g>
        </g>
        <g id="Grupo_1311690" data-name="Grupo 1311690" transform="translate(0 22.766)">
          <g id="Grupo_1311689" data-name="Grupo 1311689">
            <path id="Trazado_1059087" data-name="Trazado 1059087" d="M38.373,330.4,27.7,326.322v1.856a3.048,3.048,0,0,1-2.915,3.069,3.01,3.01,0,0,1-3.1-3.005v-1.92L11.01,330.4a5.457,5.457,0,0,0-3.51,5.1v5.523a1.455,1.455,0,0,0,1.455,1.455H40.427a1.455,1.455,0,0,0,1.455-1.455V335.5a5.457,5.457,0,0,0-3.51-5.1Z" transform="translate(-7.5 -326.322)" fill="#6cf5c2"/>
          </g>
        </g>
        <g id="Grupo_1311692" data-name="Grupo 1311692" transform="translate(19.998 22.766)">
          <g id="Grupo_1311691" data-name="Grupo 1311691">
            <path id="Trazado_1059088" data-name="Trazado 1059088" d="M224.494,330.4l-10.675-4.078v1.856a3.1,3.1,0,0,1-.2,1.1l7.819,2.987a5.458,5.458,0,0,1,3.51,5.1v5.117h1.6A1.455,1.455,0,0,0,228,341.021V335.5A5.458,5.458,0,0,0,224.494,330.4Z" transform="translate(-213.619 -326.322)" fill="#00f2a6"/>
          </g>
        </g>
        <g id="Grupo_1311693" data-name="Grupo 1311693" transform="translate(14.087 22.316)">
          <path id="Trazado_1059089" data-name="Trazado 1059089" d="M158.187,321.743h-4.78a4.571,4.571,0,0,1-.715-.056v2.37a3.1,3.1,0,0,0,6.21,0v-2.37A4.574,4.574,0,0,1,158.187,321.743Z" transform="translate(-152.692 -321.687)" fill="#ffb09e"/>
        </g>
        <g id="Grupo_1311695" data-name="Grupo 1311695" transform="translate(15.654 22.316)">
          <g id="Grupo_1311694" data-name="Grupo 1311694">
            <path id="Trazado_1059090" data-name="Trazado 1059090" d="M172.776,321.744h-2.36v2.314a3.1,3.1,0,0,1-1.568,2.7,3.1,3.1,0,0,0,4.642-2.7v-2.37A4.589,4.589,0,0,1,172.776,321.744Z" transform="translate(-168.849 -321.688)" fill="#f89580"/>
          </g>
        </g>
        <g id="Grupo_1311698" data-name="Grupo 1311698" transform="translate(5.873 11.271)">
          <g id="Grupo_1311696" data-name="Grupo 1311696">
            <path id="Trazado_1059091" data-name="Trazado 1059091" d="M72.407,207.851H70.853a2.821,2.821,0,0,0-2.821,2.821v.879a2.821,2.821,0,0,0,2.821,2.821h1.554Z" transform="translate(-68.032 -207.851)" fill="#ffb09e"/>
          </g>
          <g id="Grupo_1311697" data-name="Grupo 1311697" transform="translate(18.262)">
            <path id="Trazado_1059092" data-name="Trazado 1059092" d="M257.82,207.851h-1.554v6.52h1.554a2.821,2.821,0,0,0,2.821-2.821v-.879A2.821,2.821,0,0,0,257.82,207.851Z" transform="translate(-256.266 -207.851)" fill="#f89580"/>
          </g>
        </g>
        <g id="Grupo_1311699" data-name="Grupo 1311699" transform="translate(10.144 7.341)">
          <path id="Trazado_1059093" data-name="Trazado 1059093" d="M121.493,182.468h-4.78a4.657,4.657,0,0,1-4.657-4.657v-7.885a2.587,2.587,0,0,1,2.587-2.587h8.92a2.587,2.587,0,0,1,2.587,2.587v7.885A4.657,4.657,0,0,1,121.493,182.468Z" transform="translate(-112.056 -167.338)" fill="#ffcebf"/>
        </g>
        <g id="Grupo_1311700" data-name="Grupo 1311700" transform="translate(16.568 7.341)">
          <path id="Trazado_1059094" data-name="Trazado 1059094" d="M183.357,167.339h-3.013a2.587,2.587,0,0,1,2.587,2.587v7.885a4.657,4.657,0,0,1-4.657,4.657h3.013a4.657,4.657,0,0,0,4.657-4.657v-7.885A2.588,2.588,0,0,0,183.357,167.339Z" transform="translate(-178.274 -167.339)" fill="#ffb09e"/>
        </g>
        <g id="Grupo_1311705" data-name="Grupo 1311705" transform="translate(9.558 9.469)">
          <g id="Grupo_1311701" data-name="Grupo 1311701" transform="translate(0 0)">
            <path id="Trazado_1059095" data-name="Trazado 1059095" d="M110.743,194.791h-2.659a2.074,2.074,0,0,1-2.068-2.068v-1.379a2.074,2.074,0,0,1,2.068-2.068h2.659a2.074,2.074,0,0,1,2.068,2.068v1.379A2.074,2.074,0,0,1,110.743,194.791Z" transform="translate(-106.015 -189.275)" fill="#fff"/>
          </g>
          <g id="Grupo_1311702" data-name="Grupo 1311702" transform="translate(1.894)">
            <path id="Trazado_1059096" data-name="Trazado 1059096" d="M128.366,189.274h-2.659c-.059,0-.117,0-.175.009a2.074,2.074,0,0,1,1.894,2.06v1.379a2.074,2.074,0,0,1-1.894,2.06c.058,0,.116.009.175.009h2.659a2.074,2.074,0,0,0,2.068-2.068v-1.379A2.074,2.074,0,0,0,128.366,189.274Z" transform="translate(-125.532 -189.274)" fill="#f3f0f3"/>
          </g>
          <g id="Grupo_1311703" data-name="Grupo 1311703" transform="translate(8.471 0)">
            <path id="Trazado_1059097" data-name="Trazado 1059097" d="M198.051,194.791h-2.659a2.074,2.074,0,0,1-2.068-2.068v-1.379a2.074,2.074,0,0,1,2.068-2.068h2.659a2.074,2.074,0,0,1,2.068,2.068v1.379A2.074,2.074,0,0,1,198.051,194.791Z" transform="translate(-193.323 -189.275)" fill="#fff"/>
          </g>
          <g id="Grupo_1311704" data-name="Grupo 1311704" transform="translate(10.349 0)">
            <path id="Trazado_1059098" data-name="Trazado 1059098" d="M215.535,189.274h-2.659c-.064,0-.127,0-.19.01a2.075,2.075,0,0,1,1.879,2.059v1.379a2.075,2.075,0,0,1-1.879,2.059c.063.006.126.01.19.01h2.659a2.074,2.074,0,0,0,2.068-2.068v-1.379A2.074,2.074,0,0,0,215.535,189.274Z" transform="translate(-212.686 -189.274)" fill="#f3f0f3"/>
          </g>
        </g>
      </g>
      <g id="Grupo_1311711" data-name="Grupo 1311711" transform="translate(26.328 20.054)">
        <g id="Grupo_1311707" data-name="Grupo 1311707">
          <path id="Trazado_1059099" data-name="Trazado 1059099" d="M281.011,98.008a11.117,11.117,0,0,0-9.645,5.325,11.4,11.4,0,0,0,19.29,0A11.117,11.117,0,0,0,281.011,98.008Z" transform="translate(-271.366 -98.008)" fill="#fff"/>
        </g>
        <g id="Grupo_1311708" data-name="Grupo 1311708" transform="translate(4.32)">
          <circle id="Elipse_13666" data-name="Elipse 13666" cx="5.325" cy="5.325" r="5.325" fill="#685e68"/>
        </g>
        <path id="Trazado_1059100" data-name="Trazado 1059100" d="M356.482,98.008a5.323,5.323,0,0,0-1.536.226,5.335,5.335,0,0,1,3.633,3.817,2.459,2.459,0,0,1,0,2.565,5.335,5.335,0,0,1-3.633,3.817,5.326,5.326,0,1,0,1.536-10.425Z" transform="translate(-346.837 -98.008)" fill="#554e56"/>
        <g id="Grupo_1311709" data-name="Grupo 1311709" transform="translate(7.188 2.868)">
          <circle id="Elipse_13667" data-name="Elipse 13667" cx="2.458" cy="2.458" r="2.458" fill="#fff"/>
        </g>
        <g id="Grupo_1311710" data-name="Grupo 1311710" transform="translate(8.653 2.868)">
          <path id="Trazado_1059101" data-name="Trazado 1059101" d="M361.549,127.566a2.448,2.448,0,0,0-.992.209,2.458,2.458,0,0,1,0,4.5,2.458,2.458,0,1,0,.992-4.706Z" transform="translate(-360.557 -127.566)" fill="#f3f0f3"/>
        </g>
      </g>
      <g id="Grupo_1311712" data-name="Grupo 1311712" transform="translate(0 11.678)">
        <path id="Trazado_1059102" data-name="Trazado 1059102" d="M127.479,210.585h1.7a.728.728,0,1,0,0-1.455h-1.7a.728.728,0,1,0,0,1.455Z" transform="translate(-114.454 -189.973)"/>
        <path id="Trazado_1059103" data-name="Trazado 1059103" d="M212.509,209.13h-1.7a.728.728,0,0,0,0,1.455h1.7a.728.728,0,1,0,0-1.455Z" transform="translate(-189.696 -189.973)"/>
        <path id="Trazado_1059104" data-name="Trazado 1059104" d="M157.36,272.3a2.688,2.688,0,0,1-3.8,0,.728.728,0,0,0-1.029,1.029,4.145,4.145,0,0,0,5.856,0,.728.728,0,0,0-1.029-1.029Z" transform="translate(-137.542 -246.821)"/>
        <path id="Trazado_1059105" data-name="Trazado 1059105" d="M35.973,11.678a13.678,13.678,0,0,0-12.3,7.668,7.728,7.728,0,0,0-3.073-.634H15.239a7.734,7.734,0,0,0-4.387,1.356.728.728,0,1,0,.822,1.2,6.285,6.285,0,0,1,3.565-1.1H20.6a6.327,6.327,0,0,1,5.8,3.8,10.862,10.862,0,0,0-.694,1.04.731.731,0,0,0,0,.737,10.928,10.928,0,0,0,1.219,1.684v2.587a3.559,3.559,0,0,0-.5-.036H26.1a2.8,2.8,0,0,0-.406-.719,3.318,3.318,0,0,0-3.312-3.211h-8.92a3.318,3.318,0,0,0-3.312,3.211,2.8,2.8,0,0,0-.406.719h-.32a3.558,3.558,0,0,0-.5.036V26.488a6.245,6.245,0,0,1,.726-2.941.728.728,0,1,0-1.287-.678,7.794,7.794,0,0,0-.894,3.62v4.086a3.548,3.548,0,0,0-1.59,2.957v.879a3.553,3.553,0,0,0,3.549,3.549h.77a5.4,5.4,0,0,0,2.977,4.133L3.978,45.6A6.22,6.22,0,0,0,0,51.381V56.9a2.185,2.185,0,0,0,2.183,2.183H24.546a.728.728,0,0,0,0-1.455H2.183a.728.728,0,0,1-.728-.728V51.381A4.756,4.756,0,0,1,4.5,46.962L14.086,43.3v.826a3.832,3.832,0,1,0,7.665,0V43.3l9.589,3.663a4.757,4.757,0,0,1,3.042,4.418V56.9a.728.728,0,0,1-.728.728H27.942a.728.728,0,1,0,0,1.455h5.713A2.185,2.185,0,0,0,35.838,56.9V51.381A6.22,6.22,0,0,0,31.86,45.6l-9.191-3.511a5.4,5.4,0,0,0,2.977-4.133h.77a3.534,3.534,0,0,0,2.373-.913,13.7,13.7,0,1,0,7.183-25.368ZM10.144,36.5H9.421A2.1,2.1,0,0,1,7.328,34.41v-.879a2.1,2.1,0,0,1,2.093-2.093h.137v.917a2.781,2.781,0,0,0,.586,1.71Zm3.315-9h8.92a1.853,1.853,0,0,1,1.446.7,2.791,2.791,0,0,0-.341-.023H20.825a2.8,2.8,0,0,0-2.8,2.8v.257h-.219v-.257a2.8,2.8,0,0,0-2.8-2.8H12.354a2.791,2.791,0,0,0-.341.023A1.853,1.853,0,0,1,13.459,27.508Zm-2.446,4.848V30.977a1.342,1.342,0,0,1,1.341-1.341h2.659a1.342,1.342,0,0,1,1.341,1.341v1.379A1.342,1.342,0,0,1,15.013,33.7H12.354A1.342,1.342,0,0,1,11.013,32.356ZM20.3,44.125a2.377,2.377,0,1,1-4.754,0V42.638H20.3v1.488Zm3.943-6.873a3.934,3.934,0,0,1-3.93,3.93h-4.78a3.934,3.934,0,0,1-3.93-3.93V35.047a2.789,2.789,0,0,0,.755.1h2.659a2.784,2.784,0,0,0,.979-.177,1.015,1.015,0,0,0,.247.464l1.148,1.23a.728.728,0,0,0,1.064-.993l-.89-.953.825-1a2.8,2.8,0,0,0,2.439,1.43h2.659a2.788,2.788,0,0,0,.755-.1v2.205Zm.586-4.9A1.342,1.342,0,0,1,23.484,33.7H20.825a1.342,1.342,0,0,1-1.341-1.341V30.977a1.342,1.342,0,0,1,1.341-1.341h2.659a1.342,1.342,0,0,1,1.341,1.341ZM28.51,34.41A2.1,2.1,0,0,1,26.417,36.5h-.723V34.065a2.781,2.781,0,0,0,.586-1.71v-.917h.137a2.1,2.1,0,0,1,2.093,2.093Zm2.455-12.422a6.027,6.027,0,0,0,0,6.782,9.927,9.927,0,0,1-3.782-3.391A9.927,9.927,0,0,1,30.964,21.988Zm-3.515.775a8.87,8.87,0,0,1,1.728-3.151l1.1,1.1A11.643,11.643,0,0,0,27.45,22.763Zm.926,7.277V28.819a12.209,12.209,0,0,0,7.6,2.613,12.439,12.439,0,0,0,4.271-.753l1.5,1.5A8.9,8.9,0,0,1,28.375,30.04Zm7.6-1.476a3.166,3.166,0,0,0,1.677-.479L38.667,29.1a4.594,4.594,0,0,1-6.416-6.416L33.267,23.7a3.183,3.183,0,0,0,2.706,4.863Zm0-6.371a3.165,3.165,0,0,0-1.677.479l-1.016-1.016A4.594,4.594,0,0,1,39.7,28.073l-1.016-1.016a3.183,3.183,0,0,0-2.706-4.863Zm-.594,1.563A1.725,1.725,0,0,1,37.6,25.973ZM36.567,27a1.725,1.725,0,0,1-2.217-2.217Zm4.415-5.014a9.928,9.928,0,0,1,3.782,3.391,9.927,9.927,0,0,1-3.782,3.391,6.028,6.028,0,0,0,0-6.782Zm3.518,6a8.911,8.911,0,0,1-1.731,3.154l-1.1-1.1A11.638,11.638,0,0,0,44.5,27.992Zm-8.527,9.633a12.178,12.178,0,0,1-6.322-1.759,3.527,3.527,0,0,0,.314-1.456v-.588a10.368,10.368,0,1,0,3.956-18.61.728.728,0,0,0,.288,1.427A8.914,8.914,0,0,1,44.5,22.766a12.111,12.111,0,0,0-8.527-3.44,12.439,12.439,0,0,0-4.271.753l-1.495-1.495a9.088,9.088,0,0,1,1.078-.786.728.728,0,1,0-.768-1.236,10.368,10.368,0,0,0-4.1,4.78,7.849,7.849,0,0,0-1.473-1.3A12.246,12.246,0,1,1,35.973,37.625Z" transform="translate(0 -11.678)"/>
      </g>
    </g>
  </g>
</svg>
