<svg xmlns="http://www.w3.org/2000/svg" width="295" height="327" viewBox="0 0 295 327">
  <g id="img23" transform="translate(-0.14)">
    <g id="BACKGROUND" transform="translate(0.14)">
      <g id="Grupo_1311846" data-name="Grupo 1311846">
        <rect id="Rectángulo_455176" data-name="Rectángulo 455176" width="295" height="327" fill="#f8efea"/>
        <path id="Trazado_1059835" data-name="Trazado 1059835" d="M39.135,267.928c-11.987-30.972-16.922-93.055,41.59-90.035s45.234-37.745,115.49-42.75,129.835,46.375,95.275,132.785H39.135Z" transform="translate(-19.279 48.62)" fill="#f8efea"/>
      </g>
    </g>
    <g id="OBJECTS" transform="translate(15.871 38.81)">
      <g id="Grupo_1311894" data-name="Grupo 1311894" transform="translate(0 108.467)">
        <g id="Grupo_1311863" data-name="Grupo 1311863" transform="translate(12.05)">
          <g id="Grupo_1311854" data-name="Grupo 1311854" transform="translate(14.445)">
            <path id="Trazado_1059836" data-name="Trazado 1059836" d="M110.959,176.006s-5.429-5.075-2.36-15.4,12.923-13.515,12.923-13.515l.551-7.08.639-9.206s11.261-29.682,33.921-7.671c0,0,.157-2.478.649-2.478s.354,2.242.354,2.242.806-1.849,1.4-1.534-.826,2.282-.826,2.282,5.44,2.026,4.706,8.871a30.405,30.405,0,0,1-4.287,12.2s-4.058,7.98-2.465,14.471,10.032,20.985-.177,30.674Z" transform="translate(-107.659 -115.007)" fill="#c6285c"/>
            <g id="Grupo_1311847" data-name="Grupo 1311847" transform="translate(23.521 38.81)">
              <path id="Trazado_1059837" data-name="Trazado 1059837" d="M170.812,213.631l-3.383,9.324,7.874,2.911,3.3-9.875Z" transform="translate(-167.429 -213.631)" fill="#e8614e"/>
              <path id="Trazado_1059838" data-name="Trazado 1059838" d="M182.087,215.991l-7.789-2.36-1.122,3.091c1.218,1.07,3.622,2.5,7.8,2.581Z" transform="translate(-170.914 -213.631)" fill="#d85345"/>
            </g>
            <g id="Grupo_1311853" data-name="Grupo 1311853" transform="translate(8.886 11.43)">
              <path id="Trazado_1059839" data-name="Trazado 1059839" d="M156.945,149.4s-3.96,20.5,11.73,24.863,20.883-18.942,20.883-18.942-2.6-.02-3.674-3.845c0,0-13.085,4.495-20.52-7.425,0,0-3.564,7.882-6.176,8.065C157.5,152.235,156.945,149.4,156.945,149.4Z" transform="translate(-146.165 -144.052)" fill="#e8614e"/>
              <g id="Grupo_1311849" data-name="Grupo 1311849" transform="translate(0 2.62)">
                <path id="Trazado_1059840" data-name="Trazado 1059840" d="M141.019,153.44s-6.137-5.35-9.461-1.072c-4.277,5.5,2.616,15.116,9.736,11.1Z" transform="translate(-130.239 -150.71)" fill="#e8614e"/>
                <g id="Grupo_1311848" data-name="Grupo 1311848" transform="translate(3.423 4.225)">
                  <path id="Trazado_1059841" data-name="Trazado 1059841" d="M138.938,163.3a8.016,8.016,0,0,1,4.642-1.849" transform="translate(-138.938 -161.447)" fill="none" stroke="#2e2854" stroke-linecap="round" stroke-linejoin="round" stroke-miterlimit="10" stroke-width="1.2"/>
                  <path id="Trazado_1059842" data-name="Trazado 1059842" d="M145.564,166.078a6.219,6.219,0,0,1-1.279-3.157" transform="translate(-142.181 -162.341)" fill="none" stroke="#2e2854" stroke-linecap="round" stroke-linejoin="round" stroke-miterlimit="10" stroke-width="1.2"/>
                </g>
              </g>
              <g id="Grupo_1311850" data-name="Grupo 1311850" transform="translate(13.612 17.9)">
                <path id="Trazado_1059843" data-name="Trazado 1059843" d="M216,201.635a3.383,3.383,0,0,0-2.389,5.778,19.41,19.41,0,0,0,4.664-4.894A3.368,3.368,0,0,0,216,201.635Z" transform="translate(-193.811 -196.875)" fill="#d85345"/>
                <circle id="Elipse_13683" data-name="Elipse 13683" cx="3.383" cy="3.383" r="3.383" fill="#d85345"/>
              </g>
              <path id="Trazado_1059844" data-name="Trazado 1059844" d="M233.595,172.505s2.282-.846,2.911,1.908-3.462,9.36-7.4,7.473Z" transform="translate(-190.202 -161.234)" fill="#e8614e"/>
              <g id="Grupo_1311852" data-name="Grupo 1311852" transform="translate(10.78 3.24)">
                <path id="Trazado_1059845" data-name="Trazado 1059845" d="M210.354,176.843a28.1,28.1,0,0,1,.708,4.013l-2.046-.275" transform="translate(-188.795 -167.179)" fill="none" stroke="#2e2854" stroke-linecap="round" stroke-linejoin="round" stroke-miterlimit="10" stroke-width="1.2"/>
                <path id="Trazado_1059846" data-name="Trazado 1059846" d="M189.206,190.874s4.957,3.383,9.6,1.81" transform="translate(-176.781 -175.688)" fill="none" stroke="#2e2854" stroke-linecap="round" stroke-linejoin="round" stroke-miterlimit="10" stroke-width="1.2"/>
                <g id="Grupo_1311851" data-name="Grupo 1311851">
                  <path id="Trazado_1059847" data-name="Trazado 1059847" d="M204.117,174.35s3.914-1.338,5.586,1.456" transform="translate(-185.824 -165.473)" fill="none" stroke="#2e2854" stroke-linecap="round" stroke-linejoin="round" stroke-miterlimit="10" stroke-width="1.2"/>
                  <circle id="Elipse_13684" data-name="Elipse 13684" cx="5.665" cy="5.665" r="5.665" transform="translate(5.057 8.012) rotate(-45)" fill="#2e2854" stroke="#2e2854" stroke-linecap="round" stroke-linejoin="round" stroke-miterlimit="10" stroke-width="1.2"/>
                  <ellipse id="Elipse_13685" data-name="Elipse 13685" cx="5.506" cy="4.851" rx="5.506" ry="4.851" transform="matrix(0.085, -0.996, 0.996, 0.085, 22.821, 16.031)" fill="#2e2854" stroke="#2e2854" stroke-linecap="round" stroke-linejoin="round" stroke-miterlimit="10" stroke-width="1.2"/>
                  <line id="Línea_27317" data-name="Línea 27317" x2="9.088" y2="4.524" transform="translate(0 2.11)" fill="none" stroke="#2e2854" stroke-linecap="round" stroke-linejoin="round" stroke-miterlimit="10" stroke-width="1.2"/>
                </g>
              </g>
            </g>
          </g>
          <path id="Trazado_1059848" data-name="Trazado 1059848" d="M81.642,432.493l-.787,15.975h46.952V435.4Z" transform="translate(-76.958 -307.556)" fill="#2e2854"/>
          <g id="Grupo_1311862" data-name="Grupo 1311862" transform="translate(0 31.525)">
            <path id="Trazado_1059849" data-name="Trazado 1059849" d="M113.875,227.285c-19.074-8.274-45.949,19.506-42.644,82.722,0,0,28.8,7.4,54.918,1.574,0,0-2.675-39.025-3.3-54.289S122.49,231.022,113.875,227.285Z" transform="translate(-70.953 -213.762)" fill="#49ad9f"/>
            <g id="Grupo_1311859" data-name="Grupo 1311859" transform="translate(45.84)">
              <g id="Grupo_1311858" data-name="Grupo 1311858" transform="translate(11.854)">
                <path id="Trazado_1059850" data-name="Trazado 1059850" d="M269.963,209.161a17.031,17.031,0,0,0-9.235-3.393s.885-10.651-1.151-10.651c-1.741,0-2.478,11.035-2.478,11.035s-3.6,20.772-9.029,31.629c-4.519,9.037-11.653,7.364-16.981,3.35l-10.281,5.856-3.246,9.72h0a36.016,36.016,0,0,0,26.142,4.8c24.076-4.366,22.66-41.661,22.66-41.661C270.14,215.475,269.963,209.161,269.963,209.161Z" transform="translate(-217.562 -195.117)" fill="#e8614e"/>
                <g id="Grupo_1311856" data-name="Grupo 1311856" transform="translate(42.782 6.563)">
                  <path id="Trazado_1059851" data-name="Trazado 1059851" d="M334.263,219.5c-.445.776-.949,1.064-1.513.976a.816.816,0,0,1-.756-.759c-.253,1.017-.635,1.713-1.113,1.713-1.613,0-1.744-5.241-1.735-5.218l-2.661.4-.207-1.438s1.918-3.659,4.366-3.363c.519.063.907.53,1.18,1.229,0,0,1.4-1.475,2.5-1,.772.331,1.067,1.338,1.04,2.7,0,0,.789-1.087,1.439-.654.974.649.482,3.2.059,4.583-.512,1.672-1.172,2.641-1.908,2.341C334.422,220.79,334.263,219.5,334.263,219.5Z" transform="translate(-326.278 -211.794)" fill="#e8614e"/>
                  <g id="Grupo_1311855" data-name="Grupo 1311855" transform="translate(0.001)">
                    <path id="Trazado_1059852" data-name="Trazado 1059852" d="M347.671,219.272a13.191,13.191,0,0,1-.686,3.851,6.072,6.072,0,0,1-.414.913" transform="translate(-338.586 -216.329)" fill="none" stroke="#2e2854" stroke-linecap="round" stroke-linejoin="round" stroke-miterlimit="10" stroke-width="1.2"/>
                    <path id="Trazado_1059853" data-name="Trazado 1059853" d="M340.375,214.961a13.194,13.194,0,0,1,.169,6.676" transform="translate(-334.828 -213.715)" fill="none" stroke="#2e2854" stroke-linecap="round" stroke-linejoin="round" stroke-miterlimit="10" stroke-width="1.2"/>
                    <path id="Trazado_1059854" data-name="Trazado 1059854" d="M326.28,215.174s1.918-3.659,4.366-3.363c.519.063.907.53,1.18,1.229,0,0,1.4-1.475,2.5-1,.772.331,1.067,1.338,1.04,2.7,0,0,.789-1.087,1.439-.654.974.649.482,3.2.059,4.583-.512,1.672-1.172,2.641-1.908,2.341-.531-.216-.689-1.507-.689-1.507-.445.776-.949,1.064-1.513.976a.816.816,0,0,1-.756-.759c-.253,1.017-.635,1.713-1.113,1.713-.852,0-1.29-1.462-1.513-2.838" transform="translate(-326.28 -211.794)" fill="none" stroke="#2e2854" stroke-linecap="round" stroke-linejoin="round" stroke-miterlimit="10" stroke-width="1.2"/>
                  </g>
                </g>
                <g id="Grupo_1311857" data-name="Grupo 1311857" transform="translate(40.363 8.104)">
                  <path id="Trazado_1059855" data-name="Trazado 1059855" d="M320.131,219.644s4.465-4.858,5.881-3.777-2.537,6.117-2.537,6.117,2.962,3.855-.25,7.16Z" transform="translate(-320.131 -215.711)" fill="#e8614e"/>
                  <path id="Trazado_1059856" data-name="Trazado 1059856" d="M320.131,219.644s4.465-4.858,5.881-3.777-2.537,6.117-2.537,6.117,2.962,3.855-.25,7.16" transform="translate(-320.131 -215.711)" fill="none" stroke="#2e2854" stroke-linecap="round" stroke-linejoin="round" stroke-miterlimit="10" stroke-width="1.2"/>
                </g>
              </g>
              <path id="Trazado_1059857" data-name="Trazado 1059857" d="M209.856,262.12c-5.311-5.547-10.858-21.243-22.417-28.039l1.41,36.654a36.93,36.93,0,0,0,10.444,9.6c5.573-4.047,10.354-10.546,13.528-15.576A24.829,24.829,0,0,1,209.856,262.12Z" transform="translate(-187.439 -218.748)" fill="#49ad9f"/>
            </g>
            <g id="Grupo_1311861" data-name="Grupo 1311861" transform="translate(24.269 24.947)">
              <path id="Trazado_1059858" data-name="Trazado 1059858" d="M150.542,319.062l-7.713,5.381h0a147.468,147.468,0,0,0,8.186,19.8c14,28.325,34.751,33.6,34.751,33.6l5.376-15.188c-11.6-11.9-17.794-30.715-21.52-46.616Z" transform="translate(-138.813 -293.399)" fill="#e8614e"/>
              <path id="Trazado_1059859" data-name="Trazado 1059859" d="M163.432,281.148c-2.139-9.128-3.464-17.294-4.527-22.636l-26.2,8.082s-1.009,7.726,3.931,22.963C142.693,289.17,153.587,287.535,163.432,281.148Z" transform="translate(-132.624 -258.512)" fill="#49ad9f"/>
              <g id="Grupo_1311860" data-name="Grupo 1311860" transform="translate(0 8.082)">
                <path id="Trazado_1059860" data-name="Trazado 1059860" d="M184.223,406.5a3.674,3.674,0,0,0,3.383,3.54" transform="translate(-163.917 -356.347)" fill="none" stroke="#2e2854" stroke-linecap="round" stroke-linejoin="round" stroke-miterlimit="10" stroke-width="1.2"/>
                <path id="Trazado_1059861" data-name="Trazado 1059861" d="M179.576,355.408s-20.746-5.275-34.751-33.6a147.468,147.468,0,0,1-8.186-19.8h0c-4.941-15.237-3.931-22.963-3.931-22.963" transform="translate(-132.623 -279.05)" fill="none" stroke="#2e2854" stroke-linecap="round" stroke-linejoin="round" stroke-miterlimit="10" stroke-width="1.2"/>
              </g>
            </g>
          </g>
        </g>
        <g id="Grupo_1311892" data-name="Grupo 1311892" transform="translate(105.073 1.827)">
          <g id="Grupo_1311864" data-name="Grupo 1311864" transform="translate(66.837 42.414)">
            <path id="Trazado_1059862" data-name="Trazado 1059862" d="M591.586,416.6a198.456,198.456,0,0,1,1.606,22.23H539.966l1.711-21.109Z" transform="translate(-515.26 -342.157)" fill="#e3686f"/>
            <path id="Trazado_1059863" data-name="Trazado 1059863" d="M552.469,278.15l-8.219-49.885a29.809,29.809,0,0,0-7.988-.823h0l-14.426,8.025-18.36-3.04c-5.945,1.742-9.76,5.226-12.837,9.215-5.035,6.53-13.454,6.594-13.454,6.594l1.81,15.161a62.828,62.828,0,0,0,21.044-4.964c.9,11.969,2.722,36.751,2.953,45.736,0,0,28.049,2.3,52.125-.764Z" transform="translate(-477.185 -227.431)" fill="#c6285c"/>
            <path id="Trazado_1059864" data-name="Trazado 1059864" d="M537.43,341.715c-.232-8.985-2.049-33.767-2.953-45.736-.307-4.056-.508-6.641-.508-6.641" transform="translate(-511.623 -264.976)" fill="none" stroke="#2e2854" stroke-linecap="round" stroke-linejoin="round" stroke-miterlimit="10" stroke-width="1.2"/>
            <path id="Trazado_1059865" data-name="Trazado 1059865" d="M576.78,227.459c-.339.009-.676.02-1.011.038a60.163,60.163,0,0,0-17.467,4.058,36.77,36.77,0,0,0-14.308.889c1.948,3.216,7.385,9.755,18.714,7.957C572.4,238.862,575.675,232.03,576.78,227.459Z" transform="translate(-517.703 -227.448)" fill="#e8614e"/>
          </g>
          <g id="Grupo_1311866" data-name="Grupo 1311866" transform="translate(0 48.128)">
            <path id="Trazado_1059866" data-name="Trazado 1059866" d="M378.348,272.021a29.36,29.36,0,0,0-6.2-2.141l-22.008,11.709L331.256,273.6c-20.665,5.35-24.213,19.107-23.9,33.2.374,16.68,5.606,42.172,6.188,43.041h71.489l.944-30.9Z" transform="translate(-307.34 -258.89)" fill="#f99645"/>
            <g id="Grupo_1311865" data-name="Grupo 1311865" transform="translate(39.32)">
              <path id="Trazado_1059867" data-name="Trazado 1059867" d="M407.258,243.053l.688,7.4,6.983-.944-.531-7.553Z" transform="translate(-407.258 -241.952)" fill="#9e4c39"/>
              <path id="Trazado_1059868" data-name="Trazado 1059868" d="M414.622,245.141l-.224-3.189-7.14,1.1.26,2.8A9.436,9.436,0,0,0,414.622,245.141Z" transform="translate(-407.258 -241.952)" fill="#964330"/>
            </g>
            <path id="Trazado_1059869" data-name="Trazado 1059869" d="M405.369,268.339h0L389.32,285.65l-18.006-13.711q-1.662.334-3.2.73a46.3,46.3,0,0,0,25.14,29.583s13.534-13.289,15.753-33.307A32.387,32.387,0,0,0,405.369,268.339Z" transform="translate(-344.198 -257.955)" fill="#f58540"/>
            <path id="Trazado_1059870" data-name="Trazado 1059870" d="M399.917,260.5l-.477-4.135a1.956,1.956,0,0,0-2.225-1.712l-9.7,1.41a1.956,1.956,0,0,0-1.667,2.116l.381,4.131a80.341,80.341,0,0,0-9.981,1.316c1.859,4.834,8.565,20.082,21.055,25.71a74.433,74.433,0,0,0,13-29.31A32.316,32.316,0,0,0,399.917,260.5Z" transform="translate(-349.13 -249.643)" fill="#49ad9f"/>
          </g>
          <g id="Grupo_1311869" data-name="Grupo 1311869" transform="translate(25.032 61.259)">
            <path id="Trazado_1059871" data-name="Trazado 1059871" d="M384.9,447.089s-14.3.774-13.946,10.232h15.284l2.478-4.232Z" transform="translate(-370.952 -379.495)" fill="#9e4c39"/>
            <g id="Grupo_1311868" data-name="Grupo 1311868" transform="translate(13.894)">
              <path id="Trazado_1059872" data-name="Trazado 1059872" d="M438.34,275.32a29.623,29.623,0,0,1,12.824,12.125c11.645,19.827,11.959,45.477,10.228,54.131s-7.4,11.569-16.365,11.569H407.654a25.941,25.941,0,0,1-1.338-10.232l3.069-.315a16.19,16.19,0,0,1,9.009-6.019c4.106-.922,15.17-2.438,23.989-3.367l-4.909-33.38Z" transform="translate(-406.258 -275.32)" fill="#f99645"/>
              <g id="Grupo_1311867" data-name="Grupo 1311867" transform="translate(0 24.514)">
                <path id="Trazado_1059873" data-name="Trazado 1059873" d="M498.056,421.261c3.6-.379,6.832-.661,9.057-.764" transform="translate(-461.932 -387.881)" fill="none" stroke="#2e2854" stroke-linecap="round" stroke-linejoin="round" stroke-miterlimit="10" stroke-width="1.2"/>
                <path id="Trazado_1059874" data-name="Trazado 1059874" d="M462.139,367.185a59.515,59.515,0,0,1-.746,12.172c-1.731,8.655-7.4,11.569-16.365,11.569H407.655a25.941,25.941,0,0,1-1.338-10.232l3.069-.315a16.19,16.19,0,0,1,9.009-6.019c4.106-.922,15.17-2.438,23.989-3.367l-4.909-33.38" transform="translate(-406.259 -337.614)" fill="none" stroke="#2e2854" stroke-linecap="round" stroke-linejoin="round" stroke-miterlimit="10" stroke-width="1.2"/>
                <path id="Trazado_1059875" data-name="Trazado 1059875" d="M414.2,446.289s.2,6.5,1.574,10.546" transform="translate(-411.077 -403.523)" fill="none" stroke="#2e2854" stroke-linecap="round" stroke-linejoin="round" stroke-miterlimit="10" stroke-width="1.2"/>
              </g>
            </g>
          </g>
          <g id="Grupo_1311871" data-name="Grupo 1311871" transform="translate(17.105 57.362)">
            <path id="Trazado_1059876" data-name="Trazado 1059876" d="M354.905,274.83s.157,2.085-1.141,2.4-2.872-3.3-2.951-5.193.525-3.546,2.478-2.006c0,0-.118-2.2,1.062-2.6s2.242,1.22,2.242,1.22-.048-2.2,1.338-2.439,2.085,1.77,2.085,1.77-.275-2.321,1.456-2.557,2.793,3.293,3.069,5.354.449,4.039-.708,4.442c-1.613.561-2.714-3.5-2.714-3.5s1.22,4.1-.3,4.721c-1.28.521-2.844-3.226-2.844-3.226s1.219,4.091-.118,4.681S354.905,274.83,354.905,274.83Z" transform="translate(-350.807 -265.416)" fill="#e8614e"/>
            <g id="Grupo_1311870" data-name="Grupo 1311870">
              <path id="Trazado_1059877" data-name="Trazado 1059877" d="M357.122,277.141a17.118,17.118,0,0,0,1.613,4.8" transform="translate(-354.637 -272.527)" fill="none" stroke="#2e2854" stroke-linecap="round" stroke-linejoin="round" stroke-miterlimit="10" stroke-width="1.2"/>
              <path id="Trazado_1059878" data-name="Trazado 1059878" d="M365.52,273.642a17.143,17.143,0,0,0,1.377,4.563" transform="translate(-359.73 -270.405)" fill="none" stroke="#2e2854" stroke-linecap="round" stroke-linejoin="round" stroke-miterlimit="10" stroke-width="1.2"/>
              <path id="Trazado_1059879" data-name="Trazado 1059879" d="M374.217,271.943a15.2,15.2,0,0,0,1.1,3.737" transform="translate(-365.005 -269.375)" fill="none" stroke="#2e2854" stroke-linecap="round" stroke-linejoin="round" stroke-miterlimit="10" stroke-width="1.2"/>
              <path id="Trazado_1059880" data-name="Trazado 1059880" d="M354.905,274.83s.157,2.085-1.141,2.4-2.872-3.3-2.951-5.193.525-3.546,2.478-2.006c0,0-.118-2.2,1.062-2.6s2.242,1.22,2.242,1.22-.048-2.2,1.338-2.439,2.085,1.77,2.085,1.77-.275-2.321,1.456-2.557,2.793,3.293,3.069,5.354.449,4.039-.708,4.442c-1.613.561-2.714-3.5-2.714-3.5s1.22,4.1-.3,4.721c-1.28.521-2.844-3.226-2.844-3.226s1.219,4.091-.118,4.681S354.905,274.83,354.905,274.83Z" transform="translate(-350.807 -265.416)" fill="none" stroke="#2e2854" stroke-linecap="round" stroke-linejoin="round" stroke-miterlimit="10" stroke-width="1.2"/>
            </g>
          </g>
          <g id="Grupo_1311878" data-name="Grupo 1311878" transform="translate(75.077 43.248)">
            <g id="Grupo_1311873" data-name="Grupo 1311873" transform="translate(0 45.959)">
              <path id="Trazado_1059881" data-name="Trazado 1059881" d="M520.589,409.2l-4.662-.573s-4.349-4.351-6.124-3.676,1.261,4.222,1.261,4.222-12.811-.745-12.94,1.445,8.858,2.308,8.858,2.308,1.615,6.589,5.5,8.608,10.507-2.264,10.507-2.264l.694-4.074Z" transform="translate(-498.122 -381.846)" fill="#2e2854"/>
              <path id="Trazado_1059882" data-name="Trazado 1059882" d="M643.023,364.478a3.179,3.179,0,0,1-2.33-5.192l9.66-11.782a3.179,3.179,0,1,1,4.916,4.031l-9.661,11.782A3.171,3.171,0,0,1,643.023,364.478Z" transform="translate(-584.152 -346.341)" fill="#958cb0"/>
              <g id="Grupo_1311872" data-name="Grupo 1311872" transform="translate(22.466 9.74)">
                <path id="Trazado_1059883" data-name="Trazado 1059883" d="M555.213,388.71l2.4,10.07a46.653,46.653,0,0,0,27.106-6.525c10.81-6.386,13.774-14.138,8.541-18.819s-12.576-1.686-17.1,3.169S564.271,387.74,555.213,388.71Z" transform="translate(-555.213 -371.092)" fill="#fff"/>
                <path id="Trazado_1059884" data-name="Trazado 1059884" d="M639.468,383.841a3.176,3.176,0,1,0-3.3,3.048A3.176,3.176,0,0,0,639.468,383.841Z" transform="translate(-602.461 -376.822)" fill="#958cb0"/>
                <path id="Trazado_1059885" data-name="Trazado 1059885" d="M563.734,414.315s.911,7.225,2.4,10.819" transform="translate(-560.381 -397.306)" fill="none" stroke="#2e2854" stroke-linecap="round" stroke-linejoin="round" stroke-miterlimit="10" stroke-width="1.2"/>
              </g>
            </g>
            <g id="Grupo_1311877" data-name="Grupo 1311877" transform="translate(53.299)">
              <g id="Grupo_1311874" data-name="Grupo 1311874" transform="translate(0 50.945)">
                <path id="Trazado_1059886" data-name="Trazado 1059886" d="M644.835,361.314a8.11,8.11,0,0,0-6.2-2.3c-4.17.079-5.094,1.22-5.075,2.065s2.557,1.355,4.229,1.464,5.729,1.147,6.924.527S645.374,361.817,644.835,361.314Z" transform="translate(-633.564 -359.011)" fill="#c6285c"/>
                <path id="Trazado_1059887" data-name="Trazado 1059887" d="M644.835,361.314a8.11,8.11,0,0,0-6.2-2.3c-4.17.079-5.094,1.22-5.075,2.065s2.557,1.355,4.229,1.464,5.729,1.147,6.924.527S645.374,361.817,644.835,361.314Z" transform="translate(-633.564 -359.011)" fill="none" stroke="#2e2854" stroke-linecap="round" stroke-linejoin="round" stroke-miterlimit="10" stroke-width="1.2"/>
                <path id="Trazado_1059888" data-name="Trazado 1059888" d="M660.972,362.514a5.393,5.393,0,0,0,.393,3.7c.924,2.4,2.419,6.855,4.308,6.442s1.093-3.128.885-6.048S663.637,358.669,660.972,362.514Z" transform="translate(-650.094 -360.29)" fill="#c6285c"/>
                <path id="Trazado_1059889" data-name="Trazado 1059889" d="M660.972,362.514a5.393,5.393,0,0,0,.393,3.7c.924,2.4,2.419,6.855,4.308,6.442s1.093-3.128.885-6.048S663.637,358.669,660.972,362.514Z" transform="translate(-650.094 -360.29)" fill="none" stroke="#2e2854" stroke-linecap="round" stroke-linejoin="round" stroke-miterlimit="10" stroke-width="1.2"/>
              </g>
              <g id="Grupo_1311876" data-name="Grupo 1311876" transform="translate(2.232)">
                <path id="Trazado_1059890" data-name="Trazado 1059890" d="M642.53,229.551c6.209,1.556,12.208,5.538,16.178,14.007,5.9,12.589,3.422,31.865,0,36.7a8.646,8.646,0,0,1-12.685,1.763c-5.476-4.529-.3-17.578-6.787-30.088Z" transform="translate(-639.235 -229.551)" fill="#c6285c"/>
                <g id="Grupo_1311875" data-name="Grupo 1311875" transform="translate(0 22.386)">
                  <path id="Trazado_1059891" data-name="Trazado 1059891" d="M656.7,342.671s-.208,5.846,2.094,9.267" transform="translate(-649.822 -320.542)" fill="none" stroke="#2e2854" stroke-linecap="round" stroke-linejoin="round" stroke-miterlimit="10" stroke-width="1.2"/>
                  <path id="Trazado_1059892" data-name="Trazado 1059892" d="M670.177,346.42s-.642,5.626-3.566,8.33" transform="translate(-655.838 -322.816)" fill="none" stroke="#2e2854" stroke-linecap="round" stroke-linejoin="round" stroke-miterlimit="10" stroke-width="1.2"/>
                  <path id="Trazado_1059893" data-name="Trazado 1059893" d="M677.187,353.393s-.439,3.356-4.808,5.72" transform="translate(-659.337 -327.045)" fill="none" stroke="#2e2854" stroke-linecap="round" stroke-linejoin="round" stroke-miterlimit="10" stroke-width="1.2"/>
                  <path id="Trazado_1059894" data-name="Trazado 1059894" d="M664.235,353.915a32.193,32.193,0,0,0,.1,5.192" transform="translate(-654.362 -327.361)" fill="none" stroke="#2e2854" stroke-linecap="round" stroke-linejoin="round" stroke-miterlimit="10" stroke-width="1.2"/>
                  <path id="Trazado_1059895" data-name="Trazado 1059895" d="M661.425,306.577c-.658,3.718-1.641,6.665-2.716,8.186a8.646,8.646,0,0,1-12.686,1.763c-5.476-4.529-.3-17.578-6.787-30.088" transform="translate(-639.236 -286.438)" fill="none" stroke="#2e2854" stroke-linecap="round" stroke-linejoin="round" stroke-miterlimit="10" stroke-width="1.2"/>
                </g>
              </g>
            </g>
          </g>
          <g id="Grupo_1311883" data-name="Grupo 1311883" transform="translate(20.935 2.583)">
            <path id="Trazado_1059896" data-name="Trazado 1059896" d="M366.324,150.123s-5.063-10.66,2.046-20.457c6.452-8.891,19.277,2.2,19.277,2.2s.63-2.675,1.987-2.5,1.436,3.128,1.436,3.128,1.81-1.18,3.3-.2,4.8-1.495,6.963,2.714c0,0,12.038,3.895,5.272,18.313l-26.122,12.766Z" transform="translate(-362.988 -126.214)" fill="#2e2854"/>
            <path id="Trazado_1059897" data-name="Trazado 1059897" d="M441.007,211.794c1.151,9.783,1.387,16.932-8.173,22.858s-11.757,15.776-3.518,24.482" transform="translate(-399.166 -178.117)" fill="none" stroke="#2e2854" stroke-linecap="round" stroke-linejoin="round" stroke-miterlimit="10" stroke-width="1.2"/>
            <g id="Grupo_1311881" data-name="Grupo 1311881" transform="translate(0 17.267)">
              <path id="Trazado_1059898" data-name="Trazado 1059898" d="M371.418,176.524s.354,25.309,17.821,24.129,17.467-21.716,17.467-21.716-1.239,3.01-2.774,2.714-1.416-2.537-1.77-6.2-2.655-6.255-5.193-5.075-2.3,2.262-3.718,1.986c-.734-.142-.623-1.087-.346-1.964,0,0-6.46,6.528-11.692,4.757a17.208,17.208,0,0,1-7.593-4.721S374.447,175.724,371.418,176.524Z" transform="translate(-367.137 -170.093)" fill="#9e4c39"/>
              <path id="Trazado_1059899" data-name="Trazado 1059899" d="M369.1,196.354a4.08,4.08,0,0,1-3.855,1.168c-3.7-.551-6.1-8.564-3.816-11.435s5.035-.406,5.035-.406Z" transform="translate(-360.539 -178.949)" fill="#9e4c39"/>
              <g id="Grupo_1311879" data-name="Grupo 1311879" transform="translate(8.254 8.765)">
                <path id="Trazado_1059900" data-name="Trazado 1059900" d="M402.271,192.367a9.977,9.977,0,0,1-1.062,3.934,5.486,5.486,0,0,0,2.124.394" transform="translate(-393.459 -192.367)" fill="none" stroke="#2e2854" stroke-linecap="round" stroke-linejoin="round" stroke-miterlimit="10" stroke-width="1.2"/>
                <path id="Trazado_1059901" data-name="Trazado 1059901" d="M381.515,197.437s1.3-3.265,4.957-.394" transform="translate(-381.515 -194.487)" fill="none" stroke="#2e2854" stroke-linecap="round" stroke-linejoin="round" stroke-miterlimit="10" stroke-width="1.2"/>
                <path id="Trazado_1059902" data-name="Trazado 1059902" d="M418.7,195.575s1.731-4.366,6.334,0" transform="translate(-404.069 -193.136)" fill="none" stroke="#2e2854" stroke-linecap="round" stroke-linejoin="round" stroke-miterlimit="10" stroke-width="1.2"/>
                <path id="Trazado_1059903" data-name="Trazado 1059903" d="M392.488,211.857s6.373,1.927,11.625-1.495" transform="translate(-388.17 -203.281)" fill="none" stroke="#2e2854" stroke-linecap="round" stroke-linejoin="round" stroke-miterlimit="10" stroke-width="1.2"/>
              </g>
              <g id="Grupo_1311880" data-name="Grupo 1311880" transform="translate(7.633 18.003)">
                <circle id="Elipse_13686" data-name="Elipse 13686" cx="3.26" cy="3.26" r="3.26" transform="translate(16.977 4.611) rotate(-45)" fill="#b55741"/>
                <path id="Trazado_1059904" data-name="Trazado 1059904" d="M383.6,228.905a3.257,3.257,0,0,0-3.666-5.367A19.266,19.266,0,0,0,383.6,228.905Z" transform="translate(-379.935 -220.238)" fill="#b55741"/>
              </g>
              <path id="Trazado_1059905" data-name="Trazado 1059905" d="M458.361,186.822l2.478-3.4s4.563-1.638,5.98,2.374-.787,12.535-10.228,8.589Z" transform="translate(-418.793 -177.978)" fill="#9e4c39"/>
            </g>
            <g id="Grupo_1311882" data-name="Grupo 1311882" transform="translate(38.562 20.888)">
              <path id="Trazado_1059906" data-name="Trazado 1059906" d="M466.568,181.5a1.671,1.671,0,0,0-2.742.573c-.817,1.634-1.007,6.028-1.049,7.731a1.172,1.172,0,0,1-.852,1.1,5.046,5.046,0,0,1-2.378.015,1.165,1.165,0,0,1-.926-1.051c-.137-1.663-.279-5.448.918-8.11A3.815,3.815,0,0,1,466.568,181.5Z" transform="translate(-458.531 -179.293)" fill="#fff"/>
              <path id="Trazado_1059907" data-name="Trazado 1059907" d="M461.861,193.634h.865a.458.458,0,0,1,.458.458v3.41a.458.458,0,0,1-.458.458h-.958a.459.459,0,0,1-.458-.471l.093-3.41A.459.459,0,0,1,461.861,193.634Z" transform="translate(-460.216 -187.991)" fill="#ff525e"/>
            </g>
          </g>
          <g id="Grupo_1311891" data-name="Grupo 1311891" transform="translate(82.108)">
            <path id="Trazado_1059908" data-name="Trazado 1059908" d="M518.376,162.032s23.771,5.1,42.981-2.564c0,0-.44-11.653-3.119-19.5,0,0-3.116-22.785-24.25-20.1s-12.778,27.672-12.778,27.672A96.567,96.567,0,0,1,518.376,162.032Z" transform="translate(-517.437 -119.65)" fill="#2e2854"/>
            <g id="Grupo_1311884" data-name="Grupo 1311884" transform="translate(20.147 37.653)">
              <path id="Trazado_1059909" data-name="Trazado 1059909" d="M567.186,217.11l1.663,9.645,8.641-1.89-2.034-9.532Z" transform="translate(-567.186 -215.332)" fill="#e8614e"/>
              <path id="Trazado_1059910" data-name="Trazado 1059910" d="M575.455,215.332l-8.269,1.778.668,3.874a15.491,15.491,0,0,0,8.36-2.1Z" transform="translate(-567.186 -215.332)" fill="#d85345"/>
            </g>
            <path id="Trazado_1059911" data-name="Trazado 1059911" d="M529.15,156.088s1.177,21.906,17.913,19.9,14.231-24.672,14.231-24.672-13.182,3.953-22.921-6.01C538.373,145.3,534.484,155.62,529.15,156.088Z" transform="translate(-523.971 -135.206)" fill="#e8614e"/>
            <path id="Trazado_1059912" data-name="Trazado 1059912" d="M552.588,145.3s.417,4.623,7.967,7.765" transform="translate(-538.186 -135.206)" fill="none" stroke="#2e2854" stroke-linecap="round" stroke-linejoin="round" stroke-miterlimit="10" stroke-width="1.2"/>
            <g id="Grupo_1311886" data-name="Grupo 1311886" transform="translate(36.491 14.196)">
              <path id="Trazado_1059913" data-name="Trazado 1059913" d="M609.552,157.632s5.3-4.509,8.254.335c3.714,6.093-2.968,12.006-9.087,8.529Z" transform="translate(-608.719 -155.723)" fill="#e8614e"/>
              <g id="Grupo_1311885" data-name="Grupo 1311885" transform="translate(2.661 3.155)">
                <path id="Trazado_1059914" data-name="Trazado 1059914" d="M615.482,165.3a4.2,4.2,0,0,1,4.34-1.376" transform="translate(-615.482 -163.742)" fill="none" stroke="#2e2854" stroke-linecap="round" stroke-linejoin="round" stroke-miterlimit="10" stroke-width="1.2"/>
                <path id="Trazado_1059915" data-name="Trazado 1059915" d="M620.7,168.085a5.427,5.427,0,0,0-.751-3.606" transform="translate(-618.189 -164.189)" fill="none" stroke="#2e2854" stroke-linecap="round" stroke-linejoin="round" stroke-miterlimit="10" stroke-width="1.2"/>
              </g>
            </g>
            <path id="Trazado_1059916" data-name="Trazado 1059916" d="M521.169,172.311s-3.9-1.458-4.945,2.516,1.334,9.326,8.957,7.746Z" transform="translate(-515.99 -151.429)" fill="#e8614e"/>
            <g id="Grupo_1311889" data-name="Grupo 1311889" transform="translate(8.115 18.675)">
              <g id="Grupo_1311887" data-name="Grupo 1311887" transform="translate(0 1.931)">
                <path id="Trazado_1059917" data-name="Trazado 1059917" d="M536.612,174.333l1.639,1.336a5.631,5.631,0,0,1,5.73-1.48" transform="translate(-536.612 -173.17)" fill="none" stroke="#2e2854" stroke-linecap="round" stroke-linejoin="round" stroke-miterlimit="10" stroke-width="1.2"/>
                <line id="Línea_27318" data-name="Línea 27318" x2="0.952" y2="1.136" transform="translate(1.916 0.399)" fill="none" stroke="#2e2854" stroke-linecap="round" stroke-linejoin="round" stroke-miterlimit="10" stroke-width="1.2"/>
                <line id="Línea_27319" data-name="Línea 27319" x2="0.435" y2="0.97" transform="translate(3.729)" fill="none" stroke="#2e2854" stroke-linecap="round" stroke-linejoin="round" stroke-miterlimit="10" stroke-width="1.2"/>
              </g>
              <g id="Grupo_1311888" data-name="Grupo 1311888" transform="translate(15.364)">
                <path id="Trazado_1059918" data-name="Trazado 1059918" d="M575.654,169.8a5.75,5.75,0,0,1,6.8-.294l.875-1.919" transform="translate(-575.654 -167.4)" fill="none" stroke="#2e2854" stroke-linecap="round" stroke-linejoin="round" stroke-miterlimit="10" stroke-width="1.2"/>
                <line id="Línea_27320" data-name="Línea 27320" x1="0.545" y2="1.313" transform="translate(4.986)" fill="none" stroke="#2e2854" stroke-linecap="round" stroke-linejoin="round" stroke-miterlimit="10" stroke-width="1.2"/>
                <line id="Línea_27321" data-name="Línea 27321" x1="0.1" y2="1.113" transform="translate(3.403 0.021)" fill="none" stroke="#2e2854" stroke-linecap="round" stroke-linejoin="round" stroke-miterlimit="10" stroke-width="1.2"/>
              </g>
              <path id="Trazado_1059919" data-name="Trazado 1059919" d="M562.109,171.777a6.921,6.921,0,0,1-.766,3.125,6.789,6.789,0,0,0,2.26-.8" transform="translate(-551.611 -169.939)" fill="none" stroke="#2e2854" stroke-linecap="round" stroke-linejoin="round" stroke-miterlimit="10" stroke-width="1.2"/>
              <path id="Trazado_1059920" data-name="Trazado 1059920" d="M559.745,187.889s5.392.3,8.3-3.668" transform="translate(-550.642 -177.486)" fill="none" stroke="#2e2854" stroke-linecap="round" stroke-linejoin="round" stroke-miterlimit="10" stroke-width="1.2"/>
            </g>
            <g id="Grupo_1311890" data-name="Grupo 1311890" transform="translate(9.393 28.12)">
              <path id="Trazado_1059921" data-name="Trazado 1059921" d="M592.257,194.26a3.029,3.029,0,1,0-3.15,2.9A3.029,3.029,0,0,0,592.257,194.26Z" transform="translate(-567.964 -191.107)" fill="#d85345"/>
              <path id="Trazado_1059922" data-name="Trazado 1059922" d="M542.62,203.126a3.026,3.026,0,0,0-2.76,1.541,15.171,15.171,0,0,0,3.964,4.209,3.029,3.029,0,0,0-1.2-5.75Z" transform="translate(-539.859 -198.395)" fill="#d85345"/>
            </g>
          </g>
        </g>
        <g id="Grupo_1311893" data-name="Grupo 1311893" transform="translate(61.175 90.102)">
          <path id="Trazado_1059923" data-name="Trazado 1059923" d="M304.664,391.213h-36.45L257.02,346.968a3.971,3.971,0,0,0-3.851-3H199.654a3.864,3.864,0,0,0-3.747,4.812l10.878,43a3.971,3.971,0,0,0,3.851,3h94.1a1.784,1.784,0,0,0,1.783-1.839A1.835,1.835,0,0,0,304.664,391.213Z" transform="translate(-195.787 -343.971)" fill="#2e2854"/>
          <circle id="Elipse_13687" data-name="Elipse 13687" cx="3.788" cy="3.788" r="3.788" transform="translate(30.416 27.456) rotate(-67.5)" fill="#fff"/>
        </g>
        <line id="Línea_27322" data-name="Línea 27322" x2="263.857" transform="translate(0 140.912)" fill="none" stroke="#2e2854" stroke-linecap="round" stroke-linejoin="round" stroke-miterlimit="10" stroke-width="1.2"/>
      </g>
      <g id="Grupo_1311896" data-name="Grupo 1311896">
        <path id="Trazado_1059924" data-name="Trazado 1059924" d="M130.085,337.4" transform="translate(-94.765 -184.761)" fill="none" stroke="#2e2854" stroke-linecap="round" stroke-linejoin="round" stroke-miterlimit="10" stroke-width="1.2"/>
        <circle id="Elipse_13688" data-name="Elipse 13688" cx="1.691" cy="1.691" r="1.691" transform="translate(93.195 65.76)" fill="none" stroke="#2e2854" stroke-linecap="round" stroke-linejoin="round" stroke-miterlimit="10" stroke-width="1.2"/>
        <circle id="Elipse_13689" data-name="Elipse 13689" cx="1.691" cy="1.691" r="1.691" transform="translate(256.18 190.186)" fill="none" stroke="#2e2854" stroke-linecap="round" stroke-linejoin="round" stroke-miterlimit="10" stroke-width="1.2"/>
        <path id="Trazado_1059925" data-name="Trazado 1059925" d="M70.037,235.262a1.691,1.691,0,1,0-1.691,1.691A1.691,1.691,0,0,0,70.037,235.262Z" transform="translate(-56.296 -133.317)" fill="none" stroke="#2e2854" stroke-linecap="round" stroke-linejoin="round" stroke-miterlimit="10" stroke-width="1.2"/>
        <circle id="Elipse_13690" data-name="Elipse 13690" cx="1.691" cy="1.691" r="1.691" transform="translate(21.423 19.948)" fill="none" stroke="#2e2854" stroke-linecap="round" stroke-linejoin="round" stroke-miterlimit="10" stroke-width="1.2"/>
        <circle id="Elipse_13691" data-name="Elipse 13691" cx="1.691" cy="1.691" r="1.691" transform="translate(250.298 68.405)" fill="none" stroke="#2e2854" stroke-linecap="round" stroke-linejoin="round" stroke-miterlimit="10" stroke-width="1.2"/>
        <circle id="Elipse_13692" data-name="Elipse 13692" cx="1.691" cy="1.691" r="1.691" transform="translate(193.606)" fill="none" stroke="#2e2854" stroke-linecap="round" stroke-linejoin="round" stroke-miterlimit="10" stroke-width="1.2"/>
        <line id="Línea_27323" data-name="Línea 27323" transform="translate(91.357 120.178)" fill="none" stroke="#2e2854" stroke-linecap="round" stroke-linejoin="round" stroke-miterlimit="10" stroke-width="3"/>
        <line id="Línea_27324" data-name="Línea 27324" transform="translate(269.245 211.392)" fill="none" stroke="#2e2854" stroke-linecap="round" stroke-linejoin="round" stroke-miterlimit="10" stroke-width="3"/>
        <line id="Línea_27325" data-name="Línea 27325" transform="translate(263.857 101.963)" fill="none" stroke="#2e2854" stroke-linecap="round" stroke-linejoin="round" stroke-miterlimit="10" stroke-width="3"/>
        <line id="Línea_27326" data-name="Línea 27326" transform="translate(4.592 178.742)" fill="none" stroke="#2e2854" stroke-linecap="round" stroke-linejoin="round" stroke-miterlimit="10" stroke-width="3"/>
        <line id="Línea_27327" data-name="Línea 27327" transform="translate(61.175 1.691)" fill="none" stroke="#2e2854" stroke-linecap="round" stroke-linejoin="round" stroke-miterlimit="10" stroke-width="3"/>
        <line id="Línea_27328" data-name="Línea 27328" transform="translate(116.294 49.49)" fill="none" stroke="#2e2854" stroke-linecap="round" stroke-linejoin="round" stroke-miterlimit="10" stroke-width="3"/>
        <line id="Línea_27329" data-name="Línea 27329" transform="translate(0 54.197)" fill="none" stroke="#2e2854" stroke-linecap="round" stroke-linejoin="round" stroke-miterlimit="10" stroke-width="3"/>
        <line id="Línea_27330" data-name="Línea 27330" transform="translate(228.09 26.962)" fill="none" stroke="#2e2854" stroke-linecap="round" stroke-linejoin="round" stroke-miterlimit="10" stroke-width="3"/>
        <line id="Línea_27331" data-name="Línea 27331" transform="translate(251.989 7.657)" fill="none" stroke="#2e2854" stroke-linecap="round" stroke-linejoin="round" stroke-miterlimit="10" stroke-width="3"/>
        <line id="Línea_27332" data-name="Línea 27332" transform="translate(178.329 61.425)" fill="none" stroke="#2e2854" stroke-linecap="round" stroke-linejoin="round" stroke-miterlimit="10" stroke-width="3"/>
      </g>
    </g>
  </g>
</svg>
