<svg xmlns="http://www.w3.org/2000/svg" width="120" height="120" viewBox="0 0 120 120">
  <g id="img7" transform="translate(-388.804 -10669)">
    <rect id="Rect치ngulo_402033" data-name="Rect치ngulo 402033" width="120" height="120" rx="10" transform="translate(388.804 10669)" fill="#2142dc"/>
    <rect id="Rect치ngulo_454167" data-name="Rect치ngulo 454167" width="100" height="100" rx="10" transform="translate(398.804 10679)" fill="#bcc6f5"/>
    <g id="Grupo_1311768" data-name="Grupo 1311768" transform="translate(394.008 10675.4)">
      <path id="Trazado_1059273" data-name="Trazado 1059273" d="M99.826,67.359c-.022-.02-.044-.039-.064-.061l-.665-.734h18.187a.439.439,0,1,0,0-.877H95.463l-7.179-7.181.127-.278a2.471,2.471,0,0,0-3.991-2.778l-3.9,3.9v-27.8A3.954,3.954,0,0,1,84.469,27.6h37.343a3.954,3.954,0,0,1,3.949,3.949V81.956a3.954,3.954,0,0,1-3.949,3.949h-8.634v-1.7a.438.438,0,0,0-.439-.439h-3.31v-2.6h7.855a.439.439,0,1,0,0-.877h-8.23l-.13-.192a2.9,2.9,0,0,0-2.4-1.272H91.527a2.916,2.916,0,0,0-2.911,2.911v2.034h-3.31a.438.438,0,0,0-.439.439v1.7l-.487-.054c-2.262-.25-3.858-1.463-3.858-3.9V78.563l7.732-7.735,2.354,2.348-.129.278a2.468,2.468,0,0,0,3.985,2.778l4.444-4.444h18.375a.439.439,0,1,0,0-.877H99.943l.333-.64a2.5,2.5,0,0,0,.279-1.155,2.446,2.446,0,0,0-.719-1.747Z" transform="translate(-50.993 -7.684)" fill="#f1f1f2" fill-rule="evenodd"/>
      <path id="Trazado_1059274" data-name="Trazado 1059274" d="M217.417,88.21l8.567,1.143a3.956,3.956,0,0,1,3.392,4.435l-6.656,49.966a3.96,3.96,0,0,1-4.438,3.392l-31.441-4.188.054-.819h16.623a.44.44,0,0,0,.439-.439v-3.168h8.634a4.833,4.833,0,0,0,4.826-4.826V88.21Z" transform="translate(-141.771 -59.434)" fill="#60b7ff" fill-rule="evenodd"/>
      <path id="Trazado_1059275" data-name="Trazado 1059275" d="M32.866,315.53a1.822,1.822,0,0,1-2.422.124l-.069-.056-.042-.079c-.029-.056-.072-.111-.107-.165-.567-.873-.724-1.589.076-2.389L41.726,301.54l2.567,2.563Z" transform="translate(-7.646 -241.577)" fill="#968996" fill-rule="evenodd"/>
      <path id="Trazado_1059276" data-name="Trazado 1059276" d="M173.192,55.311a40.706,40.706,0,0,1-.49,10.52,22.808,22.808,0,0,1-2.725,7.38,21.625,21.625,0,0,1-9.254,8.163l-.2.1-.2-.1a21.625,21.625,0,0,1-9.254-8.163,22.8,22.8,0,0,1-2.725-7.38,40.645,40.645,0,0,1-.49-10.52l.026-.384.384-.023a22.177,22.177,0,0,0,12-4.163l.259-.19.259.19a22.189,22.189,0,0,0,12,4.163l.384.023Z" transform="translate(-108.374 -27.279)" fill="#f1f1f2" fill-rule="evenodd"/>
      <path id="Trazado_1059277" data-name="Trazado 1059277" d="M168.89,48.663a.437.437,0,0,0-.424-.4,21.446,21.446,0,0,1-12.792-4.415.437.437,0,0,0-.539,0,21.42,21.42,0,0,1-12.792,4.415.437.437,0,0,0-.418.4c-.519,6.286-.14,13.109,3.031,18.718a22.771,22.771,0,0,0,10.254,9.173.427.427,0,0,0,.2.045.461.461,0,0,0,.193-.045,22.779,22.779,0,0,0,10.254-9.173C169.027,61.773,169.4,54.947,168.89,48.663Z" transform="translate(-103.257 -21.476)" fill="#60b7ff" fill-rule="evenodd"/>
      <path id="Trazado_1059278" data-name="Trazado 1059278" d="M108.205,250.893l1.023,1.023-4.93,4.935-8.429-8.428,4.937-4.934,7.4,7.4Z" transform="translate(-64.099 -192.014)" fill="#968996" fill-rule="evenodd"/>
      <path id="Trazado_1059279" data-name="Trazado 1059279" d="M158.92,301.156a1.588,1.588,0,0,1,2.248,0,1.6,1.6,0,0,1,0,2.253l-5.368,5.372a1.594,1.594,0,0,1-2.253-2.256Z" transform="translate(-112.948 -240.852)" fill="#968996" fill-rule="evenodd"/>
      <path id="Trazado_1059280" data-name="Trazado 1059280" d="M80.54,287.519v-5.907l.414-.023a2.448,2.448,0,0,0,.892-.221l.276-.127,2.354,2.346Z" transform="translate(-51.01 -224.245)" fill="#f1f1f2" fill-rule="evenodd"/>
      <path id="Trazado_1059281" data-name="Trazado 1059281" d="M74.263,227.266a1.593,1.593,0,1,1-2.256-2.251l5.372-5.371a1.588,1.588,0,0,1,2.713,1.127,1.56,1.56,0,0,1-.465,1.127Z" transform="translate(-43.328 -171.257)" fill="#968996" fill-rule="evenodd"/>
      <path id="Trazado_1059282" data-name="Trazado 1059282" d="M182.142,103.187a15.316,15.316,0,0,1-6.488-5.785,16.223,16.223,0,0,1-1.919-5.19,28.676,28.676,0,0,1-.376-7.343l.025-.383.382-.028a16.026,16.026,0,0,0,8.324-2.9l.256-.183.256.183a16,16,0,0,0,8.324,2.9l.382.028.025.383a28.671,28.671,0,0,1-.376,7.343,16.292,16.292,0,0,1-1.919,5.19,15.324,15.324,0,0,1-6.488,5.785l-.2.1Z" transform="translate(-130.194 -53.602)" fill="#f1f1f2" fill-rule="evenodd"/>
      <path id="Trazado_1059283" data-name="Trazado 1059283" d="M187.014,78.221a.439.439,0,0,0-.425-.4,15.1,15.1,0,0,1-9.113-3.143.437.437,0,0,0-.539,0,15.09,15.09,0,0,1-9.109,3.145.439.439,0,0,0-.425.4,30.415,30.415,0,0,0,.342,8.362,17.083,17.083,0,0,0,2.169,5.7,16.543,16.543,0,0,0,7.095,6.086.445.445,0,0,0,.2.045.467.467,0,0,0,.193-.045,16.573,16.573,0,0,0,7.1-6.087,17.076,17.076,0,0,0,2.172-5.7A30.359,30.359,0,0,0,187.014,78.221Z" transform="translate(-125.059 -47.799)" fill="#ffd064" fill-rule="evenodd"/>
      <path id="Trazado_1059284" data-name="Trazado 1059284" d="M116.27,417.83h26.557V422.7H116.27Z" transform="translate(-81.517 -340.867)" fill="#87d4ed" fill-rule="evenodd"/>
      <path id="Trazado_1059285" data-name="Trazado 1059285" d="M141.91,388.077v-2.033a2.036,2.036,0,0,1,2.032-2.034h14.995a2.036,2.036,0,0,1,2.032,2.034v2.033Z" transform="translate(-103.409 -311.991)" fill="#87d4ed" fill-rule="evenodd"/>
      <path id="Trazado_1059286" data-name="Trazado 1059286" d="M55.493,68.892a.878.878,0,0,1,.877-.877h9.92a.877.877,0,0,1,0,1.754H56.37A.877.877,0,0,1,55.493,68.892Zm1.665-33.607a.869.869,0,0,1,0,1.24l-5.593,5.593a.872.872,0,0,1-1.237,0l-3.193-3.188a.877.877,0,1,1,1.241-1.24l2.573,2.569,4.972-4.972a.872.872,0,0,1,1.237,0ZM52.149,49.2c4.716-2.44,9.27-6.579,8.548-17.9a16.425,16.425,0,0,1-8.548-2.976A16.43,16.43,0,0,1,43.6,31.3C42.88,42.617,47.433,46.755,52.149,49.2Zm9.4-19.613a14.638,14.638,0,0,1-8.858-3.051.876.876,0,0,0-1.08,0,14.628,14.628,0,0,1-8.853,3.051.877.877,0,0,0-.848.8c-1.1,13.346,4.685,18.006,9.849,20.578a.887.887,0,0,0,.393.092.854.854,0,0,0,.387-.092c5.163-2.571,10.954-7.233,9.855-20.578A.871.871,0,0,0,61.545,29.583ZM52.149,53.7c6.769-3.46,13.359-9.32,12.23-25.642a22.569,22.569,0,0,1-12.23-4.247,22.569,22.569,0,0,1-12.23,4.247C38.791,44.385,45.381,50.244,52.149,53.7ZM65.222,26.345a20.974,20.974,0,0,1-12.536-4.321.876.876,0,0,0-1.08,0A20.944,20.944,0,0,1,39.07,26.345a.877.877,0,0,0-.842.806c-.656,7.937.358,14.141,3.086,18.971,2.232,3.946,5.551,6.916,10.439,9.35a.887.887,0,0,0,.393.092.854.854,0,0,0,.387-.092c4.894-2.436,8.207-5.406,10.439-9.35,2.734-4.829,3.742-11.034,3.092-18.971a.871.871,0,0,0-.844-.806ZM87.171,34.3a3.513,3.513,0,0,0-3.014-3.943l-8.071-1.076v45a5.272,5.272,0,0,1-5.264,5.264h-8.2v2.729a.878.878,0,0,1-.877.877H45.536l31.033,4.134a3.518,3.518,0,0,0,3.946-3.014ZM35.191,77.4h25.68V81.39H35.191Zm21.93-3.351v1.595H38.94V74.051a1.6,1.6,0,0,1,1.593-1.595H55.528A1.6,1.6,0,0,1,57.121,74.051ZM33.436,76.525a.877.877,0,0,1,.877-.877h2.871V74.053A3.354,3.354,0,0,1,40.533,70.7H55.528a3.347,3.347,0,0,1,2.764,1.463h8a.877.877,0,1,1,0,1.754H58.877v1.727h2.871a.877.877,0,0,1,.877.877v1.259h8.2a3.515,3.515,0,0,0,3.51-3.51V23.864a3.515,3.515,0,0,0-3.51-3.51H33.478a3.515,3.515,0,0,0-3.51,3.51V50.605l3.152-3.15a2.91,2.91,0,0,1,4.7,3.273l6.834,6.836H66.29a.877.877,0,0,1,0,1.754h-17.2c.018.02.042.037.06.057A2.879,2.879,0,0,1,50,61.432a2.934,2.934,0,0,1-.329,1.358H66.29a.877.877,0,0,1,0,1.754H48.1L43.782,68.86a2.9,2.9,0,0,1-4.693-3.272l-1.826-1.822-7.295,7.3v3.21c0,2.55,1.9,3.288,3.468,3.462ZM24.913,73.64a1.375,1.375,0,0,1-.974.4,1.361,1.361,0,0,1-.865-.3c-.035-.067-.083-.132-.126-.2-.478-.732-.6-1.218.018-1.839L34.08,60.583l1.946,1.943Zm5.055-15.859a2.9,2.9,0,0,0,1.051-.26l1.826,1.822-2.877,2.874Zm6.023-7.454L30.624,55.7a1.155,1.155,0,0,1-1.636-1.631L34.361,48.7a1.158,1.158,0,0,1,1.629,0,1.163,1.163,0,0,1,0,1.631Zm7.676,8.732h0l.842.842L40.2,64.217,32.392,56.41,36.707,52.1Zm4.244,3.188-5.367,5.371a1.155,1.155,0,1,1-1.634-1.633l5.372-5.371a1.151,1.151,0,0,1,1.629,0,1.163,1.163,0,0,1,0,1.633ZM84.389,28.614l-8.3-1.105V23.864A5.271,5.271,0,0,0,70.821,18.6H33.478a5.271,5.271,0,0,0-5.264,5.264v28.5l-.466.465a2.919,2.919,0,0,0,0,4.114,3.176,3.176,0,0,0,.466.377V63.97l-6.488,6.488a2.923,2.923,0,0,0-.244,4.036.516.516,0,0,0,.048.069.809.809,0,0,0,.2.317,3.131,3.131,0,0,0,4.418,0l2.066-2.064v1.456c0,2.987,1.982,4.931,5.223,5.225v2.769a.878.878,0,0,0,.877.877h2.645a5.23,5.23,0,0,0,2.37.941l37.009,4.932a5.482,5.482,0,0,0,.7.047,5.275,5.275,0,0,0,5.218-4.57l6.662-49.966a5.283,5.283,0,0,0-4.53-5.913Z" transform="translate(0 0)" fill-rule="evenodd"/>
    </g>
  </g>
</svg>
