<svg xmlns="http://www.w3.org/2000/svg" xmlns:xlink="http://www.w3.org/1999/xlink" width="1326.49" height="310.236" viewBox="0 0 1326.49 310.236">
  <defs>
    <linearGradient id="linear-gradient" x1="0.513" y1="1" x2="0.5" y2="0.5" gradientUnits="objectBoundingBox">
      <stop offset="0" stop-color="#ffefd6" stop-opacity="0.38"/>
      <stop offset="0.397" stop-color="#eae7fb"/>
      <stop offset="1" stop-color="#eae7fb"/>
    </linearGradient>
  </defs>
  <g id="imgfondof" transform="translate(0)">
    <path id="Union_5" data-name="Union 5" d="M.488,310.236V166.972L0,166.534V48.057C56.853,10.563,174.081-1.272,283.057.106c87.128,1.1,169.8,11.63,244.03,26.464C592.736,39.69,652.745,56.2,720.616,67.888c167.611,28.858,355.519,2.776,522.663-26.2q40.861-7.083,82.026-13.975V149.671h1.183V310.236Z" transform="translate(0.003)" opacity="0.2" fill="url(#linear-gradient)"/>
    <path id="Union_6" data-name="Union 6" d="M1048.261,242.838c-107.423,0-211.762-14.466-313.889-29.474-100.18-14.723-212.8-27.975-313.263-13.312-40.68,5.937-76.646,14.328-115.994,20.995a939.519,939.519,0,0,1-146.262,13.447C99.82,235.127,36.746,230.274,0,215.27V0H1326.488V145.123H1325.3v49.941c-33.7,23.229-112.3,38.388-192.873,44.616-28.276,2.186-56.315,3.158-84.159,3.158Z" transform="translate(1326.488 310.236) rotate(180)" fill="#f8efea" opacity="0.2"/>
  </g>
</svg>
