<svg xmlns="http://www.w3.org/2000/svg" width="120" height="120" viewBox="0 0 120 120">
  <g id="img10" transform="translate(-388.711 -10669)">
    <rect id="Rect치ngulo_402033" data-name="Rect치ngulo 402033" width="120" height="120" rx="10" transform="translate(388.711 10669)" fill="#2142dc"/>
    <rect id="Rect치ngulo_454167" data-name="Rect치ngulo 454167" width="100" height="100" rx="10" transform="translate(398.711 10679)" fill="#bcc6f5"/>
    <g id="Grupo_1311808" data-name="Grupo 1311808" transform="translate(371.626 10688.529)">
      <g id="Grupo_1311806" data-name="Grupo 1311806" transform="translate(44.675 1.186)">
        <g id="Grupo_1311800" data-name="Grupo 1311800" transform="translate(32.41 0)">
          <circle id="Elipse_13669" data-name="Elipse 13669" cx="5.238" cy="5.238" r="5.238" transform="translate(5.565)" fill="#f6a96c"/>
          <path id="Trazado_1059331" data-name="Trazado 1059331" d="M302.357,11.545a5.239,5.239,0,0,1-7.108,7.108,5.238,5.238,0,1,0,7.108-7.108Z" transform="translate(-289.044 -10.906)" fill="#ea9b58"/>
          <path id="Trazado_1059332" data-name="Trazado 1059332" d="M277.607,93.082H256V79a5.238,5.238,0,0,1,5.238-5.238h11.131A5.238,5.238,0,0,1,277.607,79V93.082Z" transform="translate(-256 -63.291)" fill="#cb97e7"/>
          <path id="Trazado_1059333" data-name="Trazado 1059333" d="M277.607,106.222a23.829,23.829,0,0,0-21.079-13.828A5.217,5.217,0,0,0,256,94.687v14.077h21.607Z" transform="translate(-256 -78.973)" fill="#bd80e1"/>
        </g>
        <path id="Trazado_1059334" data-name="Trazado 1059334" d="M165.006,12.738A5.238,5.238,0,1,1,159.768,7.5,5.238,5.238,0,0,1,165.006,12.738Z" transform="translate(-138.161 -7.5)" fill="#fed2a4"/>
        <path id="Trazado_1059335" data-name="Trazado 1059335" d="M165.682,11.545a5.239,5.239,0,0,1-7.108,7.108,5.238,5.238,0,1,0,7.108-7.108Z" transform="translate(-141.566 -10.906)" fill="#ffbd86"/>
        <path id="Trazado_1059336" data-name="Trazado 1059336" d="M140.932,93.082H119.325V79a5.238,5.238,0,0,1,5.238-5.238h11.131A5.238,5.238,0,0,1,140.932,79Z" transform="translate(-108.522 -63.291)" fill="#fe7d43"/>
        <path id="Trazado_1059337" data-name="Trazado 1059337" d="M119.325,106.222A23.829,23.829,0,0,1,140.4,92.394a5.217,5.217,0,0,1,.528,2.293v14.077H119.325Z" transform="translate(-108.522 -78.973)" fill="#fd6930"/>
        <g id="Grupo_1311801" data-name="Grupo 1311801" transform="translate(0 14.405)">
          <circle id="Elipse_13670" data-name="Elipse 13670" cx="5.238" cy="5.238" r="5.238" transform="translate(5.566)" fill="#fed2a4"/>
          <path id="Trazado_1059338" data-name="Trazado 1059338" d="M97.345,102.662a5.239,5.239,0,0,1-7.108,7.108,5.238,5.238,0,1,0,7.108-7.108Z" transform="translate(-84.032 -102.023)" fill="#ffbd86"/>
          <path id="Trazado_1059339" data-name="Trazado 1059339" d="M72.594,179.288H50.987v-9.166a5.238,5.238,0,0,1,5.238-5.238H67.356a5.238,5.238,0,0,1,5.238,5.238v9.166Z" transform="translate(-50.987 -154.408)" fill="#62dbfb"/>
          <path id="Trazado_1059340" data-name="Trazado 1059340" d="M105.486,177.211a23.651,23.651,0,0,1,3.449-12.328h4.3a5.238,5.238,0,0,1,5.238,5.238v9.167h-12.9C105.518,178.6,105.486,177.911,105.486,177.211Z" transform="translate(-96.87 -154.407)" fill="#01d0fb"/>
        </g>
        <g id="Grupo_1311802" data-name="Grupo 1311802" transform="translate(43.214 14.405)">
          <circle id="Elipse_13671" data-name="Elipse 13671" cx="5.238" cy="5.238" r="5.238" transform="translate(5.566)" fill="#ca6e59"/>
          <path id="Trazado_1059341" data-name="Trazado 1059341" d="M370.7,102.662a5.239,5.239,0,0,1-7.108,7.108,5.238,5.238,0,1,0,7.108-7.108Z" transform="translate(-357.382 -102.023)" fill="#bb5d4c"/>
          <path id="Trazado_1059342" data-name="Trazado 1059342" d="M345.944,179.288H324.337v-9.166a5.238,5.238,0,0,1,5.238-5.238h11.131a5.238,5.238,0,0,1,5.238,5.238v9.166Z" transform="translate(-324.337 -154.408)" fill="#00f2a6"/>
          <path id="Trazado_1059343" data-name="Trazado 1059343" d="M337.329,177.211a23.651,23.651,0,0,0-3.449-12.328h-4.3a5.238,5.238,0,0,0-5.238,5.238v9.167h12.9C337.3,178.6,337.329,177.911,337.329,177.211Z" transform="translate(-324.338 -154.407)" fill="#05e39c"/>
        </g>
        <g id="Grupo_1311805" data-name="Grupo 1311805" transform="translate(12.768 17.566)">
          <g id="Grupo_1311803" data-name="Grupo 1311803">
            <path id="Trazado_1059344" data-name="Trazado 1059344" d="M231.756,357.014h7.665v6.707h-7.665Z" transform="translate(-215.946 -319.326)" fill="#ffe177"/>
            <path id="Trazado_1059345" data-name="Trazado 1059345" d="M256,357.014h3.833v6.707H256Z" transform="translate(-236.357 -319.326)" fill="#ffd15b"/>
            <path id="Trazado_1059346" data-name="Trazado 1059346" d="M231.756,399.441h7.665V416.05h-7.665Z" transform="translate(-215.946 -355.046)" fill="#918291"/>
            <path id="Trazado_1059347" data-name="Trazado 1059347" d="M256,399.441h3.833V416.05H256Z" transform="translate(-236.357 -355.046)" fill="#7a6d79"/>
            <circle id="Elipse_13672" data-name="Elipse 13672" cx="19.643" cy="19.643" r="19.643" fill="#918291"/>
            <path id="Trazado_1059348" data-name="Trazado 1059348" d="M187.81,147.023a19.643,19.643,0,0,1-27.653,27.653,19.643,19.643,0,1,0,27.653-27.653Z" transform="translate(-155.666 -142.532)" fill="#7a6d79"/>
            <circle id="Elipse_13673" data-name="Elipse 13673" cx="14.532" cy="14.532" r="14.532" transform="translate(5.11 5.11)" fill="#eaf6ff"/>
            <path id="Trazado_1059349" data-name="Trazado 1059349" d="M212.207,247.917h-7.665a5.11,5.11,0,0,0-5.11,5.11v5.538a14.5,14.5,0,0,0,17.886,0v-5.538A5.11,5.11,0,0,0,212.207,247.917Z" transform="translate(-188.731 -227.476)" fill="#fe5694"/>
            <path id="Trazado_1059350" data-name="Trazado 1059350" d="M258.132,247.917H253.98a5.11,5.11,0,0,1,5.11,5.11v7.812a14.524,14.524,0,0,0,4.152-2.273v-5.538A5.11,5.11,0,0,0,258.132,247.917Z" transform="translate(-234.657 -227.476)" fill="#fd3581"/>
          </g>
          <g id="Grupo_1311804" data-name="Grupo 1311804" transform="translate(15.331 11.817)">
            <circle id="Elipse_13674" data-name="Elipse 13674" cx="4.312" cy="4.312" r="4.312" fill="#fed2a4"/>
          </g>
        </g>
      </g>
      <g id="Grupo_1311807" data-name="Grupo 1311807" transform="translate(43.49 0)">
        <path id="Trazado_1059351" data-name="Trazado 1059351" d="M109.5,33.63a1.186,1.186,0,0,0,1.186-1.186V31.3a6.431,6.431,0,0,0-6.423-6.425h-.585A6.419,6.419,0,0,0,99.39,14.443a6.419,6.419,0,0,0-5.936-3.967h-.586a6.424,6.424,0,1,0-9.959,0h-.586a6.419,6.419,0,0,0-5.238,2.712,6.419,6.419,0,0,0-5.238-2.712H71.26a6.424,6.424,0,1,0-9.955,0h-.589a6.42,6.42,0,0,0-5.936,3.967A6.418,6.418,0,0,0,50.5,24.88h-.586A6.431,6.431,0,0,0,43.49,31.3v1.14a1.186,1.186,0,1,0,2.371,0V31.3a4.057,4.057,0,0,1,4.052-4.053H59.5a20.7,20.7,0,0,0-3.239,11.143c0,.3.008.6.02.891H51.1V33.268a1.186,1.186,0,0,0-2.371,0v6.017H45.861V37.993a1.186,1.186,0,1,0-2.371,0v2.477a1.186,1.186,0,0,0,1.186,1.186H56.513A20.888,20.888,0,0,0,72.067,58.61V79.756a1.186,1.186,0,0,0,2.371,0V64.333h5.293v4.343a1.186,1.186,0,0,0,2.371,0V58.61A20.888,20.888,0,0,0,97.657,41.656H109.5a1.186,1.186,0,0,0,1.186-1.186V37.993a1.186,1.186,0,0,0-2.371,0v1.292h-2.866V33.268a1.186,1.186,0,0,0-2.371,0v6.017H97.893c.012-.3.02-.592.02-.891a20.7,20.7,0,0,0-3.239-11.143h9.583a4.057,4.057,0,0,1,4.052,4.053v1.14A1.186,1.186,0,0,0,109.5,33.63Zm-6.751-12.8a4.052,4.052,0,1,1-4.052-4.052A4.057,4.057,0,0,1,102.745,20.828ZM87.889,2.371a4.052,4.052,0,1,1-4.052,4.052A4.057,4.057,0,0,1,87.889,2.371Zm-21.607,0A4.052,4.052,0,1,1,62.23,6.424,4.057,4.057,0,0,1,66.282,2.371Zm-10.8,14.4a4.052,4.052,0,1,1-4.052,4.052A4.057,4.057,0,0,1,55.479,16.776Zm5.566,8.1h-.588a6.415,6.415,0,0,0-3.129-10.2,4.051,4.051,0,0,1,3.39-1.829H71.847A4.057,4.057,0,0,1,75.9,16.9v.7a20.8,20.8,0,0,0-14.655,7.286c-.067,0-.133-.007-.2-.007ZM79.732,61.961H74.438V59.055a21.011,21.011,0,0,0,5.294,0Zm-2.647-5.11A18.457,18.457,0,1,1,95.542,38.394,18.478,18.478,0,0,1,77.085,56.851ZM78.271,17.6v-.7a4.057,4.057,0,0,1,4.052-4.052H93.454a4.051,4.051,0,0,1,3.39,1.829,6.416,6.416,0,0,0-3.13,10.2h-.588c-.068,0-.134,0-.2.007A20.8,20.8,0,0,0,78.271,17.6Z" transform="translate(-43.49 0)"/>
        <path id="Trazado_1059352" data-name="Trazado 1059352" d="M172.293,143.441a15.718,15.718,0,1,0,15.718,15.718A15.736,15.736,0,0,0,172.293,143.441Zm-7.757,26.568v-4.942a3.929,3.929,0,0,1,3.925-3.925h7.665a3.929,3.929,0,0,1,3.925,3.925v4.942a13.3,13.3,0,0,1-15.514,0Zm7.757-11.238a3.126,3.126,0,1,1,3.126-3.126A3.13,3.13,0,0,1,172.293,158.772Zm10.129,9.064v-2.768a6.3,6.3,0,0,0-5.633-6.261,5.5,5.5,0,1,0-8.99,0,6.3,6.3,0,0,0-5.634,6.261v2.768a13.347,13.347,0,1,1,20.257,0Z" transform="translate(-138.698 -120.765)"/>
        <path id="Trazado_1059353" data-name="Trazado 1059353" d="M273.926,462.02a1.186,1.186,0,0,0-1.186,1.186v5.53a1.186,1.186,0,0,0,2.371,0v-5.53A1.186,1.186,0,0,0,273.926,462.02Z" transform="translate(-236.498 -388.98)"/>
      </g>
    </g>
  </g>
</svg>
