<svg xmlns="http://www.w3.org/2000/svg" xmlns:xlink="http://www.w3.org/1999/xlink" width="820" height="442" viewBox="0 0 820 442">
  <defs>
    <clipPath id="clip-path">
      <rect id="Rectangle_455002" data-name="Rectangle 455002" width="659.959" height="343.084" fill="none"/>
    </clipPath>
    <clipPath id="clip-path-3">
      <rect id="Rectangle_454985" data-name="Rectangle 454985" width="12.606" height="12.113" fill="none"/>
    </clipPath>
    <clipPath id="clip-path-4">
      <rect id="Rectangle_454987" data-name="Rectangle 454987" width="31.965" height="21.387" fill="none"/>
    </clipPath>
    <clipPath id="clip-path-5">
      <rect id="Rectangle_454988" data-name="Rectangle 454988" width="2.923" height="27.655" fill="none"/>
    </clipPath>
    <clipPath id="clip-path-6">
      <rect id="Rectangle_454989" data-name="Rectangle 454989" width="50.574" height="2.593" fill="none"/>
    </clipPath>
    <clipPath id="clip-path-7">
      <rect id="Rectangle_454990" data-name="Rectangle 454990" width="4.782" height="20.948" fill="none"/>
    </clipPath>
    <clipPath id="clip-path-8">
      <rect id="Rectangle_454991" data-name="Rectangle 454991" width="40.804" height="0.895" fill="none"/>
    </clipPath>
    <clipPath id="clip-path-9">
      <rect id="Rectangle_454992" data-name="Rectangle 454992" width="10.268" height="0.896" fill="none"/>
    </clipPath>
    <clipPath id="clip-path-10">
      <rect id="Rectangle_454993" data-name="Rectangle 454993" width="10.269" height="0.895" fill="none"/>
    </clipPath>
    <clipPath id="clip-path-12">
      <rect id="Rectangle_454995" data-name="Rectangle 454995" width="10.269" height="0.896" fill="none"/>
    </clipPath>
    <clipPath id="clip-path-13">
      <rect id="Rectangle_454996" data-name="Rectangle 454996" width="11.665" height="14.304" fill="none"/>
    </clipPath>
    <clipPath id="clip-path-14">
      <rect id="Rectangle_454997" data-name="Rectangle 454997" width="31.926" height="1.134" fill="none"/>
    </clipPath>
    <clipPath id="clip-path-15">
      <rect id="Rectangle_454998" data-name="Rectangle 454998" width="1.904" height="17.898" fill="none"/>
    </clipPath>
    <clipPath id="clip-path-16">
      <rect id="Rectangle_454999" data-name="Rectangle 454999" width="2.181" height="18.993" fill="none"/>
    </clipPath>
    <clipPath id="clip-path-17">
      <rect id="Rectangle_455000" data-name="Rectangle 455000" width="14.843" height="13.016" fill="none"/>
    </clipPath>
  </defs>
  <g id="img1" transform="translate(-410.711 -1390)">
    <rect id="Rectangle_454966" data-name="Rectangle 454966" width="820" height="442" rx="5" transform="translate(410.711 1390)" fill="#fff"/>
    <g id="Group_1183497" data-name="Group 1183497" transform="translate(485.752 1439.458)">
      <g id="Group_1183496" data-name="Group 1183496" clip-path="url(#clip-path)">
        <g id="Group_1183495" data-name="Group 1183495">
          <g id="Group_1183494" data-name="Group 1183494" clip-path="url(#clip-path)">
            <path id="Path_998384" data-name="Path 998384" d="M81.227,332.739S-64.435,183.512,34.363,54.112C75.512.218,244.135-15.2,299.425,83.808s148.57,27.55,185.078,3.3,130.228-50.781,170.811,73.375c23.8,72.812-51.593,172.258-51.593,172.258Z" transform="translate(0 2.475)" fill="#f5f5f5"/>
            <path id="Path_998385" data-name="Path 998385" d="M634.734,277.841c0,3.815-132.7,6.907-296.395,6.907s-296.395-3.092-296.395-6.907,132.7-6.907,296.395-6.907,296.395,3.092,296.395,6.907" transform="translate(9.031 58.336)" fill="#5f4b6a"/>
            <rect id="Rectangle_454979" data-name="Rectangle 454979" width="67.706" height="6.258" transform="translate(224.424 246.977)" fill="#481a00"/>
            <rect id="Rectangle_454980" data-name="Rectangle 454980" width="60.383" height="3.02" transform="translate(228.087 276.287)" fill="#481a00"/>
            <path id="Path_998386" data-name="Path 998386" d="M185.307,203.118l1.9,88.362h4.085l1.9-88.362Z" transform="translate(39.9 43.735)" fill="#481a00"/>
            <path id="Path_998387" data-name="Path 998387" d="M241.127,203.118l-1.9,88.362h-4.085l-1.9-88.362Z" transform="translate(50.222 43.735)" fill="#481a00"/>
            <path id="Path_998388" data-name="Path 998388" d="M185.531,163.477l.688,57.337h4.663l.688-57.337Z" transform="translate(39.948 35.199)" fill="#a9411f"/>
            <path id="Path_998389" data-name="Path 998389" d="M240.576,163.477l-.688,57.337h-4.663l-.688-57.337Z" transform="translate(50.5 35.199)" fill="#481a00"/>
            <path id="Path_998390" data-name="Path 998390" d="M253.847,148.354H184.614a3.5,3.5,0,0,0-3.212,4.234l2.519,14.741a3.362,3.362,0,0,0,3.212,2.919h64.194a3.362,3.362,0,0,0,3.212-2.919l2.519-14.741a3.5,3.5,0,0,0-3.212-4.234" transform="translate(39.047 31.943)" fill="#de4c39"/>
            <rect id="Rectangle_454981" data-name="Rectangle 454981" width="67.706" height="2.081" transform="translate(224.424 246.977)" fill="#783118"/>
            <path id="Path_998391" data-name="Path 998391" d="M254.136,203.038v-2.7a1.706,1.706,0,0,0-1.624-1.777h-67.46a1.706,1.706,0,0,0-1.624,1.777v2.7a1.7,1.7,0,0,0,1.624,1.777h67.46a1.706,1.706,0,0,0,1.624-1.777" transform="translate(39.495 42.752)" fill="#de4c39"/>
            <path id="Path_998392" data-name="Path 998392" d="M164.077,294.067c-10.858,0-20.829-6.578-28.08-18.519-6.671-10.98-10.344-25.455-10.344-40.764S129.327,205,136,194.02c7.249-11.94,17.221-18.52,28.079-18.52s20.827,6.58,28.079,18.517c6.672,10.991,10.345,25.466,10.345,40.768s-3.673,29.78-10.345,40.768c-7.252,11.937-17.223,18.515-28.079,18.515m0-110.407c-7.9,0-15.392,5.18-21.105,14.59-5.908,9.726-9.161,22.7-9.161,36.534s3.253,26.806,9.159,36.53c5.716,9.414,13.212,14.594,21.108,14.594s15.391-5.18,21.108-14.594c5.905-9.724,9.159-22.7,9.159-36.53s-3.253-26.8-9.161-36.534c-5.714-9.41-13.212-14.59-21.105-14.59" transform="translate(27.055 37.788)" fill="#a7c2c9"/>
            <path id="Path_998393" data-name="Path 998393" d="M164.932,220.93,155.8,170.649l-45.384-.142v-4.08h45.218a4.252,4.252,0,0,1,4.178,3.49l9.136,50.286Z" transform="translate(23.774 35.834)" fill="#004270"/>
            <rect id="Rectangle_454982" data-name="Rectangle 454982" width="38.127" height="7.243" transform="translate(159.108 251.593)" fill="#004270"/>
            <path id="Path_998394" data-name="Path 998394" d="M160.219,167.947h-52.87a2.131,2.131,0,0,1,0-4.26h52.87a2.131,2.131,0,0,1,0,4.26" transform="translate(22.671 35.244)" fill="#4e8fa6"/>
            <rect id="Rectangle_454983" data-name="Rectangle 454983" width="8.01" height="12.047" transform="translate(118.423 260.09)" fill="#20282b"/>
            <path id="Path_998395" data-name="Path 998395" d="M160.461,291.011c-19.964,0-36.2-25.738-36.2-57.374s16.24-57.374,36.2-57.374,36.2,25.738,36.2,57.374-16.24,57.374-36.2,57.374m0-112c-18.362,0-33.3,24.5-33.3,54.621s14.94,54.621,33.3,54.621,33.3-24.5,33.3-54.621-14.939-54.621-33.3-54.621" transform="translate(26.754 37.952)" fill="#4e8fa6"/>
            <path id="Path_998396" data-name="Path 998396" d="M164.478,298.1c-10.954,0-21.156-6.721-28.73-18.924-7.344-11.836-11.39-27.527-11.39-44.182s4.046-32.346,11.39-44.182c7.574-12.2,17.776-18.924,28.73-18.924s21.155,6.721,28.728,18.924c7.347,11.836,11.392,27.527,11.392,44.182s-4.046,32.346-11.392,44.182c-7.573,12.2-17.775,18.924-28.728,18.924m0-121.806c-19.563,0-35.477,26.333-35.477,58.7s15.915,58.7,35.477,58.7,35.474-26.332,35.474-58.7-15.915-58.7-35.474-58.7" transform="translate(26.776 37.01)" fill="#20282b"/>
            <path id="Path_998397" data-name="Path 998397" d="M170.144,238.285c0,.175,2.8,6.645,2.623,6.819s9.131-4.26,9.112-4.491-3.167-5.651-3.167-5.651Z" transform="translate(36.635 50.591)" fill="#f79e86"/>
            <path id="Path_998398" data-name="Path 998398" d="M180.913,207.39h-56.6v7.319h56.6a3.1,3.1,0,0,0,2.911-3.24v-.839a3.1,3.1,0,0,0-2.911-3.24" transform="translate(26.766 44.654)" fill="#5b7982"/>
            <path id="Path_998399" data-name="Path 998399" d="M212.466,265.742c0,8.55-4.079,15.481-9.11,15.481s-9.11-6.931-9.11-15.481,4.079-15.481,9.11-15.481,9.11,6.931,9.11,15.481" transform="translate(41.824 53.885)" fill="#313e42"/>
            <rect id="Rectangle_454984" data-name="Rectangle 454984" width="79.263" height="8.01" transform="translate(106.468 267.852)" fill="#20282b"/>
            <path id="Path_998400" data-name="Path 998400" d="M138.833,209.558l-6.4-70.764H67l9.844,70.764Z" transform="translate(14.427 29.885)" fill="#222b2e"/>
            <path id="Path_998401" data-name="Path 998401" d="M234.81,286.513H170.965a6,6,0,0,1-5.59-3.878l-15.289-48.444-59.594.064a6.5,6.5,0,0,1-6.4-5.532L73.517,145.262a4.481,4.481,0,0,0-3.871-3.76l-16.094-2.143.537-4.041,16.079,2.139a8.575,8.575,0,0,1,7.39,7.255l10.576,83.457a2.392,2.392,0,0,0,2.355,2.005l62.585-.063,16.155,51.194a1.878,1.878,0,0,0,1.735,1.128H234.81Z" transform="translate(11.531 29.136)" fill="#004270"/>
            <path id="Path_998402" data-name="Path 998402" d="M136.637,207.323l-51.675.431a3.248,3.248,0,0,0-3.212,3.266l.006.84a3.25,3.25,0,0,0,3.267,3.213l51.675-.433a3.659,3.659,0,1,0-.061-7.317" transform="translate(17.602 44.64)" fill="#ccfaff"/>
            <path id="Path_998403" data-name="Path 998403" d="M205.338,257.611H150.571a2.13,2.13,0,0,1,0-4.26h54.767a2.13,2.13,0,0,1,0,4.26" transform="translate(31.962 54.55)" fill="#8aa0a6"/>
            <path id="Path_998404" data-name="Path 998404" d="M208.9,253.352H170.212c-.058.046-.058,4.214-.058,4.214.058.046,38.908.046,38.908.046,1.658,0,2.981-1.182,2.669-2.524a2.784,2.784,0,0,0-2.834-1.735" transform="translate(36.637 54.551)" fill="#a7c2c9"/>
            <path id="Path_998405" data-name="Path 998405" d="M157.271,224.877c0,3.134-1.5,5.674-3.342,5.674s-3.341-2.54-3.341-5.674,1.5-5.674,3.341-5.674,3.342,2.54,3.342,5.674" transform="translate(32.424 47.198)" fill="#222b2e"/>
            <path id="Path_998406" data-name="Path 998406" d="M98.56,178.991s-2.212,20.276,5.161,25.807,56.353,4.13,58.933,6.71S183.7,252.194,183.7,252.194l15.388-1.923s-12.772-61.534-18.555-67.531c-6.064-6.288-81.973-3.749-81.973-3.749" transform="translate(21.155 38.43)" fill="#4e3c56"/>
            <path id="Path_998407" data-name="Path 998407" d="M80.273,178.8s.863,26.8,8.236,32.326,52.628.681,55.209,3.262,7.073,11.961,11.389,13.4,17.4-5.4,18.195-10.916-9.465-22.282-13.151-28.549S80.273,178.8,80.273,178.8" transform="translate(17.284 38.499)" fill="#5f4b6a"/>
            <path id="Path_998408" data-name="Path 998408" d="M78.283,280.74c-.575-.119-.82-.521-.726-.921L101.3,180.833a.746.746,0,0,1,1.451.348L79.009,280.166a.746.746,0,0,1-.726.574" transform="translate(16.695 38.813)" fill="#a4acbf"/>
            <path id="Path_998409" data-name="Path 998409" d="M124.442,250.818a.56.56,0,0,1-.329-.107L62.1,206.875a.572.572,0,1,1,.661-.933l62.014,43.836a.573.573,0,0,1-.331,1.04" transform="translate(13.318 44.319)" fill="#a4acbf"/>
            <path id="Path_998410" data-name="Path 998410" d="M86.894,220.689a.748.748,0,0,1-.741-.664L82.02,182.337a.743.743,0,0,1,.66-.823.728.728,0,0,1,.823.656l4.133,37.688a.743.743,0,0,1-.66.823.658.658,0,0,1-.081.007" transform="translate(17.659 39.081)" fill="#a4acbf"/>
            <path id="Path_998411" data-name="Path 998411" d="M93,276.78a.747.747,0,0,1-.745-.7c-.062-.72-3.075-28.373-4.664-42.931a.748.748,0,0,1,.661-.822.784.784,0,0,1,.823.664c3.1,28.4,4.67,42.88,4.67,43.042a.748.748,0,0,1-.745.747" transform="translate(18.858 50.024)" fill="#a4acbf"/>
            <path id="Path_998412" data-name="Path 998412" d="M64.607,252.84a.658.658,0,0,1-.441-.17.665.665,0,0,1-.055-.937l20.448-22.972a.665.665,0,0,1,.992.886L65.1,252.619a.669.669,0,0,1-.5.221" transform="translate(13.768 49.209)" fill="#a4acbf"/>
            <path id="Path_998413" data-name="Path 998413" d="M92.183,222.434a.654.654,0,0,1-.441-.17.662.662,0,0,1-.053-.937c23.243-26.079,23.357-26.174,23.407-26.213a.663.663,0,0,1,.9.976c-.469.5-15.438,17.287-23.315,26.123a.66.66,0,0,1-.493.221" transform="translate(19.705 41.977)" fill="#a4acbf"/>
            <path id="Path_998414" data-name="Path 998414" d="M108.753,112.48c-.643-1.372-1.306-14.914-1.306-14.914L93.593,92.61s-.5,16.553-1.276,18.738-5.6,7.4-5.6,7.4c11.488,11.437,22.389,13.213,28.211-.352-.372-.372-5.53-4.547-6.173-5.919" transform="translate(18.671 19.94)" fill="#f79e86"/>
            <g id="Group_1183451" data-name="Group 1183451" transform="translate(114.042 116.228)" style="mix-blend-mode: multiply;isolation: isolate">
              <g id="Group_1183450" data-name="Group 1183450">
                <g id="Group_1183449" data-name="Group 1183449" clip-path="url(#clip-path-3)">
                  <path id="Path_998415" data-name="Path 998415" d="M105.936,96.913s-12.062-2.961-12.1.129c1.906,6.823,6.675,9.775,12.605,10.707-.309-4.681-.507-10.836-.507-10.836" transform="translate(-93.838 -95.636)" fill="#edb1a1"/>
                </g>
              </g>
            </g>
            <path id="Path_998416" data-name="Path 998416" d="M117.1,74.234c-1.744-3.131-7.614-6.54-17.577-5.532-19.832,2.005-7.609,24.664-7.609,24.664s1.925,8.405,2.42,9.3c2.452,4.441,16.847,8.965,19.263,5.881,3.589-4.582,6.158-29.548,3.5-34.314" transform="translate(18.989 14.754)" fill="#f79e86"/>
            <path id="Path_998417" data-name="Path 998417" d="M117.876,70.709c-.692-1.655-1.716-3.089-3.224-3.038-4.149.109.362,1.526-3.2.752-.814-.176-.231-.469-.807-1.708a3.565,3.565,0,0,0-2.875-1.237c-1.356.029-2,1.088-2.529.879-.724-.278-.78-1.246-1.208-1.915-1.509-2.364-7.281-.141-9.594,2.059a3.938,3.938,0,0,0-1.292,3.024,11.133,11.133,0,0,0-2.431.222c-1.368.259-4.556,3.331-4.753,4.131-.369,1.5.977,3.526.983,4.591-.01.969-.582,5.423.091,6.881.441.956.784,2.659,2.429,2.863.846.114,1.46.16,1.46.16s1.141,1.656,2.251,2.98a8.3,8.3,0,0,0,1.354,1.4.751.751,0,0,0,.4.188c.842-.022.772-4.272,2.737-5.894.741-.613-1.427-5.844.044-6.119s2.975,1.449,4.1,1.856c1.172.424,7.28-.6,10.273-.959a.968.968,0,0,1,.4.163c.952.8,1.155,2.918,2.727,3.21a7.546,7.546,0,0,0,3.03-.109s2.9,3.246,4.327-.185c1.232-2.967.583-14.377-4.7-14.2" transform="translate(18.497 13.657)" fill="#323d54" fill-rule="evenodd"/>
            <path id="Path_998418" data-name="Path 998418" d="M93.49,84.588c-1.055-.97-6.13-2.079-6.389,1.175s2.062,8.674,4.152,9.126c1.586.343,3.828-1.432,4-1.74s-.711-7.591-1.766-8.561" transform="translate(18.75 17.998)" fill="#f79e86"/>
            <path id="Path_998419" data-name="Path 998419" d="M132.638,128.75l10.209,28.121s36.157-2.682,37.111-2.788l-.893,6.453s-44.46,13.562-46.855,11.5-14.924-39.144-14.924-39.144Z" transform="translate(25.253 27.722)" fill="#f79e86"/>
            <path id="Path_998420" data-name="Path 998420" d="M141.887,147.91s-12.551-28.278-17.575-31.254c-5.245-3.108-8.094-3.471-8.094-3.471l2.172,42.528c10.263-.574,16.585-2.984,23.5-7.8" transform="translate(25.024 24.371)" fill="#8db6e4"/>
            <rect id="Rectangle_454986" data-name="Rectangle 454986" width="15.978" height="7.262" transform="translate(164.314 316.179) rotate(-50.991)" fill="#004270"/>
            <path id="Path_998421" data-name="Path 998421" d="M146.681,265.742c0,8.55-4.079,15.481-9.11,15.481s-9.11-6.931-9.11-15.481,4.079-15.481,9.11-15.481,9.11,6.931,9.11,15.481" transform="translate(27.66 53.885)" fill="#313e42"/>
            <path id="Path_998422" data-name="Path 998422" d="M143.327,264.981c0,6.559-3.129,11.875-6.988,11.875s-6.989-5.316-6.989-11.875,3.129-11.876,6.989-11.876,6.988,5.317,6.988,11.876" transform="translate(27.851 54.497)" fill="#ccfaff"/>
            <path id="Path_998423" data-name="Path 998423" d="M139.342,263.919c0,2.427-1.1,4.395-2.454,4.395s-2.454-1.968-2.454-4.395,1.1-4.395,2.454-4.395,2.454,1.968,2.454,4.395" transform="translate(28.946 55.88)" fill="#313e42"/>
            <path id="Path_998424" data-name="Path 998424" d="M86.732,112.713l1.379-1.034s9.539,13.4,18.275,10.813,5.46-11.33,5.46-11.33l1.609.461s5,13.39-5.977,14.539-20.747-13.447-20.747-13.447" transform="translate(18.675 23.935)" fill="#e6efff"/>
            <path id="Path_998425" data-name="Path 998425" d="M137.118,192.907s-16.828.729-20.984,2.273c-7.231,2.687-11.494,14.855-16.4,18.022s-11.928,6.286-14.36,3.714S75.234,141.322,72.6,127.191c-.711-3.823,17.629-14.892,17.629-14.892,12.434,20.427,31.234,11.546,25.313-1.185l10.069,2.517s4.588,15.055,5.627,21.541c1.427,8.908-.768,43.221,5.877,57.735" transform="translate(15.628 23.925)" fill="#8db6e4"/>
            <g id="Group_1183454" data-name="Group 1183454" transform="translate(111.576 162.201)" style="mix-blend-mode: screen;isolation: isolate">
              <g id="Group_1183453" data-name="Group 1183453">
                <g id="Group_1183452" data-name="Group 1183452" clip-path="url(#clip-path-4)">
                  <path id="Path_998426" data-name="Path 998426" d="M91.809,137.278l30.693-3.814,1.271,17.435L93.02,154.851Z" transform="translate(-91.809 -133.464)" fill="#516882"/>
                </g>
              </g>
            </g>
            <g id="Group_1183457" data-name="Group 1183457" transform="translate(144.339 149.96)" style="mix-blend-mode: multiply;isolation: isolate">
              <g id="Group_1183456" data-name="Group 1183456">
                <g id="Group_1183455" data-name="Group 1183455" clip-path="url(#clip-path-5)">
                  <path id="Path_998427" data-name="Path 998427" d="M121.41,151.046a.279.279,0,0,1-.278-.255l-2.364-27.1a.278.278,0,0,1,.253-.3.285.285,0,0,1,.3.254l2.364,27.1a.279.279,0,0,1-.253.3h-.026" transform="translate(-118.767 -123.392)" fill="#b2b2b2"/>
                </g>
              </g>
            </g>
            <path id="Path_998428" data-name="Path 998428" d="M134.889,154.442a.264.264,0,0,1-.205-.1.272.272,0,0,1,.029-.383l.187-.159a7.932,7.932,0,0,1,3.831-2.05.275.275,0,0,1,.326.2.271.271,0,0,1-.2.326,7.4,7.4,0,0,0-3.6,1.935l-.188.16a.274.274,0,0,1-.176.064" transform="translate(28.985 32.674)" fill="#d47051"/>
            <path id="Path_998429" data-name="Path 998429" d="M185.1,153.708c-.992.963-6.515,2.947-7.117,3.115s-9.7.784-9.7.784l-4.3-5.612s3.116-4.115,4.147-5.165S173,144.159,173,144.159s3.093-2.2,3.042-1.13c-.062,1.165-2.536,3.444-3.335,3.878a8.607,8.607,0,0,0-1.925,2.126l3.063-.54s8.477-2.11,9.225-1.818a.879.879,0,0,1,.513,1.316c-.252.239-7.938,2.491-7.893,2.648s8.641-2.151,9.052-2.032.91.864.6,1.218-6.907,2.111-6.863,2.3,6.514-1.8,6.766-1.806.815.551.536.993-5.781,2.268-5.706,2.4,4.847-1.268,5.226-1.113.152.768-.2,1.106" transform="translate(35.306 30.733)" fill="#f79e86"/>
            <path id="Path_998430" data-name="Path 998430" d="M175.319,154.126a.153.153,0,0,1-.14-.092,17.1,17.1,0,0,0-3.242-4.967.154.154,0,1,1,.221-.214,17.28,17.28,0,0,1,3.3,5.056.154.154,0,0,1-.077.2.168.168,0,0,1-.063.013" transform="translate(37.011 32.04)" fill="#d47051"/>
            <path id="Path_998431" data-name="Path 998431" d="M167.617,152.031a.155.155,0,0,1-.045-.3,3.4,3.4,0,0,0,2.31-2.832c0-.086.077-.171.16-.147a.154.154,0,0,1,.147.16,3.737,3.737,0,0,1-2.528,3.115.19.19,0,0,1-.045.006" transform="translate(36.058 32.027)" fill="#d47051"/>
            <path id="Path_998432" data-name="Path 998432" d="M128.489,225.11l-7.962-54.528-45.371-.075v-4.08h45.219a4.252,4.252,0,0,1,4.178,3.49l7.972,54.6Z" transform="translate(16.182 35.834)" fill="#004270"/>
            <path id="Path_998433" data-name="Path 998433" d="M112.845,278.736a.752.752,0,0,1-.676-.43L68.693,185.539a.746.746,0,0,1,1.353-.632l43.474,92.765a.747.747,0,0,1-.676,1.063" transform="translate(14.776 39.721)" fill="#a4acbf"/>
            <path id="Path_998434" data-name="Path 998434" d="M92,224.934c0,3.874-1.85,7.015-4.131,7.015s-4.131-3.14-4.131-7.015,1.849-7.015,4.131-7.015S92,221.059,92,224.934" transform="translate(18.03 46.921)" fill="#222b2e"/>
            <path id="Path_998435" data-name="Path 998435" d="M94.513,293.607c-10.855,0-20.827-6.58-28.079-18.517C59.763,264.1,56.09,249.628,56.09,234.322s3.673-29.78,10.345-40.764c7.252-11.94,17.223-18.52,28.079-18.52s20.829,6.58,28.08,18.52c6.671,10.984,10.344,25.458,10.344,40.764s-3.673,29.78-10.345,40.764c-7.249,11.94-17.221,18.52-28.079,18.52m0-110.408c-7.893,0-15.391,5.18-21.108,14.594-5.905,9.723-9.159,22.7-9.159,36.53s3.253,26.807,9.159,36.534c5.717,9.41,13.214,14.59,21.108,14.59s15.392-5.18,21.105-14.59c5.908-9.726,9.161-22.7,9.161-36.534s-3.253-26.807-9.159-36.534c-5.716-9.41-13.212-14.59-21.108-14.59" transform="translate(12.077 37.688)" fill="#a7c2c9"/>
            <path id="Path_998436" data-name="Path 998436" d="M95.034,298.1c-10.952,0-21.155-6.721-28.729-18.924-7.345-11.836-11.391-27.527-11.391-44.182s4.046-32.346,11.391-44.182c7.574-12.2,17.776-18.924,28.729-18.924s21.155,6.721,28.729,18.924c7.345,11.836,11.391,27.527,11.391,44.182s-4.046,32.346-11.391,44.182c-7.574,12.2-17.776,18.924-28.729,18.924m0-121.806c-19.561,0-35.475,26.333-35.475,58.7s15.915,58.7,35.475,58.7,35.476-26.332,35.476-58.7-15.915-58.7-35.476-58.7" transform="translate(11.824 37.01)" fill="#20282b"/>
            <path id="Path_998437" data-name="Path 998437" d="M90.087,291.23c-19.964,0-36.205-25.738-36.205-57.374s16.241-57.374,36.205-57.374,36.2,25.738,36.2,57.374-16.241,57.374-36.2,57.374m0-112c-18.363,0-33.3,24.5-33.3,54.621s14.939,54.621,33.3,54.621,33.3-24.5,33.3-54.621-14.94-54.621-33.3-54.621" transform="translate(11.602 37.999)" fill="#4e8fa6"/>
            <path id="Path_998438" data-name="Path 998438" d="M126.429,169.41H69.489c-1.217,0-2.213-1.287-2.213-2.861s1-2.862,2.213-2.862h56.94c1.218,0,2.214,1.288,2.214,2.862s-1,2.861-2.214,2.861" transform="translate(14.486 35.244)" fill="#4e8fa6"/>
            <g id="Group_1183460" data-name="Group 1183460" transform="translate(86.898 198.505)" style="mix-blend-mode: screen;isolation: isolate">
              <g id="Group_1183459" data-name="Group 1183459">
                <g id="Group_1183458" data-name="Group 1183458" clip-path="url(#clip-path-6)">
                  <path id="Path_998439" data-name="Path 998439" d="M120.779,165.93H72.8a1.3,1.3,0,0,1,0-2.594h47.979a1.3,1.3,0,0,1,0,2.594" transform="translate(-71.502 -163.336)" fill="#bbcfcf"/>
                </g>
              </g>
            </g>
            <path id="Path_998440" data-name="Path 998440" d="M48.106,134.187c-1.371.908-1.7,3.633-.653,5.09l16.43,2.326.664-5.114Z" transform="translate(10.084 28.893)" fill="#495c7c"/>
            <path id="Path_998441" data-name="Path 998441" d="M90.856,133.189l-2.207,35.14s28.312,23.978,28.837,24.852l-1.325,6.571s-41.924-19.911-45.475-22.325c-2.482-1.687-.111-48.907-.111-48.907Z" transform="translate(14.976 27.672)" fill="#f79e86"/>
            <path id="Path_998442" data-name="Path 998442" d="M93.181,154.572s8.186-29.981,5.364-33.033-14.529-1.6-20.882.43S63.643,147.7,63.643,147.7c11.621,5.451,21.365,8.917,29.538,6.87" transform="translate(13.703 25.792)" fill="#8db6e4"/>
            <g id="Group_1183463" data-name="Group 1183463" transform="translate(106.855 158.027)" style="mix-blend-mode: multiply;isolation: isolate">
              <g id="Group_1183462" data-name="Group 1183462">
                <g id="Group_1183461" data-name="Group 1183461" clip-path="url(#clip-path-7)">
                  <path id="Path_998443" data-name="Path 998443" d="M88.1,150.96a.282.282,0,0,1-.175-.318l4.223-20.389a.28.28,0,0,1,.329-.218.269.269,0,0,1,.218.332l-4.222,20.389a.278.278,0,0,1-.329.216.207.207,0,0,1-.044-.012" transform="translate(-87.924 -130.03)" fill="#b2b2b2"/>
                </g>
              </g>
            </g>
            <path id="Path_998444" data-name="Path 998444" d="M119.186,202.192c-.122-2.4-.412-6.707-1.6-8.557-1.123-1.751-8.092-12.142-8.092-12.142s-3.854,3.848-3.668,5.048,4.09,6.969,4.748,7.868c1.6,2.185,3.454,6.648,3.941,6.221,1.331,1.825,2.775,3.938,3.306,4.536.9,1.016,1.388-2.511,1.364-2.974" transform="translate(22.785 39.078)" fill="#f79e86"/>
            <path id="Path_998445" data-name="Path 998445" d="M113.754,198.251c-.016-.053-.35-2.488-.5-3.043a28.374,28.374,0,0,0-1.41-2.806,12.587,12.587,0,0,1,1.529,2.771c.157.564.482,2.933.5,3.035-.078.074-.1.062-.113.044" transform="translate(24.081 41.427)" fill="#a64324"/>
            <path id="Path_998446" data-name="Path 998446" d="M114.7,199.961a23.88,23.88,0,0,0,.1-3.626,27.363,27.363,0,0,0-1.308-3.513,14.344,14.344,0,0,1,1.432,3.493,20.641,20.641,0,0,1-.117,3.618c-.086.053-.1.044-.112.029" transform="translate(24.438 41.517)" fill="#a64324"/>
            <path id="Path_998447" data-name="Path 998447" d="M115.635,201.431a11.1,11.1,0,0,0,.481-2.748,43.237,43.237,0,0,0-.944-4.291c-.152-.6-.2-.8-.2-.841.129.041.22.4.324.811a43.5,43.5,0,0,1,.946,4.307,9.391,9.391,0,0,1-.495,2.745c-.091.038-.1.028-.109.017" transform="translate(24.755 41.675)" fill="#a64324"/>
            <path id="Path_998448" data-name="Path 998448" d="M171.8,239.49a1.3,1.3,0,0,0-1.863,1.018c-.165,1.271-.382,2.867-.574,4.074-.374,2.36-1.4,12.236-1.4,12.236h43.294a6.392,6.392,0,0,0-3.28-4.2c-2.717-1.311-12-2.054-15.934-5.025a84.584,84.584,0,0,1-9.014-8.567s-1.1,1.85-5.977,1.691a12.239,12.239,0,0,1-5.248-1.231" transform="translate(36.164 51.467)" fill="#de4c39"/>
            <g id="Group_1183466" data-name="Group 1183466" transform="translate(204.726 305.815)" style="mix-blend-mode: screen;isolation: isolate">
              <g id="Group_1183465" data-name="Group 1183465">
                <g id="Group_1183464" data-name="Group 1183464" clip-path="url(#clip-path-8)">
                  <path id="Path_998449" data-name="Path 998449" d="M208.745,252.53H168.969a.452.452,0,1,1,0-.9h39.776a.452.452,0,1,1,0,.9" transform="translate(-168.455 -251.634)" fill="#966d51"/>
                </g>
              </g>
            </g>
            <g id="Group_1183469" data-name="Group 1183469" transform="translate(212.864 294.43)" style="mix-blend-mode: screen;isolation: isolate">
              <g id="Group_1183468" data-name="Group 1183468">
                <g id="Group_1183467" data-name="Group 1183467" clip-path="url(#clip-path-9)">
                  <path id="Path_998450" data-name="Path 998450" d="M184.905,243.162h-9.24a.452.452,0,1,1,0-.9h9.24a.452.452,0,1,1,0,.9" transform="translate(-175.151 -242.266)" fill="#966d51"/>
                </g>
              </g>
            </g>
            <g id="Group_1183472" data-name="Group 1183472" transform="translate(213.849 296.108)" style="mix-blend-mode: screen;isolation: isolate">
              <g id="Group_1183471" data-name="Group 1183471">
                <g id="Group_1183470" data-name="Group 1183470" clip-path="url(#clip-path-10)">
                  <path id="Path_998451" data-name="Path 998451" d="M185.716,244.542h-9.24a.452.452,0,1,1,0-.9h9.24a.452.452,0,1,1,0,.9" transform="translate(-175.962 -243.647)" fill="#966d51"/>
                </g>
              </g>
            </g>
            <g id="Group_1183475" data-name="Group 1183475" transform="translate(215.009 297.592)" style="mix-blend-mode: screen;isolation: isolate">
              <g id="Group_1183474" data-name="Group 1183474">
                <g id="Group_1183473" data-name="Group 1183473" clip-path="url(#clip-path-9)">
                  <path id="Path_998452" data-name="Path 998452" d="M186.67,245.764h-9.24a.452.452,0,1,1,0-.9h9.24a.452.452,0,1,1,0,.9" transform="translate(-176.916 -244.868)" fill="#966d51"/>
                </g>
              </g>
            </g>
            <g id="Group_1183478" data-name="Group 1183478" transform="translate(216.549 299.077)" style="mix-blend-mode: screen;isolation: isolate">
              <g id="Group_1183477" data-name="Group 1183477">
                <g id="Group_1183476" data-name="Group 1183476" clip-path="url(#clip-path-12)">
                  <path id="Path_998453" data-name="Path 998453" d="M187.937,246.986H178.7a.452.452,0,1,1,0-.9h9.24a.452.452,0,1,1,0,.9" transform="translate(-178.183 -246.09)" fill="#966d51"/>
                </g>
              </g>
            </g>
            <path id="Path_998454" data-name="Path 998454" d="M183.154,242.561c1.217-1.4,1.989-6.132,1.353-8.225s-8.974-1.124-9.4.677c-.281,1.191-.594,6.791-.88,8.936Z" transform="translate(37.514 50.201)" fill="#de4c39"/>
            <path id="Path_998455" data-name="Path 998455" d="M226.58,158.579s21.478,4.593,24.924-15.131c1.637-9.369-11.96-18.348-7.372-28.621,4.976-11.14-3.941-23.457-2.569-30.292,1.112-5.541-.164-14.7-14.764-18.726s-31.606,1.4-32.991,22.066c-.954,14.235-19.531,13.055-20.338,31.2-.277,6.21,2.9,6.123,4.582,9.812s-6.66,13.027-5.14,18.344,12.92,10.224,18.615,10.786a256.065,256.065,0,0,0,35.053.563" transform="translate(37.191 13.904)" fill="#242c3d"/>
            <path id="Path_998456" data-name="Path 998456" d="M218.41,111.806c-1.106-1.691.553-9.2.553-9.2L206.982,91.878s-3.285,15.849-4.875,18.948c-2.512,4.9-16.538,8.2-16.538,8.2l47.442.328s-12.711-4.658-14.6-7.548" transform="translate(39.956 19.783)" fill="#f79e86"/>
            <g id="Group_1183481" data-name="Group 1183481" transform="translate(247.975 115.045)" style="mix-blend-mode: multiply;isolation: isolate">
              <g id="Group_1183480" data-name="Group 1183480">
                <g id="Group_1183479" data-name="Group 1183479" clip-path="url(#clip-path-13)">
                  <path id="Path_998457" data-name="Path 998457" d="M206.964,94.663l-2.922,2.975c1.091,6.786,6.318,9.741,9.985,11.329a56.225,56.225,0,0,1,1.68-11.222Z" transform="translate(-204.042 -94.663)" fill="#edb1a1"/>
                </g>
              </g>
            </g>
            <path id="Path_998458" data-name="Path 998458" d="M221.127,72.92c-4.988-2.295-20.348-3.767-22.131,3.591-2.937,12.125.677,15.74,3.99,20.535.943,7.985,13.652,18.83,19.807,14.634,2.748-1.873,6.226-9.738,5.885-17.516-.286-6.481,1.268-9.675.792-12.874-.572-3.856-3.168-5.989-8.343-8.37" transform="translate(42.614 15.298)" fill="#f79e86"/>
            <path id="Path_998459" data-name="Path 998459" d="M204.505,245.435l14.986,32.148,10.4.66-9.262-36.3Z" transform="translate(44.033 52.095)" fill="#f79e86"/>
            <path id="Path_998460" data-name="Path 998460" d="M235.354,241.875l22.712,35.241,12.267.263-18.372-39.142Z" transform="translate(50.675 51.296)" fill="#f79e86"/>
            <path id="Path_998461" data-name="Path 998461" d="M269.094,259.006S240.6,205.051,240.6,204.432s4.667-3.218,5.059-8.541c1.082-14.586-12.788-31.649-12.788-31.649H195.467s-15.149,24.424-15.149,29.371,12.006,41.362,15.1,51.565a151.469,151.469,0,0,1,4.429,19.084Z" transform="translate(38.825 35.364)" fill="#003557"/>
            <path id="Path_998462" data-name="Path 998462" d="M192.961,138.517,186.1,114.133l48.638.237-6.024,24.147Z" transform="translate(40.069 24.575)" fill="#f79e86"/>
            <path id="Path_998463" data-name="Path 998463" d="M178.185,144.624h13.658l1.266-18.23-5.188-12.261s-8.986.061-9.933,3.612.226,17.458.226,20.535c0,.678-.011,3.064-.029,6.344" transform="translate(38.244 24.575)" fill="#f79e86"/>
            <path id="Path_998464" data-name="Path 998464" d="M236.453,138.476c0-3.077,1.184-17.282.237-20.833s-9.944-3.314-9.944-3.314L223.2,126.4l1.8,30.621,11.911.792a185.108,185.108,0,0,1-.456-19.339" transform="translate(48.057 24.616)" fill="#f79e86"/>
            <path id="Path_998465" data-name="Path 998465" d="M189.5,130.839l3.462,43.783c11.177,1.97,24.107.479,37.937-2.789l-.28-42.839Z" transform="translate(40.802 27.774)" fill="#a64375"/>
            <path id="Path_998466" data-name="Path 998466" d="M179.239,158.855l2.319-17.515,13.145-1.958c.053,8.844-3.089,26.318-4.274,28.951s-33.33,22.991-33.33,22.991l-7.529-2.055Z" transform="translate(32.205 30.011)" fill="#f79e86"/>
            <path id="Path_998467" data-name="Path 998467" d="M190.746,124.278s-6.473,16.457-2.969,25.113c2.759,6.813,45.277,6.713,47.913-.4s-4.646-24.724-4.646-24.724a365.056,365.056,0,0,1-40.3.015" transform="translate(40.207 26.756)" fill="#a64375"/>
            <path id="Path_998468" data-name="Path 998468" d="M226.8,149.458l.305,8.02-12.28,28.167,6.7,2.393s17.215-23,17.215-26.451-.026-11.336-.026-11.336Z" transform="translate(46.255 32.181)" fill="#f79e86"/>
            <g id="Group_1183484" data-name="Group 1183484" transform="translate(235.776 177.425)" style="mix-blend-mode: multiply;isolation: isolate">
              <g id="Group_1183483" data-name="Group 1183483">
                <g id="Group_1183482" data-name="Group 1183482" clip-path="url(#clip-path-14)">
                  <path id="Path_998469" data-name="Path 998469" d="M194.279,147.125a.274.274,0,0,1-.013-.547c9.475-.475,19.733-.66,31.393-.56a.273.273,0,0,1,0,.547c-11.639-.086-21.9.087-31.365.56Z" transform="translate(-194.004 -145.991)" fill="#616161"/>
                </g>
              </g>
            </g>
            <path id="Path_998470" data-name="Path 998470" d="M235.315,273.906l.771,3.438-21.167-.058c-.17-3.487.342-4.367,1.388-6.807l10.188-1.707c3.741.949,5.48,2.15,8.821,5.135" transform="translate(46.268 57.871)" fill="#8db6e4"/>
            <path id="Path_998471" data-name="Path 998471" d="M214.914,274.475a15.238,15.238,0,0,0,0,1.582l21.167.058-.367-1.641Z" transform="translate(46.27 59.099)" fill="#6884b0"/>
            <path id="Path_998472" data-name="Path 998472" d="M247.147,273.892l-.771,3.438,22.63-.058c.17-3.487-.518-3.562-1.437-6.616l-12.024-1.823c-3.741.949-5.058,2.075-8.4,5.059" transform="translate(53.049 57.884)" fill="#8db6e4"/>
            <path id="Path_998473" data-name="Path 998473" d="M269.009,274.475c.022.448.028.945,0,1.582l-22.63.058.367-1.641Z" transform="translate(53.049 59.099)" fill="#6884b0"/>
            <path id="Path_998474" data-name="Path 998474" d="M223.087,181.579c-.041-.753-.7-1.609-1.247-1.579-.757.041-1.649-.845-2.315-1.028-.151-.041-1.314-.1-1.709-.19a14.679,14.679,0,0,0-2.248-.512c-.338.012-1.018.458-1.6.482a4.2,4.2,0,0,0-1.343.153,13.49,13.49,0,0,0-2.775,3.941,15.035,15.035,0,0,0-.475,5.063,1.483,1.483,0,0,0,1.852.23c.133-.134.62-3.086.967-3.7a28.33,28.33,0,0,1,1.794-2.664,19.645,19.645,0,0,0-1.093,3.289,14.654,14.654,0,0,0-.355,4.205c.362.487,1.353.734,1.727.34.124-.13.312-2.031.92-3.884A31.12,31.12,0,0,1,217,181.491a27.361,27.361,0,0,0-.631,3.1,30.972,30.972,0,0,0-.324,4.283c.1.478,1.152.592,1.729.021.3-.294.491-2.1,1-3.827a20.969,20.969,0,0,1,1.28-3.188s-1.063,5.457-.578,5.738c.42.244.653.379,1.4-.225s2.231-5.505,2.214-5.812" transform="translate(45.066 38.384)" fill="#f79e86"/>
            <path id="Path_998475" data-name="Path 998475" d="M212.863,179.246s-4.278,1.663-4.807,2.53-1.968,3.161-1.6,3.232a1.956,1.956,0,0,0,1.946-.538,20,20,0,0,1,1.474-1.676l1.333-.606Z" transform="translate(44.44 38.594)" fill="#f79e86"/>
            <path id="Path_998476" data-name="Path 998476" d="M233.093,80.917s-6.023,2.242-9.995,1.921c-5.492-.442-11.065-4.4-11.065-4.4a10.08,10.08,0,0,1-2.568,7.2c-3.032,3.614-1.456,7.215-1.681,12.486s-3.738,6.856-5.572,8.547-8.724-14.112-8.724-14.112c.427-7.759-.315-13.074,6.7-18.955,9.435-7.91,30.091-6.566,32.907,7.311" transform="translate(41.661 14.806)" fill="#242c3d"/>
            <path id="Path_998477" data-name="Path 998477" d="M193.667,124.363l-15.145-.568s-7.2,20.038-4.892,22.122,18.393,1.243,18.393,1.243Z" transform="translate(37.287 26.655)" fill="#a64375"/>
            <path id="Path_998478" data-name="Path 998478" d="M222.8,124.343l14.561-.32s6.376,20.393,4.068,22.477-16.984.64-16.984.64Z" transform="translate(47.972 26.704)" fill="#a64375"/>
            <g id="Group_1183487" data-name="Group 1183487" transform="translate(226.491 155.475)" style="mix-blend-mode: multiply;isolation: isolate">
              <g id="Group_1183486" data-name="Group 1183486">
                <g id="Group_1183485" data-name="Group 1183485" clip-path="url(#clip-path-15)">
                  <path id="Path_998479" data-name="Path 998479" d="M186.639,145.828a.279.279,0,0,1-.273-.3l1.355-17.351a.29.29,0,0,1,.294-.252.274.274,0,0,1,.253.3l-1.355,17.35a.273.273,0,0,1-.273.253" transform="translate(-186.364 -127.93)" fill="#616161"/>
                </g>
              </g>
            </g>
            <g id="Group_1183490" data-name="Group 1183490" transform="translate(275.23 155.076)" style="mix-blend-mode: multiply;isolation: isolate">
              <g id="Group_1183489" data-name="Group 1183489">
                <g id="Group_1183488" data-name="Group 1183488" clip-path="url(#clip-path-16)">
                  <path id="Path_998480" data-name="Path 998480" d="M228.374,146.594a.276.276,0,0,1-.273-.252L226.468,127.9a.276.276,0,0,1,.249-.3.263.263,0,0,1,.3.25l1.631,18.444a.276.276,0,0,1-.249.3h-.024" transform="translate(-226.468 -127.601)" fill="#616161"/>
                </g>
              </g>
            </g>
            <path id="Path_998481" data-name="Path 998481" d="M366.046,166.006l-.095,1.515-.884,13.236-.954,14.318-6.869,104.086h-6.083l5.724-104.086.788-14.5.812-14.426v-.145Z" transform="translate(75.611 35.744)" fill="#20282b"/>
            <path id="Path_998482" data-name="Path 998482" d="M441.908,169.8H348.385a.941.941,0,0,1-.941-.941v-4.923a.941.941,0,0,1,.941-.941h93.523a.941.941,0,0,1,.941.941v4.923a.941.941,0,0,1-.941.941" transform="translate(74.81 35.096)" fill="#20282b"/>
            <path id="Path_998483" data-name="Path 998483" d="M424.866,299.161h-6.083l-6.893-104.3c0-.073-1.36-20.738-1.36-20.738l-.476-7.176-.072-.938h7.562l1.073,19.62.382,7.033.119,2.163c.023.036,5.748,104.339,5.748,104.339" transform="translate(88.276 35.744)" fill="#20282b"/>
            <path id="Path_998484" data-name="Path 998484" d="M433.142,162.6h.119a.176.176,0,0,0-.119.024Z" transform="translate(93.262 35.01)" fill="#f76c59"/>
            <path id="Path_998485" data-name="Path 998485" d="M542.392,99.167l-.263-.266c-8.8-7.732-90.067-5.1-98.368,2.586-7.633,7.1-38.737,126.782-49.231,126.782H337.736l4.557,7.737h155.27c5.575-4.02,10.672-9.109,13.32-15.312,7.806-18.276,31.681-121.316,31.681-121.316a1.874,1.874,0,0,0-.173-.21" transform="translate(72.72 20.294)" fill="#f76c59"/>
            <path id="Path_998486" data-name="Path 998486" d="M433.261,162.6c-.047,0-.1,0-.119.024,0-.024.119-.024.119-.024" transform="translate(93.262 35.01)" fill="#de4c39"/>
            <path id="Path_998487" data-name="Path 998487" d="M433.142,162.6h.119a.176.176,0,0,0-.119.024Z" transform="translate(93.262 35.01)" fill="#8e7ea2"/>
            <path id="Path_998488" data-name="Path 998488" d="M433.569,222.1H333.163a3.645,3.645,0,0,1-3.645-3.645V206.826a3.645,3.645,0,0,1,3.645-3.645H433.569a3.644,3.644,0,0,1,3.645,3.645v11.633a3.644,3.644,0,0,1-3.645,3.645" transform="translate(70.95 43.748)" fill="#f79385"/>
            <path id="Path_998489" data-name="Path 998489" d="M469.65,244.883c-40.421,0-57.792.022-63.123.029a1.913,1.913,0,0,1-1.914-1.927l0-7.084a10.072,10.072,0,0,1,10.071-10.076h53.706c17.575,0,43.96-119.573,47.157-123.1,2.313-2.576,7.8-5.439,11.4-5.081.31.166,1.049.227,1.366,1.178.5,1.495-19.429,146.064-58.66,146.064" transform="translate(87.119 21.017)" fill="#de4c39"/>
            <path id="Path_998490" data-name="Path 998490" d="M355.972,116.214s9.881,4.523,9.881,4.781-2.823,9.923-2.823,9.923l-13.359-8.337Z" transform="translate(75.29 25.023)" fill="#f79e86"/>
            <path id="Path_998491" data-name="Path 998491" d="M354.61,137.147s35.4,23.175,43.379,23.175,39.552-27.05,39.552-27.05L446.11,101.3s-12.468,3.326-18.952,7.814-30.225,27.431-30.225,27.431L357.984,120.3Z" transform="translate(76.353 21.811)" fill="#fff"/>
            <path id="Path_998492" data-name="Path 998492" d="M354.02,258.732c-.124.495-3.216,8.9-3.216,8.9l14.222.619,2.473-8.038Z" transform="translate(75.534 55.709)" fill="#fbe0d4"/>
            <path id="Path_998493" data-name="Path 998493" d="M311.412,258.138c-.124.495-3.215,8.9-3.215,8.9l14.22.619,2.473-8.038Z" transform="translate(66.36 55.581)" fill="#fbe0d4"/>
            <path id="Path_998494" data-name="Path 998494" d="M290.328,276.237a11.127,11.127,0,0,1,3.046-3.713c1.665-1.067,15.233-4.572,17.175-6.338a10.6,10.6,0,0,0,2.438-2.838c6.639,3.156,13.65-.208,14.409.261s3.02,8.437,2.583,14.589h-39.65Z" transform="translate(62.512 56.703)" fill="#495c7c"/>
            <path id="Path_998495" data-name="Path 998495" d="M290.328,274.045c.094-.164.191-.332.294-.5h39.419c.016.766,0,1.576-.063,2.463h-39.65Z" transform="translate(62.512 58.898)" fill="#8e99ab"/>
            <path id="Path_998496" data-name="Path 998496" d="M334.067,116.749c.964,1.437,7.061,5.087,7.735,5.423s11.3,2.939,11.3,2.939l6.3-6.367s-2.793-5.915-3.782-7.472-5.182-4.407-5.182-4.407-3.178-3.452-3.351-2.059c-.179,1.513,2.252,4.937,3.1,5.654A10.961,10.961,0,0,1,352,113.578l-3.5-1.3s-9.56-4.4-10.508-4.173a1.186,1.186,0,0,0-.891,1.592c.246.359,8.841,4.785,8.755,4.976s-9.746-4.485-10.256-4.413-1.263.931-.973,1.447,7.706,4.09,7.612,4.327-7.308-3.607-7.6-3.669-1.082.547-.847,1.173,6.34,4.068,6.222,4.226-5.453-2.6-5.934-2.472-.346.959-.008,1.462" transform="translate(71.86 22.495)" fill="#f79e86"/>
            <path id="Path_998497" data-name="Path 998497" d="M341.608,118.766c-.156-.069-.179-.165-.134-.238a22.864,22.864,0,0,1,4.985-5.837.153.153,0,0,1,.22.022.155.155,0,0,1-.023.22,22.587,22.587,0,0,0-4.915,5.761.158.158,0,0,1-.134.073" transform="translate(73.52 24.256)" fill="#d47051"/>
            <path id="Path_998498" data-name="Path 998498" d="M350.8,117.686a4.752,4.752,0,0,1-2.37-4.482.156.156,0,1,1,.31.039,4.441,4.441,0,0,0,2.134,4.149.157.157,0,0,1,.064.211.154.154,0,0,1-.139.083" transform="translate(75.017 24.345)" fill="#d47051"/>
            <path id="Path_998499" data-name="Path 998499" d="M443.3,168.763c-1.5,0-79.094,7.883-86.075,12.87s-48.462,96.923-48.462,96.923l24.175,9.929,45.049-78.473,56.632-9Z" transform="translate(66.482 36.337)" fill="#003557"/>
            <path id="Path_998500" data-name="Path 998500" d="M332.815,276.237a11.127,11.127,0,0,1,3.046-3.713c1.665-1.067,15.233-4.572,17.175-6.338a10.6,10.6,0,0,0,2.438-2.838c6.639,3.156,13.652-.208,14.409.261s3.02,8.437,2.583,14.589h-39.65Z" transform="translate(71.66 56.703)" fill="#495c7c"/>
            <path id="Path_998501" data-name="Path 998501" d="M332.815,274.045q.139-.246.294-.5h39.419c.016.766,0,1.576-.063,2.463h-39.65Z" transform="translate(71.66 58.898)" fill="#8e99ab"/>
            <path id="Path_998502" data-name="Path 998502" d="M434.728,171.178s-51.525,8.178-55.513,13.664-31.127,93.8-31.127,93.8l22.979,5.57s29.334-72.46,32.326-72.958,48.752-.921,48.752-.921c15.979-.927,19.452-19.915,22.926-35.893Z" transform="translate(74.949 36.857)" fill="#00416b"/>
            <path id="Path_998503" data-name="Path 998503" d="M439.742,101.188c.721-1.537,1.344-15.268,1.344-15.268l15.52-5.55s.49,15.98,1.354,18.428,7.647,6.828,7.647,6.828c-19.842,16.365-33.47,20.4-31.444.247.416-.416,4.859-3.146,5.579-4.684" transform="translate(93.439 17.305)" fill="#f79e86"/>
            <g id="Group_1183493" data-name="Group 1183493" transform="translate(533.931 102.349)" style="mix-blend-mode: multiply;isolation: isolate">
              <g id="Group_1183492" data-name="Group 1183492">
                <g id="Group_1183491" data-name="Group 1183491" clip-path="url(#clip-path-17)">
                  <path id="Path_998504" data-name="Path 998504" d="M439.9,85.093s14.231-2.507,14.275.954c-2.135,7.644-8.2,10.141-14.843,11.186.344-5.244.568-12.14.568-12.14" transform="translate(-439.335 -84.216)" fill="#edb1a1"/>
                </g>
              </g>
            </g>
            <path id="Path_998505" data-name="Path 998505" d="M430.847,59.785c1.954-3.507,8.529-7.326,19.69-6.2,22.217,2.246,8.525,27.63,8.525,27.63s-2.157,9.416-2.711,10.42c-2.748,4.974-18.873,10.043-21.579,6.588-4.02-5.132-6.9-33.1-3.925-38.442" transform="translate(92.504 11.495)" fill="#f79e86"/>
            <path id="Path_998506" data-name="Path 998506" d="M430.024,68.8l.374-5.326a8.367,8.367,0,0,0,3.439,1.421c3.339.226,17.761-2.773,19.607-1.492,2.024,1.4-1.938,5.618-.961,7.214,2.793,4.565,2.568,11.26,2.568,11.26l6-1.872s10.205-19.427,1.43-22.26c0,0-.376-5.753-7.562-6.688s-21.6-1.935-26.033,5.588c-3.055,5.183,1.142,12.154,1.142,12.154" transform="translate(92.105 10.856)" fill="#481a00"/>
            <path id="Path_998507" data-name="Path 998507" d="M432.4,78.094a5.5,5.5,0,0,1-5.377-5.6,5.713,5.713,0,0,1,1.009-3.262.365.365,0,0,1,.3-.171h8.141a.369.369,0,0,1,.3.171,5.72,5.72,0,0,1,1.007,3.262,5.5,5.5,0,0,1-5.377,5.6m-3.887-7.988a4.492,4.492,0,0,0-.69,2.393,4.577,4.577,0,0,0,9.154,0,4.492,4.492,0,0,0-.69-2.393Z" transform="translate(91.944 14.871)" fill="#202736"/>
            <path id="Path_998508" data-name="Path 998508" d="M442.793,78.094a5.76,5.76,0,0,1-5.9-5.6A5.366,5.366,0,0,1,438,69.236a.413.413,0,0,1,.327-.171h8.933a.413.413,0,0,1,.327.171,5.366,5.366,0,0,1,1.106,3.262,5.76,5.76,0,0,1-5.9,5.6m-4.264-7.988a4.21,4.21,0,0,0-.758,2.393,5.047,5.047,0,0,0,10.046,0,4.2,4.2,0,0,0-.758-2.393Z" transform="translate(94.07 14.871)" fill="#202736"/>
            <path id="Path_998509" data-name="Path 998509" d="M437.373,72.376a.365.365,0,0,1-.2-.061,1.017,1.017,0,0,0-1.223,0,.392.392,0,0,1-.58-.191.559.559,0,0,1,.16-.688,1.73,1.73,0,0,1,2.044,0,.554.554,0,0,1,.173.683.422.422,0,0,1-.374.266" transform="translate(93.73 15.308)" fill="#202736"/>
            <path id="Path_998510" data-name="Path 998510" d="M445.953,69.671v1.077L458.94,70.7l-.585-1.026Z" transform="translate(96.021 15.001)" fill="#202736"/>
            <path id="Path_998511" data-name="Path 998511" d="M452.97,71.383c1.181-1.086,6.868-2.329,7.157,1.317s-2.31,9.716-4.651,10.223c-1.777.384-4.288-1.6-4.484-1.951s.8-8.5,1.979-9.59" transform="translate(97.1 15.13)" fill="#f79e86"/>
            <path id="Path_998512" data-name="Path 998512" d="M402.538,185.8s22.182-73.135,23.445-77.355c1.407-4.7,10.427-7.169,10.427-7.169l6.679-1.59c.233,6.081,1.134,11.524,3.089,15.955,6.083-2.86,14.863-9.111,24.114-15.955l17.44,4.508c-5.853,34.362-15.072,66.887-26.27,98.077-24.32-4.666-44.687-12.651-58.925-16.471" transform="translate(86.673 21.463)" fill="#5f4b6a"/>
            <path id="Path_998513" data-name="Path 998513" d="M429.144,141.528s3.241.589,3.831,1.4,3.609,4.862,3.609,4.862l-6.63-1.917Z" transform="translate(92.401 30.473)" fill="#f79e86"/>
            <path id="Path_998514" data-name="Path 998514" d="M446.148,167.3l-29.237-4.843-18.248-37.868,29.877,3.116Z" transform="translate(85.839 26.826)" fill="#e6efff"/>
            <path id="Path_998515" data-name="Path 998515" d="M419.636,143.317c-.209.354,4.559,2.507,5.023,2.874a22.4,22.4,0,0,0,3.9.87c-.007.049-.013.1-.021.151l-3.453-.329s-3.834-1.925-4.471-2.18-1.773.845-2,1.216,4.749,2.851,5.2,3.242a24.149,24.149,0,0,0,4.381,1c0,.032-3.5.248-3.5.248a39.454,39.454,0,0,0-4.013-2.634c-.65-.2-1.5.87-1.7,1.235-.1.192,1.055,1.1,2.24,1.958-.28.361,2.318,3.808,2.737,4.249s6.622,1.563,6.622,1.563c4.26.75,14.07.874,14.07.874l-.292-8.038-10.373-4.431a17.377,17.377,0,0,0-4.026-.757,27.117,27.117,0,0,0-4.1-.394s-3.654-1.653-4.3-1.889-1.706.817-1.915,1.17m5.729,10.045s-.088-.156-.214-.377c.724.115,1.59.235,2.4.337Z" transform="translate(90.131 30.599)" fill="#f79e86"/>
            <path id="Path_998516" data-name="Path 998516" d="M466.374,124.374s1.556-13.631,6.588-18.244,10.764-3.432,13.281,2.439,3.211,62.319.907,64.531c-5.193,4.986-48.8.14-48.8.14l1.4-15.639,26.275.168Z" transform="translate(94.384 22.242)" fill="#fff"/>
            <path id="Path_998517" data-name="Path 998517" d="M434.127,100.085a99.667,99.667,0,0,0,3.691,19.339c7.593-4.06,18.255-11.819,28.443-19.043l-2.771-.7c-9.2,6.157-18.125,12.055-24.044,15.153-1.192-4.835-2.226-9.913-3.16-15.153Z" transform="translate(93.474 21.463)" fill="#fff"/>
            <path id="Path_998518" data-name="Path 998518" d="M466.179,152.877a.352.352,0,0,1-.335-.242c-.51-1.548-2.371-2.6-4.341-3.707l-.491-.278a.355.355,0,0,1-.176-.321.35.35,0,0,1,.2-.3,7.657,7.657,0,0,1,5.51-.7.351.351,0,0,1-.238.66,6.483,6.483,0,0,0-4.331.4c2.044,1.152,3.951,2.258,4.536,4.026a.353.353,0,0,1-.225.444.344.344,0,0,1-.109.018" transform="translate(99.225 31.666)" fill="#fbe0d4"/>
            <path id="Path_998519" data-name="Path 998519" d="M391.363,137.61c-.3-.079-.395-.278-.334-.463.513-1.546-.354-3.5-1.272-5.564l-.23-.518a.355.355,0,0,1,.049-.362.348.348,0,0,1,.345-.123,7.683,7.683,0,0,1,4.841,2.725.352.352,0,1,1-.588.388,6.473,6.473,0,0,0-3.714-2.26c.953,2.144,1.825,4.169,1.238,5.937a.353.353,0,0,1-.334.241" transform="translate(83.865 28.114)" fill="#fbe0d4"/>
            <path id="Path_998520" data-name="Path 998520" d="M416.486,299.306H410.4l7.327-133.94h7.55Z" transform="translate(88.366 35.606)" fill="#481a00"/>
            <path id="Path_998521" data-name="Path 998521" d="M501.144,169.8H407.621a.941.941,0,0,1-.941-.941v-4.923a.941.941,0,0,1,.941-.941h93.523a.941.941,0,0,1,.941.941v4.923a.941.941,0,0,1-.941.941" transform="translate(87.565 35.096)" fill="#481a00"/>
            <path id="Path_998522" data-name="Path 998522" d="M484.1,299.295h-6.081l-6.895-104.977c0-.035-1.908-28.945-1.908-28.945h7.562l1.5,27.349c0,.036,5.82,106.572,5.82,106.572" transform="translate(101.03 35.607)" fill="#481a00"/>
            <path id="Path_998523" data-name="Path 998523" d="M159.384,183.546c.012-.755-.587-1.654-1.134-1.663-.758-.011-1.586-.958-2.237-1.187-.147-.051-1.3-.194-1.691-.309a14.715,14.715,0,0,0-2.207-.667,15.67,15.67,0,0,1-1.635.369,4.18,4.18,0,0,0-1.35.058,13.528,13.528,0,0,0-3.043,3.737,15.047,15.047,0,0,0-.829,5.018,1.482,1.482,0,0,0,1.831.359c.142-.124.835-3.035,1.224-3.624a28.488,28.488,0,0,1,1.976-2.533,19.755,19.755,0,0,0-1.32,3.2,14.67,14.67,0,0,0-.648,4.169c.327.512,1.3.828,1.7.461.132-.122.455-2,1.189-3.81a31.332,31.332,0,0,1,2.1-4.1,27.6,27.6,0,0,0-.846,3.048,30.7,30.7,0,0,0-.622,4.249c.069.484,1.107.671,1.723.141.317-.272.636-2.061,1.263-3.748a20.868,20.868,0,0,1,1.5-3.091s-1.443,5.369-.978,5.684c.4.273.625.424,1.416-.126s2.611-5.336,2.615-5.643" transform="translate(31.27 38.696)" fill="#f79e86"/>
            <path id="Path_998524" data-name="Path 998524" d="M337.309,36.983c0,20.426-25.053,36.983-55.957,36.983S225.4,57.409,225.4,36.983,250.448,0,281.352,0s55.957,16.557,55.957,36.983" transform="translate(48.531)" fill="#f5f5f5"/>
            <path id="Path_998525" data-name="Path 998525" d="M434.441,25.249c0,13.917-17.067,25.2-38.121,25.2s-38.12-11.279-38.12-25.2S375.268.056,396.321.056s38.121,11.279,38.121,25.193" transform="translate(77.126 0.012)" fill="#f5f5f5"/>
            <path id="Path_998526" data-name="Path 998526" d="M269.9,59.271s-2.8,13.464-12.416,19.935c0,0,19.06-1.4,23.783-21.509Z" transform="translate(55.44 12.423)" fill="#f5f5f5"/>
            <path id="Path_998527" data-name="Path 998527" d="M404.086,34.321s5.883,12.351,15.636,16.4c0,0-16.323,3-25.564-15.324Z" transform="translate(84.868 7.39)" fill="#f5f5f5"/>
            <path id="Path_998528" data-name="Path 998528" d="M274.63,46.8a3.15,3.15,0,1,1-2.591-3.623A3.15,3.15,0,0,1,274.63,46.8" transform="translate(57.785 9.288)" fill="#8db6e4"/>
            <path id="Path_998529" data-name="Path 998529" d="M273.628,48.9a2.846,2.846,0,0,1-2.374-2.974c.068-1.185.529-7.249,2.841-10.26a27.254,27.254,0,0,1,3.591-3.63c2.882-2.57,5.6-5,6.465-10.2.756-4.545-3.307-7.322-6.434-7.842-1.331-.221-8.02-1.005-9.063,5.267a7.734,7.734,0,0,0,.079,3.3,2.849,2.849,0,0,1-5.335,2,12.785,12.785,0,0,1-.365-6.236c1.394-8.391,9.074-11.04,15.617-9.953,6.463,1.074,12.393,6.754,11.121,14.4-1.193,7.181-5.13,10.695-8.3,13.517a22.888,22.888,0,0,0-2.863,2.849c-.922,1.2-1.545,4.961-1.673,7.123a2.849,2.849,0,0,1-3.01,2.675,2.709,2.709,0,0,1-.3-.034" transform="translate(56.591 1.754)" fill="#8db6e4"/>
            <path id="Path_998530" data-name="Path 998530" d="M292.414,48.946a2.352,2.352,0,1,1-.975-3.18,2.353,2.353,0,0,1,.975,3.18" transform="translate(62.007 9.795)" fill="#8db6e4"/>
            <path id="Path_998531" data-name="Path 998531" d="M291.672,49.87A2.127,2.127,0,0,1,290.7,47.2c.331-.823,2.094-5.007,4.446-6.592a20.5,20.5,0,0,1,3.4-1.718c2.649-1.136,5.153-2.211,7-5.689,1.614-3.04-.605-5.97-2.7-7.079-.89-.472-5.441-2.614-7.666,1.58a5.81,5.81,0,0,0-.728,2.359,2.127,2.127,0,0,1-4.251.149,9.56,9.56,0,0,1,1.221-4.5c2.976-5.611,9.042-5.667,13.418-3.345,4.323,2.293,7.173,7.721,4.461,12.831-2.548,4.8-6.17,6.356-9.08,7.6a17.141,17.141,0,0,0-2.7,1.338c-.939.632-2.27,3.146-2.873,4.647a2.129,2.129,0,0,1-2.974,1.084" transform="translate(62.485 4.505)" fill="#8db6e4"/>
            <path id="Path_998532" data-name="Path 998532" d="M259.312,44.516a2.249,2.249,0,1,1-2.855-1.4,2.249,2.249,0,0,1,2.855,1.4" transform="translate(54.891 9.257)" fill="#8db6e4"/>
            <path id="Path_998533" data-name="Path 998533" d="M258.992,46.959a2.032,2.032,0,0,1-2.5-1.067c-.359-.768-2.119-4.736-1.684-7.412a19.554,19.554,0,0,1,1.029-3.5c.943-2.591,1.833-5.037.616-8.6-1.062-3.114-4.556-3.484-6.7-2.753-.911.31-5.383,2.079-3.917,6.376a5.558,5.558,0,0,0,1.167,2.05,2.033,2.033,0,0,1-2.677,3.061,9.136,9.136,0,0,1-2.338-3.8c-1.961-5.746,1.97-10.009,6.452-11.539,4.427-1.511,10.074.055,11.861,5.289,1.678,4.92.391,8.46-.644,11.3a16.551,16.551,0,0,0-.837,2.76c-.174,1.068.707,3.641,1.358,5.044a2.033,2.033,0,0,1-.988,2.7,1.89,1.89,0,0,1-.2.081" transform="translate(51.993 4.141)" fill="#8db6e4"/>
            <path id="Path_998534" data-name="Path 998534" d="M393.233,33.132a3.15,3.15,0,1,1-2.591-3.623,3.151,3.151,0,0,1,2.591,3.623" transform="translate(83.322 6.344)" fill="#8db6e4"/>
            <path id="Path_998535" data-name="Path 998535" d="M390.032,32.159a2.622,2.622,0,0,1-2.623-2.623V6.22a2.623,2.623,0,1,1,5.245,0V29.537a2.622,2.622,0,0,1-2.623,2.623" transform="translate(83.415 0.774)" fill="#8db6e4"/>
          </g>
        </g>
      </g>
    </g>
  </g>
</svg>
