<svg xmlns="http://www.w3.org/2000/svg" width="120" height="120" viewBox="0 0 120 120">
  <g id="img12" transform="translate(-388.711 -10669)">
    <rect id="Rect치ngulo_402033" data-name="Rect치ngulo 402033" width="120" height="120" rx="10" transform="translate(388.711 10669)" fill="#2142dc"/>
    <rect id="Rect치ngulo_454167" data-name="Rect치ngulo 454167" width="100" height="100" rx="10" transform="translate(398.711 10679)" fill="#bcc6f5"/>
    <g id="Grupo_1311837" data-name="Grupo 1311837" transform="translate(410.798 10691.088)">
      <g id="Grupo_1311835" data-name="Grupo 1311835" transform="translate(2.191 2.191)">
        <g id="Grupo_1311811" data-name="Grupo 1311811" transform="translate(22.969 21.219)">
          <path id="Trazado_1059373" data-name="Trazado 1059373" d="M28.089,19.82V30.37a8.452,8.452,0,0,0-1.1-.2l-2.489-.31-2.37-.3L21.29,26.2a8.266,8.266,0,0,0,4.322-6.168H26.9A3.3,3.3,0,0,0,28.089,19.82Z" transform="translate(-21.29 -19.82)" fill="#fcd770"/>
        </g>
        <g id="Grupo_1311812" data-name="Grupo 1311812" transform="translate(21.909 0)">
          <path id="Trazado_1059374" data-name="Trazado 1059374" d="M69.934,3.191V53.2a1.194,1.194,0,0,1-1.191,1.191H43.9a5.591,5.591,0,0,0,.929-1.977l.691-2.786H65.171V6.763H29.057A10.254,10.254,0,0,0,20.4,2H68.744A1.194,1.194,0,0,1,69.934,3.191Z" transform="translate(-20.4 -2)" fill="#fcd770"/>
        </g>
        <g id="Grupo_1311813" data-name="Grupo 1311813" transform="translate(29.768 4.763)">
          <path id="Trazado_1059375" data-name="Trazado 1059375" d="M27.8,6a10.267,10.267,0,0,1,1.06,8.716l-.6,1.786a3.567,3.567,0,0,1,.071,5.12A3.379,3.379,0,0,1,27,22.456v10.55a9.479,9.479,0,0,1,5.942,4.453L37.6,45.425l.119,3.441h26.2V6Z" transform="translate(-27 -6)" fill="#e6e9ed"/>
        </g>
        <g id="Grupo_1311814" data-name="Grupo 1311814" transform="translate(50.011 9.526)">
          <path id="Trazado_1059376" data-name="Trazado 1059376" d="M55.907,21.907a11.846,11.846,0,0,1-1.81,6.311L44,21.907V10A11.912,11.912,0,0,1,55.907,21.907Z" transform="translate(-44 -10)" fill="#69d6f4"/>
        </g>
        <g id="Grupo_1311815" data-name="Grupo 1311815" transform="translate(38.103 9.526)">
          <path id="Trazado_1059377" data-name="Trazado 1059377" d="M45.907,10V21.907a2.4,2.4,0,0,0-2.381-2.381,2.388,2.388,0,0,0-2.381,2.381H34A11.912,11.912,0,0,1,45.907,10Z" transform="translate(-34 -10)" fill="#fcd770"/>
        </g>
        <g id="Grupo_1311816" data-name="Grupo 1311816" transform="translate(38.103 21.433)">
          <path id="Trazado_1059378" data-name="Trazado 1059378" d="M41.144,20v4.763h-.5a3.09,3.09,0,0,0-3.072,3.072,2.73,2.73,0,0,0,.1.762A11.862,11.862,0,0,1,34,20Z" transform="translate(-34 -20)" fill="#ff826e"/>
        </g>
        <g id="Grupo_1311817" data-name="Grupo 1311817" transform="translate(50.011 21.433)">
          <path id="Trazado_1059379" data-name="Trazado 1059379" d="M44,20l10.1,6.311a12.077,12.077,0,0,1-2.953,3.215,11.862,11.862,0,0,1-5.477,2.262L45.8,31.6a3.5,3.5,0,0,0,.583-1.941A3.2,3.2,0,0,0,44,26.561V20Z" transform="translate(-44 -20)" fill="#ff826e"/>
        </g>
        <g id="Grupo_1311818" data-name="Grupo 1311818" transform="translate(5.954)">
          <path id="Trazado_1059380" data-name="Trazado 1059380" d="M18.919,11.526H16.526a4.762,4.762,0,0,0-4.763,4.763H10.572a3.556,3.556,0,0,0-2.727,1.262A5.685,5.685,0,0,1,9.536,9.835l1.036-.691L9.179,7.751A3.37,3.37,0,0,1,11.56,2h11.4a10.245,10.245,0,0,1,9.716,13.479l-.6,1.786a3.582,3.582,0,0,0-2.453-.976H23.563a4.635,4.635,0,0,1-4.656-4.656.33.33,0,0,1,.012-.107Z" transform="translate(-7 -2)" fill="#b27946"/>
        </g>
        <g id="Grupo_1311819" data-name="Grupo 1311819" transform="translate(7.144 64.299)">
          <path id="Trazado_1059381" data-name="Trazado 1059381" d="M19.907,56v7.144H8V56H19.907Z" transform="translate(-8 -56)" fill="#969faa"/>
        </g>
        <g id="Grupo_1311820" data-name="Grupo 1311820" transform="translate(19.052 64.299)">
          <path id="Trazado_1059382" data-name="Trazado 1059382" d="M29.907,56v7.144H18V56H29.907Z" transform="translate(-18 -56)" fill="#969faa"/>
        </g>
        <g id="Grupo_1311821" data-name="Grupo 1311821" transform="translate(7.144 59.536)">
          <path id="Trazado_1059383" data-name="Trazado 1059383" d="M8,52h4.763v4.763H8Z" transform="translate(-8 -52)" fill="#b4dd7f"/>
        </g>
        <g id="Grupo_1311822" data-name="Grupo 1311822" transform="translate(0 31.352)">
          <path id="Trazado_1059384" data-name="Trazado 1059384" d="M13.907,49.37h7.144v7.144H7.954A5.956,5.956,0,0,1,2,50.561V38.392A9.526,9.526,0,0,1,9.954,29l4-.667,2.334,5.561,4.763-2.381,4.763,2.381v3.572H13.907Z" transform="translate(-2 -28.33)" fill="#b4dd7f"/>
        </g>
        <g id="Grupo_1311823" data-name="Grupo 1311823" transform="translate(23.815 31.257)">
          <path id="Trazado_1059385" data-name="Trazado 1059385" d="M29.144,43.432V61.293H24.381V37.478H22V33.906l2.37-5.656,2.489.31a8.452,8.452,0,0,1,1.1.2A9.479,9.479,0,0,1,33.9,33.215l4.656,7.966,2.5-10.848L48.2,32.715,45.219,44.623l-.691,2.786a5.592,5.592,0,0,1-.929,1.977,5.758,5.758,0,0,1-9.038.369Z" transform="translate(-22 -28.25)" fill="#b4dd7f"/>
        </g>
        <g id="Grupo_1311824" data-name="Grupo 1311824" transform="translate(19.052 30.959)">
          <path id="Trazado_1059386" data-name="Trazado 1059386" d="M25.132,28.3l-2.37,5.656L18,31.572,22.763,28Z" transform="translate(-18 -28)" fill="#a0d468"/>
        </g>
        <g id="Grupo_1311825" data-name="Grupo 1311825" transform="translate(11.955 30.959)">
          <path id="Trazado_1059387" data-name="Trazado 1059387" d="M19.137,31.572l-4.763,2.381L12.04,28.393,14.374,28Z" transform="translate(-12.04 -28)" fill="#a0d468"/>
        </g>
        <g id="Grupo_1311826" data-name="Grupo 1311826" transform="translate(11.907 55.964)">
          <path id="Trazado_1059388" data-name="Trazado 1059388" d="M26.289,49v8.335H12V52.572H22.717A3.567,3.567,0,0,0,26.289,49Z" transform="translate(-12 -49)" fill="#e6e9ed"/>
        </g>
        <g id="Grupo_1311827" data-name="Grupo 1311827" transform="translate(11.907 40.485)">
          <path id="Trazado_1059389" data-name="Trazado 1059389" d="M26.289,36V51.479a3.578,3.578,0,0,0-3.572-3.572H12V36H26.289Z" transform="translate(-12 -36)" fill="#e6e9ed"/>
        </g>
        <g id="Grupo_1311828" data-name="Grupo 1311828" transform="translate(41.676 26.196)">
          <path id="Trazado_1059390" data-name="Trazado 1059390" d="M44.037,25.465h.012l1.226.31c.024,0,.036.012.06.024a3.2,3.2,0,0,1,2.381,3.1,3.5,3.5,0,0,1-.583,1.941L47,31.025l-1.667,2.5-7.144-2.381-1.036-3.1a1.44,1.44,0,0,1-.06-.214,2.73,2.73,0,0,1-.1-.762A3.09,3.09,0,0,1,40.072,24h2a2.05,2.05,0,0,1,1.965,1.465Z" transform="translate(-37 -24)" fill="#f0d0b4"/>
        </g>
        <g id="Grupo_1311829" data-name="Grupo 1311829" transform="translate(45.248 19.052)">
          <path id="Trazado_1059391" data-name="Trazado 1059391" d="M44.763,26.93v.012c-.024-.012-.036-.024-.06-.024l-1.226-.31h-.012A2.05,2.05,0,0,0,41.5,25.144H40V20.381A2.388,2.388,0,0,1,42.381,18a2.4,2.4,0,0,1,2.381,2.381Z" transform="translate(-40 -18)" fill="#f0d0b4"/>
        </g>
        <g id="Grupo_1311830" data-name="Grupo 1311830" transform="translate(27.292 14.289)">
          <path id="Trazado_1059392" data-name="Trazado 1059392" d="M27.4,20.93a3.3,3.3,0,0,1-1.191.214H24.92a6.518,6.518,0,0,0,.1-1.191V14h1.191a3.57,3.57,0,0,1,2.524,6.1A3.379,3.379,0,0,1,27.4,20.93Z" transform="translate(-24.92 -14)" fill="#f0d0b4"/>
        </g>
        <g id="Grupo_1311831" data-name="Grupo 1311831" transform="translate(10.717 9.526)">
          <path id="Trazado_1059393" data-name="Trazado 1059393" d="M27.67,14.763v5.954a6.518,6.518,0,0,1-.1,1.191,8.323,8.323,0,0,1-16.48,0,6.518,6.518,0,0,1-.1-1.191V14.763A4.762,4.762,0,0,1,15.763,10h2.393a.33.33,0,0,0-.012.107A4.635,4.635,0,0,0,22.8,14.763Z" transform="translate(-11 -10)" fill="#f0d0b4"/>
        </g>
        <g id="Grupo_1311832" data-name="Grupo 1311832" transform="translate(19.052 52.392)">
          <path id="Trazado_1059394" data-name="Trazado 1059394" d="M24.1,47.048a3.57,3.57,0,0,1-2.524,6.1H18V46h3.572A3.564,3.564,0,0,1,24.1,47.048Z" transform="translate(-18 -46)" fill="#f0d0b4"/>
        </g>
        <g id="Grupo_1311833" data-name="Grupo 1311833" transform="translate(14.289 27.601)">
          <path id="Trazado_1059395" data-name="Trazado 1059395" d="M22.68,25.18l.845,3.358L18.763,32.11,14,28.538l.845-3.358a8.347,8.347,0,0,0,7.835,0Z" transform="translate(-14 -25.18)" fill="#f0d0b4"/>
        </g>
        <g id="Grupo_1311834" data-name="Grupo 1311834" transform="translate(5.954 14.289)">
          <path id="Trazado_1059396" data-name="Trazado 1059396" d="M11.858,21.144H10.572a3.572,3.572,0,1,1,0-7.144h1.191v5.954A6.518,6.518,0,0,0,11.858,21.144Z" transform="translate(-7 -14)" fill="#f0d0b4"/>
        </g>
      </g>
      <g id="Grupo_1311836" data-name="Grupo 1311836" transform="translate(1 1)">
        <path id="Trazado_1059397" data-name="Trazado 1059397" d="M72.444,1H12.7A4.559,4.559,0,0,0,9.479,8.783l.37.37a6.844,6.844,0,0,0-2.236,8.522,4.71,4.71,0,0,0-.66,2.377,4.768,4.768,0,0,0,4.763,4.763h.313a9.55,9.55,0,0,0,3.922,5.535L15.513,32.1l-5.558.926A10.684,10.684,0,0,0,1,43.6V55.774a7.152,7.152,0,0,0,7.144,7.144V74.825h26.2V51.848l3.327,3.882a6.936,6.936,0,0,0,10.5.044H72.444a2.384,2.384,0,0,0,2.381-2.381V3.381A2.384,2.384,0,0,0,72.444,1ZM9.335,20.052a2.384,2.384,0,0,1,2.381-2.381v4.763A2.384,2.384,0,0,1,9.335,20.052Zm2.5-4.763h-.12a4.7,4.7,0,0,0-2.235.582,4.454,4.454,0,0,1,1.855-4.851l2.249-1.5L11.163,7.1A2.178,2.178,0,0,1,12.7,3.381H24.1A9.052,9.052,0,0,1,32.684,15.3l-.116.348a4.746,4.746,0,0,0-1.8-.358H24.705a3.463,3.463,0,0,1-1.921-6.344l1.5-1L22.964,5.963l-1.5,1a5.824,5.824,0,0,0-2.456,3.563H17.67a5.965,5.965,0,0,0-5.833,4.763Zm29.717,9.526h4.694v2.452a4.25,4.25,0,0,0-3.04,2.174A10.569,10.569,0,0,1,41.554,24.815ZM55.74,33.736c.014-.15.033-.3.033-.451a4.394,4.394,0,0,0-2.381-3.9V25.773l7.191,4.5A10.739,10.739,0,0,1,55.74,33.736Zm-4.73-9.452v3.678a3.236,3.236,0,0,0-2.075-.766h-.306V23.624a1.191,1.191,0,1,1,2.381,0Zm10.845,3.97-8.464-5.289V12.978a10.694,10.694,0,0,1,8.464,15.276ZM51.011,20.271a3.509,3.509,0,0,0-4.544,2.162H41.555a10.731,10.731,0,0,1,9.456-9.456ZM46,34.59l-.844-2.535a1.883,1.883,0,0,1,1.786-2.478h2a.885.885,0,0,1,.279,1.725l-2.153.718.754,2.259,2.153-.718A3.259,3.259,0,0,0,52.058,31.4a2.009,2.009,0,0,1,1.334,1.881,2.291,2.291,0,0,1-.386,1.275L51.716,36.5ZM53.306,38.4l1.274-1.911a12.886,12.886,0,0,0,3.575-1.217v6.211H65.3V39.1H60.536V33.7A13.091,13.091,0,1,0,39.1,23.624a12.977,12.977,0,0,0,3.8,9.208l.918,2.757-1.753,7.6-3.135-5.375a10.775,10.775,0,0,0-5.783-4.722V24.153a4.7,4.7,0,0,0,1.412-6.95l.383-1.151a11.39,11.39,0,0,0-.257-7.906H67.681V48.629H50.749ZM18.987,36.518l-1.9.951-1.261-3,.349-.058Zm7.347-2.128.339.043L25.4,37.47l-1.9-.951Zm.629-2.321-.43-1.721a9.55,9.55,0,0,0,3.922-5.535h.313v7.73Zm3.806-14.4a2.381,2.381,0,1,1,0,4.763ZM14.1,22.433V16.479a3.577,3.577,0,0,1,3.572-3.572h1.291a5.855,5.855,0,0,0,5.744,4.763h3.682v4.763a7.144,7.144,0,1,1-14.289,0Zm7.144,9.526a9.491,9.491,0,0,0,3.107-.53l.311,1.243-3.417,2.561-3.416-2.562.311-1.243A9.453,9.453,0,0,0,21.242,31.959ZM12.907,62.918V65.3H10.526V62.918ZM27.2,54.054a4.714,4.714,0,0,0-2.381-.662H15.289V43.866H27.2Zm-2.381,1.719a2.381,2.381,0,1,1,0,4.763H22.433V55.774Zm0,7.144a4.714,4.714,0,0,0,2.381-.662V65.3H15.289V62.918ZM10.526,67.681h9.526v4.763H10.526Zm11.907,4.763V67.681h9.526v4.763Zm20.51-16.67a4.565,4.565,0,0,1-3.469-1.594L34.34,48.19V43.866H31.959V65.3H29.577V41.485H12.907V53.392H10.526V43.866H8.144V54.09L6.112,56.122,7.8,57.806l2.033-2.033H20.052v4.763H8.144a4.768,4.768,0,0,1-4.763-4.763V43.6a8.309,8.309,0,0,1,6.965-8.222l3.066-.511,2.462,5.869,5.368-2.684,5.369,2.684,2.516-6,1.584.2a8.385,8.385,0,0,1,6.166,4.071l4.412,7.564-.962,4.171,2.321.535,3.278-14.2,4.856,1.618-3.4,13.621a4.564,4.564,0,0,1-4.433,3.46Zm29.5-2.381H49.513c.056-.168.127-.327.171-.5l.47-1.88H70.062V5.763h-36.7a11.527,11.527,0,0,0-2.31-2.381H72.444Z" transform="translate(-1 -1)"/>
        <path id="Trazado_1059398" data-name="Trazado 1059398" d="M47,37h9.526v2.381H47Z" transform="translate(7.774 5.866)"/>
      </g>
    </g>
  </g>
</svg>
