<svg xmlns="http://www.w3.org/2000/svg" width="820" height="442" viewBox="0 0 820 442">
  <g id="img1" transform="translate(-410.711 -1389.715)">
    <rect id="Rectangle_454966" data-name="Rectangle 454966" width="820" height="442" rx="5" transform="translate(410.711 1389.715)" fill="#b5d6ca"/>
    <g id="_3530102_64681" data-name="3530102_64681" transform="translate(516.851 1389.715)">
      <g id="shadow" transform="translate(47.983 354.891)">
        <g id="XMLID_237_">
          <path id="Path_998546" data-name="Path 998546" d="M220.917,643.709c-24.5.294-46.9,2.883-71.114,3.578-12.243.351-52.429-.612-60.191,6.25-12.246,10.826,20.139,10.161,16.824,18.348-.657,1.623-3.128,2.739-4.635,4.153-2.7,2.539-2.009,6,.844,8.479,12.5,10.865,58.2,7.705,77.4,7.889,111.078,1.065,222.455,2.33,332.917-1.26,23.823-.774,47.507-1.752,71.227-2.664,10.855-.417,24.442-1.5,24.485-3.939.109-6.165-20.544.306-13.712-12,2.2-3.954,13.536-4.738,7.784-11.512-6.323-7.447-20.929-13.2-34.426-15.081-13.787-1.922-27.97-1.621-41.991-2.231-25.738-1.121-51.592-1.335-77.411-1.435-58.57-.228-117.142.152-175.7.743C255.79,643.205,238.352,643.5,220.917,643.709Z" transform="translate(-86.832 -642.22)" fill="#d3e6df"/>
        </g>
      </g>
      <g id="object" transform="translate(34.814 54.376)">
        <g id="Group_1183508" data-name="Group 1183508">
          <g id="XMLID_117_" transform="translate(20.975 98.791)">
            <g id="XMLID_118_">
              <rect id="Rectangle_455009" data-name="Rectangle 455009" width="2.504" height="76.74" transform="translate(0 2.502) rotate(-87.398)" fill="#fff"/>
            </g>
          </g>
          <g id="XMLID_115_" transform="translate(41.029 28.644)">
            <g id="XMLID_116_">
              <rect id="Rectangle_455010" data-name="Rectangle 455010" width="2.504" height="92.701" transform="translate(0 1.504) rotate(-36.899)" fill="#fff"/>
            </g>
          </g>
          <g id="XMLID_112_" transform="translate(322.609 148.511)">
            <g id="XMLID_114_" transform="translate(0.094)">
              <path id="Path_998547" data-name="Path 998547" d="M646.972,373.068l.336-5.794,2.482-.124.648,3.962,1.182-.6-.892,4.962-2.585.477Z" transform="translate(-646.972 -367.15)" fill="#ead1c5"/>
            </g>
            <g id="XMLID_113_" transform="translate(0 5.532)">
              <path id="Path_998548" data-name="Path 998548" d="M679.247,400.484l-18.386-1.613-9.057-21.71-5,1.636,4.743,30.029,28.72,5.221Z" transform="translate(-646.801 -377.161)" fill="#145566"/>
            </g>
          </g>
          <g id="XMLID_109_" transform="translate(55.982 137.392)">
            <g id="XMLID_111_" transform="translate(31.146)">
              <path id="Path_998549" data-name="Path 998549" d="M225.54,352.792l-.841-5.763-2.492.092-.3,4.017-1.233-.5,1.324,4.883,2.626.251Z" transform="translate(-220.67 -347.029)" fill="#ead1c5"/>
            </g>
            <g id="XMLID_110_" transform="translate(0 5.805)">
              <path id="Path_998550" data-name="Path 998550" d="M164.307,385.8l26.472-5.167,4.6-23.1,5.144,1.2-1.47,32.084-26.415,8.82Z" transform="translate(-164.307 -357.533)" fill="#145566"/>
            </g>
          </g>
          <g id="XMLID_88_" transform="translate(131.125 147.389)">
            <g id="XMLID_90_" transform="translate(0 0)">
              <g id="XMLID_106_" transform="translate(25.801 132.191)">
                <g id="XMLID_108_" transform="translate(4.879 36.92)">
                  <path id="Path_998551" data-name="Path 998551" d="M359.8,672.016a2.185,2.185,0,0,0-1.976-.847,2.234,2.234,0,0,0-1.659,1.25,4.254,4.254,0,0,0-.285,1.422c-.207,2.5-.188,8.453,3.148,9.309a2.483,2.483,0,0,0,2.937-1.9C362.53,679.357,361.695,674.1,359.8,672.016Z" transform="translate(-355.808 -671.146)" fill="#1a3151"/>
                </g>
                <g id="XMLID_107_">
                  <path id="Path_998552" data-name="Path 998552" d="M357.036,604.335l-.175,15.279c.2,6.786-.857,13.611-.653,20.4.047,1.56.453,3.207.06,4.753-.385,1.513-1.614,1.78-2.876,1.015-1.691-1.027-1.419-3.424-1.7-5.173-.774-4.806-1.681-9.589-2.489-14.39-.4-2.353.421-5.651.243-8.033,0,0-2.468-12.8-2.468-12.8Z" transform="translate(-346.978 -604.335)" fill="#ead1c5"/>
                </g>
              </g>
              <g id="XMLID_105_" transform="translate(18.403 86.673)">
                <path id="Path_998553" data-name="Path 998553" d="M333.589,542.8l6.65,29.539,1.412,27.9,10.544-.237,2.867-78.028-20.441.371Z" transform="translate(-333.589 -521.965)" fill="#d1e7f5"/>
              </g>
              <g id="XMLID_100_" transform="translate(36.065 87.24)">
                <g id="XMLID_102_" transform="translate(8.132 47.096)">
                  <g id="XMLID_104_" transform="translate(1.714 34.315)">
                    <path id="Path_998554" data-name="Path 998554" d="M387.213,671.088a2.143,2.143,0,0,0-2-.731,2.28,2.28,0,0,0-1.6,1.349,4.3,4.3,0,0,0-.223,1.441c-.1,2.519.174,8.47,3.536,9.13a2.525,2.525,0,0,0,2.846-2.071C390.248,678.274,389.191,673.064,387.213,671.088Z" transform="translate(-383.369 -670.314)" fill="#1a3151"/>
                  </g>
                  <g id="XMLID_103_">
                    <path id="Path_998555" data-name="Path 998555" d="M380.267,608.217l.895,15.254c.073,4.24.638,8.445,1.077,12.656.408,3.911-.227,7.985,1.817,11.542.641,1.116,1.937,1.858,2.842.5.7-1.044.284-2.787.417-3.972.546-4.836,1.227-9.657,1.808-14.49.285-2.369-.686-5.625-.621-8.013,0,0,1.862-12.905,1.862-12.905Z" transform="translate(-380.267 -608.217)" fill="#ead1c5"/>
                  </g>
                </g>
                <g id="XMLID_101_">
                  <path id="Path_998556" data-name="Path 998556" d="M387.027,541.448l.858,28.674-4.5,29-10.726.32.474-31.382-5.676-26.025L365.552,525l17.019-2.008Z" transform="translate(-365.552 -522.991)" fill="#d1e7f5"/>
                </g>
              </g>
              <g id="XMLID_99_" transform="translate(15.111 28.119)">
                <path id="Path_998557" data-name="Path 998557" d="M356.6,416.442,338.264,416l-10.631,19.771,3.779,18.519.673,22.161,26.155.356,8.606-1.4-2.285-23.679,1.31-31.631Z" transform="translate(-327.633 -416.004)" fill="#ebb044"/>
              </g>
              <g id="XMLID_98_" transform="translate(18.757 78.56)">
                <path id="Path_998558" data-name="Path 998558" d="M335.072,508.565l-.842,3.061,4.294,3.506,3.336-1.5.881-3.6-2.618-1.016.11-.817-.715-.916Z" transform="translate(-334.23 -507.283)" fill="#ead1c5"/>
              </g>
              <g id="XMLID_97_" transform="translate(0 28.822)">
                <path id="Path_998559" data-name="Path 998559" d="M326.05,417.276l-22.4,24.576-3.366,9.945,18.308,19.2,5.553-3.736L312.408,451.2l11.2-8.3Z" transform="translate(-300.287 -417.276)" fill="#ebb044"/>
              </g>
              <g id="XMLID_96_" transform="translate(43.384 32.22)">
                <path id="Path_998560" data-name="Path 998560" d="M378.8,431.742l9.551,19.093,10.3,2.046L418.5,436.1l-4.426-5.02-17.593,9.857-9.328-17.516Z" transform="translate(-378.796 -423.425)" fill="#ead1c5"/>
              </g>
              <g id="XMLID_91_" transform="translate(10.25)">
                <g id="XMLID_95_" transform="translate(16.804 8.404)">
                  <path id="Path_998561" data-name="Path 998561" d="M365.12,385.118c-2.764-8.036-13.373-5.025-15.56,2.131-1.427,4.668,2.178,10.725,7.015,12.065a4.792,4.792,0,0,1,.038.5,15.679,15.679,0,0,0,.207,2.236c.041.279,4.274-.534,4.746-.627a.641.641,0,0,0,.438-.216c.171-.266-.107-1.048-.138-1.344q-.055-.523-.11-1.046a8.349,8.349,0,0,0,4.311-6.169A15.5,15.5,0,0,0,365.12,385.118Z" transform="translate(-349.245 -380.327)" fill="#ead1c5"/>
                </g>
                <g id="XMLID_92_">
                  <g id="XMLID_94_" transform="translate(24.674 4.794)">
                    <path id="Path_998562" data-name="Path 998562" d="M364.57,374.934a4.214,4.214,0,0,0-.957,2.157,3.368,3.368,0,0,0-.083,1.4c.394,1.824,2.2,1.729,3.6,2.317a9.33,9.33,0,0,1,4.18,3.6c1.513,2.408.832,5.506.219,8.161-.216.936-.652,2.327.075,3.162s2.443.717,3.326.281c.807-.4,1.47-1.136,2.356-1.285.938-.157,2.206.255,2.642-.605a5.821,5.821,0,0,1,.286-.752c.518-.741,1.808.127,2.538-.4a1.426,1.426,0,0,0,.294-1.548,3.685,3.685,0,0,1-.3-1.642,5.439,5.439,0,0,1,.644-1.279,2.52,2.52,0,0,0-.348-2.679c-1.155-1.337-3.39-1.083-4.628-2.34a5.442,5.442,0,0,1-1.135-2.494,4.781,4.781,0,0,0-1.218-2.443c-.852-.748-2.081-.621-2.921-1.509a17.216,17.216,0,0,0-1.377-1.654,11.08,11.08,0,0,0-3.066-1.363A3.985,3.985,0,0,0,364.57,374.934Z" transform="translate(-363.486 -373.795)" fill="#1a3151"/>
                  </g>
                  <g id="XMLID_93_">
                    <path id="Path_998563" data-name="Path 998563" d="M337.883,383.877c-.049,2.645,1.264,5.5.046,7.833-1.23,2.35-4.295,2.773-6.908,2.9-.43.02-5.943.5-5.966.392a17.97,17.97,0,0,0-1.8-5.339,5.879,5.879,0,0,0-4.417-3.073,1.133,1.133,0,0,0,.739-1.293,8.721,8.721,0,0,0-.51-1.572,3.7,3.7,0,0,1,.966-3.72c1.95-1.818,5.487-1.063,7.158-3.151,1.037-1.295.913-3.172,1.457-4.753,1.051-3.056,4.4-3.7,6.9-5.076a11.982,11.982,0,0,1,8.173-1.748c3.778.629,6.585,4.475,5.128,8.094-1.868,4.642-9.338,4.241-10.737,8.954A5.848,5.848,0,0,0,337.883,383.877Z" transform="translate(-318.835 -365.119)" fill="#1a3151"/>
                  </g>
                </g>
              </g>
            </g>
            <g id="XMLID_89_" transform="translate(31.166 28.119)">
              <path id="Path_998564" data-name="Path 998564" d="M356.686,416.337l5.688,8.039,2.674-.219L369.5,416Z" transform="translate(-356.686 -416.004)" fill="#d1d6d6"/>
            </g>
          </g>
          <g id="XMLID_86_" transform="translate(389.153 27.817)">
            <g id="XMLID_87_">
              <rect id="Rectangle_455011" data-name="Rectangle 455011" width="2.504" height="92.83" transform="translate(0 2.482) rotate(-82.409)" fill="#fff"/>
            </g>
          </g>
          <g id="XMLID_84_" transform="translate(81.319 111.706)">
            <g id="XMLID_85_">
              <rect id="Rectangle_455012" data-name="Rectangle 455012" width="2.504" height="132.388" transform="translate(0 1.826) rotate(-46.832)" fill="#fff"/>
            </g>
          </g>
          <g id="XMLID_82_" transform="translate(389.421 34.112)">
            <g id="XMLID_83_">
              <rect id="Rectangle_455013" data-name="Rectangle 455013" width="2.504" height="143.976" transform="matrix(0.561, -0.828, 0.828, 0.561, 0, 2.073)" fill="#fff"/>
            </g>
          </g>
          <g id="XMLID_61_" transform="translate(23.838 138.171)">
            <g id="XMLID_81_" transform="translate(0 30.785)">
              <path id="Path_998565" data-name="Path 998565" d="M122.823,455.622a82.536,82.536,0,0,0,1.709-11.118c.2-6.906,1.083-29.717,1.083-29.717l4.287-8.725.791.008-.171-.02a5.994,5.994,0,0,0-.069-1.9c-7.474.449-15.136,4.369-17.281,11.647a9.056,9.056,0,0,0-.364,1.835c-.3,3.739.843,6.5-.235,10.256-.937,3.263-1.787,6.574-2.41,9.913-.9,4.833-1.736,9.643-2.393,14.441a148.056,148.056,0,0,0-1.388,15.878c-.017.582-.134,2.21-.2,4.156-.138,4.074-.049,9.524,1.666,9.728a1.689,1.689,0,0,0,.913-.241,60.38,60.38,0,0,0,5.891-3.7l.1-21.254Z" transform="translate(-106.138 -404.147)" fill="#145566"/>
            </g>
            <g id="XMLID_80_" transform="translate(29.149 31.084)">
              <path id="Path_998566" data-name="Path 998566" d="M185.852,477.708c-.439-4.523-.894-9.044-1.451-13.555a167.184,167.184,0,0,0-5.177-26.678c-.976-3.327-2.1-6.607-3.229-9.887l-4.114-11.98c-1.7-4.963-4.581-8.459-9.617-10.2a18.951,18.951,0,0,0-2.822-.724,3.14,3.14,0,0,0-.059.316,2.578,2.578,0,0,1-.5,1.351l3.306.031s9.327,32.593,9.669,38.211c.13,2.135.564,6.8,1.046,11.707l5.065.746.217,18.783c.283.081.565.16.845.234,1.607.427,2.914,1.6,4.249,2.516C185.256,479.943,186.121,480.48,185.852,477.708Z" transform="translate(-158.887 -404.689)" fill="#145566"/>
            </g>
            <g id="XMLID_79_" transform="translate(30.052 99.382)">
              <path id="Path_998567" data-name="Path 998567" d="M165.269,528.309l-1.12.086-3.628,34.864,3.9,50.706h.037V613.2h6.506l8.253-56.465-.3-25.6c-3.944-1.134-8.218-2.885-12.338-2.849C166.145,528.286,165.707,528.3,165.269,528.309Z" transform="translate(-160.52 -528.282)" fill="#1a3151"/>
            </g>
            <g id="XMLID_78_" transform="translate(34.8 82.702)">
              <path id="Path_998568" data-name="Path 998568" d="M177.482,498.1c.763,7.771,1.648,16.167,1.648,16.167s-4.095.1-10.018.538c.438-.01.876-.022,1.314-.025,4.12-.036,8.393,1.714,12.338,2.849l-.217-18.783Z" transform="translate(-169.112 -498.098)" fill="#145566"/>
            </g>
            <g id="XMLID_77_" transform="translate(33.989 184.299)">
              <path id="Path_998569" data-name="Path 998569" d="M167.645,682.716v2.712l6.955,3.478,3.478-3.478-3.478-3.477h-.449l-.112.765Z" transform="translate(-167.645 -681.951)" fill="#1a3151"/>
            </g>
            <g id="XMLID_76_" transform="translate(33.989 184.299)">
              <path id="Path_998570" data-name="Path 998570" d="M167.645,682.716h6.395l.112-.765h-6.506Z" transform="translate(-167.645 -681.951)" fill="#1a3151"/>
            </g>
            <g id="XMLID_75_" transform="translate(8.494 100.391)">
              <path id="Path_998571" data-name="Path 998571" d="M137.593,530.108l-.477.057a57.052,57.052,0,0,1-8.578,1.324,27.492,27.492,0,0,0-4.85,1.727,21.054,21.054,0,0,0-2.158,1.2l-.022,4.426,7.9,75.172h6.475v.765h.037l7.119-50.422.029-.284-.161-2.1Z" transform="translate(-121.508 -530.108)" fill="#1a3151"/>
            </g>
            <g id="XMLID_74_" transform="translate(8.515 82.261)">
              <path id="Path_998572" data-name="Path 998572" d="M128.556,516.81c-2.824.147-3.176-.376-3.176-.376s2.548-10.234,4.337-19.135l-8.065,1.188-.1,21.254a21.158,21.158,0,0,1,2.158-1.2A27.492,27.492,0,0,1,128.556,516.81Z" transform="translate(-121.547 -497.299)" fill="#145566"/>
            </g>
            <g id="XMLID_73_" transform="translate(24.579 99.495)">
              <path id="Path_998573" data-name="Path 998573" d="M150.616,529.382l5.311,31.867.161,2.1,3.628-34.864C156.956,528.7,153.854,529,150.616,529.382Z" transform="translate(-150.616 -528.486)" fill="#1a3151"/>
            </g>
            <g id="XMLID_72_" transform="translate(12.433 184.299)">
              <path id="Path_998574" data-name="Path 998574" d="M132.594,681.951h-.48l-3.478,3.477,3.478,3.478,6.955-3.478v-2.712h-6.394Z" transform="translate(-128.636 -681.951)" fill="#1a3151"/>
            </g>
            <g id="XMLID_71_" transform="translate(16.39 184.299)">
              <path id="Path_998575" data-name="Path 998575" d="M135.8,681.951l.081.765h6.394v-.765Z" transform="translate(-135.798 -681.951)" fill="#1a3151"/>
            </g>
            <g id="Group_1183507" data-name="Group 1183507" transform="translate(12.349 32.701)">
              <path id="Path_998576" data-name="Path 998576" d="M159.305,457.615c-.482-4.911-.916-9.572-1.046-11.707-.343-5.618-9.669-38.211-9.669-38.211l-3.306-.032a1.282,1.282,0,0,1-.115.118,1.027,1.027,0,0,1-.355.2,1.971,1.971,0,0,1-.845.023l-3.279-.388-.791-.008-4.287,8.725s-.884,22.81-1.083,29.717a82.718,82.718,0,0,1-1.709,11.118c-1.789,8.9-4.337,19.135-4.337,19.135s.351.523,3.176.376a57.057,57.057,0,0,0,8.578-1.324l.477-.057c3.238-.387,6.341-.678,9.1-.9l1.12-.086c5.923-.442,10.018-.538,10.018-.538S160.068,465.387,159.305,457.615Z" transform="translate(-128.484 -407.614)" fill="#fff"/>
            </g>
            <g id="XMLID_70_" transform="translate(19.532 14.519)">
              <path id="Path_998577" data-name="Path 998577" d="M151.655,391.278c.427-1.839,2.459-2.667,3.554-4.3a14.284,14.284,0,0,0,2.171-6.2c0-.037.009-.075.014-.112a3.164,3.164,0,0,1-.5.222,6.021,6.021,0,0,1,.393-2.66,2.506,2.506,0,0,0,.045-.688,19.623,19.623,0,0,1-4.311-1.359c-2.4-1.049-7.084-2.167-9.579-.928-1.973.98-1.367,4.1-1.268,6.08a5.413,5.413,0,0,1-.052,1.519,6.517,6.517,0,0,1-.634,1.28,5.455,5.455,0,0,0,1.167,2.163c1.582,1.785,3.19,2.663,3.616,4.678A22.874,22.874,0,0,1,151.655,391.278Z" transform="translate(-141.483 -374.712)" fill="#ead1c5"/>
            </g>
            <g id="XMLID_69_" transform="translate(24.317 30.741)">
              <path id="Path_998578" data-name="Path 998578" d="M150.209,406.014l.171.02,4.595.044a2.581,2.581,0,0,0,.5-1.351,2.859,2.859,0,0,1,.059-.316,22.847,22.847,0,0,0-5.388-.3A6.034,6.034,0,0,1,150.209,406.014Z" transform="translate(-150.142 -404.067)" fill="#ead1c5"/>
            </g>
            <g id="XMLID_68_" transform="translate(24.554 32.708)">
              <path id="Path_998579" data-name="Path 998579" d="M153.85,408.016a1.962,1.962,0,0,0,.845-.023,1.019,1.019,0,0,0,.355-.2,1.155,1.155,0,0,0,.115-.118l-4.595-.044Z" transform="translate(-150.571 -407.628)" fill="#ead1c5"/>
            </g>
            <g id="XMLID_67_" transform="translate(35.443 17.368)">
              <path id="Path_998580" data-name="Path 998580" d="M170.309,379.868a9.563,9.563,0,0,1-.033,3.108,5.455,5.455,0,0,0,2.265-3.008A8.437,8.437,0,0,1,170.309,379.868Z" transform="translate(-170.276 -379.868)" fill="#1a3151"/>
            </g>
            <g id="XMLID_66_" transform="translate(34.878 17.351)">
              <path id="Path_998581" data-name="Path 998581" d="M169.851,379.854l-.1-.018a2.485,2.485,0,0,1-.045.688,6.026,6.026,0,0,0-.393,2.66,3.161,3.161,0,0,0,.5-.222A9.552,9.552,0,0,0,169.851,379.854Z" transform="translate(-169.254 -379.836)" fill="#1a3151"/>
            </g>
            <g id="XMLID_65_" transform="translate(13.82 0)">
              <path id="Path_998582" data-name="Path 998582" d="M136.734,366.344a5.977,5.977,0,0,1,.4-2.3,5.023,5.023,0,0,1,3.244-2.341,12.226,12.226,0,0,1,10.128,1.114,5.356,5.356,0,0,1,1.942,1.971,3.782,3.782,0,0,1,.172.4,8.038,8.038,0,0,1-.494-2.624,1.543,1.543,0,0,1,2.378-.666,2.452,2.452,0,0,1,.915,1.8,5.171,5.171,0,0,1-.333,2.065c-.017.049-.035.1-.053.145a4.523,4.523,0,0,0,1.34-.335c2.1-.923,3.816-4.6,3.745-6.866a3.15,3.15,0,0,0-1.384-2.647,6.411,6.411,0,0,1-2.255-1.886c-.385-.681-.442-1.523-.823-2.205-.691-1.236-2.191-1.6-3.5-2.019-3.264-1.048-5.021-2.258-8.478-.916-2.457.954-5.633,1.082-7.914,2.473a7.985,7.985,0,0,0-2.428,2.555,14.42,14.42,0,0,0-1.357,12.427,15.328,15.328,0,0,0,1.219,2.355c.912,1.481,1.89,3.3,3.506,4.028a1.751,1.751,0,0,1,.15-.488C136.317,370.484,136.652,368.343,136.734,366.344Z" transform="translate(-131.148 -348.438)" fill="#1a3151"/>
            </g>
            <g id="XMLID_64_" transform="translate(19.229 12.662)">
              <path id="Path_998583" data-name="Path 998583" d="M141.925,379.834c-.1-1.976-.705-5.1,1.268-6.08,2.495-1.239,7.176-.122,9.579.928a19.625,19.625,0,0,0,4.311,1.359,4.3,4.3,0,0,0-.082-.6,3.685,3.685,0,0,0-.172-.4,5.356,5.356,0,0,0-1.942-1.971,12.227,12.227,0,0,0-10.128-1.114,5.024,5.024,0,0,0-3.244,2.341,5.979,5.979,0,0,0-.4,2.3c-.081,2-.416,4.14.125,6.037a6.562,6.562,0,0,0,.634-1.28A5.413,5.413,0,0,0,141.925,379.834Z" transform="translate(-140.936 -371.351)" fill="#1a3151"/>
            </g>
            <g id="XMLID_63_" transform="translate(34.769 13.161)">
              <path id="Path_998584" data-name="Path 998584" d="M172.381,374.352a2.45,2.45,0,0,0-.915-1.8,1.543,1.543,0,0,0-2.378.666,8.024,8.024,0,0,0,.494,2.624,4.293,4.293,0,0,1,.181.621,8.46,8.46,0,0,0,2.232.1c.018-.049.036-.1.053-.145A5.177,5.177,0,0,0,172.381,374.352Z" transform="translate(-169.057 -372.254)" fill="#1a3151"/>
            </g>
            <g id="XMLID_62_" transform="translate(35.295 16.748)">
              <path id="Path_998585" data-name="Path 998585" d="M170.008,378.745a4.3,4.3,0,0,1,.082.6l.1.018A4.26,4.26,0,0,0,170.008,378.745Z" transform="translate(-170.008 -378.745)" fill="#1a3151"/>
            </g>
          </g>
          <g id="XMLID_40_" transform="translate(444.469 145.056)">
            <g id="XMLID_60_" transform="translate(29.305 31.255)">
              <path id="Path_998586" data-name="Path 998586" d="M920.355,419.677l8.864-2.219,8.387,1.678L929.986,425Z" transform="translate(-920.355 -417.458)" fill="#ead1c5"/>
            </g>
            <g id="XMLID_54_" transform="translate(28.82 3.292)">
              <g id="XMLID_56_">
                <g id="XMLID_59_" transform="translate(0 4.505)">
                  <path id="Path_998587" data-name="Path 998587" d="M923.913,385.215c-1.451,2.322-.738,5.292-.1,7.838.261,1.04.71,2.514-.3,3.29-1.125.869-2.979.039-3.562-1.06a5.421,5.421,0,0,1-.465-2.523c-.045-3.842-.1-9.221,1.364-12.783,1.175-2.856,6.417-6.932,9.536-3.9a4.04,4.04,0,0,1,.969,2.065,3.167,3.167,0,0,1,.1,1.341c-.361,1.754-2.137,1.675-3.5,2.249A9,9,0,0,0,923.913,385.215Z" transform="translate(-919.476 -375.007)" fill="#1a3151"/>
                </g>
                <g id="XMLID_58_" transform="translate(3.236 7.953)">
                  <path id="Path_998588" data-name="Path 998588" d="M929.856,399.038a8.1,8.1,0,0,1-4.351-5.911,14.545,14.545,0,0,1,.822-7.237c2.6-7.734,13.05-4.913,15.3,1.942C943.584,393.806,936.766,402.223,929.856,399.038Z" transform="translate(-925.333 -381.247)" fill="#ead1c5"/>
                </g>
                <g id="XMLID_57_" transform="translate(7.245)">
                  <path id="Path_998589" data-name="Path 998589" d="M943.264,384.924c-.212.969-.048,2.119-.221,3.128-.318,1.858-1.446,4.044-1.307,5.878a11.5,11.5,0,0,0,6.175-.934c1.769-.836,2.117-2.8,3.012-4.57a25.21,25.21,0,0,0,2.188-5.039c2.477-9.738-5.422-17.981-15.194-16.318-3.7.629-6.4,4.341-4.917,7.805,1.593,3.727,7.11,4.068,9.439,7.195A5.407,5.407,0,0,1,943.264,384.924Z" transform="translate(-932.587 -366.854)" fill="#1a3151"/>
                </g>
              </g>
              <g id="XMLID_55_" transform="translate(7.337 24.557)">
                <path id="Path_998590" data-name="Path 998590" d="M933.188,411.82q-.114,1.1-.228,2.194c-.035.335-.32,1.231-.155,1.526a.572.572,0,0,0,.429.228c.464.088,4.627.851,4.672.534a20.59,20.59,0,0,0,.236-2.539,11.076,11.076,0,0,0,.112-2.469,6.7,6.7,0,0,1-2.514.417q-1.268-.006-2.534-.061C933.2,411.707,933.193,411.763,933.188,411.82Z" transform="translate(-932.754 -411.294)" fill="#ead1c5"/>
              </g>
            </g>
            <g id="XMLID_51_" transform="translate(0 38.124)">
              <g id="XMLID_53_" transform="translate(0 51.199)">
                <path id="Path_998591" data-name="Path 998591" d="M873.114,523.1l-2.893-.561-2.9,4.12,1.653,2.923,3.39.562,1.249-4.168Z" transform="translate(-867.323 -522.539)" fill="#ead1c5"/>
              </g>
              <g id="XMLID_52_" transform="translate(2.875)">
                <path id="Path_998592" data-name="Path 998592" d="M902.705,429.888l-10.7.6-6.764,28.839-12.714,21.047,3.529,4.07,16.814-16.906Z" transform="translate(-872.525 -429.888)" fill="#89939b"/>
              </g>
            </g>
            <g id="XMLID_48_" transform="translate(23.498 133.515)">
              <g id="XMLID_50_" transform="translate(4.059 40.223)">
                <path id="Path_998593" data-name="Path 998593" d="M918.292,676.692A2.489,2.489,0,0,1,920.3,675.3a2.61,2.61,0,0,1,2.171.986,4.735,4.735,0,0,1,.669,1.495c.847,2.7,2.285,9.233-1.253,10.95a2.9,2.9,0,0,1-3.764-1.4C917.027,685.385,916.676,679.423,918.292,676.692Z" transform="translate(-917.19 -675.299)" fill="#1a3151"/>
              </g>
              <g id="XMLID_49_">
                <path id="Path_998594" data-name="Path 998594" d="M921.419,602.511l-.466,17.15c.116,7.622-1.22,15.266-1.1,22.889.026,1.753.465,3.607-.013,5.338-.468,1.693-1.885,1.973-3.322,1.092-1.925-1.18-1.57-3.867-1.863-5.834-.805-5.408-1.765-10.793-2.61-16.195-.414-2.648.581-6.338.418-9.014,0,0-2.613-14.415-2.613-14.415Z" transform="translate(-909.845 -602.511)" fill="#ead1c5"/>
              </g>
            </g>
            <g id="XMLID_45_" transform="translate(37.49 133.478)">
              <g id="XMLID_47_" transform="translate(1.001 41.26)">
                <path id="Path_998595" data-name="Path 998595" d="M939.28,678.173a2.531,2.531,0,0,1,2.224-1.051,2.566,2.566,0,0,1,1.969,1.317,4.677,4.677,0,0,1,.4,1.581c.366,2.8.65,9.47-3.135,10.6a2.859,2.859,0,0,1-3.468-1.977C936.523,686.546,937.212,680.609,939.28,678.173Z" transform="translate(-936.977 -677.109)" fill="#1a3151"/>
              </g>
              <g id="XMLID_46_">
                <path id="Path_998596" data-name="Path 998596" d="M935.166,602.444l.985,17.128c.115,7.622,1.682,15.223,1.8,22.845.026,1.753-.355,3.62.175,5.335.519,1.678,1.944,1.915,3.353.991,1.888-1.238,1.452-3.912,1.685-5.888.641-5.43,1.437-10.841,2.118-16.266.334-2.66-.773-6.317-.691-9,0,0,2.176-14.487,2.176-14.487Z" transform="translate(-935.166 -602.444)" fill="#ead1c5"/>
              </g>
            </g>
            <g id="XMLID_44_" transform="translate(20.947 31.499)">
              <path id="Path_998597" data-name="Path 998597" d="M930.485,417.9l-7.267,3.843-8.188-2.957-8.4,6.336s.869,26.41.549,36.187-.963,17.721-1.812,32.025c-.935,15.739,3.079,34.669,3.079,34.669l32.674-.5s6.652-35.821,3.23-45.107-1.386-18.529-1.5-26.127-3.31-33.07-3.31-33.07Z" transform="translate(-905.228 -417.9)" fill="#89939b"/>
            </g>
            <g id="XMLID_41_" transform="translate(48.209 0)">
              <g id="XMLID_43_" transform="translate(28.689)">
                <path id="Path_998598" data-name="Path 998598" d="M1006.607,369.735l3.432,1.15,4.222-4.8-1.525-3.964L1008.7,360.9l-2.216,5.108Z" transform="translate(-1006.48 -360.898)" fill="#ead1c5"/>
              </g>
              <g id="XMLID_42_" transform="translate(0 6.948)">
                <path id="Path_998599" data-name="Path 998599" d="M954.563,413.481l23.1-7.44,11.612-30.859-6.88-1.711-13.65,23.447-14.1,2.985Z" transform="translate(-954.563 -373.471)" fill="#89939b"/>
              </g>
            </g>
          </g>
          <g id="XMLID_38_" transform="translate(178.047 125.243)">
            <g id="XMLID_39_">
              <rect id="Rectangle_455014" data-name="Rectangle 455014" width="135.015" height="2.504" transform="translate(0 76.918) rotate(-34.728)" fill="#fff"/>
            </g>
          </g>
          <g id="XMLID_36_" transform="translate(173.848 53.763)">
            <g id="XMLID_37_" transform="translate(0)">
              <rect id="Rectangle_455015" data-name="Rectangle 455015" width="2.504" height="135.572" transform="translate(0 2.128) rotate(-58.19)" fill="#fff"/>
            </g>
          </g>
          <g id="XMLID_34_" transform="translate(75.376 104.713)">
            <g id="XMLID_35_">
              <rect id="Rectangle_455016" data-name="Rectangle 455016" width="2.504" height="215.189" transform="matrix(0.094, -0.996, 0.996, 0.094, 0, 2.493)" fill="#fff"/>
            </g>
          </g>
          <g id="XMLID_32_" transform="translate(285.661 28.127)">
            <g id="XMLID_33_">
              <rect id="Rectangle_455017" data-name="Rectangle 455017" width="142.101" height="2.504" transform="matrix(0.729, -0.684, 0.684, 0.729, 0, 97.24)" fill="#fff"/>
            </g>
          </g>
          <g id="XMLID_30_" transform="translate(285.827 125.209)">
            <g id="XMLID_31_">
              <rect id="Rectangle_455018" data-name="Rectangle 455018" width="2.504" height="163.597" transform="translate(0 2.099) rotate(-56.928)" fill="#fff"/>
            </g>
          </g>
          <g id="XMLID_28_" transform="translate(289.683 114.726)">
            <g id="XMLID_29_">
              <rect id="Rectangle_455019" data-name="Rectangle 455019" width="224.649" height="2.504" transform="translate(0 7.324) rotate(-1.868)" fill="#fff"/>
            </g>
          </g>
          <g id="XMLID_27_" transform="translate(212.883 48.38)">
            <circle id="Ellipse_13637" data-name="Ellipse 13637" cx="67.737" cy="67.737" r="67.737" fill="#3ababa"/>
          </g>
          <g id="XMLID_26_" transform="translate(140.344 15.49)">
            <circle id="Ellipse_13638" data-name="Ellipse 13638" cx="31.736" cy="31.736" r="31.736" fill="#145566"/>
          </g>
          <g id="XMLID_25_" transform="translate(60.695 67.468)">
            <path id="Path_998600" data-name="Path 998600" d="M172.836,256.553A36.061,36.061,0,0,1,208.9,220.492c19.916,0,37.924,16.145,37.924,36.061s-18.009,36.061-37.924,36.061A36.061,36.061,0,0,1,172.836,256.553Z" transform="translate(-172.836 -220.492)" fill="#1a3151"/>
          </g>
          <g id="XMLID_24_" transform="translate(149.313 168.978)">
            <circle id="Ellipse_13639" data-name="Ellipse 13639" cx="28.457" cy="28.457" r="28.457" transform="translate(0 55.389) rotate(-76.714)" fill="#f7f7f7"/>
          </g>
          <g id="XMLID_23_" transform="translate(357.855)">
            <circle id="Ellipse_13640" data-name="Ellipse 13640" cx="31.465" cy="31.465" r="31.465" fill="#f7f7f7"/>
          </g>
          <g id="XMLID_22_" transform="translate(375.113 163.439)">
            <circle id="Ellipse_13641" data-name="Ellipse 13641" cx="34.287" cy="34.287" r="34.287" transform="translate(0 48.488) rotate(-45)" fill="#1a3151"/>
          </g>
          <g id="XMLID_21_" transform="translate(454.314 60.997)">
            <circle id="Ellipse_13642" data-name="Ellipse 13642" cx="38.879" cy="38.879" r="38.879" transform="translate(0 54.982) rotate(-45)" fill="#3ababa"/>
          </g>
          <g id="XMLID_20_" transform="translate(456.258 16.206)">
            <circle id="Ellipse_13643" data-name="Ellipse 13643" cx="19.202" cy="19.202" r="19.202" transform="translate(0 35.481) rotate(-67.5)" fill="#ffd664"/>
          </g>
          <g id="XMLID_19_" transform="translate(18.806 4.306)">
            <ellipse id="Ellipse_13644" data-name="Ellipse 13644" cx="19.202" cy="19.202" rx="19.202" ry="19.202" transform="translate(0 35.482) rotate(-67.5)" fill="#ffd664"/>
          </g>
          <g id="XMLID_18_" transform="translate(0 79.016)">
            <circle id="Ellipse_13645" data-name="Ellipse 13645" cx="21.028" cy="21.028" r="21.028" fill="#f7f7f7"/>
          </g>
          <g id="XMLID_17_" transform="translate(51.513 169.955)">
            <circle id="Ellipse_13646" data-name="Ellipse 13646" cx="23.482" cy="23.482" r="23.482" transform="translate(0 45.706) rotate(-76.714)" fill="#3ababa"/>
          </g>
          <g id="XMLID_14_" transform="translate(21.028 171.986)">
            <g id="XMLID_16_" transform="translate(30.08 29.158)">
              <path id="Path_998601" data-name="Path 998601" d="M155.487,465.575l3.7-.241,2.119-2.493.757.181-.185.941,2.351-1.566,2.28.239,1.506,2.654-.458,3.118-2.793,1.216-3.6-.41-5.054.55Z" transform="translate(-155.487 -462.396)" fill="#ead1c5"/>
            </g>
            <g id="XMLID_15_">
              <path id="Path_998602" data-name="Path 998602" d="M133.077,440.18l-20.242.534,4.116-31.083-13.821,13.616-2.078,28.684,7.443,4.054,27.626-8.81Z" transform="translate(-101.053 -409.631)" fill="#145566"/>
            </g>
          </g>
          <g id="XMLID_6_" transform="translate(326.354 144.811)">
            <g id="XMLID_13_" transform="translate(0 89.717)">
              <path id="Path_998603" data-name="Path 998603" d="M680.028,526.305v8.353l-11.137,36.194,2.784,37.586-6.961,1.392-11.137-45.938L654,550.375l5.143-27.565Z" transform="translate(-653.578 -522.81)" fill="#1a3151"/>
            </g>
            <g id="XMLID_12_" transform="translate(17.615 96.142)">
              <path id="Path_998604" data-name="Path 998604" d="M685.455,541.4l11.19,76.564h5.087l3.212-41.762,6.961-41.762Z" transform="translate(-685.455 -534.436)" fill="#1a3151"/>
            </g>
            <g id="XMLID_11_" transform="translate(6.737 175.069)">
              <path id="Path_998605" data-name="Path 998605" d="M671.083,678.219l-5.313,5.623,1.535,2.85,10.963-5.262-2.019-4.166Z" transform="translate(-665.77 -677.264)" fill="#3ababa"/>
            </g>
            <g id="XMLID_10_" transform="translate(22.35 178.592)">
              <path id="Path_998606" data-name="Path 998606" d="M700.573,683.639l-6.55,4.117.774,3.144,11.93-2.357L705.813,684Z" transform="translate(-694.023 -683.639)" fill="#3ababa"/>
            </g>
            <g id="XMLID_7_" transform="translate(20.916)">
              <g id="XMLID_9_" transform="translate(0.664 9.889)">
                <path id="Path_998607" data-name="Path 998607" d="M697.566,378.351c3.107,3.287,8.72,3.4,11.379,7.069a8.592,8.592,0,0,1,.389,8.541,7.231,7.231,0,0,1-2.684,3.167,6.913,6.913,0,0,1-2.547.85,9.818,9.818,0,0,1-3.549-.134,17.747,17.747,0,0,0-.3,3.194c-2.073-.815-4.821-.135-6.895-.949.467-1.193,1.608-3.88,2.075-5.073a9.5,9.5,0,0,1-1.183-1.463,10.772,10.772,0,0,1-.2-11.024A20.942,20.942,0,0,1,697.566,378.351Z" transform="translate(-692.631 -378.351)" fill="#ead1c5"/>
              </g>
              <g id="XMLID_8_">
                <path id="Path_998608" data-name="Path 998608" d="M696.952,372.118,708.37,380.3l-5.186,9.694,5.016.348L718.458,376.1l-14.25-13.588-9.666-2.056-3.113,3.943,2.168,8.928Z" transform="translate(-691.429 -360.455)" fill="#1a3151"/>
              </g>
            </g>
          </g>
          <g id="XMLID_5_" transform="translate(205.247 186.6)">
            <path id="Path_998609" data-name="Path 998609" d="M441.574,443.245l1.5-2.8-3.411-4.369-3.586.728-1.656,3.311,2.328,1.57-.288.773.493,1.052Z" transform="translate(-434.421 -436.077)" fill="#ead1c5"/>
          </g>
          <g id="XMLID_2_" transform="translate(307.228 159.569)">
            <g id="XMLID_4_" transform="translate(0 0)">
              <path id="Path_998610" data-name="Path 998610" d="M621.141,393.768l-2.173-5.574,2.342-1.033,2.333,3.488.881-1,1.279,5-2.29,1.4Z" transform="translate(-618.968 -387.161)" fill="#ead1c5"/>
            </g>
            <g id="XMLID_3_" transform="translate(2.568 5.645)">
              <path id="Path_998611" data-name="Path 998611" d="M672.773,416.427l-24.579,2.3-20.178-21.355-4.4,3.014,16.221,28.234,32.937,5.478Z" transform="translate(-623.615 -397.377)" fill="#145566"/>
            </g>
          </g>
          <g id="XMLID_1_" transform="translate(316.387 174.285)">
            <path id="Path_998612" data-name="Path 998612" d="M659.206,415.458l16.589-1.666a111.753,111.753,0,0,1,19.834,38.265c6.491,22.719-7.934,54.585-7.934,54.585s-44.8-9.146-52.153-10.588l14.5-45.439Z" transform="translate(-635.543 -413.792)" fill="#145566"/>
          </g>
        </g>
      </g>
    </g>
  </g>
</svg>
