<svg xmlns="http://www.w3.org/2000/svg" width="120" height="120" viewBox="0 0 120 120">
  <g id="img11" transform="translate(-388.711 -10669)">
    <rect id="Rect치ngulo_402033" data-name="Rect치ngulo 402033" width="120" height="120" rx="10" transform="translate(388.711 10669)" fill="#2142dc"/>
    <rect id="Rect치ngulo_454167" data-name="Rect치ngulo 454167" width="100" height="100" rx="10" transform="translate(398.711 10679)" fill="#bcc6f5"/>
    <g id="Grupo_1311810" data-name="Grupo 1311810" transform="translate(414.836 10695.125)">
      <path id="Trazado_1059354" data-name="Trazado 1059354" d="M408.513,16.931a6.6,6.6,0,1,0-2.334,10.838,6.611,6.611,0,0,0,2.334-10.838Z" transform="translate(-344.683 -13.01)" fill="#7d85d7"/>
      <path id="Trazado_1059355" data-name="Trazado 1059355" d="M401.913,21.6a6.6,6.6,0,0,1,4.266-6.172,6.6,6.6,0,1,0,0,12.345,6.6,6.6,0,0,1-4.266-6.172Z" transform="translate(-344.682 -13.01)" fill="#6c69d7"/>
      <path id="Trazado_1059356" data-name="Trazado 1059356" d="M26.294,16.93A6.6,6.6,0,1,0,23.96,27.769,6.61,6.61,0,0,0,26.294,16.93Z" transform="translate(-13.041 -13.01)" fill="#f8e86a"/>
      <path id="Trazado_1059357" data-name="Trazado 1059357" d="M19.695,21.6a6.6,6.6,0,0,1,4.265-6.172,6.6,6.6,0,1,0,0,12.345A6.6,6.6,0,0,1,19.695,21.6Z" transform="translate(-13.041 -13.01)" fill="#f9cf62"/>
      <path id="Trazado_1059358" data-name="Trazado 1059358" d="M406.179,397.642a6.6,6.6,0,1,0,4.266,6.172A6.6,6.6,0,0,0,406.179,397.642Z" transform="translate(-344.683 -344.651)" fill="#a4e7ff"/>
      <path id="Trazado_1059359" data-name="Trazado 1059359" d="M401.913,403.815a6.6,6.6,0,0,1,4.266-6.172,6.6,6.6,0,1,0,0,12.345A6.6,6.6,0,0,1,401.913,403.815Z" transform="translate(-344.682 -344.651)" fill="#5ad6ff"/>
      <circle id="Elipse_13675" data-name="Elipse 13675" cx="3.986" cy="3.986" r="3.986" transform="translate(58.786 29.889)" fill="#ff8e9e"/>
      <circle id="Elipse_13676" data-name="Elipse 13676" cx="3.986" cy="3.986" r="3.986" transform="translate(0.992 29.889)" fill="#a4e7ff"/>
      <circle id="Elipse_13677" data-name="Elipse 13677" cx="3.986" cy="3.986" r="3.986" transform="translate(29.889 0.992)" fill="#70dcba"/>
      <circle id="Elipse_13678" data-name="Elipse 13678" cx="6.598" cy="6.598" r="6.598" transform="translate(0.662 54.244) rotate(-13.3)" fill="#70dcba"/>
      <path id="Trazado_1059360" data-name="Trazado 1059360" d="M19.695,403.815a6.6,6.6,0,0,1,4.265-6.172,6.6,6.6,0,1,0,0,12.345,6.6,6.6,0,0,1-4.265-6.172Z" transform="translate(-13.041 -344.651)" fill="#30c99c"/>
      <circle id="Elipse_13679" data-name="Elipse 13679" cx="3.986" cy="3.986" r="3.986" transform="translate(29.889 58.786)" fill="#f8e86a"/>
      <circle id="Elipse_13680" data-name="Elipse 13680" cx="19.929" cy="19.929" r="19.929" transform="translate(13.946 13.946)" fill="#efedff"/>
      <path id="Trazado_1059361" data-name="Trazado 1059361" d="M114.281,125.259a19.938,19.938,0,0,1,15.485-19.431,19.932,19.932,0,1,0,0,38.861,19.938,19.938,0,0,1-15.485-19.431Z" transform="translate(-91.448 -91.384)" fill="#d4d4ff"/>
      <path id="Trazado_1059362" data-name="Trazado 1059362" d="M215.726,319.342h-14.5a7.237,7.237,0,0,1,2.9-5.8,15.323,15.323,0,0,1,8.705,0h0A7.245,7.245,0,0,1,215.726,319.342Z" transform="translate(-174.602 -271.51)" fill="#7d85d7"/>
      <path id="Trazado_1059363" data-name="Trazado 1059363" d="M176.706,153.68c-1.3-6.426-5.881-10.627-14.091-10.634-10.412.009-13.372,6.651-14.211,10.732v0a2.051,2.051,0,0,0,2.037,2.286h24.243A2.051,2.051,0,0,0,176.706,153.68Z" transform="translate(-128.754 -124.118)" fill="#5c576e"/>
      <path id="Trazado_1059364" data-name="Trazado 1059364" d="M153.881,153.781v0c.76-3.7,3.262-9.5,11.472-10.562a21.489,21.489,0,0,0-2.738-.17c-10.412.009-13.372,6.651-14.211,10.732v0a2.051,2.051,0,0,0,2.037,2.286h5.477A2.05,2.05,0,0,1,153.881,153.781Z" transform="translate(-128.754 -124.117)" fill="#4f4c5e"/>
      <path id="Trazado_1059365" data-name="Trazado 1059365" d="M337.819,223.08a2.8,2.8,0,0,1-4.568,2.176,3.689,3.689,0,0,1-.208-4.062l.133-.225a2.8,2.8,0,0,1,4.643,2.111Z" transform="translate(-288.529 -191.129)" fill="#ffcbbe"/>
      <path id="Trazado_1059366" data-name="Trazado 1059366" d="M144.156,220.968l0,.019a3.744,3.744,0,0,1-.064,4.258l-.008.011a2.8,2.8,0,1,1,.076-4.287Z" transform="translate(-121.051 -191.128)" fill="#f9bdb2"/>
      <path id="Trazado_1059367" data-name="Trazado 1059367" d="M194.445,201.534a2.841,2.841,0,0,0-2.779-2.235,6.366,6.366,0,0,1-3.877-1.214.991.991,0,0,0-1.225.01,7.841,7.841,0,0,1-8.442.818l-.655-.336A2.986,2.986,0,0,0,173.3,200.2a10.5,10.5,0,0,0-.4,5.964,11.065,11.065,0,0,0,13.889,8,11.4,11.4,0,0,0,7.662-8,10.534,10.534,0,0,0-.005-4.631Z" transform="translate(-149.799 -171.694)" fill="#ffddcf"/>
      <path id="Trazado_1059368" data-name="Trazado 1059368" d="M177.745,202.609a2.991,2.991,0,0,1,.732-1.118c-.32-.145-.392-.193-1.01-.507a2.986,2.986,0,0,0-4.165,1.625,10.5,10.5,0,0,0-.4,5.964,11.044,11.044,0,0,0,13,8.216A10.717,10.717,0,0,1,177.745,202.609Z" transform="translate(-149.799 -174.102)" fill="#ffcbbe"/>
      <g id="Grupo_1311809" data-name="Grupo 1311809" transform="translate(0 0)">
        <path id="Trazado_1059369" data-name="Trazado 1059369" d="M12.978,32.883H9.857a4.978,4.978,0,1,0,0,1.985H12.98a20.893,20.893,0,0,0,.731,4.6.992.992,0,1,0,1.913-.53,18.94,18.94,0,0,1,34.2-15.276A.992.992,0,1,0,51.5,22.594,21.2,21.2,0,0,0,49.354,19.8l5.19-5.19a7.591,7.591,0,1,0-1.4-1.4l-5.188,5.188A20.814,20.814,0,0,0,34.868,12.98V9.857a4.979,4.979,0,1,0-1.985,0v3.121A20.841,20.841,0,0,0,19.807,18.4l-5.2-5.2a7.591,7.591,0,1,0-1.4,1.4l5.2,5.2a20.84,20.84,0,0,0-5.425,13.076Zm-8,3.986a2.993,2.993,0,1,1,2.993-2.993A3,3,0,0,1,4.978,36.868ZM59.163,2.981a5.605,5.605,0,1,1-5.605,5.605A5.612,5.612,0,0,1,59.163,2.981Zm-28.282,2a2.993,2.993,0,1,1,2.993,2.993,3,3,0,0,1-2.993-2.993ZM2.981,8.587a5.605,5.605,0,1,1,5.605,5.605A5.612,5.612,0,0,1,2.981,8.587Z" transform="translate(0 0)"/>
        <path id="Trazado_1059370" data-name="Trazado 1059370" d="M159.927,153.188a3.792,3.792,0,0,0,3.457-6.6c-.972-4.3-4.215-11.029-14.981-11.039-4.858,0-8.694,1.4-11.4,4.134a14.6,14.6,0,0,0-3.7,7.036,3.791,3.791,0,0,0,3.606,6.473,11.889,11.889,0,0,0,5.425,6.7,8.165,8.165,0,0,0-2.151,5.553.992.992,0,0,0,.992.992h14.5a.992.992,0,0,0,.992-.992,8.17,8.17,0,0,0-2.146-5.547,11.851,11.851,0,0,0,5.414-6.707Zm.425-1.949a11.467,11.467,0,0,0-.062-3.33,1.81,1.81,0,1,1,.062,3.33ZM148.4,137.531c8.12.007,11.419,4.173,12.705,8.233a3.751,3.751,0,0,0-1.446.256,3.883,3.883,0,0,0-3.245-1.8h0a5.143,5.143,0,0,1-3.76-1.445.991.991,0,0,0-1.417-.028,6.83,6.83,0,0,1-7.921,1.2l-.654-.335a3.98,3.98,0,0,0-5.55,2.161c-.025.067-.048.134-.072.2a3.765,3.765,0,0,0-1.431-.2c1.328-4.077,4.674-8.231,12.789-8.238ZM134,149.561a1.812,1.812,0,0,1,2.546-1.655,11.276,11.276,0,0,0-.068,3.336A1.812,1.812,0,0,1,134,149.561Zm20.6,14.888H142.24a6.191,6.191,0,0,1,2.01-3.671,12.336,12.336,0,0,0,8.342,0A6.2,6.2,0,0,1,154.6,164.449Zm-6.179-4.927c-6.881,0-11.828-6.651-9.442-13.06a2.009,2.009,0,0,1,1.875-1.311,3.391,3.391,0,0,1,1.56.558,8.809,8.809,0,0,0,9.515-.923,7.37,7.37,0,0,0,4.475,1.42,1.855,1.855,0,0,1,1.82,1.465,9.5,9.5,0,0,1,.081,3.824.984.984,0,0,0-.021.114,9.561,9.561,0,0,1-1.924,4.13,10.111,10.111,0,0,1-7.939,3.782Z" transform="translate(-114.543 -117.61)"/>
        <path id="Trazado_1059371" data-name="Trazado 1059371" d="M237.914,263.854a.992.992,0,0,0-1.4.1,1.875,1.875,0,0,1-1.438.656,1.915,1.915,0,0,1-1.442-.657.992.992,0,1,0-1.495,1.306,3.892,3.892,0,0,0,5.871,0A.992.992,0,0,0,237.914,263.854Z" transform="translate(-201.209 -228.728)"/>
        <path id="Trazado_1059372" data-name="Trazado 1059372" d="M65.7,224.1a7.537,7.537,0,0,0-4.619,1.568l-5.191-5.191a20.745,20.745,0,0,0,5.42-13.082h3.12a4.978,4.978,0,1,0,0-1.985H61.308a20.787,20.787,0,0,0-1.131-5.873.993.993,0,1,0-1.885.622,18.94,18.94,0,0,1-34.464,15.392.992.992,0,0,0-1.737.959,20.894,20.894,0,0,0,2.844,3.964l-5.193,5.193a7.591,7.591,0,1,0,1.4,1.4l5.191-5.191a20.745,20.745,0,0,0,13.082,5.42v3.12a4.979,4.979,0,1,0,1.985,0V227.3a20.744,20.744,0,0,0,13.082-5.42l5.191,5.191A7.59,7.59,0,1,0,65.7,224.1Zm3.608-20.691a2.993,2.993,0,1,1-2.993,2.993A3,3,0,0,1,69.307,203.406ZM15.122,237.293a5.605,5.605,0,1,1,5.605-5.605A5.612,5.612,0,0,1,15.122,237.293Zm28.282-2A2.993,2.993,0,1,1,40.41,232.3,3,3,0,0,1,43.4,235.3Zm22.3,2a5.605,5.605,0,1,1,5.605-5.605,5.612,5.612,0,0,1-5.605,5.605Z" transform="translate(-6.535 -172.524)"/>
      </g>
    </g>
  </g>
</svg>
