<svg xmlns="http://www.w3.org/2000/svg" width="85" height="85" viewBox="0 0 85 85">
  <g id="img14" transform="translate(-494.711 -4482)">
    <rect id="Rect치ngulo_454644" data-name="Rect치ngulo 454644" width="85" height="85" transform="translate(494.711 4482)" fill="#2142dc"/>
    <rect id="Rect치ngulo_454645" data-name="Rect치ngulo 454645" width="65" height="65" transform="translate(504.711 4492)" fill="#e5eaff"/>
    <g id="Grupo_1185951" data-name="Grupo 1185951" transform="translate(510.826 4498.525)">
      <g id="Grupo_1185950" data-name="Grupo 1185950" transform="translate(5.573 6.414)">
        <path id="Trazado_999345" data-name="Trazado 999345" d="M85.324,78.049,86.4,83.429l.347,1.709.3,1.493-3.871-.773-3.575-.72-1.137-.226-2.708-2.2-9.815-9.816-2.456,2.448L75.6,87.465l.156.156a1.789,1.789,0,0,0,.894.469l6.526,1.31L88.4,90.441l2.456-2.456-.1-.521-1.154-5.754L88.5,76.235a1.785,1.785,0,0,0-.469-.894l-2.4-2.4-2.456-2.456-7.255-7.246-.165-.165L73.3,65.526l9.815,9.815Zm0,0" transform="translate(-62.23 -63.07)" fill="#ff9801"/>
        <path id="Trazado_999346" data-name="Trazado 999346" d="M65.278,297.863,51.183,311.9l2.454,2.454,13.15-13.093.946-.945Zm0,0" transform="translate(-51.183 -273.985)" fill="#ff9801"/>
        <path id="Trazado_999347" data-name="Trazado 999347" d="M299.628,296.931l-.677.685-1.779,1.771-1.3-1.3-11.846-11.794-2.448-1.545-.156-.1,3.471-3.471.365.616.963,1.64.182.321Zm0,0" transform="translate(-258.006 -258.998)" fill="#ff9801"/>
      </g>
      <path id="Trazado_999348" data-name="Trazado 999348" d="M206.291,75.237l-2.352-2.343-9.816,9.816-1.3-1.3-6.066-6.066,9.815-9.815-2.448-2.456-1.3,1.3-6.118,6.11-4.86,4.86a1.784,1.784,0,0,0-.468.894l-1.094,5.476-1.154,5.754-.1.521,2.456,2.456L186.7,89.4l.911-.182,1.979-.4,2.673-.538.963-.191a1.788,1.788,0,0,0,.894-.469l.157-.156L206.4,75.341Zm-21.739,2.812,6.865,6.864-1.137.226-3.575.72-3.871.773.1-.538.191-.955.347-1.709.642-3.211Zm0,0" transform="translate(-160.449 -56.656)" fill="#f57c00"/>
      <path id="Trazado_999349" data-name="Trazado 999349" d="M338.271,23.163l-3.063,3.063a.868.868,0,0,1-1.224,0l-.694-.685L320.48,12.732a.875.875,0,0,1,0-1.232l2.178-2.178.816-.807.07-.078a1.724,1.724,0,0,1,2.456,0l12.271,12.271a1.724,1.724,0,0,1,0,2.456Zm0,0" transform="translate(-287.292 -7.116)" fill="#4e342e"/>
      <path id="Trazado_999350" data-name="Trazado 999350" d="M9.456,20.716,21.729,8.443a1.736,1.736,0,0,1,2.455,0l3.068,3.068a.868.868,0,0,1,0,1.227l-13.5,13.5a.868.868,0,0,1-1.227,0L9.456,23.171a1.736,1.736,0,0,1,0-2.455Zm0,0" transform="translate(-7.67 -7.128)" fill="#795548"/>
      <path id="Trazado_999351" data-name="Trazado 999351" d="M441.421,437.331l-3.68,3.679-3.072-3.072a.868.868,0,0,1,0-1.224l1.146-1.146.625-.616.685-.694a.868.868,0,0,1,1.224,0Zm0,0" transform="translate(-389.869 -389.868)" fill="#37474f"/>
      <path id="Trazado_999352" data-name="Trazado 999352" d="M203.9,71.474,194.123,81.1l-1.3-1.3-5.988-6.6,9.737-9.286-2.69-2.638L186.7,68.871l-4.86,4.86a1.784,1.784,0,0,0-.468.894L180.282,80.1l-1.154,5.754-.1.521,2.022,2.022,3.055-.607,2.89-.581s4.278-2.1,4.53-2.343l.156-.156,1.6-1.6,11.785-11.638ZM182.833,85.021l1.284-6.413.434-2.169,6.865,6.864-1.137.226-3.575.72Zm0,0" transform="translate(-160.449 -55.046)" fill="#ff9801"/>
      <path id="Trazado_999353" data-name="Trazado 999353" d="M334.322,35.8l-1.562,1.571-12.28-12.28a.875.875,0,0,1,0-1.232l2.178-2.178,11.664,11.664a1.723,1.723,0,0,1,0,2.456Zm0,0" transform="translate(-287.292 -19.479)" fill="#795548"/>
      <path id="Trazado_999354" data-name="Trazado 999354" d="M438.011,451.567l-1.753,1.762-1.588-1.588a.868.868,0,0,1,0-1.224l1.146-1.146Zm0,0" transform="translate(-389.869 -403.67)" fill="#607d8b"/>
      <path id="Trazado_999355" data-name="Trazado 999355" d="M12.03,441.009l-3.682-3.682,3.068-3.068a.868.868,0,0,1,1.228,0l2.455,2.455a.868.868,0,0,1,0,1.227Zm0,0" transform="translate(-7.131 -389.867)" fill="#607d8b"/>
      <path id="Trazado_999356" data-name="Trazado 999356" d="M46.074,19.786a1.736,1.736,0,0,0,2.455,0L51.6,16.718a2.6,2.6,0,0,0,0-3.682L39.324.763a2.6,2.6,0,0,0-3.682,0L32.574,3.83a1.736,1.736,0,0,0,0,2.455L26.385,12.47,20.2,6.285a1.735,1.735,0,0,0,0-2.455L17.128.763a2.6,2.6,0,0,0-3.682,0L1.172,13.036a2.6,2.6,0,0,0,0,3.682L4.24,19.786a1.736,1.736,0,0,0,2.455,0l11.1,11.1-12.4,12.4a1.765,1.765,0,0,0-1.661.434L.664,46.786a.868.868,0,0,0,0,1.227L4.342,51.7a.867.867,0,0,0,1.228,0l3.072-3.07a1.688,1.688,0,0,0,.443-1.672l12.5-12.5,4.789-.955,4.808.955,12.5,12.5a1.686,1.686,0,0,0,.443,1.671l3.069,3.069a.868.868,0,0,0,1.228,0l3.686-3.675a.868.868,0,0,0,0-1.227l-3.07-3.073a1.768,1.768,0,0,0-1.661-.434l-12.4-12.4,11.1-11.1Zm-9.2-17.8a.867.867,0,0,1,1.228,0L50.37,14.264a.868.868,0,0,1,0,1.226L47.3,18.559l-.6-.6c0-.005-.006-.012-.012-.016a.112.112,0,0,1-.015-.012L34.427,5.684a.038.038,0,0,0-.008-.013.144.144,0,0,1-.014-.01L33.8,5.054l-.613.614ZM33.8,24.7l-.2-.2-1.041-5.227a2.656,2.656,0,0,0-.7-1.333l-1.793-1.79,6.184-6.184,6.141,6.141Zm-4.962-7.319,1.78,1.78a.911.911,0,0,1,.241.461L31.4,22.29l-3.732-3.731ZM25.159,13.7,23.93,14.925,17.743,8.738l1.224-1.225Zm-4.953,5.581L19.165,24.5l-.2.2L10.377,16.1l6.141-6.141L22.7,16.148l-1.8,1.8a2.638,2.638,0,0,0-.7,1.33ZM2.4,15.49a.868.868,0,0,1,0-1.227L14.669,1.99a.867.867,0,0,1,1.228,0l3.072,3.07-.608.607-.014.01a.1.1,0,0,1-.008.013L6.1,17.93c0,.005-.011.006-.015.012s-.007.011-.012.016l-.6.6Zm6.748,1.843,9.2,9.2a.841.841,0,0,0,.361.2l-.434,2.177L7.923,18.558ZM4.96,49.855,2.5,47.4,4.96,44.945,7.415,47.4ZM33.617,31.978,45.969,44.331l-.614.615-.614.613L32.224,33.041a.842.842,0,0,0-.071-.047.975.975,0,0,0-.308-.159.588.588,0,0,0-.068-.028l-.974-.195,2.281-.456a2.685,2.685,0,0,0,.534-.177ZM50.265,47.4,47.81,49.855,45.355,47.4l2.455-2.455ZM33.2,30.21a.91.91,0,0,1-.462.243L20.991,32.8a.675.675,0,0,0-.068.028.884.884,0,0,0-.174.072.853.853,0,0,0-.134.087.763.763,0,0,0-.072.047L8.028,45.559,6.8,44.331,19.319,31.814c.021-.022.029-.049.047-.072a.83.83,0,0,0,.107-.16.808.808,0,0,0,.056-.14c.008-.027.024-.05.03-.077l2.347-11.742a.907.907,0,0,1,.232-.454L33.8,7.513l1.224,1.225-9.2,9.2a.867.867,0,0,0,0,1.23l7.364,7.364a.867.867,0,0,0,1.227,0l9.2-9.2,1.225,1.225Zm0,0"/>
      <path id="Trazado_999357" data-name="Trazado 999357" d="M219.5,208.656a.853.853,0,0,0,.035-.179.826.826,0,0,0,0-.16.788.788,0,0,0,0-.087.652.652,0,0,0-.033-.079.824.824,0,0,0-.062-.15.813.813,0,0,0-.1-.155c-.016-.019-.023-.043-.041-.062l-6.861-6.861a.785.785,0,0,0-.066-.043.813.813,0,0,0-.149-.1.793.793,0,0,0-.15-.064c-.029-.008-.05-.027-.08-.034a.87.87,0,0,0-.091,0,.794.794,0,0,0-.157,0,.822.822,0,0,0-.186.037.84.84,0,0,0-.117.048.855.855,0,0,0-.182.121c-.015.014-.035.018-.05.033s-.019.034-.032.048a.941.941,0,0,0-.172.307.723.723,0,0,0-.035.087l-1.719,8.584a.868.868,0,0,0,.851,1.036.794.794,0,0,0,.174-.017l8.583-1.717a.686.686,0,0,0,.083-.035.757.757,0,0,0,.139-.058.858.858,0,0,0,.166-.109c.017-.016.039-.021.055-.037s.023-.04.039-.058a.841.841,0,0,0,.111-.168.884.884,0,0,0,.05-.13Zm-7.148-5.36,4.571,4.57-5.72,1.146Zm0,0" transform="translate(-187.584 -180.271)"/>
    </g>
  </g>
</svg>
