<svg xmlns="http://www.w3.org/2000/svg" width="85" height="85" viewBox="0 0 85 85">
  <g id="img20" transform="translate(-494.711 -4482)">
    <rect id="Rect치ngulo_454644" data-name="Rect치ngulo 454644" width="85" height="85" transform="translate(494.711 4482)" fill="#a8b8ff"/>
    <rect id="Rect치ngulo_454645" data-name="Rect치ngulo 454645" width="65" height="65" transform="translate(504.711 4492)" fill="#e5eaff"/>
    <g id="Grupo_1311726" data-name="Grupo 1311726" transform="translate(513.81 4478.704)">
      <g id="Grupo_1311724" data-name="Grupo 1311724" transform="translate(0.67 25.834)">
        <g id="Grupo_1311723" data-name="Grupo 1311723" transform="translate(0 0)">
          <path id="Trazado_1059139" data-name="Trazado 1059139" d="M7.947,115.6h18.14a.447.447,0,0,0,.447-.447V99.432a.447.447,0,0,0-.447-.447H7.947a.447.447,0,0,0-.447.447v15.724A.447.447,0,0,0,7.947,115.6Z" transform="translate(-7.5 -93.057)" fill="#00f2a6"/>
          <path id="Trazado_1059140" data-name="Trazado 1059140" d="M191.785,98.985h-2.324a.447.447,0,0,1,.447.447v15.724a.447.447,0,0,1-.447.447h2.324a.447.447,0,0,0,.447-.447V99.432A.447.447,0,0,0,191.785,98.985Z" transform="translate(-173.198 -93.057)" fill="#0ed290"/>
          <path id="Trazado_1059141" data-name="Trazado 1059141" d="M308.425,227.363l.822-7.807h12.412v8.8l-.663.884v7.916h-5.9v-3.177h-4.7a1.155,1.155,0,0,1-1.155-1.155v-.542a.556.556,0,0,1,.191-.419l1.7-1.481a.479.479,0,0,0-.043-.756l-2.384-1.64A.669.669,0,0,1,308.425,227.363Z" transform="translate(-281.526 -202.852)" fill="#ffcebf"/>
          <path id="Trazado_1059142" data-name="Trazado 1059142" d="M425.112,328.792v7.022h2.145V327.9Z" transform="translate(-387.787 -301.51)" fill="#ffb09e"/>
          <path id="Trazado_1059143" data-name="Trazado 1059143" d="M280.96,148a4.2,4.2,0,0,1-1-3.7.327.327,0,0,1,.45-.235,32.257,32.257,0,0,0,9.656,2.027c2.94,0,6.389,1.7,6.22,3.562,2.658,1.134,4.521,6.809-2.574,12.633h-2.458v-1.039a.914.914,0,0,1,.59-.853,2.41,2.41,0,0,0,1.616-2.212,2.532,2.532,0,0,0-2.646-2.4,2.9,2.9,0,0,0-.613.065.4.4,0,0,1-.474-.389v-1.689a.651.651,0,0,0-.677-.652c-2.233.088-9.293.026-10.577-4.181a.328.328,0,0,1,.332-.42c.866.045,1.492.045,1.919.03A.327.327,0,0,0,280.96,148Z" transform="translate(-254.245 -134.078)" fill="#3692bc"/>
          <path id="Trazado_1059144" data-name="Trazado 1059144" d="M412.884,170.558c.17-1.866-3.28-3.562-6.22-3.562l-.164,0c2.308.6,4.371,2.111,4.239,3.564,2.658,1.134,4.521,6.809-2.574,12.633h2.145C417.4,177.367,415.542,171.692,412.884,170.558Z" transform="translate(-370.838 -154.988)" fill="#0681af"/>
          <path id="Trazado_1059145" data-name="Trazado 1059145" d="M371.407,403.229v1.322a.487.487,0,0,1-.381.476l-8.064,1.8a.487.487,0,0,1-.578-.6l.808-3.118a.487.487,0,0,1,.472-.365h7.256A.487.487,0,0,1,371.407,403.229Z" transform="translate(-330.651 -369.665)" fill="#62dbfb"/>
          <path id="Trazado_1059146" data-name="Trazado 1059146" d="M436.2,402.742H434.05a.487.487,0,0,1,.487.487v1.947a.485.485,0,0,1-.077.26l1.841-.41a.487.487,0,0,0,.381-.476v-1.322A.487.487,0,0,0,436.2,402.742Z" transform="translate(-395.926 -369.665)" fill="#01c0fa"/>
          <path id="Trazado_1059147" data-name="Trazado 1059147" d="M54.125,345.1l6.705-.809a.268.268,0,0,1,.224.454l-1.957,2a2.951,2.951,0,0,0-.84,2.062v7.1a.447.447,0,0,1-.447.447H39.853a.447.447,0,0,1-.447-.447V345.566a.447.447,0,0,1,.447-.447H53.772A2.941,2.941,0,0,0,54.125,345.1Z" transform="translate(-36.554 -316.435)" fill="#d8ecfe"/>
          <path id="Trazado_1059148" data-name="Trazado 1059148" d="M226.489,344.289l-1.848.223a.261.261,0,0,1-.073.231l-1.957,2a2.951,2.951,0,0,0-.84,2.062v7.1a.447.447,0,0,1-.447.447h2.145a.447.447,0,0,0,.447-.447v-7.1a2.951,2.951,0,0,1,.84-2.062l1.957-2A.268.268,0,0,0,226.489,344.289Z" transform="translate(-202.213 -316.435)" fill="#b3dafe"/>
          <path id="Trazado_1059149" data-name="Trazado 1059149" d="M98.508,32.663a1.519,1.519,0,1,1-1.519,1.519A1.519,1.519,0,0,1,98.508,32.663Z" transform="translate(-88.991 -32.663)" fill="#62dbfb"/>
        </g>
      </g>
      <g id="Grupo_1311725" data-name="Grupo 1311725" transform="translate(0 25.164)">
        <path id="Trazado_1059150" data-name="Trazado 1059150" d="M287.691,159.655h-.129v-3.888c4.85-4.092,5.147-7.761,4.883-9.6a5.127,5.127,0,0,0-2.321-3.767,2.814,2.814,0,0,0-.761-1.506,8.96,8.96,0,0,0-6.116-2.307,19.014,19.014,0,0,1-2.791-.26.67.67,0,1,0-.207,1.325,20.038,20.038,0,0,0,3,.276,7.641,7.641,0,0,1,5.126,1.871,1.3,1.3,0,0,1,.426.96.67.67,0,0,0,.4.677,3.684,3.684,0,0,1,1.914,2.921c.38,2.657-1.246,5.718-4.467,8.425h-1.546v-.369a.243.243,0,0,1,.16-.227,3.07,3.07,0,0,0,2.046-2.838A3.2,3.2,0,0,0,284,148.277a3.6,3.6,0,0,0-.416.024v-1.366a1.323,1.323,0,0,0-1.374-1.321,21.085,21.085,0,0,1-5.461-.461c-1.7-.41-3.525-1.194-4.269-2.777.54.019,1.027.022,1.452.008a1,1,0,0,0,.711-1.66,3.5,3.5,0,0,1-.9-2.71,28.645,28.645,0,0,0,3.372,1.01.67.67,0,1,0,.315-1.3,24.252,24.252,0,0,1-3.566-1.1,1,1,0,0,0-1.373.717,4.825,4.825,0,0,0,.719,3.718c-.36,0-.755-.015-1.182-.038a1,1,0,0,0-1.008,1.286,5.6,5.6,0,0,0,3.269,3.432l-.628,5.962a1.341,1.341,0,0,0,.574,1.243l2.181,1.5-1.515,1.32a1.228,1.228,0,0,0-.42.924v.542a1.828,1.828,0,0,0,1.826,1.826h4.026v.615a1.157,1.157,0,0,0-1.01.862l-.808,3.118a1.158,1.158,0,0,0,1.117,1.448,1.173,1.173,0,0,0,.255-.028l8.064-1.8a1.151,1.151,0,0,0,.906-1.13v-1.322A1.159,1.159,0,0,0,287.691,159.655Zm-11.392-1.95a.486.486,0,0,1-.485-.485v-.49l1.661-1.447a1.15,1.15,0,0,0-.1-1.814l-2.384-1.64.591-5.609q.409.127.852.234a22.427,22.427,0,0,0,5.808.5v1.67a1.065,1.065,0,0,0,1.286,1.044,2.235,2.235,0,0,1,.471-.05c2.131,0,2.744,2.567.79,3.317a1.6,1.6,0,0,0-1.02,1.478v1.039a.67.67,0,0,0,.67.67h1.786v3.533h-4.557v-1.279a.67.67,0,0,0-.67-.67Zm11.209,4.282-7.629,1.7.7-2.692h6.932v.992Z" transform="translate(-246.751 -126.578)"/>
        <path id="Trazado_1059151" data-name="Trazado 1059151" d="M63,140.07a.67.67,0,0,0,.864-.39l.758-2.008H69.7l.765,2.009a.67.67,0,1,0,1.253-.477l-3.739-9.817a.893.893,0,0,0-.828-.557h0a.893.893,0,0,0-.828.555l-.007.018-3.7,9.8A.67.67,0,0,0,63,140.07Zm4.146-9.088,2.037,5.35H65.128Z" transform="translate(-56.975 -119.565)"/>
        <path id="Trazado_1059152" data-name="Trazado 1059152" d="M80.585,389.644a.67.67,0,0,0,.67-.67v-4.5a.67.67,0,0,0-1.338-.055,2.655,2.655,0,1,0,0,4.608A.67.67,0,0,0,80.585,389.644Zm-1.985-1.6a1.315,1.315,0,1,1,1.315-1.315A1.316,1.316,0,0,1,78.6,388.04Z" transform="translate(-69.157 -351.751)"/>
        <path id="Trazado_1059153" data-name="Trazado 1059153" d="M158.343,389.029a.67.67,0,0,0,1.338-.055v-4.5a.67.67,0,0,0-1.338-.055,2.655,2.655,0,1,0,0,4.608Zm-2.632-2.3a1.315,1.315,0,1,1,1.315,1.315A1.316,1.316,0,0,1,155.711,386.725Z" transform="translate(-140.573 -351.751)"/>
        <path id="Trazado_1059154" data-name="Trazado 1059154" d="M20.375,47.933V32.209a1.118,1.118,0,0,0-1.117-1.117H16.8l-4.5-3.2a2.189,2.189,0,1,0-4.242,0l-4.5,3.2H1.117A1.118,1.118,0,0,0,0,32.209V47.933A1.118,1.118,0,0,0,1.117,49.05h18.14a1.118,1.118,0,0,0,1.117-1.117ZM10.187,26.5a.848.848,0,1,1-.848.848A.849.849,0,0,1,10.187,26.5Zm-1.4,2.526a2.184,2.184,0,0,0,2.808,0l2.9,2.061H5.885ZM19.034,47.71H1.341V32.432H19.034Z" transform="translate(0 -25.164)"/>
        <path id="Trazado_1059155" data-name="Trazado 1059155" d="M53.921,336.794l-6.705.809a2.286,2.286,0,0,1-.273.016H33.023a1.118,1.118,0,0,0-1.117,1.117v10.345a1.118,1.118,0,0,0,1.117,1.117h3.128a.67.67,0,0,0,0-1.341h-2.9v-9.9h13.7a3.643,3.643,0,0,0,.434-.026l5.571-.672-1.158,1.186a3.6,3.6,0,0,0-1.031,2.531v6.88H39.28a.67.67,0,0,0,0,1.341h11.7a1.118,1.118,0,0,0,1.117-1.117v-7.1a2.268,2.268,0,0,1,.649-1.594l1.957-2a.938.938,0,0,0-.784-1.588Z" transform="translate(-29.054 -308.935)"/>
      </g>
    </g>
  </g>
</svg>
