<svg xmlns="http://www.w3.org/2000/svg" width="134.087" height="111.871" viewBox="0 0 134.087 111.871">
  <g id="img2" transform="translate(-10 -28.717)">
    <g id="BACKGROUND" transform="translate(17.372 28.717)">
      <g id="Grupo_1181858" data-name="Grupo 1181858" transform="translate(0)">
        <path id="Trazado_990001" data-name="Trazado 990001" d="M164.444,127.028c-7.6-4.7-13.931,10.178-18.938-1.662s12.33-54.518-42.653-48.134c-40.377,4.688-17.074,66.177-34.572,54.437-12.1-8.115-21.316,6.262-15.6,56.134l114.007,0S177.416,135.043,164.444,127.028Z" transform="translate(-50.942 -76.231)" fill="#a8b8ff"/>
        <path id="Trazado_990002" data-name="Trazado 990002" d="M410.755,93.54c1.248,9.97-8.547,21.694-16.392,1.55C389.145,81.687,408.458,75.181,410.755,93.54Z" transform="translate(-291.178 -80.182)" fill="#a8b8ff"/>
        <path id="Trazado_990003" data-name="Trazado 990003" d="M78.8,77.306C73.048,71.231,63.02,80.8,63.6,90.409c.715,11.843,12.059,14.75,12.46,6.964C76.426,90.287,86.232,85.168,78.8,77.306Z" transform="translate(-59.803 -75.402)" fill="#a8b8ff"/>
      </g>
    </g>
    <g id="OBJECTS" transform="translate(10 40.45)">
      <g id="Grupo_1181861" data-name="Grupo 1181861" transform="translate(24.809 72.728)">
        <g id="Grupo_1181859" data-name="Grupo 1181859" transform="translate(70.058)">
          <path id="Trazado_990004" data-name="Trazado 990004" d="M363.764,371.123c-.448-2.52-7.391-.5-7.391-.5s7.055-12.711,1.9-12.4-8.087,8.479-8.087,8.479-1.712-4.088-4.33-3.136-2.561,14.895,0,21.762l3.85,0S364.212,373.643,363.764,371.123Z" transform="translate(-343.917 -358.215)" fill="#e8dbd1"/>
          <path id="Trazado_990005" data-name="Trazado 990005" d="M355.373,388.579h-.013a.077.077,0,0,1-.064-.089c.027-.165,2.844-16.628,10.94-25.722a.077.077,0,0,1,.116.1c-8.067,9.061-10.876,25.48-10.9,25.645A.077.077,0,0,1,355.373,388.579Z" transform="translate(-351.897 -361.39)" fill="#1f160f"/>
          <path id="Trazado_990006" data-name="Trazado 990006" d="M354.05,403.571a.078.078,0,0,1-.077-.077c-.037-7.785-.558-19.182-.563-19.3a.077.077,0,0,1,.074-.081.08.08,0,0,1,.081.074c.005.113.517,11.307.562,19.089,1.154-1.4,9.344-11.222,14.245-13.741a.077.077,0,0,1,.071.138c-5.226,2.686-14.241,13.755-14.331,13.867A.078.078,0,0,1,354.05,403.571Z" transform="translate(-350.575 -376.382)" fill="#1f160f"/>
        </g>
        <g id="Grupo_1181860" data-name="Grupo 1181860" transform="translate(0 5.122)">
          <path id="Trazado_990007" data-name="Trazado 990007" d="M116.67,375.368c-5.573.336-1.616,14.82-1.616,14.82s-3.149-5.189-4.773-4.629-1.5,6.6,2.981,11.795h9.109S121.5,375.077,116.67,375.368Z" transform="translate(-109.329 -375.366)" fill="#e8dbd1"/>
          <path id="Trazado_990008" data-name="Trazado 990008" d="M124.049,401.2c-.493,0-4.56-.292-9.175-9.486a.077.077,0,0,1,.138-.07c4.34,8.648,8.264,9.342,8.963,9.4a57.983,57.983,0,0,1-3.347-20.228.077.077,0,1,1,.154.007,57.752,57.752,0,0,0,3.378,20.275.077.077,0,0,1-.007.07.079.079,0,0,1-.061.035Z" transform="translate(-113.212 -379.136)" fill="#1f160f"/>
        </g>
      </g>
      <rect id="Rectángulo_454476" data-name="Rectángulo 454476" width="134.087" transform="translate(0 99.836)" fill="#1f160f"/>
      <g id="Grupo_1181879" data-name="Grupo 1181879" transform="translate(19.845 0.775)">
        <g id="Grupo_1181866" data-name="Grupo 1181866" transform="translate(28.526)">
          <path id="Trazado_990009" data-name="Trazado 990009" d="M193.285,117.722c4.566-1.717,9.414,1.778,8.723,7.715-.376,3.232,5.674,3.621,2.448,8.182-1.241,1.754,2.218,2.32-.507,5.68-2.4,2.954-6.832,2.967-10.664,1.466-7.74-3.033-2.466-10.363-3.79-13.225C186.049,120.093,190.4,116.789,193.285,117.722Z" transform="translate(-188.226 -117.285)" fill="#56545e"/>
          <g id="Grupo_1181862" data-name="Grupo 1181862" transform="translate(2.823 12.212)">
            <path id="Trazado_990010" data-name="Trazado 990010" d="M197.68,164.175l6.2.127v-6.125h-6.2Z" transform="translate(-197.68 -158.177)" fill="#eba38d"/>
            <path id="Trazado_990011" data-name="Trazado 990011" d="M197.68,162.518v-4.341h5.726S203.378,162.986,197.68,162.518Z" transform="translate(-197.68 -158.177)" fill="#1f160f"/>
          </g>
          <path id="Trazado_990012" data-name="Trazado 990012" d="M188.835,133.934c.08,4.606.832,6.314,4.051,6.258s5.58-1.819,5.5-6.425-3.078-6.1-4.883-6.068S188.755,129.332,188.835,133.934Z" transform="translate(-188.652 -124.589)" fill="#eba38d"/>
          <g id="Grupo_1181863" data-name="Grupo 1181863" transform="translate(9.389 7.465)">
            <path id="Trazado_990013" data-name="Trazado 990013" d="M221.983,143.683c-.2-1.5-1.244-1.881-2.319-.728l.058,3.344C221.087,147.389,222.182,145.179,221.983,143.683Z" transform="translate(-219.664 -142.282)" fill="#eba38d"/>
            <path id="Trazado_990014" data-name="Trazado 990014" d="M222.387,145.676a.077.077,0,0,1-.074-.055.642.642,0,0,0-.475-.512.8.8,0,0,0-.725.39.077.077,0,0,1-.127-.088.944.944,0,0,1,.876-.455.787.787,0,0,1,.6.62.077.077,0,0,1-.052.1A.074.074,0,0,1,222.387,145.676Z" transform="translate(-220.582 -144.152)" fill="#1f160f"/>
          </g>
          <path id="Trazado_990015" data-name="Trazado 990015" d="M193.664,124.262c5.055-.088,5.207,5,5.177,5.826-.033.929-1.473,1.064-2.131.091-1.288-1.905-3.457-1-4.366-3.25a5.358,5.358,0,0,0-2.7,1.519S189.62,124.333,193.664,124.262Z" transform="translate(-189.218 -122.178)" fill="#56545e"/>
          <g id="Grupo_1181865" data-name="Grupo 1181865" transform="translate(0.041 7.007)">
            <path id="Trazado_990016" data-name="Trazado 990016" d="M199.456,150a.824.824,0,0,1-.453-.152c-.159-.106-.317-.28-.312-.429a1.53,1.53,0,0,1,.117-.38,3.838,3.838,0,0,0,.315-1.377.077.077,0,0,1,.076-.079.08.08,0,0,1,.079.076,3.972,3.972,0,0,1-.325,1.435,1.71,1.71,0,0,0-.107.331c0,.052.074.182.243.295a.582.582,0,0,0,.538.09.077.077,0,1,1,.064.141A.565.565,0,0,1,199.456,150Z" transform="translate(-195.607 -145.539)" fill="#1f160f"/>
            <path id="Trazado_990017" data-name="Trazado 990017" d="M194.358,145.343c.005.285.163.514.353.51s.34-.237.335-.522-.163-.514-.353-.51S194.353,145.058,194.358,145.343Z" transform="translate(-192.568 -143.605)" fill="#1f160f"/>
            <path id="Trazado_990018" data-name="Trazado 990018" d="M191.935,141.574a.232.232,0,0,1-.092-.445,2.122,2.122,0,0,1,1.563-.075.232.232,0,0,1-.126.446,1.669,1.669,0,0,0-1.253.054A.227.227,0,0,1,191.935,141.574Z" transform="translate(-190.706 -140.884)" fill="#56545e"/>
            <path id="Trazado_990019" data-name="Trazado 990019" d="M205.856,145.1c.005.285-.145.519-.335.522s-.348-.225-.353-.51.145-.519.335-.522S205.851,144.81,205.856,145.1Z" transform="translate(-200.149 -143.439)" fill="#1f160f"/>
            <path id="Trazado_990020" data-name="Trazado 990020" d="M204.991,141.425a.229.229,0,0,1-.107-.026,1.8,1.8,0,0,0-1.425-.087.232.232,0,1,1-.11-.45,2.248,2.248,0,0,1,1.749.126.232.232,0,0,1-.107.437Z" transform="translate(-198.75 -140.748)" fill="#56545e"/>
            <g id="Grupo_1181864" data-name="Grupo 1181864" transform="translate(0 0.393)">
              <path id="Trazado_990021" data-name="Trazado 990021" d="M199.38,146.277h-1.206a.077.077,0,1,1,0-.155h1.206a.077.077,0,1,1,0,.155Z" transform="translate(-195.19 -144.91)" fill="#1f160f"/>
              <path id="Trazado_990022" data-name="Trazado 990022" d="M210.02,143.15A.077.077,0,0,1,210,143l2.874-.933a.075.075,0,0,1,.051,0l.3.113a.077.077,0,1,1-.054.145l-.275-.1-2.848.924A.071.071,0,0,1,210.02,143.15Z" transform="translate(-203.498 -142.063)" fill="#1f160f"/>
              <path id="Trazado_990023" data-name="Trazado 990023" d="M189.038,145.145h-.011l-.6-.084a.077.077,0,0,1-.066-.088.08.08,0,0,1,.087-.066l.6.084a.077.077,0,0,1-.01.154Z" transform="translate(-188.364 -144.058)" fill="#1f160f"/>
              <path id="Trazado_990024" data-name="Trazado 990024" d="M201.882,143.777c.273-.386,2.2-.287,2.415-.095a1.888,1.888,0,0,1-.268,1.85,2.96,2.96,0,0,1-1.9.089A1.866,1.866,0,0,1,201.882,143.777Z" transform="translate(-197.742 -143.08)" fill="#1f160f"/>
              <path id="Trazado_990025" data-name="Trazado 990025" d="M190.754,143.777c.248-.386,1.993-.287,2.191-.095a2.049,2.049,0,0,1-.243,1.85c-.362.326-1.477.188-1.725.089A2.023,2.023,0,0,1,190.754,143.777Z" transform="translate(-189.947 -143.08)" fill="#1f160f"/>
            </g>
            <path id="Trazado_990026" data-name="Trazado 990026" d="M200.919,158.225c-.042,0-.068,0-.073,0a.077.077,0,0,1-.072-.082.075.075,0,0,1,.082-.073,1.741,1.741,0,0,0,1.372-.563.077.077,0,1,1,.124.092A1.813,1.813,0,0,1,200.919,158.225Z" transform="translate(-197.068 -152.479)" fill="#1f160f"/>
          </g>
        </g>
        <g id="Grupo_1181872" data-name="Grupo 1181872" transform="translate(13.071 44.341)">
          <g id="Grupo_1181867" data-name="Grupo 1181867" transform="translate(24.651 45.113)">
            <path id="Trazado_990027" data-name="Trazado 990027" d="M224.448,416.82c-1.456.05-3.288.071-5.429.014.141,1.124.283,2.375.421,3.836l.357,3.875,4.675,1.446.548-2.19-.366-3.132Z" transform="translate(-219.019 -416.82)" fill="#eba38d"/>
            <path id="Trazado_990028" data-name="Trazado 990028" d="M223.407,438.175c-.67,0-1.84.421-2.168.274s-.729-1.386-.729-1.386a13.288,13.288,0,0,0-.226,3.564h6.076c.009-3.535-.581-3.564-.581-3.564-.047,1.227-.345,1.651-.813,1.48A4.26,4.26,0,0,0,223.407,438.175Z" transform="translate(-219.887 -431.018)" fill="#fff"/>
          </g>
          <g id="Grupo_1181869" data-name="Grupo 1181869" transform="translate(0 45.076)">
            <path id="Trazado_990029" data-name="Trazado 990029" d="M149.187,416.7l-.328,3.422c-.516,2.329-3.824,3.378-6.678,4.024l.972,1.455,8.03-.5,2.1-2.315c.3-2.2.622-4.174.931-5.975C152.837,416.845,151.172,416.825,149.187,416.7Z" transform="translate(-140.477 -416.696)" fill="#eba38d"/>
            <g id="Grupo_1181868" data-name="Grupo 1181868" transform="translate(0 6.082)">
              <path id="Trazado_990030" data-name="Trazado 990030" d="M138.18,438.426c4.093,1.926,9.03-1.364,11.1-1.364a3.851,3.851,0,0,1,.142,2.838.961.961,0,0,1-.932.727H136.485A1.835,1.835,0,0,1,138.18,438.426Z" transform="translate(-136.476 -437.062)" fill="#fff"/>
            </g>
          </g>
          <g id="Grupo_1181871" data-name="Grupo 1181871" transform="translate(7.348)">
            <path id="Trazado_990031" data-name="Trazado 990031" d="M185.183,313.63s-.036-33.179-.2-35.662,1.126-5.246-1.184-12.076l-18.011-.132c-1.792,15.03-4.708,47.115-4.708,47.115a13.62,13.62,0,0,0,7.089-.179l5.394-32.305,4.34,33.24A48.927,48.927,0,0,0,185.183,313.63Z" transform="translate(-161.08 -265.76)" fill="#899667"/>
            <g id="Grupo_1181870" data-name="Grupo 1181870" transform="translate(10.907 4.772)">
              <path id="Trazado_990032" data-name="Trazado 990032" d="M199.179,308.454a.077.077,0,0,1-.077-.074c0-.017-.077-1.742-.78-2.353a.8.8,0,0,0-.635-.2.077.077,0,0,1-.016-.154.966.966,0,0,1,.752.242,4.179,4.179,0,0,1,.832,2.464.077.077,0,0,1-.074.08Z" transform="translate(-197.603 -298.518)" fill="#1f160f"/>
              <path id="Trazado_990033" data-name="Trazado 990033" d="M225.9,284.975a4.129,4.129,0,0,1-3.847-3.133.077.077,0,0,1,.049-.1.076.076,0,0,1,.1.049,3.959,3.959,0,0,0,3.748,3.027.074.074,0,0,1,.082.072.077.077,0,0,1-.073.082Z" transform="translate(-214.752 -281.739)" fill="#1f160f"/>
            </g>
            <path id="Trazado_990034" data-name="Trazado 990034" d="M176.157,267.512c4.159,2.355,15.217.862,18.747.1-.151-.543-.326-1.113-.53-1.716l-18.011-.132C176.3,266.32,176.227,266.907,176.157,267.512Z" transform="translate(-171.654 -265.76)" fill="#1f160f"/>
          </g>
        </g>
        <g id="Grupo_1181878" data-name="Grupo 1181878" transform="translate(0 17.512)">
          <g id="Grupo_1181876" data-name="Grupo 1181876">
            <g id="Grupo_1181873" data-name="Grupo 1181873" transform="translate(0 35.781)">
              <path id="Trazado_990035" data-name="Trazado 990035" d="M93.007,357.468a.31.31,0,0,1-.083-.012.3.3,0,0,1-.2-.37l11.235-38.8a.3.3,0,1,1,.574.166l-11.235,38.8A.3.3,0,0,1,93.007,357.468Z" transform="translate(-92.708 -311.397)" fill="#56545e"/>
              <path id="Trazado_990036" data-name="Trazado 990036" d="M129.925,303.3a.6.6,0,0,1-.574-.764l1.843-6.371a.6.6,0,0,1,1.148.332l-1.843,6.371A.6.6,0,0,1,129.925,303.3Z" transform="translate(-118.391 -295.732)" fill="#1f160f"/>
            </g>
            <g id="Grupo_1181874" data-name="Grupo 1181874" transform="translate(11.191 15.59)">
              <path id="Trazado_990037" data-name="Trazado 990037" d="M136.656,228.125a8.06,8.06,0,0,0-.978,1.95c-.307,1-4.094,14.575-4.094,14.575-.879,1.132-1.4,4.165-1.4,4.165a5.507,5.507,0,0,0,.657,1.79s-.392,1.257.3,1.468,1.635-1.723,1.734-2.128,1.731-1.605,2.129-2.3a7.963,7.963,0,0,0,.6-2.31l5.264-12.179c.182-.42,1.12-1.9,1.12-1.9Z" transform="translate(-130.181 -228.125)" fill="#eba38d"/>
            </g>
            <g id="Grupo_1181875" data-name="Grupo 1181875" transform="translate(11.321 35.34)">
              <path id="Trazado_990038" data-name="Trazado 990038" d="M132.2,297.064l-.018,0a.077.077,0,0,1-.058-.093,11.2,11.2,0,0,1,1.228-2.676.078.078,0,0,1,.106-.024.077.077,0,0,1,.024.106,11.286,11.286,0,0,0-1.208,2.63A.078.078,0,0,1,132.2,297.064Z" transform="translate(-131.673 -294.257)" fill="#1f160f"/>
              <path id="Trazado_990039" data-name="Trazado 990039" d="M130.694,296.1h-.015a.077.077,0,0,1-.061-.09,11.59,11.59,0,0,1,.395-1.429.077.077,0,0,1,.146.05,11.446,11.446,0,0,0-.389,1.408A.077.077,0,0,1,130.694,296.1Z" transform="translate(-130.616 -294.443)" fill="#1f160f"/>
            </g>
            <path id="Trazado_990040" data-name="Trazado 990040" d="M150.25,191.952s5.282-13.546,9.078-14.837a28.562,28.562,0,0,1,7.1-.9,34.264,34.264,0,0,1,8.313.9c2.6.735,5.47,6.962,8.866,14.311,1.056,2.285-2.263,4.992-4.238,3.8-.768-.464-2.631-3.509-3.767-5.041-.681,8.351.6,8.544,1.192,13.844-13.011,1.621-19-.037-19-.037a80.2,80.2,0,0,0,.376-11.331,32.564,32.564,0,0,1-2.056,2.59A10.588,10.588,0,0,1,150.25,191.952Z" transform="translate(-133.066 -176.125)" fill="#755e75"/>
            <path id="Trazado_990041" data-name="Trazado 990041" d="M195.652,176.134c-.38,2.742.351,6.018,1.039,6.269.765.28,5.188-1.792,6.209-6.143a20.473,20.473,0,0,0-3.964-.339C197.557,175.922,195.652,176.134,195.652,176.134Z" transform="translate(-164.835 -175.922)" fill="#eba38d"/>
          </g>
          <g id="Grupo_1181877" data-name="Grupo 1181877" transform="translate(24.434 6.224)">
            <path id="Trazado_990042" data-name="Trazado 990042" d="M175.193,207.151a.078.078,0,0,1-.077-.077,15.625,15.625,0,0,0-.344-2.884,4.568,4.568,0,0,1,.465-4.052,13.663,13.663,0,0,0,1.221-3.313.077.077,0,0,1,.151.031,13.787,13.787,0,0,1-1.234,3.35,4.431,4.431,0,0,0-.452,3.957,15.728,15.728,0,0,1,.346,2.912.078.078,0,0,1-.077.077Z" transform="translate(-174.526 -196.763)" fill="#1f160f"/>
            <path id="Trazado_990043" data-name="Trazado 990043" d="M228.564,207.815a.077.077,0,0,1-.066-.036,46.28,46.28,0,0,1-2.723-6.436.077.077,0,1,1,.146-.05,46.062,46.062,0,0,0,2.709,6.4.078.078,0,0,1-.025.107A.077.077,0,0,1,228.564,207.815Z" transform="translate(-210.467 -199.903)" fill="#1f160f"/>
            <path id="Trazado_990044" data-name="Trazado 990044" d="M198.541,231.64a10.427,10.427,0,0,1-3.2-.46.077.077,0,0,1,.048-.147,13.488,13.488,0,0,0,6.789,0,.077.077,0,1,1,.042.149A15.215,15.215,0,0,1,198.541,231.64Z" transform="translate(-189.089 -220.796)" fill="#1f160f"/>
          </g>
        </g>
      </g>
      <g id="Grupo_1181902" data-name="Grupo 1181902" transform="translate(65.354)">
        <g id="Grupo_1181886" data-name="Grupo 1181886" transform="translate(5.848 46.698)">
          <g id="Grupo_1181881" data-name="Grupo 1181881" transform="translate(18.064 44.616)">
            <path id="Trazado_990045" data-name="Trazado 990045" d="M332.232,426.217h-5.661l-1.172-5.764h5.652Z" transform="translate(-325.329 -420.453)" fill="#eba38d"/>
            <g id="Grupo_1181880" data-name="Grupo 1181880" transform="translate(0 3.158)">
              <path id="Trazado_990046" data-name="Trazado 990046" d="M326.036,431.729a6.766,6.766,0,0,0,3.857.26c.444-.309.205-1.02,1.4-.957.55.03.365.676,1.07,1.135,1.737,1.131,5.069,1.118,5.987,1.309a2.5,2.5,0,0,1,1.887,2.917H325.923a.757.757,0,0,1-.759-.782C325.216,434.209,325.045,432.9,326.036,431.729Z" transform="translate(-325.164 -431.029)" fill="#fff"/>
              <path id="Trazado_990047" data-name="Trazado 990047" d="M340.239,443.857a4.113,4.113,0,0,0-.009-.667H327.515a3.286,3.286,0,0,0-2.321-1.52c-.021.457-.013.926-.031,1.406a.757.757,0,0,0,.759.782Z" transform="translate(-325.163 -438.491)" fill="#755e75"/>
              <path id="Trazado_990048" data-name="Trazado 990048" d="M353.487,438.4a.077.077,0,0,1-.047-.139,3.433,3.433,0,0,1,1.155-.544.075.075,0,0,1,.092.058.077.077,0,0,1-.058.093,3.34,3.34,0,0,0-1.1.517A.079.079,0,0,1,353.487,438.4Z" transform="translate(-344.974 -435.721)" fill="#1f160f"/>
              <path id="Trazado_990049" data-name="Trazado 990049" d="M350.24,437.249a.076.076,0,0,1-.06-.028.077.077,0,0,1,.011-.109,2.482,2.482,0,0,1,1.011-.51.077.077,0,0,1,.016.153,2.376,2.376,0,0,0-.929.476A.08.08,0,0,1,350.24,437.249Z" transform="translate(-342.696 -434.937)" fill="#1f160f"/>
              <path id="Trazado_990050" data-name="Trazado 990050" d="M344.9,435.242a.674.674,0,0,1-.509-.213c-.279-.293-.19-.494-.139-.567.22-.317.976-.28,1.835.091a.077.077,0,0,1,.02.129A2.289,2.289,0,0,1,344.9,435.242Zm-.048-.838a.588.588,0,0,0-.473.146c-.085.121.042.286.125.372.4.419,1.137-.075,1.4-.278A2.936,2.936,0,0,0,344.849,434.4Z" transform="translate(-338.511 -433.286)" fill="#1f160f"/>
              <path id="Trazado_990051" data-name="Trazado 990051" d="M348.412,436.553H348.4a.077.077,0,0,1-.062-.09,2.568,2.568,0,0,1,.568-1.192.077.077,0,1,1,.108.111,2.455,2.455,0,0,0-.524,1.109A.077.077,0,0,1,348.412,436.553Z" transform="translate(-341.415 -433.988)" fill="#1f160f"/>
            </g>
          </g>
          <g id="Grupo_1181883" data-name="Grupo 1181883" transform="translate(0 44.242)">
            <path id="Trazado_990052" data-name="Trazado 990052" d="M271.061,424.86h-5.6l.847-5.66h5.841Z" transform="translate(-265.23 -419.2)" fill="#eba38d"/>
            <g id="Grupo_1181882" data-name="Grupo 1181882" transform="translate(0 3.472)">
              <path id="Trazado_990053" data-name="Trazado 990053" d="M267.838,431.046c2.412,0,1.526,1.047,1.921,1.132a.88.88,0,0,0,1-.436s.679,2.826-.129,4.665h-5.7a9.05,9.05,0,0,1,.2-4.665.526.526,0,0,0,.665.467C266.435,432.09,265.3,431.046,267.838,431.046Z" transform="translate(-264.676 -430.98)" fill="#fff"/>
              <path id="Trazado_990054" data-name="Trazado 990054" d="M264.726,444.654c.293.537,1.269.631,3.043.631a6.193,6.193,0,0,0,3.232-.633,4.713,4.713,0,0,1-.335,1.3h-5.7A4.944,4.944,0,0,1,264.726,444.654Z" transform="translate(-264.711 -440.523)" fill="#755e75"/>
              <path id="Trazado_990055" data-name="Trazado 990055" d="M270.971,439.717a.077.077,0,0,1-.014-.154,8.185,8.185,0,0,1,2.322,0,.078.078,0,0,1,.065.088.076.076,0,0,1-.088.065,7.982,7.982,0,0,0-2.271,0Z" transform="translate(-269.037 -436.893)" fill="#1f160f"/>
              <path id="Trazado_990056" data-name="Trazado 990056" d="M270.971,437.681a.077.077,0,0,1-.014-.154,8.2,8.2,0,0,1,2.322,0,.078.078,0,0,1,.065.088.076.076,0,0,1-.088.065,7.955,7.955,0,0,0-2.271,0Z" transform="translate(-269.037 -435.465)" fill="#1f160f"/>
              <path id="Trazado_990057" data-name="Trazado 990057" d="M275.049,432.113a.077.077,0,0,1-.07-.11,2.023,2.023,0,0,1,1.861-1.168.551.551,0,0,1,.52.44.382.382,0,0,1-.088.326c-.413.5-2.15.512-2.224.512h0Zm1.656-1.132a1.937,1.937,0,0,0-1.528.975c.555-.016,1.7-.115,1.977-.455a.231.231,0,0,0,.055-.2.4.4,0,0,0-.388-.315A.968.968,0,0,0,276.705,430.982Z" transform="translate(-271.897 -430.826)" fill="#1f160f"/>
              <path id="Trazado_990058" data-name="Trazado 990058" d="M276.716,435.613a.077.077,0,0,1-.06-.029,3.235,3.235,0,0,0-1.626-.816.077.077,0,0,1-.055-.094.076.076,0,0,1,.094-.055,3.294,3.294,0,0,1,1.708.87.077.077,0,0,1-.013.108A.074.074,0,0,1,276.716,435.613Z" transform="translate(-271.897 -433.484)" fill="#1f160f"/>
              <path id="Trazado_990059" data-name="Trazado 990059" d="M269.784,432.112h0c-.074,0-1.811-.014-2.224-.512a.382.382,0,0,1-.088-.326.552.552,0,0,1,.521-.44A2.021,2.021,0,0,1,269.854,432a.078.078,0,0,1-.005.074A.076.076,0,0,1,269.784,432.112Zm-1.656-1.132a.968.968,0,0,0-.116.007.4.4,0,0,0-.388.315.231.231,0,0,0,.056.2c.28.339,1.422.439,1.977.455A1.938,1.938,0,0,0,268.128,430.98Z" transform="translate(-266.632 -430.825)" fill="#1f160f"/>
              <path id="Trazado_990060" data-name="Trazado 990060" d="M269.468,435.614a.077.077,0,0,1-.061-.125,3.291,3.291,0,0,1,1.708-.87.077.077,0,0,1,.039.149,3.235,3.235,0,0,0-1.626.816A.076.076,0,0,1,269.468,435.614Z" transform="translate(-267.983 -433.484)" fill="#1f160f"/>
            </g>
          </g>
          <g id="Grupo_1181885" data-name="Grupo 1181885" transform="translate(0.111)">
            <path id="Trazado_990061" data-name="Trazado 990061" d="M285.65,271.056h-18.9c-1.213,5.237-.253,10.093-.416,12.576s-1.282,33.266-1.282,33.266c2.033.855,7.742.218,7.742.218l4-32.121,5.988,32.087c2.09.8,6.8-.138,6.8-.138C288.821,298.8,287.022,282.075,285.65,271.056Z" transform="translate(-265.047 -271.056)" fill="#755e75"/>
            <g id="Grupo_1181884" data-name="Grupo 1181884" transform="translate(0.481 1.678)">
              <path id="Trazado_990062" data-name="Trazado 990062" d="M304.182,289.577h-.01a.078.078,0,0,1-.067-.087c.013-.1,1.272-9.577,1.446-11.938a.074.074,0,0,1,.083-.071.077.077,0,0,1,.071.083c-.175,2.366-1.434,11.851-1.447,11.947A.077.077,0,0,1,304.182,289.577Z" transform="translate(-292.921 -277.239)" fill="#1f160f"/>
              <path id="Trazado_990063" data-name="Trazado 990063" d="M305.9,285.792a1.987,1.987,0,0,1-.31-.025.077.077,0,0,1-.065-.088.078.078,0,0,1,.088-.065,1.4,1.4,0,0,0,1.169-.285c1.2-.971,1.347-4,1.492-6.93.029-.576.056-1.12.091-1.652a.078.078,0,0,1,.082-.072.077.077,0,0,1,.072.082c-.035.531-.062,1.075-.091,1.649-.148,2.964-.3,6.028-1.549,7.042A1.513,1.513,0,0,1,305.9,285.792Z" transform="translate(-293.916 -276.674)" fill="#1f160f"/>
              <path id="Trazado_990064" data-name="Trazado 990064" d="M281.749,355.9c-.846,0-1.508-.065-1.521-.066a.077.077,0,0,1,.016-.154,13.146,13.146,0,0,0,3.86-.183.077.077,0,0,1,.041.149A9.478,9.478,0,0,1,281.749,355.9Z" transform="translate(-276.126 -331.952)" fill="#1f160f"/>
              <path id="Trazado_990065" data-name="Trazado 990065" d="M315.384,343.046a.077.077,0,0,1-.076-.062c-.147-.718-3.6-17.59-3.343-18.32a1.6,1.6,0,0,1,.641-.8,3.009,3.009,0,0,1-1.285-.292c-1.071-.472-2.241-11.775-2.371-13.061a.077.077,0,0,1,.154-.016c.506,5.019,1.531,12.606,2.279,12.936a2.41,2.41,0,0,0,1.637.22l.015-.005a.076.076,0,0,1,.1.048.077.077,0,0,1-.045.1l-.017.006a1.65,1.65,0,0,0-.959.914c-.2.572,2.35,13.359,3.349,18.238a.078.078,0,0,1-.06.091Z" transform="translate(-296.319 -300.348)" fill="#1f160f"/>
              <path id="Trazado_990066" data-name="Trazado 990066" d="M325.806,417.736c-.914,0-1.541-.054-1.556-.056a.077.077,0,1,1,.014-.154,17.764,17.764,0,0,0,6.267-.6.078.078,0,0,1,.1.047.077.077,0,0,1-.047.1A15.152,15.152,0,0,1,325.806,417.736Z" transform="translate(-307.001 -375.039)" fill="#1f160f"/>
              <path id="Trazado_990067" data-name="Trazado 990067" d="M270.971,333.471h0a.078.078,0,0,1-.076-.079c.016-.694.4-17.017.766-18.353a1.052,1.052,0,0,1,.552-.668,1.386,1.386,0,0,1-.569-.386c-.111-.14-.091-1.3,0-4.565.1-3.653.23-8.656.04-12.6a.077.077,0,0,1,.073-.081.073.073,0,0,1,.081.073c.191,3.946.057,8.953-.04,12.609a42.664,42.664,0,0,0-.027,4.469,1.454,1.454,0,0,0,.693.4.077.077,0,0,1,0,.151.929.929,0,0,0-.65.641c-.361,1.317-.757,18.146-.761,18.316A.076.076,0,0,1,270.971,333.471Z" transform="translate(-269.628 -290.749)" fill="#1f160f"/>
              <path id="Trazado_990068" data-name="Trazado 990068" d="M271.091,419.266c-2.145,0-4.332-.168-4.363-.17a.077.077,0,0,1-.071-.083.075.075,0,0,1,.083-.071,47.953,47.953,0,0,0,6.846.058.078.078,0,0,1,.085.068.077.077,0,0,1-.068.085A23.006,23.006,0,0,1,271.091,419.266Z" transform="translate(-266.656 -376.454)" fill="#1f160f"/>
            </g>
            <path id="Trazado_990069" data-name="Trazado 990069" d="M269.658,272.74c.148-.86.167-1.058.321-1.684h18.9c.088.706.1.874.2,1.63C287.748,272.794,275.327,273.441,269.658,272.74Z" transform="translate(-268.281 -271.056)" fill="#1f160f"/>
          </g>
        </g>
        <g id="Grupo_1181892" data-name="Grupo 1181892" transform="translate(11.765)">
          <g id="Grupo_1181887" data-name="Grupo 1181887" transform="translate(2.711 12.961)">
            <path id="Trazado_990070" data-name="Trazado 990070" d="M299.761,164.087l-6.2.127v-6.125h6.2Z" transform="translate(-293.564 -158.089)" fill="#eba38d"/>
            <path id="Trazado_990071" data-name="Trazado 990071" d="M302.038,162.407v-4.318h-5.218S296.34,162.875,302.038,162.407Z" transform="translate(-295.841 -158.089)" fill="#1f160f"/>
          </g>
          <g id="Grupo_1181891" data-name="Grupo 1181891">
            <path id="Trazado_990072" data-name="Trazado 990072" d="M287.522,116.26c.722-1.325,7.733-2.953,6.683.467,0,0,6.122-.62,2.479,5.388-.276,1.094-.3,2.8-1.048,4.107l-9.486-.188c-1.06-3.544-1.941-4.622-.922-7.437C285.228,118.6,284.153,116.87,287.522,116.26Z" transform="translate(-284.69 -114.688)" fill="#1f160f"/>
            <path id="Trazado_990073" data-name="Trazado 990073" d="M300.722,133.846c-.08,4.606-.832,6.314-4.051,6.258s-5.58-1.819-5.5-6.425,3.078-6.1,4.883-6.068S300.8,129.244,300.722,133.846Z" transform="translate(-289.174 -123.752)" fill="#eba38d"/>
            <g id="Grupo_1181888" data-name="Grupo 1181888" transform="translate(0 8.215)">
              <path id="Trazado_990074" data-name="Trazado 990074" d="M284.51,143.6c.2-1.5,1.244-1.881,2.32-.728l-.058,3.344C285.407,147.3,284.311,145.091,284.51,143.6Z" transform="translate(-284.487 -142.194)" fill="#eba38d"/>
              <path id="Trazado_990075" data-name="Trazado 990075" d="M286.105,145.588a.071.071,0,0,1-.022,0,.077.077,0,0,1-.052-.1.787.787,0,0,1,.6-.62.944.944,0,0,1,.876.455.077.077,0,0,1-.127.088.8.8,0,0,0-.724-.39.642.642,0,0,0-.475.512A.077.077,0,0,1,286.105,145.588Z" transform="translate(-285.568 -144.065)" fill="#1f160f"/>
            </g>
            <g id="Grupo_1181890" data-name="Grupo 1181890" transform="translate(5.223 7.75)">
              <path id="Trazado_990076" data-name="Trazado 990076" d="M310.085,149.908a.569.569,0,0,1-.235-.049.077.077,0,0,1,.064-.141.582.582,0,0,0,.538-.09c.169-.113.245-.243.243-.3a1.715,1.715,0,0,0-.107-.331,3.972,3.972,0,0,1-.326-1.435.077.077,0,0,1,.077-.076h0a.077.077,0,0,1,.076.079,3.838,3.838,0,0,0,.316,1.377,1.56,1.56,0,0,1,.117.38c.005.149-.153.323-.312.429A.827.827,0,0,1,310.085,149.908Z" transform="translate(-307.466 -145.445)" fill="#1f160f"/>
              <path id="Trazado_990077" data-name="Trazado 990077" d="M316.021,145.255c-.005.285-.163.514-.353.51s-.34-.237-.335-.522.163-.514.353-.51S316.026,144.97,316.021,145.255Z" transform="translate(-311.343 -143.51)" fill="#1f160f"/>
              <path id="Trazado_990078" data-name="Trazado 990078" d="M315.582,141.856a.233.233,0,0,1-.107-.026,1.672,1.672,0,0,0-1.246-.144.232.232,0,1,1-.093-.454,2.122,2.122,0,0,1,1.553.186.232.232,0,0,1-.107.437Z" transform="translate(-310.374 -141.008)" fill="#1f160f"/>
              <path id="Trazado_990079" data-name="Trazado 990079" d="M304.523,145.006c-.005.285.145.519.335.522s.348-.225.353-.51-.145-.519-.335-.522S304.527,144.721,304.523,145.006Z" transform="translate(-303.762 -143.344)" fill="#1f160f"/>
              <path id="Trazado_990080" data-name="Trazado 990080" d="M302.207,141.373a.232.232,0,0,1-.121-.43,2.249,2.249,0,0,1,1.737-.239.232.232,0,1,1-.08.457,1.792,1.792,0,0,0-1.416.179A.234.234,0,0,1,302.207,141.373Z" transform="translate(-301.975 -140.638)" fill="#1f160f"/>
              <g id="Grupo_1181889" data-name="Grupo 1181889" transform="translate(1.409 5.044)">
                <path id="Trazado_990081" data-name="Trazado 990081" d="M308.705,157.81a2.564,2.564,0,0,1-2-.283s-.156,1.056.834,1.152A1.007,1.007,0,0,0,308.705,157.81Z" transform="translate(-306.692 -157.527)" fill="#1f160f"/>
                <path id="Trazado_990082" data-name="Trazado 990082" d="M308.563,159.54a1.55,1.55,0,0,0-1.633-.313.834.834,0,0,0,.772.568A1.027,1.027,0,0,0,308.563,159.54Z" transform="translate(-306.859 -158.644)" fill="#9e594f"/>
              </g>
            </g>
            <path id="Trazado_990083" data-name="Trazado 990083" d="M296.719,124.174c1.734.03,3.77.675,4.066,1.683.725,2.467-1.789,1.864-2.321,1.624-.342-.154.18,1.381-3.628-.5-.441,2.175-1.233,1.424-2.086,4.468-.177.63-1.175-.518-1.208-1.447C291.512,129.169,291.664,124.086,296.719,124.174Z" transform="translate(-289.433 -121.341)" fill="#1f160f"/>
          </g>
        </g>
        <g id="Grupo_1181901" data-name="Grupo 1181901" transform="translate(0 11.898)">
          <g id="Grupo_1181895" data-name="Grupo 1181895" transform="translate(28.455)">
            <path id="Trazado_990084" data-name="Trazado 990084" d="M344.369,216.25l-3.994,3.21s2.016,3.434,4.854,4.359l.94-5.075Z" transform="translate(-340.375 -197.817)" fill="#1f160f"/>
            <path id="Trazado_990085" data-name="Trazado 990085" d="M359.887,163.8a12.409,12.409,0,0,0-.466-2.5,8.648,8.648,0,0,1-.087-2.023c.079-.3.862-2.095.862-2.095.582,0,.758.771.664,1.065a11.544,11.544,0,0,0-.317,1.442,1.72,1.72,0,0,0,.4,1.383c.707-.825,1.625-5.5,1.82-5.907a.366.366,0,0,1,.707.166c-.024.394-.6,4.177-.622,4.279s.076.152.145.036.983-4.168,1.21-4.742c.252-.639.911-.435.768.364s-1.092,4.579-1.112,4.65.062.139.127.043c.1-.145,1.473-3.726,1.576-3.919.194-.361.813-.122.731.339s-1.345,3.9-1.364,3.976.083.153.142.065c.126-.188,1.346-2.216,1.611-2.551.281-.354.8-.1.481.4a26.153,26.153,0,0,0-1.259,2.588,9.279,9.279,0,0,1-2.545,4.912c-.357.3-4.955,16.173-10.321,14.942-3.622-.831-2.427-4.024-1.3-5.152C354.683,172.606,359.887,163.8,359.887,163.8Z" transform="translate(-347.553 -154.527)" fill="#fff"/>
            <g id="Grupo_1181893" data-name="Grupo 1181893" transform="translate(11.749)">
              <path id="Trazado_990086" data-name="Trazado 990086" d="M381.361,167.3a1.72,1.72,0,0,1-.4-1.383,11.551,11.551,0,0,1,.317-1.442c.094-.294-.082-1.066-.664-1.065,0,0-.784,1.793-.862,2.095a8.65,8.65,0,0,0,.087,2.023,12.454,12.454,0,0,1,.466,2.5C381.512,169.676,381.667,167.9,381.361,167.3Z" transform="translate(-379.716 -160.76)" fill="#56545e"/>
              <path id="Trazado_990087" data-name="Trazado 990087" d="M387.68,160.229a.949.949,0,0,0,1.173.313c.017-.1.6-3.886.622-4.279a.366.366,0,0,0-.707-.166c-.13.272-.587,2.468-1.087,4.133Z" transform="translate(-385.301 -155.458)" fill="#56545e"/>
              <path id="Trazado_990088" data-name="Trazado 990088" d="M392.958,159.919c.02-.071.969-3.851,1.112-4.65s-.515-1-.767-.364c-.227.573-1.141,4.627-1.21,4.742A1.084,1.084,0,0,0,392.958,159.919Z" transform="translate(-388.397 -154.527)" fill="#56545e"/>
              <path id="Trazado_990089" data-name="Trazado 990089" d="M396.992,159.195c-.1.193-1.479,3.774-1.577,3.919.147.408.943.4.943.4.019-.073,1.281-3.516,1.364-3.976S397.186,158.834,396.992,159.195Z" transform="translate(-390.726 -157.678)" fill="#56545e"/>
              <path id="Trazado_990090" data-name="Trazado 990090" d="M400.657,165.345c-.265.335-1.485,2.363-1.611,2.551a1.5,1.5,0,0,0,.833.438,26.283,26.283,0,0,1,1.259-2.588C401.461,165.247,400.938,164.991,400.657,165.345Z" transform="translate(-393.273 -161.999)" fill="#56545e"/>
            </g>
            <g id="Grupo_1181894" data-name="Grupo 1181894" transform="translate(4.522 6.804)">
              <path id="Trazado_990091" data-name="Trazado 990091" d="M391.363,179.574a.078.078,0,0,1-.076-.065,4.24,4.24,0,0,0-.989-2.066.078.078,0,0,1,0-.109.077.077,0,0,1,.109,0,4.318,4.318,0,0,1,1.035,2.153.077.077,0,0,1-.064.088Z" transform="translate(-379.894 -177.31)" fill="#1f160f"/>
              <path id="Trazado_990092" data-name="Trazado 990092" d="M356.79,231.036a1.272,1.272,0,1,1,1.272-1.272A1.273,1.273,0,0,1,356.79,231.036Zm0-2.389a1.117,1.117,0,1,0,1.117,1.117A1.118,1.118,0,0,0,356.79,228.647Z" transform="translate(-355.518 -213.207)" fill="#1f160f"/>
              <path id="Trazado_990093" data-name="Trazado 990093" d="M359.6,200.629a.077.077,0,0,1-.061-.125c.052-.066,5.2-6.645,7.451-11.913a.077.077,0,0,1,.142.061c-2.255,5.287-7.42,11.882-7.472,11.948A.077.077,0,0,1,359.6,200.629Z" transform="translate(-358.324 -185.189)" fill="#1f160f"/>
              <path id="Trazado_990094" data-name="Trazado 990094" d="M385.114,188.114l-.019,0a6.256,6.256,0,0,1-2.994-1.719.077.077,0,0,1,.124-.093,6.227,6.227,0,0,0,2.909,1.662.077.077,0,0,1-.019.152Z" transform="translate(-374.151 -183.594)" fill="#1f160f"/>
            </g>
          </g>
          <path id="Trazado_990095" data-name="Trazado 990095" d="M266.7,204.733c11.072.235,20.456-.242,20.456-.242-.443-14.344-.626-15.414-.626-15.414l2.451,3.177a16.828,16.828,0,0,0,4.5-4.29s-5.867-10.731-7.805-11.53c-1.432-.59-3.711-.865-7.36-.978-2.578-.083-7.349,0-9.374.676C266.256,177.033,266.7,204.733,266.7,204.733Z" transform="translate(-260.229 -169.187)" fill="#9e594f"/>
          <g id="Grupo_1181896" data-name="Grupo 1181896" transform="translate(6.488 20.41)">
            <path id="Trazado_990096" data-name="Trazado 990096" d="M286.939,238.029q-.025-.64-.047-1.195c-3.222.093-13.669.336-20.051-.2q-.012.605-.022,1.2c3.132.262,7.153.34,10.846.34C281.656,238.171,285.261,238.08,286.939,238.029Z" transform="translate(-266.819 -232.522)" fill="#fff"/>
            <path id="Trazado_990097" data-name="Trazado 990097" d="M267.185,222.868q-.022.6-.042,1.194c4.677.136,14.435.391,19.851.34-.026-.514-.048-.9-.066-1.194C281.519,223.257,271.84,223,267.185,222.868Z" transform="translate(-267.047 -222.868)" fill="#fff"/>
          </g>
          <path id="Trazado_990098" data-name="Trazado 990098" d="M290,175.455a5.931,5.931,0,0,0,4.016,4.5c.32.734.931,2.075,1.108,2.055s.38-1.4.472-2.106c1.72-.509,2.468-2.5,2.492-4.305-.978-.089-2.108-.177-3.412-.218C293.439,175.346,291.7,175.371,290,175.455Z" transform="translate(-276.589 -169.143)" fill="#eba38d"/>
          <path id="Trazado_990099" data-name="Trazado 990099" d="M257.986,183.138l-3.772,10.27a28.681,28.681,0,0,1-6.475-2.954c2.058-5.083,5.827-12.184,7.926-12.674Z" transform="translate(-246.949 -170.836)" fill="#9e594f"/>
          <g id="Grupo_1181897" data-name="Grupo 1181897" transform="translate(7.188 12.224)">
            <path id="Trazado_990100" data-name="Trazado 990100" d="M332.3,203.569a.077.077,0,0,1-.077-.075c-.057-1.888-.287-7.376-.29-7.431a.077.077,0,0,1,.074-.08.076.076,0,0,1,.081.074c0,.055.233,5.544.29,7.433a.078.078,0,0,1-.075.08Z" transform="translate(-313.19 -195.827)" fill="#1f160f"/>
            <path id="Trazado_990101" data-name="Trazado 990101" d="M269.238,205.885a.076.076,0,0,1-.027,0,.077.077,0,0,1-.046-.1l3.771-10.271a.077.077,0,0,1,.145.053l-3.771,10.271A.078.078,0,0,1,269.238,205.885Z" transform="translate(-269.161 -195.46)" fill="#1f160f"/>
          </g>
          <g id="Grupo_1181898" data-name="Grupo 1181898" transform="translate(0 19.915)">
            <path id="Trazado_990102" data-name="Trazado 990102" d="M256.223,240.482c-.529,2.276-3.127,2.8-3.127,2.8s-7.961-15.345-8-17.382a15.537,15.537,0,0,1,1.224-4.687,31.58,31.58,0,0,0,6.04,2.658l-.806,2.2Z" transform="translate(-245.093 -221.211)" fill="#eba38d"/>
            <path id="Trazado_990103" data-name="Trazado 990103" d="M261.47,237.392c-.533,0-1.086-.03-1.121-.032a.077.077,0,0,1-.073-.081.083.083,0,0,1,.081-.073,15.332,15.332,0,0,0,1.833,0,.077.077,0,1,1,.019.154A6.562,6.562,0,0,1,261.47,237.392Z" transform="translate(-255.741 -232.429)" fill="#1f160f"/>
            <path id="Trazado_990104" data-name="Trazado 990104" d="M271.415,287.247a.077.077,0,0,1-.005-.154,4.044,4.044,0,0,0,3.33-3.247.078.078,0,0,1,.095-.055.077.077,0,0,1,.055.095,4.194,4.194,0,0,1-3.469,3.361Z" transform="translate(-263.5 -265.101)" fill="#1f160f"/>
          </g>
          <g id="Grupo_1181900" data-name="Grupo 1181900" transform="translate(3.131 22.494)">
            <path id="Trazado_990105" data-name="Trazado 990105" d="M259.889,230.111c1.971,2.2,2.249,4.089,2.123,4.959a2.942,2.942,0,0,1-1.426,2.434,3.075,3.075,0,0,1-1.638.539.624.624,0,0,1-.329-.778,4.343,4.343,0,0,1-1.291.195.787.787,0,0,1-.329-.8,2.084,2.084,0,0,1-.8.061.893.893,0,0,1-.35-.833c.063-.217.56-.42.56-.42s-.525-.616-.084-1.043a17.408,17.408,0,0,1,3-1.37l-.242-.747Z" transform="translate(-255.755 -230.032)" fill="#eba38d"/>
            <g id="Grupo_1181899" data-name="Grupo 1181899">
              <path id="Trazado_990106" data-name="Trazado 990106" d="M258.883,237.954a.318.318,0,0,1-.151-.029.694.694,0,0,1-.4-.739,3.125,3.125,0,0,1-1.223.156.793.793,0,0,1-.38-.771,1.711,1.711,0,0,1-.745.034.963.963,0,0,1-.4-.927c.055-.19.355-.355.513-.429a.81.81,0,0,1-.016-1.068,15.886,15.886,0,0,1,2.962-1.361l-.219-.677a.079.079,0,0,1,0-.05l.806-2.195a.077.077,0,0,1,.145.053l-.8,2.17.234.722a.077.077,0,0,1-.047.1,17.563,17.563,0,0,0-2.978,1.353c-.383.371.07.914.089.937a.078.078,0,0,1,.016.068.077.077,0,0,1-.046.053c-.179.073-.477.238-.515.37a.831.831,0,0,0,.3.739,1.941,1.941,0,0,0,.759-.063.079.079,0,0,1,.071.018.078.078,0,0,1,.024.07c0,.021-.086.525.288.719a3.93,3.93,0,0,0,1.236-.2.077.077,0,0,1,.092.1.547.547,0,0,0,.294.682,3.225,3.225,0,0,0,1.563-.538.077.077,0,0,1,.076.134A4.149,4.149,0,0,1,258.883,237.954Z" transform="translate(-255.576 -229.848)" fill="#1f160f"/>
              <path id="Trazado_990107" data-name="Trazado 990107" d="M257.568,244.928a.077.077,0,0,1-.014-.153,21.259,21.259,0,0,0,3.268-1.274.077.077,0,1,1,.067.139,20.86,20.86,0,0,1-3.307,1.287Z" transform="translate(-256.919 -239.418)" fill="#1f160f"/>
              <path id="Trazado_990108" data-name="Trazado 990108" d="M259.561,249.374a.077.077,0,0,1-.016-.153,20.367,20.367,0,0,0,2.874-1.082.078.078,0,0,1,.1.038.077.077,0,0,1-.038.1,20.093,20.093,0,0,1-2.906,1.092Z" transform="translate(-258.317 -242.672)" fill="#1f160f"/>
              <path id="Trazado_990109" data-name="Trazado 990109" d="M264.987,252.416a.077.077,0,0,1-.01-.154,4.793,4.793,0,0,0,1.617-.645.077.077,0,0,1,.084.129,4.846,4.846,0,0,1-1.68.668Z" transform="translate(-262.122 -245.107)" fill="#1f160f"/>
            </g>
          </g>
        </g>
      </g>
      <g id="Grupo_1181903" data-name="Grupo 1181903" transform="translate(18.843 0.661)">
        <path id="Trazado_990110" data-name="Trazado 990110" d="M411.836,279.189c-.822.293-1.007.531-1.234,1.592-.227-1.061-.411-1.3-1.234-1.592.822-.293,1.007-.531,1.234-1.592C410.83,278.658,411.014,278.9,411.836,279.189Z" transform="translate(-313.798 -229.606)" fill="#fff"/>
        <path id="Trazado_990111" data-name="Trazado 990111" d="M91.818,197.522c-.822.293-1.007.531-1.234,1.592-.227-1.061-.411-1.3-1.234-1.592.822-.293,1.007-.531,1.234-1.592C90.812,196.991,91,197.229,91.818,197.522Z" transform="translate(-89.351 -172.329)" fill="#fff"/>
        <path id="Trazado_990112" data-name="Trazado 990112" d="M374.012,118.493c-.822.293-1.007.531-1.234,1.592-.227-1.061-.411-1.3-1.234-1.592.822-.293,1.007-.531,1.234-1.592C373.006,117.962,373.19,118.2,374.012,118.493Z" transform="translate(-287.27 -116.901)" fill="#fff"/>
        <path id="Trazado_990113" data-name="Trazado 990113" d="M91.818,310.417c-.822.293-1.007.531-1.234,1.592-.227-1.061-.411-1.3-1.234-1.592.822-.293,1.007-.531,1.234-1.592C90.812,309.886,91,310.124,91.818,310.417Z" transform="translate(-89.351 -251.508)" fill="#fff"/>
        <path id="Trazado_990114" data-name="Trazado 990114" d="M369.31,323.995c-1.646.577-1.892,1.045-2.2,4.181-.3-3.135-.549-3.6-2.2-4.181,1.646-.577,1.892-1.045,2.2-4.181C367.418,322.949,367.664,323.417,369.31,323.995Z" transform="translate(-282.623 -259.215)" fill="#fff"/>
        <path id="Trazado_990115" data-name="Trazado 990115" d="M107.04,213.171c-1.646.577-1.892,1.045-2.2,4.181-.3-3.135-.549-3.6-2.2-4.181,1.646-.577,1.892-1.045,2.2-4.181C105.148,212.126,105.394,212.593,107.04,213.171Z" transform="translate(-98.678 -181.488)" fill="#fff"/>
      </g>
    </g>
  </g>
</svg>
