<svg xmlns="http://www.w3.org/2000/svg" width="85" height="85" viewBox="0 0 85 85">
  <g id="img2" transform="translate(-494.711 -4482)">
    <rect id="Rect치ngulo_454644" data-name="Rect치ngulo 454644" width="85" height="85" transform="translate(494.711 4482)" fill="#5bc0be"/>
    <rect id="Rect치ngulo_454645" data-name="Rect치ngulo 454645" width="65" height="65" transform="translate(504.711 4492)" fill="#e5eaff"/>
    <g id="Grupo_1183637" data-name="Grupo 1183637" transform="translate(510.148 4461.594)">
      <path id="Trazado_998789" data-name="Trazado 998789" d="M301.165,117.031v1.817a.847.847,0,0,1-.468.758l-.379.189h10.171l-.758-.379a1.7,1.7,0,0,1-.937-1.516V103.694H296.081v6.779A6.776,6.776,0,0,0,301.165,117.031Z" transform="translate(-264.781 -56.888)" fill="#f5b97d"/>
      <circle id="Elipse_13651" data-name="Elipse 13651" cx="5.085" cy="5.085" r="5.085" transform="translate(2.488 40.874)" fill="#ffc269"/>
      <path id="Trazado_998790" data-name="Trazado 998790" d="M57.332,80.951c0-5.148-3.3-9.322-8.446-9.322a9.322,9.322,0,0,0-9.322,9.322c0,4.237,4.173,6.779,9.322,6.779S57.332,85.188,57.332,80.951Z" transform="translate(-35.381 -28.213)" fill="#ffa95f"/>
      <path id="Trazado_998791" data-name="Trazado 998791" d="M45.5,99.745a7.741,7.741,0,0,1-3.083-3.31,9.288,9.288,0,0,0-2.849,6.7c0,4.214,4.13,6.75,9.24,6.777Z" transform="translate(-35.381 -50.397)" fill="#ff8b5a"/>
      <path id="Trazado_998792" data-name="Trazado 998792" d="M37.091,272.032H30.311a6.779,6.779,0,0,0-6.779,6.779v10.169h17.8V276.269a4.237,4.237,0,0,0-4.237-4.237Z" transform="translate(-21.044 -207.43)" fill="#95d6a4"/>
      <path id="Trazado_998793" data-name="Trazado 998793" d="M30.311,274.575h1.695v-2.542H30.311a6.779,6.779,0,0,0-6.779,6.779v10.169h2.542V278.812A4.242,4.242,0,0,1,30.311,274.575Z" transform="translate(-21.044 -207.431)" fill="#78c2a4"/>
      <path id="Trazado_998794" data-name="Trazado 998794" d="M91.051,239.579a3.39,3.39,0,0,1-3.39-3.39v-4.237H94.44v4.237A3.39,3.39,0,0,1,91.051,239.579Z" transform="translate(-78.394 -171.587)" fill="#f7d291"/>
      <path id="Trazado_998795" data-name="Trazado 998795" d="M87.661,243.077a8.417,8.417,0,0,0,6.779.728v-3.836H87.661Z" transform="translate(-78.394 -178.757)" fill="#ecbd83"/>
      <path id="Trazado_998796" data-name="Trazado 998796" d="M94.9,320.129H79.645v11.864H94.9a1.7,1.7,0,0,0,1.695-1.695v-8.474A1.7,1.7,0,0,0,94.9,320.129Z" transform="translate(-71.225 -250.443)" fill="#eceaec"/>
      <path id="Trazado_998797" data-name="Trazado 998797" d="M65.308,320.129a1.7,1.7,0,0,0-1.695,1.695V330.3a1.7,1.7,0,0,0,1.695,1.695H80.561a1.7,1.7,0,0,0,1.695-1.695h0v-.847H68.7a2.542,2.542,0,0,1-2.542-2.542v-6.779Z" transform="translate(-56.888 -250.443)" fill="#dad8db"/>
      <path id="Trazado_998798" data-name="Trazado 998798" d="M66.734,127.742c2.694,1.91,6.543,2.53,8.649,2.73a1.687,1.687,0,0,1,1.52,1.685v2.364a6.779,6.779,0,0,1-13.559,0h0a7.873,7.873,0,0,1,2.037-5.285Z" transform="translate(-56.648 -78.394)" fill="#ffe1a0"/>
      <circle id="Elipse_13652" data-name="Elipse 13652" cx="1.695" cy="1.695" r="1.695" transform="translate(14.352 73.923)" fill="#fff"/>
      <path id="Trazado_998799" data-name="Trazado 998799" d="M292.192,257.6l-3.209-1.6H278.812l-4.906,2.453a3.39,3.39,0,0,0-1.874,3.032v16.548h22.033v-17.4A3.39,3.39,0,0,0,292.192,257.6Z" transform="translate(-243.275 -193.093)" fill="#c3ddff"/>
      <path id="Trazado_998800" data-name="Trazado 998800" d="M277.963,294.746a4.237,4.237,0,0,0-1.59-3.309l-3.646-2.917a3.382,3.382,0,0,0-.7,2.047v16.548h5.932v-12.37Z" transform="translate(-243.273 -222.176)" fill="#a4ccff"/>
      <path id="Trazado_998801" data-name="Trazado 998801" d="M343.4,352.194H331.535a3.39,3.39,0,0,0-3.39,3.39l2.542,8.474h16.1v-8.474A3.39,3.39,0,0,0,343.4,352.194Z" transform="translate(-293.455 -279.118)" fill="#9b959d"/>
      <path id="Trazado_998802" data-name="Trazado 998802" d="M301.165,117.031V103.694H296.08v6.779A6.776,6.776,0,0,0,301.165,117.031Z" transform="translate(-264.78 -56.888)" fill="#e3aa75"/>
      <path id="Trazado_998803" data-name="Trazado 998803" d="M291.065,55.6h-6.779a4.237,4.237,0,0,0-4.237,4.237,1.7,1.7,0,0,0,1.695,1.695h.847a2.542,2.542,0,0,1,2.542,2.542v2.542a4.237,4.237,0,0,0,4.237,4.237h4.237a3.39,3.39,0,0,0,3.39-3.39V61.529a5.932,5.932,0,0,0-5.932-5.932Z" transform="translate(-250.443 -13.876)" fill="#9f6e50"/>
      <path id="Trazado_998804" data-name="Trazado 998804" d="M334.077,352.194h-2.542a3.39,3.39,0,0,0-3.39,3.39v8.474h2.542v-8.474A3.39,3.39,0,0,1,334.077,352.194Z" transform="translate(-293.455 -279.118)" fill="#857e87"/>
      <path id="Trazado_998805" data-name="Trazado 998805" d="M284.285,55.6a4.237,4.237,0,0,0-4.237,4.237,1.7,1.7,0,0,0,1.695,1.695h.847a2.542,2.542,0,0,1,2.542,2.542V55.6Z" transform="translate(-250.443 -13.876)" fill="#785353"/>
      <path id="Trazado_998806" data-name="Trazado 998806" d="M65.916,142.171V136.3l-.533.589a7.873,7.873,0,0,0-2.037,5.285v0a6.768,6.768,0,0,0,8.065,6.654A6.779,6.779,0,0,1,65.916,142.171Z" transform="translate(-56.648 -86.044)" fill="#f7d291"/>
      <path id="Trazado_998807" data-name="Trazado 998807" d="M112.025,208.885a.793.793,0,0,0,.4,1.048,5.134,5.134,0,0,0,4.04,0,.793.793,0,1,0-.65-1.446,3.554,3.554,0,0,1-2.739,0A.793.793,0,0,0,112.025,208.885Z" transform="translate(-100.12 -150.541)"/>
      <path id="Trazado_998808" data-name="Trazado 998808" d="M104.734,170.772a.793.793,0,0,0,.793-.793v-.847a.793.793,0,1,0-1.586,0v.847A.793.793,0,0,0,104.734,170.772Z" transform="translate(-92.953 -114.699)"/>
      <path id="Trazado_998809" data-name="Trazado 998809" d="M152.831,170.772a.793.793,0,0,0,.793-.793v-.847a.793.793,0,1,0-1.586,0v.847A.793.793,0,0,0,152.831,170.772Z" transform="translate(-135.965 -114.699)"/>
      <path id="Trazado_998810" data-name="Trazado 998810" d="M130.747,352.709a2.488,2.488,0,1,0,2.488,2.488A2.491,2.491,0,0,0,130.747,352.709Zm0,3.39a.9.9,0,1,1,.9-.9A.9.9,0,0,1,130.747,356.1Z" transform="translate(-114.7 -279.579)"/>
      <path id="Trazado_998811" data-name="Trazado 998811" d="M51.584,72.619V67.543A4.16,4.16,0,0,0,49.272,63.8L45.3,61.819a.9.9,0,0,1-.5-.806v-3.58a4.189,4.189,0,0,0,2.542-3.847V47.653a6.733,6.733,0,0,0-6.725-6.725H33.842a5.036,5.036,0,0,0-5.03,5.03,2.492,2.492,0,0,0,1.695,2.357v5.269a7.565,7.565,0,0,0,5.085,7.145v1.262L30.277,64.65a4.16,4.16,0,0,0-2.312,3.741V80.757h-2a2.556,2.556,0,0,0,.2-.985V71.464a2.573,2.573,0,0,0-2.57-2.57H21.076v-.055a5.037,5.037,0,0,0-4.237-4.967v-.963a7.592,7.592,0,0,0,4.124-5.646,6.535,6.535,0,0,0,1.78-4.525,10.748,10.748,0,0,0-2.5-7.113,8.835,8.835,0,0,0-6.765-3,10.2,10.2,0,0,0-1.055.055,5.877,5.877,0,1,0-8.776,7.679,10.1,10.1,0,0,0-.284,2.381,6.56,6.56,0,0,0,2.823,5.426,7.584,7.584,0,0,0,2.29,3.642v2.045a7.583,7.583,0,0,0-6.779,7.53v9.376h-.9a.793.793,0,1,0,0,1.586H27.965v2.6a.793.793,0,0,0,1.586,0V68.391a2.605,2.605,0,0,1,.182-.957l2.925,2.437A3.435,3.435,0,0,1,33.9,72.518V84.94a.793.793,0,0,0,1.586,0V76.466a2.6,2.6,0,0,1,2.6-2.6H49.943a2.6,2.6,0,0,1,2.6,2.6V84.94a.793.793,0,0,0,1.586,0V76.466A4.188,4.188,0,0,0,51.584,72.619ZM3.252,45.958a4.289,4.289,0,0,1,7.416-2.938,10.162,10.162,0,0,0-6.452,5.65,4.265,4.265,0,0,1-.964-2.711ZM5.913,55.72a4.927,4.927,0,0,1-.966-2.983,8.539,8.539,0,0,1,8.529-8.529,7.177,7.177,0,0,1,5.571,2.459,9.168,9.168,0,0,1,2.11,6.07,5.289,5.289,0,0,1-.109,1.074v-.049a2.469,2.469,0,0,0-2.238-2.475c-1.991-.189-5.713-.777-8.265-2.587a.793.793,0,0,0-1.046.114L8.146,50.309A8.648,8.648,0,0,0,5.913,55.72Zm1.576.405a7.066,7.066,0,0,1,1.832-4.752l.9-.989a20.8,20.8,0,0,0,8.443,2.483.89.89,0,0,1,.8.9v2.364a5.987,5.987,0,1,1-11.973,0Zm7.764,7.361v.267a2.6,2.6,0,0,1-5.194,0v-.872a7.54,7.54,0,0,0,5.194.6Zm9.322,16.286a.986.986,0,0,1-.985.985H8.5a.986.986,0,0,1-.985-.985V75.618a.793.793,0,0,0-1.586,0v4.154a2.556,2.556,0,0,0,.2.985H3.281V71.381a5.993,5.993,0,0,1,5.537-5.968,4.181,4.181,0,0,0,7.672.011,3.449,3.449,0,0,1,3,3.415v.055H8.5a2.573,2.573,0,0,0-2.57,2.57v.765a.793.793,0,1,0,1.586,0v-.765a.986.986,0,0,1,.985-.985H23.591a.986.986,0,0,1,.985.985Zm7.518-26.187V48.446h.055A1.751,1.751,0,0,1,33.9,50.2v2.542a5.036,5.036,0,0,0,5.03,5.03h.847a.793.793,0,1,0,0-1.586h-.847a3.448,3.448,0,0,1-3.444-3.444V50.2a3.339,3.339,0,0,0-3.335-3.335H31.3a.9.9,0,0,1-.9-.9,3.448,3.448,0,0,1,3.444-3.444h6.779a5.145,5.145,0,0,1,5.139,5.139v5.932a2.6,2.6,0,0,1-2.6,2.6.793.793,0,1,0,0,1.586h.055v3.246a2.489,2.489,0,0,0,.257,1.1h-6.3V60.142a.793.793,0,0,0-.595-.768,5.98,5.98,0,0,1-4.49-5.789ZM50,72.284H38.079a4.16,4.16,0,0,0-2.6.907v-.672a5.017,5.017,0,0,0-1.81-3.864L30.74,66.21a2.634,2.634,0,0,1,.246-.142L35.724,63.7h9.8l3.042,1.521A2.583,2.583,0,0,1,50,67.543Z" transform="translate(0)"/>
    </g>
  </g>
</svg>
