<svg xmlns="http://www.w3.org/2000/svg" width="124" height="124" viewBox="0 0 124 124">
  <g id="img37" transform="translate(-1234.5 -458)">
    <g id="Elipse_12108" data-name="Elipse 12108" transform="translate(1241.5 465)" fill="#2142dc" stroke="rgba(255,255,255,0.4)" stroke-width="7">
      <circle cx="55" cy="55" r="55" stroke="none"/>
      <circle cx="55" cy="55" r="58.5" fill="none"/>
    </g>
    <g id="Grupo_1311751" data-name="Grupo 1311751" transform="translate(1264.5 487.994)">
      <path id="Trazado_1059225" data-name="Trazado 1059225" d="M41.708,18.441h2v2h-2Z" transform="matrix(0.512, -0.859, 0.859, 0.512, 4.145, 46.177)" fill="#e8ebfc"/>
      <path id="Trazado_1059226" data-name="Trazado 1059226" d="M45.145,20.488h2v2h-2Z" transform="matrix(0.512, -0.859, 0.859, 0.512, 4.064, 50.128)" fill="#e8ebfc"/>
      <path id="Trazado_1059227" data-name="Trazado 1059227" d="M38.272,16.393h2v2h-2Z" transform="matrix(0.512, -0.859, 0.859, 0.512, 4.227, 42.226)" fill="#e8ebfc"/>
      <path id="Trazado_1059228" data-name="Trazado 1059228" d="M11.836,23.382h2.328v2H11.836Z" transform="matrix(0.859, -0.512, 0.512, 0.859, -10.648, 10.09)" fill="#e8ebfc"/>
      <path id="Trazado_1059229" data-name="Trazado 1059229" d="M14.1,18.913H26.9v2H14.1Z" transform="matrix(0.859, -0.512, 0.512, 0.859, -7.303, 13.299)" fill="#e8ebfc"/>
      <path id="Trazado_1059230" data-name="Trazado 1059230" d="M62.875,20.01a3.975,3.975,0,0,0-1.833-2.45L57,15.15V4H49v6.378L34.372,1.653a4.711,4.711,0,0,0-4.743,0L2.96,17.559a4,4,0,0,0-1.4,5.481,4,4,0,0,0,5.483,1.4L8,23.869V50.891L2.177,56.45a3.8,3.8,0,1,0,5.374,5.373L9.291,60H20v3H56V23.869l.96.572a4,4,0,0,0,5.915-4.431ZM51,6h4v7.957l-4-2.386ZM6.1,60.442A1.8,1.8,0,1,1,3.558,57.9L23.984,38.4,25.6,40.017ZM18,33.586,17.414,33a1.415,1.415,0,0,1,0-2L27,21.414a1.415,1.415,0,0,1,2,0l.586.586Zm11-8.172L38.586,35,31,42.586,21.414,33ZM50,53H26V52a3,3,0,0,1,3-3H47a3,3,0,0,1,3,3ZM31,46.586,30.414,46,42,34.414l.586.586a1.415,1.415,0,0,1,0,2L33,46.586A1.465,1.465,0,0,1,31,46.586ZM20,58H11.2L27.016,41.431,29.586,44l-2,2,1.038,1.038A4.991,4.991,0,0,0,24,52v1.1A5.009,5.009,0,0,0,20,58Zm34,3H22V58a3,3,0,0,1,3-3H51a3,3,0,0,1,3,3v3Zm0-6.974a4.952,4.952,0,0,0-2-.924V52a5.006,5.006,0,0,0-5-5H35.414L44,38.414a3.414,3.414,0,0,0,0-4.828l-2-2-2,2L30.414,24l2-2-2-2a3.5,3.5,0,0,0-4.828,0L16,29.586a3.414,3.414,0,0,0,0,4.828l2,2,2-2,2.569,2.569L10,48.982V22.677L30.654,10.371a2.681,2.681,0,0,1,2.694,0L54,22.677ZM60.721,22.02a2.06,2.06,0,0,1-2.739.7L34.372,8.653a4.633,4.633,0,0,0-4.743,0L6.021,22.72a2.058,2.058,0,0,1-2.741-.7,2,2,0,0,1,.7-2.742L30.654,3.371a2.674,2.674,0,0,1,2.693,0L60.02,19.279a2,2,0,0,1,.7,2.741Z" fill="#e8ebfc"/>
      <path id="Trazado_1059231" data-name="Trazado 1059231" d="M42,57h2v2H42Z" fill="#e8ebfc"/>
      <path id="Trazado_1059232" data-name="Trazado 1059232" d="M46,57h2v2H46Z" fill="#e8ebfc"/>
      <path id="Trazado_1059233" data-name="Trazado 1059233" d="M50,57h2v2H50Z" fill="#e8ebfc"/>
      <path id="Trazado_1059234" data-name="Trazado 1059234" d="M50,36h2v2H50Z" fill="#e8ebfc"/>
      <path id="Trazado_1059235" data-name="Trazado 1059235" d="M50,44h2v2H50Z" fill="#e8ebfc"/>
      <path id="Trazado_1059236" data-name="Trazado 1059236" d="M50,40h2v2H50Z" fill="#e8ebfc"/>
    </g>
  </g>
</svg>
