<svg xmlns="http://www.w3.org/2000/svg" width="820" height="442" viewBox="0 0 820 442">
  <g id="img3" transform="translate(-410.711 -1390)">
    <rect id="Rectangle_454966" data-name="Rectangle 454966" width="820" height="442" rx="5" transform="translate(410.711 1390)" fill="#f6f6f6"/>
    <g id="_34682605_8136204" data-name="34682605_8136204" transform="translate(477.781 1376.349)">
      <g id="Background_complete" transform="translate(0 53.489)">
        <g id="Group_1183316" data-name="Group 1183316" transform="translate(0 9.746)">
          <g id="Group_1183314" data-name="Group 1183314">
            <g id="Group_1183311" data-name="Group 1183311" transform="translate(65.188)">
              <g id="Group_1183307" data-name="Group 1183307" transform="translate(192.863)">
                <g id="Group_1183304" data-name="Group 1183304" transform="translate(192.987)">
                  <g id="Group_1183303" data-name="Group 1183303">
                    <path id="Path_998128" data-name="Path 998128" d="M659.909,319.41H492.554a5.434,5.434,0,0,1-5.428-5.428V70.213a5.434,5.434,0,0,1,5.428-5.428H659.909a5.434,5.434,0,0,1,5.428,5.428V313.982A5.434,5.434,0,0,1,659.909,319.41ZM492.554,65.016a5.2,5.2,0,0,0-5.2,5.2V313.982a5.2,5.2,0,0,0,5.2,5.2H659.909a5.2,5.2,0,0,0,5.2-5.2V70.213a5.2,5.2,0,0,0-5.2-5.2Z" transform="translate(-487.126 -64.785)" fill="#e0e0e0"/>
                  </g>
                </g>
                <g id="Group_1183306" data-name="Group 1183306">
                  <g id="Group_1183305" data-name="Group 1183305">
                    <path id="Path_998129" data-name="Path 998129" d="M451.481,319.41H284.126a5.434,5.434,0,0,1-5.428-5.428V70.213a5.434,5.434,0,0,1,5.428-5.428H451.482a5.434,5.434,0,0,1,5.428,5.428V313.982A5.436,5.436,0,0,1,451.481,319.41ZM284.126,65.016a5.2,5.2,0,0,0-5.2,5.2V313.982a5.2,5.2,0,0,0,5.2,5.2H451.482a5.2,5.2,0,0,0,5.2-5.2V70.213a5.2,5.2,0,0,0-5.2-5.2Z" transform="translate(-278.698 -64.785)" fill="#e0e0e0"/>
                  </g>
                </g>
              </g>
              <g id="Group_1183310" data-name="Group 1183310">
                <g id="Group_1183309" data-name="Group 1183309">
                  <g id="Group_1183308" data-name="Group 1183308">
                    <path id="Path_998130" data-name="Path 998130" d="M243.187,319.41H75.832a5.434,5.434,0,0,1-5.428-5.428V70.213a5.434,5.434,0,0,1,5.428-5.428H243.187a5.434,5.434,0,0,1,5.428,5.428V313.982A5.433,5.433,0,0,1,243.187,319.41ZM75.832,65.016a5.2,5.2,0,0,0-5.2,5.2V313.982a5.2,5.2,0,0,0,5.2,5.2H243.187a5.2,5.2,0,0,0,5.2-5.2V70.213a5.2,5.2,0,0,0-5.2-5.2Z" transform="translate(-70.404 -64.785)" fill="#e0e0e0"/>
                  </g>
                </g>
              </g>
            </g>
            <g id="Group_1183313" data-name="Group 1183313" transform="translate(0 311.17)">
              <g id="Group_1183312" data-name="Group 1183312">
                <rect id="Rectangle_454937" data-name="Rectangle 454937" width="694.438" height="0.111" fill="#e0e0e0"/>
              </g>
            </g>
          </g>
          <g id="Group_1183315" data-name="Group 1183315" transform="translate(37.634 326.521)">
            <rect id="Rectangle_454938" data-name="Rectangle 454938" width="51.6" height="0.39" transform="translate(567.569 11.849)" fill="#ebebeb"/>
            <rect id="Rectangle_454939" data-name="Rectangle 454939" width="13.543" height="0.39" transform="translate(420.736 16.077)" fill="#ebebeb"/>
            <rect id="Rectangle_454940" data-name="Rectangle 454940" width="67.29" height="0.39" fill="#ebebeb"/>
            <rect id="Rectangle_454941" data-name="Rectangle 454941" width="9.867" height="0.39" transform="translate(81.16)" fill="#ebebeb"/>
            <rect id="Rectangle_454942" data-name="Rectangle 454942" width="145.937" height="0.39" transform="translate(123.092 6.578)" fill="#ebebeb"/>
          </g>
        </g>
        <g id="Group_1183323" data-name="Group 1183323" transform="translate(533.846 266.573)">
          <g id="Group_1183322" data-name="Group 1183322">
            <path id="Path_998131" data-name="Path 998131" d="M625.756,388.933c2.372-2.924,6.956-4.875,11.99-5.814-.394,1.44-.1,2.768.753,3.094.949.364,2.222-.656,2.843-2.277a5.019,5.019,0,0,0,.311-1.339c5.075-.413,10.149.171,13.536,1.8,0,0-3.316,2.989-7.071,10.847-.115,0-.231-.008-.348-.006-2.431.025-4.39,1.2-4.375,2.621.01,1.04,1.073,1.922,2.592,2.315-.2.5-.394,1.016-.591,1.546-3.578,9.683-13.122,2.683-13.037-3.944C632.358,397.774,620.44,395.485,625.756,388.933Z" transform="translate(-580.102 -345.147)" fill="#e6e6e6"/>
            <g id="Group_1183321" data-name="Group 1183321">
              <path id="Path_998132" data-name="Path 998132" d="M610.453,375.468c-2.923-3.155-8.3-5.037-14.1-5.73.557,1.612.319,3.148-.626,3.583-1.056.486-2.583-.581-3.413-2.383a5.7,5.7,0,0,1-.455-1.5c-5.816-.091-11.557.955-15.3,3.061,0,0,4,3.159,8.873,11.837.131-.013.263-.026.4-.033,2.773-.154,5.094,1.038,5.184,2.661.066,1.186-1.08,2.272-2.781,2.832.263.559.526,1.128.789,1.719,4.8,10.771,15.161,2.077,14.567-5.472C603.587,386.04,617,382.539,610.453,375.468Z" transform="translate(-576.559 -344.181)" fill="#e6e6e6"/>
              <g id="Group_1183319" data-name="Group 1183319" transform="translate(26.519)">
                <g id="Group_1183318" data-name="Group 1183318">
                  <g id="Group_1183317" data-name="Group 1183317">
                    <path id="Path_998133" data-name="Path 998133" d="M605.477,371.083c1.242-6.058,6.444-12.377,13.067-17.559.516,2.4,1.954,4.108,3.442,3.939,1.659-.189,2.743-2.64,2.419-5.474a8.2,8.2,0,0,0-.561-2.187c7.083-4.447,14.921-7.443,21.09-7.641,0,0-2.568,6.868-2.085,21.168-.171.081-.343.163-.513.255-3.524,1.878-5.489,5.073-4.39,7.136.8,1.507,3.021,1.989,5.531,1.409.094.883.194,1.779.311,2.7,2.124,16.824-17.091,13.855-21.989,4.131C621.8,378.963,602.7,384.66,605.477,371.083Z" transform="translate(-605.2 -342.161)" fill="#ebebeb"/>
                  </g>
                </g>
              </g>
              <path id="Path_998134" data-name="Path 998134" d="M620,410.811A65.255,65.255,0,0,1,632.865,359.5l.544.431a64.548,64.548,0,0,0-12.724,50.76Z" transform="translate(-579.705 -343.445)" fill="#e0e0e0"/>
              <path id="Path_998135" data-name="Path 998135" d="M617.655,406.056a.339.339,0,0,1-.1-.017.348.348,0,0,1-.223-.219c-2.269-6.652-9.934-20.982-22.7-27.611a.347.347,0,0,1,.32-.617c12.686,6.587,20.4,20.644,22.883,27.562,2.51-1.816,16.855-12.166,24.045-16.772a.347.347,0,0,1,.375.584c-7.84,5.024-24.224,16.9-24.389,17.024A.369.369,0,0,1,617.655,406.056Z" transform="translate(-577.883 -344.783)" fill="#e0e0e0"/>
              <g id="Group_1183320" data-name="Group 1183320" transform="translate(19.944 65.583)">
                <path id="Path_998136" data-name="Path 998136" d="M638.533,420.4H598.1l.016-7.406h40.376Z" transform="translate(-598.099 -412.991)" fill="#e0e0e0"/>
                <path id="Path_998137" data-name="Path 998137" d="M601.262,418.381l6.318,26.281h23.265l5.634-26.281Z" transform="translate(-598.333 -413.39)" fill="#e0e0e0"/>
              </g>
            </g>
          </g>
          <path id="Path_998138" data-name="Path 998138" d="M604.112,411.562h-3.6a.231.231,0,0,1,0-.463h3.6a.231.231,0,0,1,0,.463Z" transform="translate(-578.317 -347.268)" fill="#e0e0e0"/>
          <path id="Path_998139" data-name="Path 998139" d="M616.028,411.562h-9.843a.231.231,0,0,1,0-.463h9.843a.231.231,0,1,1,0,.463Z" transform="translate(-578.737 -347.268)" fill="#e0e0e0"/>
        </g>
        <g id="Group_1183324" data-name="Group 1183324" transform="translate(467.167 23.52)">
          <rect id="Rectangle_454943" data-name="Rectangle 454943" width="1.667" height="129.971" transform="translate(13.333 4.963)" fill="#e0e0e0"/>
          <rect id="Rectangle_454944" data-name="Rectangle 454944" width="1.667" height="129.971" transform="translate(117.082 4.963)" fill="#e0e0e0"/>
          <path id="Path_998140" data-name="Path 998140" d="M630.166,93.384H511.695l-2.5-5.833H632.666Z" transform="translate(-504.889 -80.246)" fill="#f0f0f0"/>
          <path id="Path_998141" data-name="Path 998141" d="M630.166,102.034H511.695L509.2,96.2H632.666Z" transform="translate(-504.889 -80.886)" fill="#f0f0f0"/>
          <path id="Path_998142" data-name="Path 998142" d="M630.166,110.684H511.695l-2.5-5.833H632.666Z" transform="translate(-504.889 -81.527)" fill="#f0f0f0"/>
          <path id="Path_998143" data-name="Path 998143" d="M630.166,119.334H511.695l-2.5-5.833H632.666Z" transform="translate(-504.889 -82.168)" fill="#f0f0f0"/>
          <path id="Path_998144" data-name="Path 998144" d="M630.166,127.984H511.695l-2.5-5.833H632.666Z" transform="translate(-504.889 -82.809)" fill="#f0f0f0"/>
          <path id="Path_998145" data-name="Path 998145" d="M630.166,136.634H511.695l-2.5-5.833H632.666Z" transform="translate(-504.889 -83.45)" fill="#f0f0f0"/>
          <path id="Path_998146" data-name="Path 998146" d="M630.166,145.284H511.695l-2.5-5.833H632.666Z" transform="translate(-504.889 -84.09)" fill="#f0f0f0"/>
          <path id="Path_998147" data-name="Path 998147" d="M630.166,153.934H511.695l-2.5-5.833H632.666Z" transform="translate(-504.889 -84.731)" fill="#f0f0f0"/>
          <path id="Path_998148" data-name="Path 998148" d="M630.166,162.574H511.695l-2.5-5.833H632.666Z" transform="translate(-504.889 -85.371)" fill="#f0f0f0"/>
          <path id="Path_998149" data-name="Path 998149" d="M630.166,171.224H511.695l-2.5-5.833H632.666Z" transform="translate(-504.889 -86.012)" fill="#f0f0f0"/>
          <path id="Path_998150" data-name="Path 998150" d="M630.166,179.874H511.695l-2.5-5.833H632.666Z" transform="translate(-504.889 -86.653)" fill="#f0f0f0"/>
          <path id="Path_998151" data-name="Path 998151" d="M630.166,188.524H511.695l-2.5-5.833H632.666Z" transform="translate(-504.889 -87.294)" fill="#f0f0f0"/>
          <path id="Path_998152" data-name="Path 998152" d="M630.166,197.174H511.695l-2.5-5.833H632.666Z" transform="translate(-504.889 -87.935)" fill="#f0f0f0"/>
          <path id="Path_998153" data-name="Path 998153" d="M630.166,205.824H511.695l-2.5-5.833H632.666Z" transform="translate(-504.889 -88.575)" fill="#f0f0f0"/>
          <path id="Path_998154" data-name="Path 998154" d="M630.166,214.474H511.695l-2.5-5.833H632.666Z" transform="translate(-504.889 -89.216)" fill="#f0f0f0"/>
          <path id="Path_998155" data-name="Path 998155" d="M630.166,223.124H511.695l-2.5-5.833H632.666Z" transform="translate(-504.889 -89.857)" fill="#f0f0f0"/>
          <rect id="Rectangle_454945" data-name="Rectangle 454945" width="123.471" height="3.333" transform="translate(4.306 133.267)" fill="#e0e0e0"/>
          <rect id="Rectangle_454946" data-name="Rectangle 454946" width="132.082" height="7.778" fill="#e0e0e0"/>
          <path id="Path_998156" data-name="Path 998156" d="M505.9,160.376h0a1.342,1.342,0,0,1-1.343-1.343v-45.37a1.342,1.342,0,0,1,1.343-1.343h0a1.342,1.342,0,0,1,1.343,1.343v45.37A1.343,1.343,0,0,1,505.9,160.376Z" transform="translate(-504.546 -82.081)" fill="#e0e0e0"/>
          <rect id="Rectangle_454947" data-name="Rectangle 454947" width="0.972" height="26.944" transform="translate(0.87 6.222)" fill="#e0e0e0"/>
        </g>
        <g id="Group_1183326" data-name="Group 1183326" transform="translate(388.229 92.825)">
          <g id="Group_1183325" data-name="Group 1183325">
            <path id="Path_998157" data-name="Path 998157" d="M473.437,213.953,433.6,221.791a3.253,3.253,0,0,1-3.818-2.563l-10.428-53a3.251,3.251,0,0,1,2.563-3.818l39.838-7.838a3.253,3.253,0,0,1,3.818,2.563l10.428,53A3.252,3.252,0,0,1,473.437,213.953Z" transform="translate(-419.291 -154.511)" fill="#e6e6e6"/>
          </g>
          <path id="Path_998158" data-name="Path 998158" d="M458.966,173.968l-25.891,5.094a1.643,1.643,0,0,1-1.93-1.3l-.142-.719a1.643,1.643,0,0,1,1.294-1.93l25.89-5.093a1.643,1.643,0,0,1,1.93,1.294l.142.719A1.643,1.643,0,0,1,458.966,173.968Z" transform="translate(-420.157 -155.658)" fill="#f0f0f0"/>
          <path id="Path_998159" data-name="Path 998159" d="M461.109,184.863l-25.89,5.094a1.644,1.644,0,0,1-1.93-1.3l-.142-.719a1.644,1.644,0,0,1,1.3-1.93l25.891-5.094a1.643,1.643,0,0,1,1.93,1.3l.142.719A1.643,1.643,0,0,1,461.109,184.863Z" transform="translate(-420.316 -156.465)" fill="#f0f0f0"/>
          <path id="Path_998160" data-name="Path 998160" d="M463.253,195.758l-25.891,5.094a1.643,1.643,0,0,1-1.93-1.3l-.142-.719a1.643,1.643,0,0,1,1.3-1.93l25.89-5.094a1.643,1.643,0,0,1,1.93,1.3l.142.719A1.643,1.643,0,0,1,463.253,195.758Z" transform="translate(-420.474 -157.273)" fill="#f0f0f0"/>
          <path id="Path_998161" data-name="Path 998161" d="M451.624,209.58l-12.117,2.384a1.644,1.644,0,0,1-1.93-1.3l-.142-.719a1.643,1.643,0,0,1,1.294-1.93l12.117-2.384a1.643,1.643,0,0,1,1.93,1.3l.142.719A1.643,1.643,0,0,1,451.624,209.58Z" transform="translate(-420.633 -158.297)" fill="#f0f0f0"/>
        </g>
        <g id="Group_1183328" data-name="Group 1183328" transform="translate(93.891)">
          <g id="Group_1183327" data-name="Group 1183327">
            <path id="Path_998162" data-name="Path 998162" d="M159.284,116.152,123.23,126.268a6.2,6.2,0,0,1-7.643-4.294L101.635,72.251a6.2,6.2,0,0,1,4.294-7.643l36.054-10.116a6.2,6.2,0,0,1,7.644,4.294l13.951,49.723A6.2,6.2,0,0,1,159.284,116.152Z" transform="translate(-101.403 -54.259)" fill="#e6e6e6"/>
          </g>
          <path id="Path_998163" data-name="Path 998163" d="M142.879,74.6l-26.138,7.333a2.127,2.127,0,0,1-2.622-1.473h0a2.127,2.127,0,0,1,1.473-2.622l26.138-7.333a2.125,2.125,0,0,1,2.621,1.473h0A2.124,2.124,0,0,1,142.879,74.6Z" transform="translate(-102.339 -55.457)" fill="#f0f0f0"/>
          <path id="Path_998164" data-name="Path 998164" d="M146.054,85.919l-26.138,7.333a2.126,2.126,0,0,1-2.621-1.473h0a2.126,2.126,0,0,1,1.473-2.621l26.138-7.333a2.127,2.127,0,0,1,2.622,1.473h0A2.128,2.128,0,0,1,146.054,85.919Z" transform="translate(-102.575 -56.296)" fill="#f0f0f0"/>
          <path id="Path_998165" data-name="Path 998165" d="M149.228,97.232l-26.138,7.333a2.126,2.126,0,0,1-2.622-1.473h0a2.126,2.126,0,0,1,1.473-2.621l26.138-7.333a2.126,2.126,0,0,1,2.621,1.473h0A2.125,2.125,0,0,1,149.228,97.232Z" transform="translate(-102.81 -57.134)" fill="#f0f0f0"/>
          <path id="Path_998166" data-name="Path 998166" d="M138.1,112.88l-11.836,3.32a2.127,2.127,0,0,1-2.622-1.473h0a2.126,2.126,0,0,1,1.473-2.622l11.836-3.321a2.127,2.127,0,0,1,2.622,1.473h0A2.128,2.128,0,0,1,138.1,112.88Z" transform="translate(-103.045 -58.293)" fill="#f0f0f0"/>
        </g>
        <g id="Group_1183330" data-name="Group 1183330" transform="translate(616.662 110.332)">
          <g id="Group_1183329" data-name="Group 1183329">
            <path id="Path_998167" data-name="Path 998167" d="M691.626,216.835l-23.123-5.49a3.252,3.252,0,0,1-2.413-3.915l7.48-31.511a3.251,3.251,0,0,1,3.915-2.412L700.608,179a3.252,3.252,0,0,1,2.413,3.915l-7.48,31.511A3.252,3.252,0,0,1,691.626,216.835Z" transform="translate(-666.001 -173.419)" fill="#e6e6e6"/>
          </g>
          <path id="Path_998168" data-name="Path 998168" d="M695.432,189.641l-16.04-3.808a1.292,1.292,0,0,1-.958-1.555h0a1.292,1.292,0,0,1,1.555-.958l16.04,3.808a1.292,1.292,0,0,1,.958,1.555h0A1.291,1.291,0,0,1,695.432,189.641Z" transform="translate(-666.92 -174.15)" fill="#f0f0f0"/>
          <path id="Path_998169" data-name="Path 998169" d="M693.783,196.583l-16.04-3.807a1.292,1.292,0,0,1-.958-1.555h0a1.292,1.292,0,0,1,1.555-.958l16.04,3.808a1.291,1.291,0,0,1,.958,1.555h0A1.29,1.29,0,0,1,693.783,196.583Z" transform="translate(-666.797 -174.664)" fill="#f0f0f0"/>
          <path id="Path_998170" data-name="Path 998170" d="M692.135,203.527l-16.04-3.807a1.292,1.292,0,0,1-.958-1.555h0a1.292,1.292,0,0,1,1.555-.958l16.04,3.807a1.292,1.292,0,0,1,.958,1.555h0A1.29,1.29,0,0,1,692.135,203.527Z" transform="translate(-666.675 -175.179)" fill="#f0f0f0"/>
          <path id="Path_998171" data-name="Path 998171" d="M681.711,208.385l-7.263-1.724a1.292,1.292,0,0,1-.958-1.555h0a1.292,1.292,0,0,1,1.555-.958l7.263,1.724a1.292,1.292,0,0,1,.958,1.555h0A1.291,1.291,0,0,1,681.711,208.385Z" transform="translate(-666.553 -175.693)" fill="#f0f0f0"/>
        </g>
        <g id="Group_1183332" data-name="Group 1183332" transform="translate(37.897 198.216)">
          <g id="Group_1183331" data-name="Group 1183331">
            <path id="Path_998172" data-name="Path 998172" d="M72.935,298.544l-17.324,7.345a3.252,3.252,0,0,1-4.263-1.724L41.188,280.2a3.252,3.252,0,0,1,1.724-4.263l17.325-7.345a3.252,3.252,0,0,1,4.263,1.724l10.16,23.964A3.252,3.252,0,0,1,72.935,298.544Z" transform="translate(-40.93 -268.335)" fill="#e6e6e6"/>
          </g>
          <path id="Path_998173" data-name="Path 998173" d="M62.044,278.7l-12.7,5.383a1.08,1.08,0,0,1-1.416-.573h0a1.08,1.08,0,0,1,.573-1.416l12.7-5.383a1.08,1.08,0,0,1,1.416.573h0A1.081,1.081,0,0,1,62.044,278.7Z" transform="translate(-41.442 -268.949)" fill="#f0f0f0"/>
          <path id="Path_998174" data-name="Path 998174" d="M64.374,284.2l-12.7,5.383a1.08,1.08,0,0,1-1.416-.573h0a1.08,1.08,0,0,1,.573-1.416l12.7-5.383a1.081,1.081,0,0,1,1.417.573h0A1.081,1.081,0,0,1,64.374,284.2Z" transform="translate(-41.615 -269.356)" fill="#f0f0f0"/>
          <path id="Path_998175" data-name="Path 998175" d="M66.7,289.691l-12.7,5.383a1.08,1.08,0,0,1-1.416-.573h0a1.08,1.08,0,0,1,.573-1.416l12.7-5.383a1.082,1.082,0,0,1,1.417.573h0A1.081,1.081,0,0,1,66.7,289.691Z" transform="translate(-41.787 -269.763)" fill="#f0f0f0"/>
          <path id="Path_998176" data-name="Path 998176" d="M62.087,298.368l-5.749,2.438a1.08,1.08,0,0,1-1.416-.573h0a1.08,1.08,0,0,1,.573-1.417l5.749-2.438a1.079,1.079,0,0,1,1.416.573h0A1.081,1.081,0,0,1,62.087,298.368Z" transform="translate(-41.96 -270.406)" fill="#f0f0f0"/>
        </g>
      </g>
      <g id="Shadow" transform="translate(32.329 412.739)">
        <g id="Group_1183334" data-name="Group 1183334">
          <g id="Group_1183333" data-name="Group 1183333">
            <path id="Path_998177" data-name="Path 998177" d="M664.695,447.935c0,3.138-140.981,5.682-314.889,5.682s-314.889-2.543-314.889-5.682,140.981-5.682,314.889-5.682S664.695,444.8,664.695,447.935Z" transform="translate(-34.916 -442.253)" fill="#f5f5f5"/>
          </g>
        </g>
      </g>
      <g id="Clipboard" transform="translate(122.535 43.862)">
        <g id="Group_1183351" data-name="Group 1183351">
          <path id="Path_998178" data-name="Path 998178" d="M374.674,418.945H139.216a6.877,6.877,0,0,1-6.877-6.877V78.5a6.877,6.877,0,0,1,6.877-6.877H374.674A6.877,6.877,0,0,1,381.55,78.5V412.069A6.876,6.876,0,0,1,374.674,418.945Z" transform="translate(-132.339 -45.919)" fill="#407bff"/>
          <rect id="Rectangle_454948" data-name="Rectangle 454948" width="231.107" height="299.694" transform="translate(9.052 60.341)" opacity="0.3"/>
          <g id="Group_1183348" data-name="Group 1183348" transform="translate(9.47 38.457)">
            <rect id="Rectangle_454949" data-name="Rectangle 454949" width="231.107" height="312.421" fill="#fff"/>
            <rect id="Rectangle_454950" data-name="Rectangle 454950" width="177.942" height="9.612" transform="translate(26.582 29.696)" fill="#e0e0e0"/>
            <rect id="Rectangle_454951" data-name="Rectangle 454951" width="177.943" height="9.612" transform="translate(26.164 284.305)" fill="#e0e0e0"/>
            <g id="Group_1183335" data-name="Group 1183335" transform="translate(33.484 150.715)">
              <rect id="Rectangle_454952" data-name="Rectangle 454952" width="129.054" height="0.926" transform="translate(0 0)" fill="#263238"/>
              <rect id="Rectangle_454953" data-name="Rectangle 454953" width="129.054" height="0.926" transform="translate(0 13.559)" fill="#263238"/>
            </g>
            <g id="Group_1183337" data-name="Group 1183337" transform="translate(179.021 145.865)">
              <path id="Path_998179" data-name="Path 998179" d="M360.323,267.6H335.912V243.189h24.411Zm-23.484-.926H359.4V244.115H336.839Z" transform="translate(-335.912 -242.951)" fill="#263238"/>
              <g id="Group_1183336" data-name="Group 1183336" transform="translate(2.371)">
                <path id="Path_998180" data-name="Path 998180" d="M351.327,264.7l-12.854-9.571,3.341-4.486,8.618,6.418,11.843-14.128,4.285,3.592Z" transform="translate(-338.473 -242.932)" fill="#407bff"/>
              </g>
            </g>
            <g id="Group_1183338" data-name="Group 1183338" transform="translate(33.484 107.818)">
              <rect id="Rectangle_454954" data-name="Rectangle 454954" width="129.054" height="0.926" fill="#263238"/>
              <rect id="Rectangle_454955" data-name="Rectangle 454955" width="129.054" height="0.926" transform="translate(0 13.558)" fill="#263238"/>
            </g>
            <g id="Group_1183340" data-name="Group 1183340" transform="translate(179.021 102.967)">
              <path id="Path_998181" data-name="Path 998181" d="M360.323,221.27H335.912V196.859h24.411Zm-23.484-.926H359.4V197.785H336.839Z" transform="translate(-335.912 -196.621)" fill="#263238"/>
              <g id="Group_1183339" data-name="Group 1183339" transform="translate(2.371)">
                <path id="Path_998182" data-name="Path 998182" d="M351.327,218.368,338.473,208.8l3.341-4.485,8.618,6.418L362.276,196.6l4.285,3.593Z" transform="translate(-338.473 -196.602)" fill="#407bff"/>
              </g>
            </g>
            <g id="Group_1183341" data-name="Group 1183341" transform="translate(33.484 64.922)">
              <rect id="Rectangle_454956" data-name="Rectangle 454956" width="129.054" height="0.926" fill="#263238"/>
              <rect id="Rectangle_454957" data-name="Rectangle 454957" width="129.054" height="0.926" transform="translate(0 13.558)" fill="#263238"/>
            </g>
            <g id="Group_1183343" data-name="Group 1183343" transform="translate(179.021 60.071)">
              <path id="Path_998183" data-name="Path 998183" d="M360.323,174.941H335.912V150.53h24.411Zm-23.484-.926H359.4V151.456H336.839Z" transform="translate(-335.912 -150.292)" fill="#263238"/>
              <g id="Group_1183342" data-name="Group 1183342" transform="translate(2.371)">
                <path id="Path_998184" data-name="Path 998184" d="M351.327,172.039l-12.854-9.571,3.341-4.485,8.618,6.418,11.843-14.128,4.285,3.592Z" transform="translate(-338.473 -150.273)" fill="#407bff"/>
              </g>
            </g>
            <g id="Group_1183344" data-name="Group 1183344" transform="translate(33.484 192.877)">
              <rect id="Rectangle_454958" data-name="Rectangle 454958" width="129.054" height="0.926" fill="#263238"/>
              <rect id="Rectangle_454959" data-name="Rectangle 454959" width="129.054" height="0.926" transform="translate(0 13.559)" fill="#263238"/>
            </g>
            <g id="Group_1183345" data-name="Group 1183345" transform="translate(179.021 188.265)">
              <path id="Path_998185" data-name="Path 998185" d="M360.323,313.134H335.912v-24.41h24.411Zm-23.484-.926H359.4V289.65H336.839Z" transform="translate(-335.912 -288.724)" fill="#263238"/>
            </g>
            <g id="Group_1183346" data-name="Group 1183346" transform="translate(33.484 235.038)">
              <rect id="Rectangle_454960" data-name="Rectangle 454960" width="129.054" height="0.926" fill="#263238"/>
              <rect id="Rectangle_454961" data-name="Rectangle 454961" width="129.054" height="0.926" transform="translate(0 13.558)" fill="#263238"/>
            </g>
            <g id="Group_1183347" data-name="Group 1183347" transform="translate(179.021 230.425)">
              <path id="Path_998186" data-name="Path 998186" d="M360.323,358.669H335.912V334.258h24.411Zm-23.484-.926H359.4V335.184H336.839Z" transform="translate(-335.912 -334.258)" fill="#263238"/>
            </g>
          </g>
          <g id="Group_1183350" data-name="Group 1183350" transform="translate(85.078)">
            <g id="Group_1183349" data-name="Group 1183349">
              <rect id="Rectangle_454962" data-name="Rectangle 454962" width="79.055" height="29.816" transform="translate(0 19.695)" fill="#263238"/>
              <path id="Path_998187" data-name="Path 998187" d="M289.835,66.566H243.606l-5.155-22.7h57.711Z" transform="translate(-225.278 -43.862)" fill="#263238"/>
            </g>
            <path id="Path_998188" data-name="Path 998188" d="M295.2,43.862C295.15,44,289.047,63.3,289.2,63.3h5.246L300,43.862H295.2Z" transform="translate(-229.037 -43.862)" opacity="0.3"/>
            <path id="Path_998189" data-name="Path 998189" d="M304.077,65.133s-.381,29.816,0,29.816h5.1V65.133Z" transform="translate(-230.127 -45.438)" opacity="0.3"/>
          </g>
        </g>
      </g>
      <g id="Speech_Bubble_2" transform="translate(557.795 113.46)">
        <g id="Group_1183355" data-name="Group 1183355">
          <g id="Group_1183354" data-name="Group 1183354" transform="translate(0 2.171)">
            <g id="Group_1183352" data-name="Group 1183352">
              <path id="Path_998190" data-name="Path 998190" d="M638.178,121.374H613.762a11.337,11.337,0,0,0-11.337,11.337v13.681a11.337,11.337,0,0,0,11.337,11.337h5.554l.887,6.322,6.739-6.322h11.237a11.336,11.336,0,0,0,11.336-11.337V132.711A11.336,11.336,0,0,0,638.178,121.374Z" transform="translate(-602.425 -121.374)" fill="#407bff"/>
            </g>
            <g id="Group_1183353" data-name="Group 1183353" transform="translate(10.554 15.304)">
              <path id="Path_998191" data-name="Path 998191" d="M635.581,140.82A2.918,2.918,0,1,0,638.5,137.9,2.919,2.919,0,0,0,635.581,140.82Z" transform="translate(-615.435 -137.902)" fill="#fff"/>
              <path id="Path_998192" data-name="Path 998192" d="M624.844,140.82a2.918,2.918,0,1,0,2.918-2.918A2.919,2.919,0,0,0,624.844,140.82Z" transform="translate(-614.639 -137.902)" fill="#fff"/>
              <path id="Path_998193" data-name="Path 998193" d="M613.823,140.82a2.918,2.918,0,1,0,2.918-2.918A2.919,2.919,0,0,0,613.823,140.82Z" transform="translate(-613.823 -137.902)" fill="#fff"/>
            </g>
          </g>
          <path id="Path_998194" data-name="Path 998194" d="M640.453,119.029H624.966a.347.347,0,0,0,0,.694h15.487a.347.347,0,0,0,0-.694Z" transform="translate(-604.07 -119.029)" fill="#407bff"/>
          <path id="Path_998195" data-name="Path 998195" d="M622.764,119.029h-1.3a.347.347,0,0,0,0,.694h1.3a.347.347,0,0,0,0-.694Z" transform="translate(-603.81 -119.029)" fill="#407bff"/>
        </g>
      </g>
      <g id="Speech_Bubble_1" transform="translate(49.741 114.584)">
        <g id="Group_1183359" data-name="Group 1183359">
          <g id="Group_1183358" data-name="Group 1183358" transform="translate(0 2.107)">
            <g id="Group_1183356" data-name="Group 1183356">
              <path id="Path_998196" data-name="Path 998196" d="M64.658,122.518H88.213A10.936,10.936,0,0,1,99.15,133.455v13.2a10.938,10.938,0,0,1-10.937,10.937H82.856L82,163.69l-6.5-6.1H64.658a10.938,10.938,0,0,1-10.937-10.937v-13.2A10.936,10.936,0,0,1,64.658,122.518Z" transform="translate(-53.721 -122.518)" fill="#407bff"/>
            </g>
            <g id="Group_1183357" data-name="Group 1183357" transform="translate(10.181 14.764)">
              <path id="Path_998197" data-name="Path 998197" d="M70.347,141.279a2.815,2.815,0,1,1-2.816-2.816A2.815,2.815,0,0,1,70.347,141.279Z" transform="translate(-64.717 -138.463)" fill="#fff"/>
              <path id="Path_998198" data-name="Path 998198" d="M80.706,141.279a2.815,2.815,0,1,1-2.815-2.816A2.815,2.815,0,0,1,80.706,141.279Z" transform="translate(-65.484 -138.463)" fill="#fff"/>
              <path id="Path_998199" data-name="Path 998199" d="M91.339,141.279a2.815,2.815,0,1,1-2.816-2.816A2.815,2.815,0,0,1,91.339,141.279Z" transform="translate(-66.272 -138.463)" fill="#fff"/>
            </g>
          </g>
          <path id="Path_998200" data-name="Path 998200" d="M64.849,120.936H79.79a.347.347,0,0,0,0-.694H64.849a.347.347,0,0,0,0,.694Z" transform="translate(-54.521 -120.242)" fill="#407bff"/>
          <path id="Path_998201" data-name="Path 998201" d="M83.008,120.936H84.26a.347.347,0,1,0,0-.694H83.008a.347.347,0,1,0,0,.694Z" transform="translate(-55.865 -120.242)" fill="#407bff"/>
        </g>
      </g>
      <g id="Clock" transform="translate(385.746 50.136)">
        <g id="Group_1183364" data-name="Group 1183364">
          <g id="Group_1183363" data-name="Group 1183363">
            <g id="Group_1183361" data-name="Group 1183361">
              <ellipse id="Ellipse_13634" data-name="Ellipse 13634" cx="25.73" cy="25.731" rx="25.73" ry="25.731" transform="translate(0 30.609) rotate(-36.497)" fill="#407bff"/>
              <ellipse id="Ellipse_13635" data-name="Ellipse 13635" cx="25.73" cy="25.731" rx="25.73" ry="25.731" transform="translate(0 30.609) rotate(-36.497)" opacity="0.3"/>
              <path id="Path_998202" data-name="Path 998202" d="M469.862,104.389A25.731,25.731,0,1,1,470.4,68,25.73,25.73,0,0,1,469.862,104.389Z" transform="translate(-417.321 -51.346)" fill="#407bff"/>
              <circle id="Ellipse_13636" data-name="Ellipse 13636" cx="21.377" cy="21.377" r="21.377" transform="translate(4.699 38.846) rotate(-53.146)" fill="#fff"/>
              <g id="Group_1183360" data-name="Group 1183360" transform="translate(16.306 16.425)">
                <path id="Path_998203" data-name="Path 998203" d="M442.274,101.7l2.84-4.207c.083.056.167.111.251.166l-2.736,4.275C442.509,101.857,442.391,101.779,442.274,101.7Zm-5.668-6.135q-.106-.185-.206-.374l4.477-2.39c.047.088.1.176.144.262Zm13.89,9.168.557-5.044.315.032-.463,5.054Zm-16.266-17.6c0-.141-.007-.281-.009-.421l5.076-.05.006.306Zm24.951,16.462-1.847-4.727.286-.115,2.023,4.655-.12.05C459.438,103.492,459.31,103.543,459.18,103.594ZM436.047,78.567c.061-.128.124-.254.188-.38l4.52,2.308c-.046.089-.091.18-.134.27Zm26.505,16.618c.063-.072.124-.145.185-.219l3.919,3.225c-.093.113-.187.223-.282.333ZM444.651,75.9l-3.011-4.085.33-.238,2.94,4.137Zm20.769,13.654.068-.3,4.964,1.061c-.029.136-.059.271-.092.406ZM450.5,73.45l-.783-5.014c.134-.021.27-.041.406-.058l.693,5.027Zm14.848,9.769c-.025-.1-.05-.19-.078-.285l4.88-1.394c.04.138.077.277.113.415Zm-8.541-9.213,1.639-4.8c.137.047.274.1.411.146L457.083,74.1C456.992,74.07,456.9,74.037,456.809,74.007Zm5.538,3.639-.206-.222,3.683-3.493c.1.1.193.206.287.309Z" transform="translate(-434.22 -68.378)"/>
              </g>
            </g>
            <g id="Group_1183362" data-name="Group 1183362" transform="translate(28.776 26.17)">
              <path id="Path_998204" data-name="Path 998204" d="M453.253,88.606a.488.488,0,0,1-.063,0,.465.465,0,0,1-.337-.226l-5.1-8.777a.464.464,0,0,1,.8-.466l4.8,8.265,7.83-7.618a.463.463,0,1,1,.645.664l-8.255,8.03A.469.469,0,0,1,453.253,88.606Z" transform="translate(-447.688 -78.903)"/>
              <path id="Path_998205" data-name="Path 998205" d="M455.083,89.1a1.6,1.6,0,1,1-.148-2.253A1.6,1.6,0,0,1,455.083,89.1Z" transform="translate(-448.029 -79.462)"/>
            </g>
          </g>
          <path id="Path_998206" data-name="Path 998206" d="M438.026,72.5a21.374,21.374,0,0,1,34.76,7.458,21.371,21.371,0,1,0-40.332,14.033A21.364,21.364,0,0,1,438.026,72.5Z" transform="translate(-417.672 -51.683)" opacity="0.3"/>
        </g>
      </g>
      <g id="Plant" transform="translate(47.727 327.841)">
        <g id="freepik--Plant--inject-2">
          <path id="Path_998207" data-name="Path 998207" d="M69.721,429.8c0-.392-4.081-39.673,4.933-73.087l1.153.3c-8.944,33.207-4.933,72.281-4.933,72.672Z" transform="translate(-52.824 -351.018)" fill="#263238"/>
          <path id="Path_998208" data-name="Path 998208" d="M79.53,365.86s-12.414,23.053-9.935,50.22C69.594,416.079,74.758,382.7,79.53,365.86Z" transform="translate(-52.859 -351.696)" fill="#407bff"/>
          <path id="Path_998209" data-name="Path 998209" d="M53.7,353.536s18.119,25.484,14.984,58.023C68.66,411.593,61.617,370.676,53.7,353.536Z" transform="translate(-51.705 -350.783)" fill="#407bff"/>
          <path id="Path_998210" data-name="Path 998210" d="M68.443,421.222s3.918-33.645-16.9-43.362C51.488,377.86,62.588,386.066,68.443,421.222Z" transform="translate(-51.546 -352.585)" fill="#407bff"/>
          <path id="Path_998211" data-name="Path 998211" d="M72,356.773l-.381.069a1,1,0,0,0-.808,1.166,1.03,1.03,0,0,0,.024.1l.461,1.671a1,1,0,0,0,1.671.45l.622-.6a1.014,1.014,0,0,1,1.648.38l.842,2.306a1,1,0,0,0,1.282.606,1.088,1.088,0,0,0,.181-.086l1.936-1.153a1,1,0,0,0,.207-1.556l-.311-.323a1.014,1.014,0,0,1,.7-1.706h1.683a1,1,0,0,0,.979-1.026.962.962,0,0,0-.011-.127l-.184-1.441a1,1,0,0,0-1.121-.868,1.025,1.025,0,0,0-.32.1l-.116.057a1.015,1.015,0,0,1-1.36-1.315l.553-1.268a1,1,0,0,0-.52-1.319.985.985,0,0,0-.275-.075l-1.787-.242a1,1,0,0,0-1.142.842.964.964,0,0,0-.011.127h0a1.014,1.014,0,0,1-1.89.461l-.231-.415a1.014,1.014,0,0,0-1.384-.376,1,1,0,0,0-.183.134l-1.326,1.244a1.015,1.015,0,0,0-.042,1.434l.042.042,1.06.98A1.011,1.011,0,0,1,72,356.773Z" transform="translate(-52.972 -350.563)" fill="#407bff"/>
          <path id="Path_998212" data-name="Path 998212" d="M72,356.773l-.381.069a1,1,0,0,0-.808,1.166,1.03,1.03,0,0,0,.024.1l.461,1.671a1,1,0,0,0,1.671.45l.622-.6a1.014,1.014,0,0,1,1.648.38l.842,2.306a1,1,0,0,0,1.282.606,1.088,1.088,0,0,0,.181-.086l1.936-1.153a1,1,0,0,0,.207-1.556l-.311-.323a1.014,1.014,0,0,1,.7-1.706h1.683a1,1,0,0,0,.979-1.026.962.962,0,0,0-.011-.127l-.184-1.441a1,1,0,0,0-1.121-.868,1.025,1.025,0,0,0-.32.1l-.116.057a1.015,1.015,0,0,1-1.36-1.315l.553-1.268a1,1,0,0,0-.52-1.319.985.985,0,0,0-.275-.075l-1.787-.242a1,1,0,0,0-1.142.842.964.964,0,0,0-.011.127h0a1.014,1.014,0,0,1-1.89.461l-.231-.415a1.014,1.014,0,0,0-1.384-.376,1,1,0,0,0-.183.134l-1.326,1.244a1.015,1.015,0,0,0-.042,1.434l.042.042,1.06.98A1.011,1.011,0,0,1,72,356.773Z" transform="translate(-52.972 -350.563)" fill="#fff" opacity="0.7"/>
          <path id="Path_998213" data-name="Path 998213" d="M72.3,414.443l1.453-11.238H61.069l1.441,11.238a15.042,15.042,0,0,0-10.143,14.2,24.855,24.855,0,0,0,2.467,10.017,8.781,8.781,0,0,0,7.988,5h9.221a8.747,8.747,0,0,0,7.976-5A24.688,24.688,0,0,0,82.5,428.643,14.982,14.982,0,0,0,72.3,414.443Z" transform="translate(-51.607 -354.463)" fill="#407bff"/>
          <path id="Path_998214" data-name="Path 998214" d="M72.3,414.443l1.453-11.238H61.069l1.441,11.238a15.042,15.042,0,0,0-10.143,14.2,24.855,24.855,0,0,0,2.467,10.017,8.781,8.781,0,0,0,7.988,5h9.221a8.747,8.747,0,0,0,7.976-5A24.688,24.688,0,0,0,82.5,428.643,14.982,14.982,0,0,0,72.3,414.443Z" transform="translate(-51.607 -354.463)" fill="#fff" opacity="0.7"/>
        </g>
      </g>
      <g id="Character_3" transform="translate(522.852 155.722)">
        <g id="Group_1183380" data-name="Group 1183380" transform="translate(0 0)">
          <g id="Group_1183365" data-name="Group 1183365" transform="translate(12.228 54.473)">
            <path id="Path_998215" data-name="Path 998215" d="M597.265,304.815l-6.645-.433s-4.658-34.146-5.1-35.507c-.613-2.48-4.342-21.52-5.815-26.38l.712-.111c-.791-2.5-.118-5.2,2.462-6.051s6.121.544,6.922,3.025c1.661,5.043,4.826,24.2,5.3,26.5a.934.934,0,0,1,0,.161C596.612,276.013,597.265,304.815,597.265,304.815Z" transform="translate(-578.026 -224.436)" fill="#b97964"/>
            <path id="Path_998216" data-name="Path 998216" d="M597.376,310.281c0,3.106-2.768,4.709-4.767,4.921H582.067l-.613-.151a.357.357,0,0,1-.139-.606l1.9-1.553c2.1-1.724,4.944-2.289,7.516-3.025Z" transform="translate(-578.137 -229.902)" fill="#b97964"/>
            <path id="Path_998217" data-name="Path 998217" d="M583.639,224.91a7.255,7.255,0,0,0-2.371,1.321c-7.041,7.262-.882,26.028-.882,26.028l13.261-1.25s1.315-15.993-.188-20.986C591.867,224.789,588.8,221.471,583.639,224.91Z" transform="translate(-577.892 -223.504)" fill="#407bff"/>
            <path id="Path_998218" data-name="Path 998218" d="M594.5,250.514l-6.917-7.982,6.778,9.886Z" transform="translate(-578.611 -224.913)" opacity="0.2"/>
          </g>
          <g id="Group_1183368" data-name="Group 1183368" transform="translate(46.173 239.14)">
            <path id="Path_998219" data-name="Path 998219" d="M632.2,422.946l1.172,12.291,9.244,1.012.938-13.217Z" transform="translate(-615.86 -422.946)" fill="#e4897b"/>
            <g id="Group_1183367" data-name="Group 1183367" transform="translate(0 9.312)">
              <g id="Group_1183366" data-name="Group 1183366">
                <path id="Path_998220" data-name="Path 998220" d="M630.061,433.856a.84.84,0,0,1,.879-.852l2.81.108c.71.01,1.434,1.331,1.846,1.921,1.776,2.545,3.149,1.612,5.149-.731,1.254-.131,1.57,1.338,1.668,1.732l2.23,8.734a1.372,1.372,0,0,1-.944,1.68,1.321,1.321,0,0,1-.391.047l-10.357-.143-14.505-.2c-3.955-.055-4.719-4.131-3.086-4.483,7.347-1.549,12.563-3.675,14.855-5.816C630.535,435.569,630.1,434.746,630.061,433.856Z" transform="translate(-614.553 -433.003)" fill="#407bff"/>
                <path id="Path_998221" data-name="Path 998221" d="M632.461,439.014a.232.232,0,0,1-.2-.112,3.548,3.548,0,0,0-2.479-1.678.231.231,0,0,1,.07-.457,4.018,4.018,0,0,1,2.806,1.9.234.234,0,0,1-.08.319A.228.228,0,0,1,632.461,439.014Z" transform="translate(-615.667 -433.282)" fill="#fff"/>
                <path id="Path_998222" data-name="Path 998222" d="M630.211,440.322a.232.232,0,0,1-.2-.112,3.554,3.554,0,0,0-2.478-1.679.231.231,0,0,1-.194-.264.233.233,0,0,1,.264-.194,4.025,4.025,0,0,1,2.8,1.9.234.234,0,0,1-.08.319A.238.238,0,0,1,630.211,440.322Z" transform="translate(-615.5 -433.379)" fill="#fff"/>
                <path id="Path_998223" data-name="Path 998223" d="M627.443,441.64a.232.232,0,0,1-.2-.112,3.55,3.55,0,0,0-2.478-1.679.231.231,0,0,1-.193-.264.235.235,0,0,1,.264-.194,4.023,4.023,0,0,1,2.8,1.9.234.234,0,0,1-.08.319A.228.228,0,0,1,627.443,441.64Z" transform="translate(-615.295 -433.476)" fill="#fff"/>
              </g>
            </g>
          </g>
          <path id="Path_998224" data-name="Path 998224" d="M585.81,237.422c3.461,6.121,10.878,14.32,30.656,26.936l24.387-19.16c-8.2-9.993-12.441-15.7-22.449-37.265a10.618,10.618,0,0,0-5.9-5.219,7.294,7.294,0,0,0-5.419.837c-1.809,1.079-3.778,2.319-5.7,3.691A109.043,109.043,0,0,0,588.944,217c-2.73,2.571-5.459,5.517-7.407,7.674a6.759,6.759,0,0,0,.158,1.14A35.45,35.45,0,0,0,585.81,237.422Z" transform="translate(-565.934 -167.476)" fill="#407bff"/>
          <g id="Group_1183373" data-name="Group 1183373" transform="translate(0.815)">
            <path id="Path_998225" data-name="Path 998225" d="M569.624,177.54a14.322,14.322,0,0,0-3.681,13.189c1.675,4.557,4.039,7.5,6.325,11.764l6.118-30.557C575.637,173.216,574.207,172.934,569.624,177.54Z" transform="translate(-565.567 -165.21)" fill="#263238"/>
            <path id="Path_998226" data-name="Path 998226" d="M575.527,173.56c4.316-3.453,9.659-1.926,12.842-.735a14.178,14.178,0,0,1,7.239,9.2c.845,3.752,1.871,8.3.066,10.8a6.23,6.23,0,0,1-4.266,2.625L569.222,182.8A22.676,22.676,0,0,1,575.527,173.56Z" transform="translate(-565.838 -165.174)" fill="#263238"/>
            <path id="Path_998227" data-name="Path 998227" d="M597.05,226.5c2.015.494,2.184-3.437,3.388-5.166,3.354-8.657.725-13.984.725-13.984-3.2-1.009-4-2.313-5.816-6.749a2.947,2.947,0,0,0-.2-.361,3.091,3.091,0,0,0-5.439.465l0,0-3.545,4.062h0l.08.214c1.35,2.2,2.468,3.857,3.284,5.2a3.848,3.848,0,0,0,.292.494h0a3.048,3.048,0,0,0,.287.506c1.035,1.9-.432,4.537-1.273,5.977C588.349,218.087,590.231,224.851,597.05,226.5Z" transform="translate(-567.092 -167.201)" fill="#b97964"/>
            <path id="Path_998228" data-name="Path 998228" d="M584.344,205.566a.763.763,0,0,0-.006-.238h0l4.637-2.7a3.055,3.055,0,0,1,4.353-.173,3.161,3.161,0,0,1,.9,1.573h0l-4.409,7.13s-3.259-4.98-3.3-4.98S584.344,205.566,584.344,205.566Z" transform="translate(-566.957 -167.41)" opacity="0.2"/>
            <path id="Path_998229" data-name="Path 998229" d="M593.152,184.007c1.763,8.722,2.7,12.358-.31,18.063-4.534,8.57-15.223,9.188-19.5,1.252-3.793-7.16-6.076-20.184,1.1-26.136S591.379,175.276,593.152,184.007Z" transform="translate(-565.878 -165.39)" fill="#b97964"/>
            <path id="Path_998230" data-name="Path 998230" d="M600.338,191.442a7.352,7.352,0,0,1-3.081,4.6c-2.054,1.317-4.351-1.926-4.3-4.443a4.828,4.828,0,0,1,4.124-4.638C599.357,186.68,600.846,189.059,600.338,191.442Z" transform="translate(-567.596 -166.322)" fill="#b97964"/>
            <path id="Path_998231" data-name="Path 998231" d="M595.654,192.919a.232.232,0,0,1-.225-.177,3.594,3.594,0,0,1,.393-2.643,3.533,3.533,0,0,1,2.114-1.614.234.234,0,0,1,.283.164.231.231,0,0,1-.164.283,3.062,3.062,0,0,0-1.833,1.4,3.114,3.114,0,0,0-.342,2.3.232.232,0,0,1-.171.28A.286.286,0,0,1,595.654,192.919Z" transform="translate(-567.772 -166.436)" opacity="0.2"/>
            <g id="Group_1183370" data-name="Group 1183370" transform="translate(4.139 20.123)">
              <g id="Group_1183369" data-name="Group 1183369">
                <path id="Path_998232" data-name="Path 998232" d="M583.711,191.646c.244.917-.006,1.819-.557,2.018s-1.194-.384-1.437-1.3.006-1.819.557-2.018S583.467,190.73,583.711,191.646Z" transform="translate(-570.895 -186.695)" fill="#263238"/>
                <path id="Path_998233" data-name="Path 998233" d="M574.722,194.642c.233.889-.022,1.769-.571,1.967s-1.184-.363-1.418-1.252.022-1.769.571-1.967S574.489,193.754,574.722,194.642Z" transform="translate(-570.23 -186.92)" fill="#263238"/>
                <path id="Path_998234" data-name="Path 998234" d="M584.389,187.623a.393.393,0,0,1-.331,0,3.162,3.162,0,0,0-3.026.15.393.393,0,0,1-.575-.12.489.489,0,0,1,.143-.63,3.951,3.951,0,0,1,3.824-.235.45.45,0,0,1,.2.593A.479.479,0,0,1,584.389,187.623Z" transform="translate(-570.804 -186.406)" fill="#263238"/>
                <path id="Path_998235" data-name="Path 998235" d="M570.382,190.966a.323.323,0,0,1-.252-.121.489.489,0,0,1,.036-.619,3.653,3.653,0,0,1,3.345-1.374.4.4,0,0,1,.262.51.42.42,0,0,1-.468.348,2.931,2.931,0,0,0-2.64,1.121A.383.383,0,0,1,570.382,190.966Z" transform="translate(-570.037 -186.584)" fill="#263238"/>
                <path id="Path_998236" data-name="Path 998236" d="M577.093,193.475a31.076,31.076,0,0,1-1.173,6.127.685.685,0,0,0,.623.9,4.386,4.386,0,0,0,2.271-.723Z" transform="translate(-570.47 -186.929)" fill="#a24e3f"/>
              </g>
              <path id="Path_998237" data-name="Path 998237" d="M582.515,190.274l-2.081.188S581.952,191.566,582.515,190.274Z" transform="translate(-570.807 -186.692)" fill="#263238"/>
              <path id="Path_998238" data-name="Path 998238" d="M573.412,193.343l-2.081.188S572.85,194.636,573.412,193.343Z" transform="translate(-570.133 -186.92)" fill="#263238"/>
            </g>
            <g id="Group_1183371" data-name="Group 1183371" transform="translate(13.58 31.157)">
              <path id="Path_998239" data-name="Path 998239" d="M580.233,202.387a20.463,20.463,0,0,1,2.214,2.03c.148-.1.3-.2.438-.308,1.968-1.411,2.431-2.72,2.346-3.744a3.13,3.13,0,0,0-.494-1.393,2.966,2.966,0,0,0-.532-.649A11.6,11.6,0,0,1,580.9,201.9C580.5,202.209,580.233,202.387,580.233,202.387Z" transform="translate(-580.233 -198.322)" fill="#263238"/>
              <path id="Path_998240" data-name="Path 998240" d="M580.95,201.9l.668.581c1.851-1.333,2.981-2.522,3.172-3.5a2.966,2.966,0,0,0-.532-.649A11.617,11.617,0,0,1,580.95,201.9Z" transform="translate(-580.286 -198.322)" fill="#fff"/>
              <path id="Path_998241" data-name="Path 998241" d="M583.1,204.27c1.969-1.411,2.431-2.72,2.346-3.744a7.916,7.916,0,0,0-1.885,2A3,3,0,0,0,583.1,204.27Z" transform="translate(-580.445 -198.485)" fill="#de5753"/>
            </g>
            <path id="Path_998242" data-name="Path 998242" d="M590.541,186.8s-6.171-4.468-7.415-9.274c0,0-18.4.341-13.333,15.25,0,0-6.768-12.311,7.052-17.963s21.037,12.546,16.039,20.724C592.843,195.473,594.369,189.607,590.541,186.8Z" transform="translate(-565.757 -165.344)" fill="#263238"/>
            <path id="Path_998243" data-name="Path 998243" d="M604.856,170.876a7.466,7.466,0,0,1-6.191,8.405,7.183,7.183,0,0,1-8.2-6.185,7.282,7.282,0,1,1,14.393-2.22Z" transform="translate(-567.406 -164.672)" fill="#263238"/>
            <path id="Path_998244" data-name="Path 998244" d="M570.811,178.261a13.059,13.059,0,0,0-2.056,7.7c.426,1.887,3.27,2.632,3.27,2.632l2.171-4.872.815,3.616a11.907,11.907,0,0,0,8.117-9.61l-3.983-4.426S572.162,176.372,570.811,178.261Z" transform="translate(-565.802 -165.311)" fill="#263238"/>
            <g id="Group_1183372" data-name="Group 1183372" transform="translate(28.274 12.293)">
              <path id="Path_998245" data-name="Path 998245" d="M598.207,177.949a8.791,8.791,0,0,0,4.461,4.354,4.293,4.293,0,0,1-2.72,0,6.636,6.636,0,0,0,.964,2.04,9.224,9.224,0,0,1-4.808-6.366Z" transform="translate(-596.103 -177.949)" fill="#263238"/>
            </g>
          </g>
          <path id="Path_998246" data-name="Path 998246" d="M616.559,266.429l25.435-19.755" transform="translate(-568.529 -170.747)" fill="#407bff"/>
          <g id="Group_1183376" data-name="Group 1183376" transform="translate(119.382 219.73)">
            <path id="Path_998247" data-name="Path 998247" d="M695.627,408.771l8.251,9.039,8.06-4.744-7.126-11.082Z" transform="translate(-693.768 -401.983)" fill="#e4897b"/>
            <g id="Group_1183375" data-name="Group 1183375" transform="translate(0 8.755)">
              <g id="Group_1183374" data-name="Group 1183374">
                <path id="Path_998248" data-name="Path 998248" d="M700.873,418.061a.86.86,0,0,1,.191-1.221l2.3-1.655c.57-.431,1.932.169,2.611.383,2.927.922,3.461-.669,3.656-3.768.918-.881,2.044.09,2.356.344l6.973,5.558a1.382,1.382,0,0,1-.032,2.2l-8.314,6.3-11.644,8.823c-3.174,2.406-6.209-.358-5.121-1.651,4.914-5.781,7.793-10.7,8.339-13.82C702.27,419.129,701.43,418.746,700.873,418.061Z" transform="translate(-693.62 -411.438)" fill="#407bff"/>
                <path id="Path_998249" data-name="Path 998249" d="M702.112,422.127a.231.231,0,0,1-.113-.433,3.956,3.956,0,0,1,3.361-.229.231.231,0,0,1-.169.431,3.492,3.492,0,0,0-2.965.2A.239.239,0,0,1,702.112,422.127Z" transform="translate(-694.232 -412.161)" fill="#fff"/>
                <path id="Path_998250" data-name="Path 998250" d="M701.1,424.56a.231.231,0,0,1-.113-.433,3.953,3.953,0,0,1,3.361-.23.231.231,0,1,1-.169.431,3.5,3.5,0,0,0-2.965.2A.241.241,0,0,1,701.1,424.56Z" transform="translate(-694.157 -412.341)" fill="#fff"/>
                <path id="Path_998251" data-name="Path 998251" d="M699.688,427.322a.231.231,0,0,1-.113-.433,3.962,3.962,0,0,1,3.361-.23.231.231,0,1,1-.169.431,3.491,3.491,0,0,0-2.965.2A.24.24,0,0,1,699.688,427.322Z" transform="translate(-694.052 -412.546)" fill="#fff"/>
              </g>
            </g>
          </g>
          <g id="Group_1183377" data-name="Group 1183377" transform="translate(50.35 77.784)">
            <path id="Path_998252" data-name="Path 998252" d="M619.261,268.733s7.367,94.037,7.427,94.561l4.608,55.04h11.965a66.931,66.931,0,0,1,.7-7.344c5.459-36.6-.139-48.423-.139-48.423s4.806-70.651,6.487-75.976C650.481,286.038,644.755,245.549,619.261,268.733Z" transform="translate(-619.079 -249.635)" fill="#263238"/>
            <path id="Path_998253" data-name="Path 998253" d="M619.064,267.661l.331.55c4.931,6.672,14.275,13.779,19.157,19.873l1.7,3.845s37.759-26.41,14.652-37.767c-.96-.472-10.241-5.4-10.241-5.4C638.54,247.256,619.064,267.661,619.064,267.661Z" transform="translate(-619.064 -248.68)" fill="#263238"/>
            <path id="Path_998254" data-name="Path 998254" d="M670.78,294.452c.148,12.192,1.533,43.832,3.185,55.9,0,0,9.482,7.466,14.357,14.968l14.8,29.1-9.454,6.253-30.405-30c-6.85-6.949-9.336-11.715-11.521-17.826-5.35-14.925-6.393-33.077-8.745-47.649-1.088-6.756-5.864-28.71-4.2-35.295,2.235-8.915,4.724-23.5,14.979-16.892C663.826,257.658,669.77,260.548,670.78,294.452Z" transform="translate(-620.5 -248.877)" fill="#263238"/>
            <path id="Path_998255" data-name="Path 998255" d="M646.387,336.585l-8.743-56.959-9.97-3.325,7.783,7.255Z" transform="translate(-619.702 -250.726)" opacity="0.2"/>
          </g>
          <g id="Group_1183379" data-name="Group 1183379" transform="translate(0 35.295)">
            <path id="Path_998256" data-name="Path 998256" d="M595.775,240.84s16.565,8.065,21.835,5.079,4.3-13.068,4.207-15.026c-.093-1.923-.348-4.012-.348-4.012l1.245-.153-2.6-15.341s-4.217,27.933-5.093,27.933S595.775,240.84,595.775,240.84Z" transform="translate(-566.989 -203.429)" opacity="0.2"/>
            <path id="Path_998257" data-name="Path 998257" d="M618.106,217.3c1.325,5.708,1.039,16.428.86,20.693a8.346,8.346,0,0,1-2.166,5.4c-1.642,1.744-3.4,2.641-8.9,1.1-4.7-1.318-25.479-6.825-25.479-6.825l1.324-5.353s10.751,1.375,24.725,2.968c-.167-6.9.094-16.274.667-18.523C610.1,213.064,616.425,210.07,618.106,217.3Z" transform="translate(-566 -203.539)" fill="#b97964"/>
            <path id="Path_998258" data-name="Path 998258" d="M610.046,203.848c-2.967,2.218-3.332,21.659-3.332,21.659h14.542s.608-13.542-.678-16.819C618.581,203.394,613.369,201.357,610.046,203.848Z" transform="translate(-567.8 -202.792)" fill="#407bff"/>
            <g id="Group_1183378" data-name="Group 1183378" transform="translate(0 25.02)">
              <path id="Path_998259" data-name="Path 998259" d="M585.126,233.631l-5.225-2.61a5.1,5.1,0,0,0-1.851-.509l-3.178-.228a2.323,2.323,0,0,0-2.456,2.192c0,.007,0,.016,0,.023l-.157,2.861a2.337,2.337,0,0,0,1.813,2.376l3.236.712s5.593,2.281,7.265-.554Z" transform="translate(-565.247 -229.848)" fill="#b97964"/>
              <path id="Path_998260" data-name="Path 998260" d="M573.072,233.4c-.094-.575-1.966-.9-3.1-1.075s-4.207-.293-4.852-.835-.538-1.689.106-1.678,2.692-.018,4.306.131,4.724.163,5.4.338S573.072,233.4,573.072,233.4Z" transform="translate(-564.686 -229.814)" fill="#b97964"/>
            </g>
          </g>
        </g>
      </g>
      <g id="Character_2" transform="translate(394.589 182.389)">
        <g id="Group_1183410" data-name="Group 1183410">
          <g id="Group_1183388" data-name="Group 1183388" transform="translate(17.482 56.2)">
            <path id="Path_998261" data-name="Path 998261" d="M466.275,269.311l16.232,8.962,17.191-24.1,6.818,12.319s-16.435,24.641-22.6,24.994-22.323-16.81-22.323-16.81Z" transform="translate(-446.267 -254.17)" fill="#e4897b"/>
            <g id="Group_1183387" data-name="Group 1183387" transform="translate(0 3.248)">
              <g id="Group_1183386" data-name="Group 1183386">
                <g id="Group_1183385" data-name="Group 1183385">
                  <g id="Group_1183384" data-name="Group 1183384">
                    <g id="Group_1183383" data-name="Group 1183383">
                      <g id="Group_1183382" data-name="Group 1183382">
                        <g id="Group_1183381" data-name="Group 1183381">
                          <path id="Path_998262" data-name="Path 998262" d="M465.885,270.316s1.09-3.034-.074-5.431-1.456-4.622-2.445-6.345-1.5.909-1.487,2.365.011,3.1-1.083,2.937-8.543-6.1-10.087-6.161-.639,1.277-.639,1.277-1.848-1.393-2.6-.81c-.2.151-.4.819.339,1.585,1.67,1.724,5.363,5.163,5.363,5.163-.208-.2-5.068-4.12-5.873-4.612-1.052-.643-1.875-.409-2.228.212-.5.885,5.359,5.949,5.456,6.335,0,0-3.277-3.029-4.521-2.61s.714,2.437,2.78,3.889c1.893,1.331,5.258,4.438,7.315,5.6,2.533,1.437,4.557,1.833,6.767.228A9.272,9.272,0,0,0,465.885,270.316Z" transform="translate(-445.041 -257.678)" fill="#e4897b"/>
                        </g>
                      </g>
                    </g>
                  </g>
                </g>
              </g>
              <path id="Path_998263" data-name="Path 998263" d="M454.95,263.071a.228.228,0,0,1-.16-.064c-1.332-1.272-2.739-2.5-4.18-3.639A.232.232,0,0,1,450.9,259c1.451,1.152,2.868,2.385,4.212,3.668a.232.232,0,0,1,.007.328A.235.235,0,0,1,454.95,263.071Z" transform="translate(-445.447 -257.773)" opacity="0.3"/>
              <path id="Path_998264" data-name="Path 998264" d="M452.28,268.658a.233.233,0,0,1-.092-.019.23.23,0,0,1-.121-.3,12.608,12.608,0,0,1,4.643-5.528.231.231,0,0,1,.254.387,12.145,12.145,0,0,0-4.471,5.323A.233.233,0,0,1,452.28,268.658Z" transform="translate(-445.56 -258.055)" opacity="0.3"/>
              <path id="Path_998265" data-name="Path 998265" d="M462.856,271.16a.23.23,0,0,1-.15-.056,4.464,4.464,0,0,1-.965-5.615.232.232,0,1,1,.4.231,4,4,0,0,0,.863,5.032.231.231,0,0,1,.025.326A.227.227,0,0,1,462.856,271.16Z" transform="translate(-446.234 -258.248)" opacity="0.3"/>
            </g>
          </g>
          <g id="Group_1183389" data-name="Group 1183389" transform="translate(84.525)">
            <path id="Path_998266" data-name="Path 998266" d="M528.092,237.972c.172,1.636.1,3.078-.452,3.81a5.332,5.332,0,0,1-2.591,1.62,10.456,10.456,0,0,0,3.289,3.243h6.6s2.983.663,4.117.023c.935-.528,1.923-1.025,2.813-1.625a12.341,12.341,0,0,0,1.3-1.042,6.4,6.4,0,0,1-3.1-3.358c-1.152-3.734.086-16.477.086-16.477l-13.927,5.726s.108.312.269.84A43.421,43.421,0,0,1,528.092,237.972Z" transform="translate(-518.011 -195.747)" fill="#e4897b"/>
            <path id="Path_998267" data-name="Path 998267" d="M519.3,200.952c.381-.486-.671-11.4,18.113-5.968,13.948,4.031,8.679,14.966,8.679,14.966l-15.95-11.521Z" transform="translate(-517.585 -193.473)" fill="#263238"/>
            <path id="Path_998268" data-name="Path 998268" d="M537.939,231.025s-2.992,6.22-9.869,6.005a43.556,43.556,0,0,0-1.6-7.243c.517-.194.85-.312.85-.312Z" transform="translate(-518.116 -196.14)" opacity="0.2"/>
            <path id="Path_998269" data-name="Path 998269" d="M519.584,199.135s-4.055,11.468,1.346,17.21,9.6-16.246,9.6-16.246Z" transform="translate(-517.498 -193.892)" fill="#263238"/>
            <path id="Path_998270" data-name="Path 998270" d="M537.286,229.139c-4.246,3.2-9.057,3.987-13.1,1.8a12.325,12.325,0,0,1-6.1-8.1c-1.706-7.807-.272-20.621,8.265-23.893A11.836,11.836,0,0,1,542.419,211.1C541.743,219.718,542.247,225.395,537.286,229.139Z" transform="translate(-517.448 -193.818)" fill="#e4897b"/>
            <path id="Path_998271" data-name="Path 998271" d="M531.623,214.423c.045.9-.506,1.63-1.108,1.617s-1.056-.764-1.044-1.668.52-1.631,1.108-1.618S531.635,213.506,531.623,214.423Z" transform="translate(-518.338 -194.901)" fill="#263238"/>
            <path id="Path_998272" data-name="Path 998272" d="M522.277,214.424c.045.9-.52,1.631-1.108,1.618s-1.056-.764-1.044-1.668.52-1.631,1.108-1.618S522.291,213.563,522.277,214.424Z" transform="translate(-517.646 -194.902)" fill="#263238"/>
            <path id="Path_998273" data-name="Path 998273" d="M524.053,214.724a25.09,25.09,0,0,1-3.481,5.954,4.073,4.073,0,0,0,3.369.7Z" transform="translate(-517.679 -195.047)" fill="#de5753"/>
            <path id="Path_998274" data-name="Path 998274" d="M518.48,210.456a.43.43,0,0,0,.431,0,3.332,3.332,0,0,1,2.971-.289.411.411,0,0,0,.363-.737h0a4.1,4.1,0,0,0-3.75.316.411.411,0,0,0-.158.559l0,.008A.641.641,0,0,0,518.48,210.456Z" transform="translate(-517.51 -194.632)" fill="#263238"/>
            <path id="Path_998275" data-name="Path 998275" d="M531.668,210.923a.4.4,0,0,0,.231-.077.41.41,0,0,0-.026-.581l-.006-.006a4.1,4.1,0,0,0-3.638-1.008.412.412,0,0,0-.288.5h0a.422.422,0,0,0,.506.288h0a3.33,3.33,0,0,1,2.869.844A.423.423,0,0,0,531.668,210.923Z" transform="translate(-518.224 -194.635)" fill="#263238"/>
            <path id="Path_998276" data-name="Path 998276" d="M537.742,200.359l-.721,3.769a2.84,2.84,0,0,1,1.182,3.665c-1.443,3.115.035,8.2,2.356,10.34,0,0,.17-1.381,1.317-.973s.042,6.213-1.174,9.782c0,0,2.657-1.776,5.116-9.217,2.274-6.881,2.893-12.7,1.636-15.509Z" transform="translate(-518.898 -193.983)" fill="#263238"/>
            <path id="Path_998277" data-name="Path 998277" d="M547.663,219.424a8.228,8.228,0,0,1-4.8,4.065c-2.752.863-4.218-1.58-3.536-4.227.629-2.347,2.8-5.7,5.609-5.385S548.858,217.033,547.663,219.424Z" transform="translate(-519.057 -194.983)" fill="#e4897b"/>
            <path id="Path_998278" data-name="Path 998278" d="M519.694,198.809c-.48.9,1.046,4.209,4.524,5.8s-.222-1.933-.222-1.933,6.992,2.4,7.18,1.5-1.969-2.2-1.969-2.2,5.82,2.738,10.54,1.572-3.881-8.978-9.366-8.819S521.146,196.088,519.694,198.809Z" transform="translate(-517.608 -193.566)" fill="#263238"/>
            <path id="Path_998279" data-name="Path 998279" d="M541.55,220.083l-.456-.083a5.318,5.318,0,0,1,2.6-3.643,1.745,1.745,0,0,1,2.023-.05l-.3.349c-.378-.329-1.019-.162-1.493.1A4.844,4.844,0,0,0,541.55,220.083Z" transform="translate(-519.199 -195.143)" opacity="0.1"/>
            <path id="Path_998280" data-name="Path 998280" d="M527.347,225a3.953,3.953,0,0,0,2.012-.472,4.8,4.8,0,0,0,1.724-1.782.348.348,0,0,0-.6-.351,4.093,4.093,0,0,1-1.475,1.533,3.217,3.217,0,0,1-1.661.378.347.347,0,0,0,0,.694Z" transform="translate(-518.156 -195.603)" fill="#263238"/>
          </g>
          <g id="Group_1183394" data-name="Group 1183394" transform="translate(37.983 143.723)">
            <g id="Group_1183390" data-name="Group 1183390" transform="translate(83.845 12.492)">
              <path id="Path_998281" data-name="Path 998281" d="M564.461,440.806H568.1l-6.726-78.62h-3.639Z" transform="translate(-557.735 -362.186)" fill="#407bff"/>
              <path id="Path_998282" data-name="Path 998282" d="M564.461,440.806H568.1l-6.726-78.62h-3.639Z" transform="translate(-557.735 -362.186)" fill="#fff" opacity="0.6"/>
            </g>
            <g id="Group_1183391" data-name="Group 1183391" transform="translate(49.712 12.492)">
              <path id="Path_998283" data-name="Path 998283" d="M524.51,440.806h-3.638l6.726-78.62h3.638Z" transform="translate(-520.872 -362.186)" fill="#407bff"/>
              <path id="Path_998284" data-name="Path 998284" d="M524.51,440.806h-3.638l6.726-78.62h3.638Z" transform="translate(-520.872 -362.186)" fill="#fff" opacity="0.6"/>
            </g>
            <path id="Path_998285" data-name="Path 998285" d="M542.31,361.2H467.884c3.131-7.752,8.824-12.5,14.978-12.5H537.3Z" transform="translate(-467.234 -348.695)" fill="#263238"/>
            <g id="Group_1183392" data-name="Group 1183392" transform="translate(34.133 12.492)">
              <path id="Path_998286" data-name="Path 998286" d="M510.772,440.806h3.639l-6.727-78.62h-3.638Z" transform="translate(-504.046 -362.186)" fill="#407bff"/>
              <path id="Path_998287" data-name="Path 998287" d="M510.772,440.806h3.639l-6.727-78.62h-3.638Z" transform="translate(-504.046 -362.186)" fill="#fff" opacity="0.6"/>
            </g>
            <g id="Group_1183393" data-name="Group 1183393" transform="translate(0 12.492)">
              <path id="Path_998288" data-name="Path 998288" d="M470.821,440.806h-3.639l6.727-78.62h3.638Z" transform="translate(-467.182 -362.186)" fill="#407bff"/>
              <path id="Path_998289" data-name="Path 998289" d="M470.821,440.806h-3.639l6.727-78.62h3.638Z" transform="translate(-467.182 -362.186)" fill="#fff" opacity="0.6"/>
            </g>
            <path id="Path_998290" data-name="Path 998290" d="M563.614,361.2H522.708c3.562-7.752,10.031-12.5,17.033-12.5h14.478C561.22,348.7,564.669,352.732,563.614,361.2Z" transform="translate(-471.296 -348.695)" fill="#263238"/>
            <path id="Path_998291" data-name="Path 998291" d="M563.614,361.2H522.708c3.562-7.752,10.031-12.5,17.033-12.5h14.478C561.22,348.7,564.669,352.732,563.614,361.2Z" transform="translate(-471.296 -348.695)" opacity="0.5"/>
          </g>
          <g id="Group_1183405" data-name="Group 1183405" transform="translate(0 115.898)">
            <g id="Group_1183399" data-name="Group 1183399" transform="translate(0 89.098)">
              <g id="Group_1183397" data-name="Group 1183397" transform="translate(15.518)">
                <g id="Group_1183396" data-name="Group 1183396">
                  <g id="Group_1183395" data-name="Group 1183395">
                    <path id="Path_998292" data-name="Path 998292" d="M454.876,416.031l-2.983,19.019-6.862-.933-2.111-19.246Z" transform="translate(-442.92 -414.871)" fill="#e4897b"/>
                  </g>
                </g>
              </g>
              <path id="Path_998293" data-name="Path 998293" d="M440.19,430.746c-.108-1.167-.025-2.14,1.341-2.211l1.933-.1a3.451,3.451,0,0,1,1.839.821c4.431,2.828,6.249-.823,7.969-.821,2.209,0,.788,6.477.893,6.818l2.415,7.518c.21.628-.215,1.983-.948,2.163a1.58,1.58,0,0,1-.4.045H429.64c-4.07,0-4.118-4.571-2.441-4.9,7.539-1.426,10.513-3.689,13-5.343A28.744,28.744,0,0,0,440.19,430.746Z" transform="translate(-426.16 -415.876)" fill="#263238"/>
              <path id="Path_998294" data-name="Path 998294" d="M429.656,446.142h25.59a1.622,1.622,0,0,0,.4-.045c.5-.122.847-.784.958-1.4l-.01-.572H426.388A3.217,3.217,0,0,0,429.656,446.142Z" transform="translate(-426.177 -417.039)" fill="#fff" opacity="0.4"/>
              <path id="Path_998295" data-name="Path 998295" d="M436.982,438.2a6.68,6.68,0,0,1,.859.868l.091.113c-.022-.028-.01-.013,0,.006s.032.043.048.065c.06.082.119.165.176.25.113.169.217.343.313.521a.349.349,0,0,0,.475.124.354.354,0,0,0,.124-.475,6.819,6.819,0,0,0-1.6-1.964.347.347,0,1,0-.49.491Z" transform="translate(-426.954 -416.555)" fill="#407bff"/>
              <path id="Path_998296" data-name="Path 998296" d="M439.524,436.783a7.344,7.344,0,0,1,.8.813c.03.035.058.07.087.106.013.016.026.031.038.048l.011.014c.056.072.109.146.162.22.111.156.215.319.312.483a.347.347,0,1,0,.6-.35,7.518,7.518,0,0,0-1.517-1.825.346.346,0,1,0-.49.49Z" transform="translate(-427.143 -416.451)" fill="#407bff"/>
              <path id="Path_998297" data-name="Path 998297" d="M441.4,435.607a3.058,3.058,0,0,1,.394.234l.092.068-.013-.01.048.039c.057.048.114.1.168.151s.106.106.155.162c.022.025.044.051.066.077s.025.032.038.047c-.01-.013-.019-.026-.03-.038.008.011.017.021.024.032a2.689,2.689,0,0,1,.233.374.349.349,0,0,0,.475.124.355.355,0,0,0,.124-.475,3.269,3.269,0,0,0-1.424-1.384.347.347,0,1,0-.349.6Z" transform="translate(-427.277 -416.36)" fill="#407bff"/>
              <path id="Path_998298" data-name="Path 998298" d="M441.576,433.074q.261,0,.522.029l.111.012a.291.291,0,0,1,.056.007c.086.013.172.027.257.044a5.756,5.756,0,0,1,.962.274.348.348,0,0,0,.427-.243.356.356,0,0,0-.243-.427,6.1,6.1,0,0,0-2.093-.391.347.347,0,0,0,0,.694Z" transform="translate(-427.276 -416.168)" fill="#407bff"/>
              <g id="Group_1183398" data-name="Group 1183398" transform="translate(21.497 12.796)" opacity="0.3">
                <path id="Path_998299" data-name="Path 998299" d="M449.386,433.028a1.947,1.947,0,0,0,.947,1.72,2.9,2.9,0,0,0,1.334.173l4.074-.108.017-.036c.215-1.769.79-6.088-.893-6.086-1.325,0-2.717,2.478-5.487,1.754C449.4,431.383,449.359,432.577,449.386,433.028Z" transform="translate(-449.377 -428.691)"/>
              </g>
            </g>
            <g id="freepik--character-2--inject-2" transform="translate(12.888)">
              <path id="Path_998300" data-name="Path 998300" d="M499.107,318.644s-29.784,4.109-46.9,11.507a17.061,17.061,0,0,0-10.227,13.533c-3.8,30.9-.722,68.446-.722,68.446l14.306,1.944s7.618-35.184,7.448-60.036c15.617-4.407,56.182-1.539,60.96-14.478a42.543,42.543,0,0,0,1.8-20.9Z" transform="translate(-440.079 -318.644)" fill="#407bff"/>
              <path id="Path_998301" data-name="Path 998301" d="M494.695,325.3s-22.02,20.558-21.023,27.569a62.957,62.957,0,0,0-9.243,1.662,73.251,73.251,0,0,1-.159,7.759C454.979,348.442,455.858,335.133,494.695,325.3Z" transform="translate(-441.51 -319.137)" opacity="0.3"/>
              <g id="Group_1183404" data-name="Group 1183404" transform="translate(39.779 87.787)">
                <g id="Group_1183402" data-name="Group 1183402" transform="translate(7.565)">
                  <g id="Group_1183401" data-name="Group 1183401">
                    <g id="Group_1183400" data-name="Group 1183400">
                      <path id="Path_998302" data-name="Path 998302" d="M502.908,413.455l3.268,18.972-6.8,1.315-8.168-17.554Z" transform="translate(-491.211 -413.455)" fill="#e4897b"/>
                    </g>
                  </g>
                </g>
                <path id="Path_998303" data-name="Path 998303" d="M494.146,431.086c-.38-1.109-.528-2.074.782-2.464l1.856-.552a3.446,3.446,0,0,1,1.981.366c4.972,1.706,5.88-2.27,7.552-2.673,2.147-.521,2.29,6.11,2.471,6.416l4.116,6.74c.352.561.258,1.978-.413,2.325a1.607,1.607,0,0,1-.38.139l-10.361,2.508L487.237,447.4c-3.956.957-5.077-3.474-3.524-4.185,6.993-3.159,9.351-6.058,11.375-8.251A28.381,28.381,0,0,0,494.146,431.086Z" transform="translate(-483.041 -414.365)" fill="#263238"/>
                <path id="Path_998304" data-name="Path 998304" d="M487.283,448.472l14.512-3.513,10.361-2.508a1.608,1.608,0,0,0,.38-.139,1.706,1.706,0,0,0,.6-1.581l-.144-.554-29.361,7.107A3.214,3.214,0,0,0,487.283,448.472Z" transform="translate(-483.085 -415.435)" fill="#fff" opacity="0.4"/>
                <path id="Path_998305" data-name="Path 998305" d="M492.546,439.593a6.731,6.731,0,0,1,1.039.642l.031.023.044.034.116.094c.076.064.15.129.223.2q.224.206.427.432a.349.349,0,0,0,.491,0,.355.355,0,0,0,0-.491,6.836,6.836,0,0,0-2.019-1.531.347.347,0,1,0-.35.6Z" transform="translate(-483.733 -415.344)" fill="#407bff"/>
                <path id="Path_998306" data-name="Path 998306" d="M494.684,437.62a7.38,7.38,0,0,1,.966.6l.051.038.028.021.04.031.05.04c.074.059.147.121.219.183q.214.188.412.392a.347.347,0,1,0,.491-.491,7.55,7.55,0,0,0-1.9-1.416.347.347,0,0,0-.351.6Z" transform="translate(-483.891 -415.198)" fill="#407bff"/>
                <path id="Path_998307" data-name="Path 998307" d="M496.231,436.034a3.122,3.122,0,0,1,.436.134.162.162,0,0,0,.046.019c-.029,0-.055-.024,0,0l.1.048c.068.033.133.069.2.106s.119.073.178.113l.09.065c.066.048-.039-.032,0,0l.038.031a2.879,2.879,0,0,1,.323.315.349.349,0,0,0,.491,0,.356.356,0,0,0,0-.491,3.276,3.276,0,0,0-1.713-1.008.348.348,0,0,0-.185.67Z" transform="translate(-483.999 -415.077)" fill="#407bff"/>
                <path id="Path_998308" data-name="Path 998308" d="M495.81,433.515a4.855,4.855,0,0,1,.942-.131,5.72,5.72,0,0,1,1,.041.348.348,0,0,0,.347-.347.358.358,0,0,0-.347-.347,6.083,6.083,0,0,0-2.126.116.351.351,0,0,0-.243.427.356.356,0,0,0,.428.243Z" transform="translate(-483.954 -414.88)" fill="#407bff"/>
                <g id="Group_1183403" data-name="Group 1183403" transform="translate(18.287 11.633)" opacity="0.3">
                  <path id="Path_998309" data-name="Path 998309" d="M503.407,431.549A1.947,1.947,0,0,0,504.732,433a2.918,2.918,0,0,0,1.338-.145L510,431.788l.007-.039c-.208-1.77-.665-6.1-2.3-5.7-1.288.31-2.057,3.047-4.92,3C503.034,429.946,503.274,431.116,503.407,431.549Z" transform="translate(-502.791 -426.019)"/>
                </g>
              </g>
              <path id="Path_998310" data-name="Path 998310" d="M520.356,318.7s-55.859,9.661-53.835,26.353c2.917,24.082,23.467,73.29,23.467,73.29l16.857-6.04s-10.807-43.781-14.506-61.352c14.354,0,43.986,1.55,48.764-11.389a38.084,38.084,0,0,0,1.358-20.528Z" transform="translate(-442.034 -318.649)" fill="#407bff"/>
            </g>
          </g>
          <path id="Path_998311" data-name="Path 998311" d="M513.184,242.918c4.958,3.617,5.576,13.791-9.747,35.671l-12.164-12.861c3.152-5.566,5.889-8.291,10.569-14.912C508.211,241.526,513.184,242.918,513.184,242.918Z" transform="translate(-430.984 -197.131)" fill="#263238"/>
          <path id="Path_998312" data-name="Path 998312" d="M502.339,319.245s9.606,12.3,24.987,14.24,18.3-1.866,18.3-1.866.07-5.993.309-5.688-42.016-8.456-42.016-8.456Z" transform="translate(-431.804 -202.659)" opacity="0.3"/>
          <g id="Group_1183406" data-name="Group 1183406" transform="translate(67.666 44.864)">
            <path id="Path_998313" data-name="Path 998313" d="M513.628,242.656c3.944-.283,19.727-2.044,35.8,1.211L547.874,300.8s.8,20.943,0,22.846c-16.881,6.9-37.956-3.145-48.634-10.037.113.275,2.942-7.263,2.942-7.263,1.969-18.151,5.115-46.448,8.1-62.78C510.356,243.162,513.234,242.683,513.628,242.656Z" transform="translate(-499.24 -241.927)" fill="#263238"/>
            <path id="Path_998314" data-name="Path 998314" d="M551.211,280.128l-.886.115-3.192-15.654,1.478,17.571,2.811.457Z" transform="translate(-502.788 -243.606)" opacity="0.2"/>
          </g>
          <path id="Path_998315" data-name="Path 998315" d="M505.954,277.261l2.524-19.583-5.73,20.382,1.539,1.628Z" transform="translate(-431.834 -198.23)" opacity="0.2"/>
          <g id="Group_1183409" data-name="Group 1183409" transform="translate(71.454 46.8)">
            <path id="Path_998316" data-name="Path 998316" d="M503.331,271.031c-.015,3.905,2.7,6.98,6.185,6.989l.033.593a1.371,1.371,0,0,0,1.279,1.414l12.034.048a1.382,1.382,0,0,0,1.378-1.38l.061-15.611a1.023,1.023,0,0,0-1.075-.893l-12.556-.039a1.022,1.022,0,0,0-1.11.842v1.1C506.074,264.071,503.346,267.126,503.331,271.031Zm2.234.007c.017-2.614,1.835-4.89,3.987-4.888l-.041,9.81C507.349,275.949,505.549,273.652,505.565,271.039Z" transform="translate(-503.331 -245.361)" fill="#407bff"/>
            <g id="Group_1183408" data-name="Group 1183408" transform="translate(10.697)">
              <g id="Group_1183407" data-name="Group 1183407" transform="translate(8.693)">
                <path id="Path_998317" data-name="Path 998317" d="M549.178,275.508l.55,10.505-19.949-11.406-5.507,6.549s24.615,22.29,32.362,22.534c11.311.356,5.635-30.376,5.635-30.376Z" transform="translate(-524.272 -246.188)" fill="#e4897b"/>
                <path id="Path_998318" data-name="Path 998318" d="M552.977,244.018s6.331,1.171,7.854,9.1c1.4,7.3,5.341,23.544,5.341,23.544l-15.848,2.053-3.192-19Z" transform="translate(-525.966 -244.018)" fill="#263238"/>
              </g>
              <path id="Path_998319" data-name="Path 998319" d="M524.741,268.08s-8.214-3.7-8.639-3.147a4.98,4.98,0,0,0-.672,4,2.77,2.77,0,0,0-.023,3.2l.876.845s-2.1.663-.5,3.125,5.768,4.229,8.12,4.833,6.185-1.361,6.108-1.773-1.329-9.52-1.966-11.805a6.122,6.122,0,0,0-2.892-3.677Z" transform="translate(-514.883 -245.475)" fill="#e4897b"/>
            </g>
          </g>
        </g>
      </g>
      <g id="Table" transform="translate(330.714 260.212)">
        <path id="Path_998320" data-name="Path 998320" d="M422.008,437.134H375.4V321.582h1.852V435.3h42.907V321.582h1.852Z" transform="translate(-358.525 -280.786)" fill="#263238"/>
        <g id="freepik--Desk--inject-2" transform="translate(0 35.287)">
          <rect id="Rectangle_454963" data-name="Rectangle 454963" width="235.783" height="5.509" fill="#407bff"/>
          <rect id="Rectangle_454964" data-name="Rectangle 454964" width="235.783" height="5.509" opacity="0.2"/>
          <rect id="Rectangle_454965" data-name="Rectangle 454965" width="70.334" height="5.509" transform="translate(165.448)" opacity="0.2"/>
          <path id="Path_998321" data-name="Path 998321" d="M604.4,438.34H557.788V321.582h1.852V436.488h42.907V321.582H604.4Z" transform="translate(-372.037 -316.073)" fill="#263238"/>
        </g>
        <g id="Group_1183414" data-name="Group 1183414" transform="translate(43.01)">
          <g id="Group_1183413" data-name="Group 1183413">
            <g id="Group_1183412" data-name="Group 1183412">
              <g id="Group_1183411" data-name="Group 1183411">
                <path id="Path_998322" data-name="Path 998322" d="M420.7,313.059h32.248a.92.92,0,0,0,1-.815.675.675,0,0,0-.051-.247l-14.345-32.889a2.805,2.805,0,0,0-2.668-1.586H404.614a.907.907,0,0,0-.988.794.655.655,0,0,0,.059.269l14.345,32.889A2.824,2.824,0,0,0,420.7,313.059Z" transform="translate(-403.626 -277.522)" fill="#263238"/>
                <path id="Path_998323" data-name="Path 998323" d="M404.614,277.522h32.267a2.8,2.8,0,0,1,2.668,1.586L453.894,312a.675.675,0,0,1,.051.247.92.92,0,0,1-1,.815H420.7a2.825,2.825,0,0,1-2.668-1.585l-14.345-32.889a.655.655,0,0,1-.059-.269A.908.908,0,0,1,404.614,277.522Z" transform="translate(-403.626 -277.522)" fill="#fff" opacity="0.7"/>
                <path id="Path_998324" data-name="Path 998324" d="M426.246,297.243c.7,1.579,2.109,2.662,3.163,2.442s1.334-1.659.657-3.242-2.105-2.642-3.158-2.421S425.54,295.624,426.246,297.243Z" transform="translate(-405.274 -278.742)" fill="#fff"/>
              </g>
              <path id="Path_998325" data-name="Path 998325" d="M439.335,277.522h.192a2.8,2.8,0,0,1,2.668,1.586L456.539,312a.675.675,0,0,1,.051.247.92.92,0,0,1-1,.815h-1.032Z" transform="translate(-406.271 -277.522)" opacity="0.3"/>
            </g>
          </g>
          <path id="Path_998326" data-name="Path 998326" d="M488.3,315.721H454.729v-2.264h31.307a2.265,2.265,0,0,1,2.264,2.264Z" transform="translate(-407.412 -280.184)" fill="#263238"/>
          <path id="Path_998327" data-name="Path 998327" d="M488.3,315.721H454.729v-2.264h31.307a2.265,2.265,0,0,1,2.264,2.264Z" transform="translate(-407.412 -280.184)" fill="#fff" opacity="0.7"/>
        </g>
      </g>
      <g id="Character_1" transform="translate(72.22 148.418)">
        <g id="Group_1183436" data-name="Group 1183436">
          <g id="Group_1183415" data-name="Group 1183415" transform="translate(45.152 47.298)">
            <path id="Path_998328" data-name="Path 998328" d="M137.871,207.866s12.486,29.569,14.082,29.722,22.006-7.8,22.006-7.8l3.175,3.587s-10.69,14.294-27.612,18.832c-3.04.816-6.878-2.628-10.537-7.336-.718-.915-1.417-1.883-2.117-2.879a146.878,146.878,0,0,1-10.106-17.46Z" transform="translate(-126.763 -207.866)" fill="#407bff"/>
            <path id="Path_998329" data-name="Path 998329" d="M137.871,207.866s12.486,29.569,14.082,29.722,22.006-7.8,22.006-7.8l3.175,3.587s-10.69,14.294-27.612,18.832c-3.04.816-6.878-2.628-10.537-7.336-.718-.915-1.417-1.883-2.117-2.879a146.878,146.878,0,0,1-10.106-17.46Z" transform="translate(-126.763 -207.866)" fill="#fff" opacity="0.6"/>
            <path id="Path_998330" data-name="Path 998330" d="M140.98,216.208a101.2,101.2,0,0,0,4.093,12.433,7.08,7.08,0,0,1,.46,3.777c-.63,3.666-3.8,4.839-4.85,7.761a18.946,18.946,0,0,0-1.013,5.309c-.718-.915-1.417-1.883-2.117-2.879l-1.56-6.169Z" transform="translate(-127.447 -208.484)" opacity="0.2"/>
          </g>
          <g id="Group_1183417" data-name="Group 1183417" transform="translate(19.91 243.079)">
            <path id="Path_998331" data-name="Path 998331" d="M103.373,439.465l7.617-.342,2.824-19.813-11.6.394Z" transform="translate(-99.701 -419.311)" fill="#b97964"/>
            <g id="Group_1183416" data-name="Group 1183416" transform="translate(0 15.466)">
              <path id="Path_998332" data-name="Path 998332" d="M111.718,436.956h-2.709a1.925,1.925,0,0,0-1.543.8c-1.562,2.133-2.736,1.327-4.436-.679-1.081-.126-1.371,1.114-1.459,1.447L99.545,445.9a1.158,1.158,0,0,0,1.131,1.477h21.465c3.414,0,4.121-3.44,2.715-3.758-6.323-1.4-10.8-3.258-12.755-5.1C111.739,438.194,112.111,437.953,111.718,436.956Z" transform="translate(-99.5 -436.084)" fill="#263238"/>
              <path id="Path_998333" data-name="Path 998333" d="M118.063,439.5a1.106,1.106,0,0,0,.46-.884.5.5,0,0,0-.221-.478c-.849-.6-4.236.981-4.617,1.168a.147.147,0,0,0-.091.091.151.151,0,0,0,.091.193,12.279,12.279,0,0,0,2.538.327A3.023,3.023,0,0,0,118.063,439.5Zm.026-1.106a.2.2,0,0,1,.089.2.88.88,0,0,1-.336.645c-.769.575-2.627.327-3.626.142C115.622,438.762,117.62,438.064,118.089,438.391Z" transform="translate(-100.544 -436.162)" fill="#407bff"/>
              <path id="Path_998334" data-name="Path 998334" d="M113.8,439.473c1.017-.424,3.148-2.1,3.033-2.98-.018-.185-.15-.406-.61-.469-1.857-.212-2.653,3.122-2.653,3.264a.15.15,0,0,0,.044.159.189.189,0,0,0,.106,0Zm2.361-3.175c.345.035.345.159.345.2.1.54-1.451,1.928-2.556,2.512.23-.778.911-2.724,2.087-2.724Z" transform="translate(-100.542 -436.015)" fill="#407bff"/>
              <path id="Path_998335" data-name="Path 998335" d="M111.6,441.306a.237.237,0,0,1-.123-.035.231.231,0,0,1-.072-.319,3.5,3.5,0,0,1,2.466-1.588.232.232,0,0,1,.062.459A3.038,3.038,0,0,0,111.8,441.2.23.23,0,0,1,111.6,441.306Z" transform="translate(-100.38 -436.263)" fill="#407bff"/>
              <path id="Path_998336" data-name="Path 998336" d="M113.418,442.675a.236.236,0,0,1-.123-.035.231.231,0,0,1-.072-.319,3.511,3.511,0,0,1,2.466-1.589.238.238,0,0,1,.26.2.231.231,0,0,1-.2.261,3.04,3.04,0,0,0-2.136,1.375A.23.23,0,0,1,113.418,442.675Z" transform="translate(-100.514 -436.364)" fill="#407bff"/>
              <path id="Path_998337" data-name="Path 998337" d="M115.68,443.826a.237.237,0,0,1-.123-.035.231.231,0,0,1-.072-.319,3.509,3.509,0,0,1,2.465-1.589.235.235,0,0,1,.26.2.231.231,0,0,1-.2.261,3.04,3.04,0,0,0-2.136,1.375A.227.227,0,0,1,115.68,443.826Z" transform="translate(-100.682 -436.449)" fill="#407bff"/>
            </g>
            <path id="Path_998338" data-name="Path 998338" d="M112.323,430.977l-.363,2.548-8.948-.157-.141-2.391Z" transform="translate(-99.75 -420.175)" opacity="0.3"/>
          </g>
          <g id="Group_1183419" data-name="Group 1183419" transform="translate(51.789 241.232)">
            <path id="Path_998339" data-name="Path 998339" d="M137.643,437.358l8.268-1.047,1.821-18.678-11.341-.317Z" transform="translate(-134.113 -417.317)" fill="#b97964"/>
            <g id="Group_1183418" data-name="Group 1183418" transform="translate(0 16.194)">
              <path id="Path_998340" data-name="Path 998340" d="M146.148,436.146h-2.709a1.924,1.924,0,0,0-1.543.8c-1.562,2.133-2.736,1.327-4.436-.679-1.081-.126-1.371,1.114-1.459,1.447l-2.025,7.367a1.158,1.158,0,0,0,1.131,1.477h21.465c3.414,0,4.121-3.441,2.715-3.758-6.323-1.4-10.8-3.258-12.755-5.1C146.17,437.384,146.542,437.143,146.148,436.146Z" transform="translate(-133.93 -434.906)" fill="#263238"/>
              <path id="Path_998341" data-name="Path 998341" d="M153.116,438.288a1.106,1.106,0,0,0,.46-.884.5.5,0,0,0-.221-.478c-.849-.6-4.236.981-4.617,1.168a.147.147,0,0,0-.091.091.151.151,0,0,0,.091.193,12.277,12.277,0,0,0,2.538.327A3.02,3.02,0,0,0,153.116,438.288Zm.027-1.106a.2.2,0,0,1,.089.2.883.883,0,0,1-.336.645c-.769.575-2.627.327-3.626.142C150.675,437.555,152.674,436.856,153.143,437.183Z" transform="translate(-135.02 -434.953)" fill="#407bff"/>
              <path id="Path_998342" data-name="Path 998342" d="M148.852,438.265c1.017-.424,3.148-2.1,3.033-2.981-.018-.186-.15-.406-.61-.469-1.857-.212-2.653,3.122-2.653,3.263a.15.15,0,0,0,.044.159.189.189,0,0,0,.106,0Zm2.361-3.175c.345.035.345.159.345.2.1.54-1.45,1.928-2.556,2.512.23-.779.911-2.724,2.087-2.724Z" transform="translate(-135.018 -434.807)" fill="#407bff"/>
              <path id="Path_998343" data-name="Path 998343" d="M146.653,440.1a.237.237,0,0,1-.123-.035.231.231,0,0,1-.072-.319,3.508,3.508,0,0,1,2.466-1.589.234.234,0,0,1,.26.2.231.231,0,0,1-.2.261,3.04,3.04,0,0,0-2.136,1.375A.23.23,0,0,1,146.653,440.1Z" transform="translate(-134.856 -435.054)" fill="#407bff"/>
              <path id="Path_998344" data-name="Path 998344" d="M148.471,441.467a.237.237,0,0,1-.123-.035.231.231,0,0,1-.072-.319,3.509,3.509,0,0,1,2.466-1.589.239.239,0,0,1,.26.2.231.231,0,0,1-.2.261,3.038,3.038,0,0,0-2.136,1.375A.23.23,0,0,1,148.471,441.467Z" transform="translate(-134.991 -435.156)" fill="#407bff"/>
              <path id="Path_998345" data-name="Path 998345" d="M150.733,442.618a.237.237,0,0,1-.123-.035.231.231,0,0,1-.072-.319A3.509,3.509,0,0,1,153,440.675a.236.236,0,0,1,.26.2.231.231,0,0,1-.2.261,3.04,3.04,0,0,0-2.136,1.375A.229.229,0,0,1,150.733,442.618Z" transform="translate(-135.158 -435.241)" fill="#407bff"/>
            </g>
            <path id="Path_998346" data-name="Path 998346" d="M146.7,429.768l-.249,2.556-9.122-.058-.156-2.5Z" transform="translate(-134.17 -418.239)" opacity="0.3"/>
          </g>
          <g id="Group_1183421" data-name="Group 1183421" transform="translate(13.929 1.795)">
            <g id="Group_1183420" data-name="Group 1183420">
              <path id="Path_998347" data-name="Path 998347" d="M94.775,230.519c4.812-7.51-1.884-14.954-1.731-23.713s3.908-17.438,4.377-26.188a33.495,33.495,0,0,1,2.593-12.337c1.784-3.868,5.082-7.975,9.227-9.56l20.9,8.932a121.86,121.86,0,0,1,2.693,34.458,183.383,183.383,0,0,1-3.3,29.433,8.6,8.6,0,0,1-1.489,3.876c-1.216,1.487-3.247,2.11-5.151,2.654a85.614,85.614,0,0,1-14.765,3.285c-5.032.51-5.956-.026-10.494-2.118-1.532-.706-3.874-2.157-4.085-3.756A9.374,9.374,0,0,1,94.775,230.519Z" transform="translate(-93.041 -158.722)" fill="#263238"/>
            </g>
          </g>
          <g id="Group_1183422" data-name="Group 1183422" transform="translate(8.977 95.011)">
            <path id="Path_998348" data-name="Path 998348" d="M118.654,269.96l21.236.087a434.813,434.813,0,0,1,6.984,79.233c.867,24.587.171,69.8.171,69.8h-13.81s-8.8-36.718-5.276-65.81c-1.281-5.017-2.993-13.7-4-18.136a316.478,316.478,0,0,1-6.353-36.253C115.18,276.016,118.654,269.96,118.654,269.96Z" transform="translate(-89.845 -260.179)" fill="#263238"/>
            <path id="Path_998349" data-name="Path 998349" d="M120.6,285.8s7.656,34.389,3.424,50.5a316.48,316.48,0,0,1-6.353-36.253Z" transform="translate(-89.914 -261.352)" opacity="0.2"/>
            <path id="Path_998350" data-name="Path 998350" d="M98.651,259.4c-1.854,8.3-9.117,18.434-10.586,29.049-2.509,18.129,8.39,40.68,11.242,61.951C95,381.856,101.6,420,100.729,419.18l13.865.013c.42-2.814,3.264-45.439,4.675-70.695,1.2-22.1,3.108-77.695,3.108-77.695Z" transform="translate(-87.693 -259.396)" fill="#263238"/>
          </g>
          <g id="Group_1183423" data-name="Group 1183423" transform="translate(13.595 41.926)">
            <path id="Path_998351" data-name="Path 998351" d="M136.5,236.826c-1.067,7.327.518,22.979,3.591,33.775,1.093,3.838-29.974,3.324-47.407-2.433L98.5,250.128c-.018-1.489-2.9-12.165-2.97-13.734a176.064,176.064,0,0,0-2.538-22.7,9.5,9.5,0,0,1-.121-.983c-.285-4.075-.391-7.229,3.156-8.764a30.141,30.141,0,0,1,5.538-1.239c1.489-.107,3.229-.338,4.843-.382s1.658-.258,3.147-.258a113.579,113.579,0,0,1,13.5.964l.9.117c1.516.2,3.058.448,4.546.7,0,0,3.771.542,5.923,2.345s7.066,20.446,6.206,25.308A6.731,6.731,0,0,1,136.5,236.826Z" transform="translate(-92.681 -202.063)" fill="#407bff"/>
            <path id="Path_998352" data-name="Path 998352" d="M136.5,236.826c-1.067,7.327.518,22.979,3.591,33.775,1.093,3.838-29.974,3.324-47.407-2.433L98.5,250.128c-.018-1.489-2.9-12.165-2.97-13.734a176.064,176.064,0,0,0-2.538-22.7,9.5,9.5,0,0,1-.121-.983c-.285-4.075-.391-7.229,3.156-8.764a30.141,30.141,0,0,1,5.538-1.239c1.489-.107,3.229-.338,4.843-.382s1.658-.258,3.147-.258a113.579,113.579,0,0,1,13.5.964l.9.117c1.516.2,3.058.448,4.546.7,0,0,3.771.542,5.923,2.345s7.066,20.446,6.206,25.308A6.731,6.731,0,0,1,136.5,236.826Z" transform="translate(-92.681 -202.063)" fill="#fff" opacity="0.6"/>
            <path id="Path_998353" data-name="Path 998353" d="M96.731,259.09l-1.891,5.857s21.143-3.715,31.739-13.19c7.545-6.747,6.365-9.588,6.365-9.588l-8.546.825Z" transform="translate(-92.841 -205.035)" opacity="0.2"/>
            <path id="Path_998354" data-name="Path 998354" d="M101.757,225.268l.409,20.3c-3.192,2.031-4.2,3.273-4.681.365l-1.746-8.246Z" transform="translate(-92.908 -203.782)" opacity="0.2"/>
          </g>
          <g id="Group_1183426" data-name="Group 1183426" transform="translate(0 43.498)">
            <path id="Path_998355" data-name="Path 998355" d="M100.442,223.675s-8.005,19.828-6.561,20.742,24.488-5.39,24.488-5.39l4.448,5.879c-.781,3.426-41.358,24.338-44.6,6.286C76.24,240.225,88.505,210.77,88.505,210.77c3.088-5.5,7.381-8.126,9.074-6.561C102.007,208.305,100.442,223.675,100.442,223.675Z" transform="translate(-77.998 -203.762)" fill="#407bff"/>
            <path id="Path_998356" data-name="Path 998356" d="M100.442,223.675s-8.005,19.828-6.561,20.742,24.488-5.39,24.488-5.39l4.448,5.879c-.781,3.426-41.358,24.338-44.6,6.286C76.24,240.225,88.505,210.77,88.505,210.77c3.088-5.5,7.381-8.126,9.074-6.561C102.007,208.305,100.442,223.675,100.442,223.675Z" transform="translate(-77.998 -203.762)" fill="#fff" opacity="0.6"/>
            <g id="Group_1183425" data-name="Group 1183425" transform="translate(40.011 24.477)">
              <path id="Path_998357" data-name="Path 998357" d="M126.018,246.865c2.724.216,2.82-3.887,4.237-4.049a8.081,8.081,0,0,0,2.394-.61s-.9,2.466,0,2.268,3.775-.341,4.484-2.69-1.856-7.371-2.439-8.071-3.65-.484-3.65-.484,3.3-.852,5.111-1.1,2.156-2.321-.372-1.863c-1.038.188-9.232.249-10.12,1.093s-4.18,9.127-4.18,9.127C120.265,241.182,123.364,248.129,126.018,246.865Z" transform="translate(-121.211 -230.198)" fill="#b97964"/>
              <g id="Group_1183424" data-name="Group 1183424" transform="translate(7.119 2.749)" opacity="0.3">
                <path id="Path_998358" data-name="Path 998358" d="M131.582,233.189a9.44,9.44,0,0,0-2.511.161.233.233,0,0,0,.081.457,9.177,9.177,0,0,1,2.377-.161C131.825,233.647,131.879,233.208,131.582,233.189Z" transform="translate(-128.899 -233.166)"/>
                <path id="Path_998359" data-name="Path 998359" d="M135.994,235.808c.26.134.529-.243.269-.377-1.533-.816-3.148-.358-4.7.161-.278.09-.081.511.2.421C133.124,235.557,134.631,235.117,135.994,235.808Z" transform="translate(-129.086 -233.301)"/>
                <path id="Path_998360" data-name="Path 998360" d="M137.3,238.011a4.574,4.574,0,0,0-4.341-.188.233.233,0,0,0,.188.421,4.132,4.132,0,0,1,3.892.144C137.292,238.54,137.561,238.164,137.3,238.011Z" transform="translate(-129.192 -233.477)"/>
                <path id="Path_998361" data-name="Path 998361" d="M135.134,241.691a3.771,3.771,0,0,0,.279-.758c.063-.287-.368-.448-.44-.161a3.253,3.253,0,0,1-1.516,2.107c-.26.144-.063.565.188.421h-.027a3.719,3.719,0,0,0,1.208-1.106c.031,0,.057.016.092,0a1.245,1.245,0,0,1,1.354.359c.2.224.547-.072.35-.3A1.708,1.708,0,0,0,135.134,241.691Z" transform="translate(-129.228 -233.719)"/>
              </g>
            </g>
          </g>
          <g id="Group_1183427" data-name="Group 1183427" transform="translate(66.441 43.26)">
            <path id="Path_998362" data-name="Path 998362" d="M150.971,245.51a2.2,2.2,0,0,1-1.118-2.674L158.2,209.2a3.5,3.5,0,0,1,3.164-2.674l21.882.456a1.522,1.522,0,0,1,.706.1,2.2,2.2,0,0,1,1.118,2.675l-8.358,33.634a3.5,3.5,0,0,1-3.164,2.674l-21.883-.456A1.526,1.526,0,0,1,150.971,245.51Z" transform="translate(-149.755 -203.729)" fill="#263238"/>
            <path id="Path_998363" data-name="Path 998363" d="M181.582,225.927c-.431-.036-2.26.869-3.12.269s-.054-1.094-.054-1.094c1.579-.386,3.309-2.358,4.268-1.794s2.547,1.273,2.314,2.17a19.939,19.939,0,0,1-.951,2.431,1.409,1.409,0,0,1,.09,1.328,1.569,1.569,0,0,1-1.156.959,1.5,1.5,0,0,1,.431,1.148c-.071.681-1.865,1.579-1.865,1.579s.35,1.067-.063,1.48a2.879,2.879,0,0,1-2.511.574c-1.049-.251-1.767-.61-1.7-1.668s1.964-1.058,1.964-1.058-3.551-1.076-2.8-1.749,3.587-.592,3.587-.592-4.806-.951-4.044-1.937,5.551-.718,5.551-.718S182.013,225.964,181.582,225.927Z" transform="translate(-151.692 -204.965)" fill="#b97964"/>
            <path id="Path_998364" data-name="Path 998364" d="M180.163,205.6l-12.052-.209-1.042,2.663,12.255.241Z" transform="translate(-151.038 -203.645)" fill="#263238"/>
            <path id="Path_998365" data-name="Path 998365" d="M172.678,205.662v-2.157h5.768l-1.313,2.485Z" transform="translate(-151.454 -203.505)" fill="#263238"/>
          </g>
          <g id="Group_1183435" data-name="Group 1183435" transform="translate(23.736)">
            <g id="Group_1183433" data-name="Group 1183433" transform="translate(0.23 1.81)">
              <g id="Group_1183432" data-name="Group 1183432">
                <g id="Group_1183431" data-name="Group 1183431">
                  <path id="Path_998366" data-name="Path 998366" d="M122.173,163.67s6.7,12.067,7.014,15.822c2.563,2.182,4.385-2.243,4.29-8.174-.079-4.855-2.61-10.093-6.806-11.98C120.778,156.688,122.173,163.67,122.173,163.67Z" transform="translate(-105.226 -158.738)" fill="#263238"/>
                  <g id="Group_1183429" data-name="Group 1183429" transform="translate(0 0.113)">
                    <g id="Group_1183428" data-name="Group 1183428">
                      <path id="Path_998367" data-name="Path 998367" d="M119.77,200.311c-1.122-1.12-.854-2.468-.642-4.1a16.516,16.516,0,0,1,1.034-3.825l-1.674-1.819-8.7-8.17c.416,5.652,1.107,15.358-3.2,18.59l18.2,11.567-1.682-11.071A10.911,10.911,0,0,1,119.77,200.311Z" transform="translate(-104.082 -160.603)" fill="#b97964"/>
                      <path id="Path_998368" data-name="Path 998368" d="M119.7,197.1c-2.359-1.287-4.98-3.573-4.774-6.3a12.682,12.682,0,0,1,.55-2.946l4.917,6.041A15.644,15.644,0,0,0,119.7,197.1Z" transform="translate(-104.699 -161.007)" opacity="0.2"/>
                      <path id="Path_998369" data-name="Path 998369" d="M107.109,171.648c1.1,8.6,1.388,12.253,6,16.616,6.944,6.562,17.165,3.9,18.629-4.718,1.318-7.755-.708-20.516-9.31-23.835A11.106,11.106,0,0,0,107.109,171.648Z" transform="translate(-104.113 -158.859)" fill="#b97964"/>
                      <path id="Path_998370" data-name="Path 998370" d="M119.755,175.833c.006.809.472,1.5,1.039,1.535s1.02-.586,1.013-1.4-.472-1.5-1.038-1.535S119.749,175.024,119.755,175.833Z" transform="translate(-105.058 -160.013)" fill="#263238"/>
                      <path id="Path_998371" data-name="Path 998371" d="M128.622,175.162a1.4,1.4,0,0,0,.948,1.549c.562.072,1.048-.5,1.086-1.289a1.4,1.4,0,0,0-.948-1.549C129.146,173.8,128.66,174.378,128.622,175.162Z" transform="translate(-105.715 -159.971)" fill="#263238"/>
                      <path id="Path_998372" data-name="Path 998372" d="M117.241,172.789a.385.385,0,0,0,.3-.113,3.113,3.113,0,0,1,2.806-.924.388.388,0,0,0,.483-.31.461.461,0,0,0-.34-.517,3.886,3.886,0,0,0-3.56,1.127.432.432,0,0,0,.02.6A.453.453,0,0,0,117.241,172.789Z" transform="translate(-104.84 -159.748)" fill="#263238"/>
                      <path id="Path_998373" data-name="Path 998373" d="M131.386,170.935a.386.386,0,0,0,.232-.2.42.42,0,0,0-.215-.555,4.448,4.448,0,0,0-3.946-.1.386.386,0,0,0-.132.559.46.46,0,0,0,.6.157,3.561,3.561,0,0,1,3.125.111A.451.451,0,0,0,131.386,170.935Z" transform="translate(-105.614 -159.661)" fill="#263238"/>
                      <path id="Path_998374" data-name="Path 998374" d="M104.522,179.945a6.946,6.946,0,0,0,4.312,3.109c2.3.49,3.351-3.225,2.488-5.485a4.6,4.6,0,0,0-5.277-2.787C103.871,175.306,103.283,177.965,104.522,179.945Z" transform="translate(-103.882 -160.03)" fill="#b97964"/>
                      <path id="Path_998375" data-name="Path 998375" d="M125.969,174.542a29.275,29.275,0,0,0,3.063,5.139.666.666,0,0,1-.276,1.029,4.277,4.277,0,0,1-2.311.121Z" transform="translate(-105.518 -160.021)" fill="#c15854"/>
                    </g>
                    <path id="Path_998376" data-name="Path 998376" d="M120.664,174.378l2-.374S121.513,175.428,120.664,174.378Z" transform="translate(-105.125 -159.981)" fill="#263238"/>
                    <path id="Path_998377" data-name="Path 998377" d="M129.481,173.865l2.02-.255C130.518,174.688,129.735,174.219,129.481,173.865Z" transform="translate(-105.778 -159.952)" fill="#263238"/>
                  </g>
                  <g id="Group_1183430" data-name="Group 1183430" transform="translate(0.336 5.924)">
                    <path id="Path_998378" data-name="Path 998378" d="M104.574,167.4c-1.17,1.691,1.16,6.6,1.16,6.6s4.139-1.231,4.365,5c1.527.253,3.24-5.568,2.991-11.419C112.783,164.282,106.64,164.416,104.574,167.4Z" transform="translate(-104.245 -165.135)" fill="#263238"/>
                  </g>
                  <path id="Path_998379" data-name="Path 998379" d="M108.457,181.09a.213.213,0,0,1-.054-.007,3.323,3.323,0,0,1-2.34-1.639,2.056,2.056,0,0,1-.174-1.635,1.619,1.619,0,0,1,2.029-.938.232.232,0,0,1-.166.432,1.163,1.163,0,0,0-1.432.676,1.59,1.59,0,0,0,.155,1.25,2.883,2.883,0,0,0,2.036,1.4.232.232,0,0,1-.054.458Z" transform="translate(-104.023 -160.074)" opacity="0.2"/>
                </g>
              </g>
            </g>
            <g id="Group_1183434" data-name="Group 1183434" transform="translate(16.218 23.105)">
              <path id="Path_998380" data-name="Path 998380" d="M126.881,184.182a21.748,21.748,0,0,0-1.442,2.806c-.181-.042-.362-.083-.54-.134-2.44-.626-3.365-1.723-3.65-2.748a3.262,3.262,0,0,1-.018-1.537,3.153,3.153,0,0,1,.288-.831,11.874,11.874,0,0,0,4.531,2.218C126.557,184.11,126.881,184.182,126.881,184.182Z" transform="translate(-121.149 -181.737)" fill="#263238"/>
              <path id="Path_998381" data-name="Path 998381" d="M126.059,183.956l-.446.816c-2.3-.6-3.833-1.323-4.374-2.2a3.153,3.153,0,0,1,.288-.831A11.887,11.887,0,0,0,126.059,183.956Z" transform="translate(-121.156 -181.737)" fill="#fff"/>
              <path id="Path_998382" data-name="Path 998382" d="M124.908,187.044c-2.44-.626-3.365-1.723-3.65-2.748a8.117,8.117,0,0,1,2.571,1.232A3.033,3.033,0,0,1,124.908,187.044Z" transform="translate(-121.157 -181.927)" fill="#dc5753"/>
            </g>
            <path id="Path_998383" data-name="Path 998383" d="M128.925,161.983c-1.825-3.794-9.262-7.32-17.812-3.656-7.725,3.3-9.956,14.545-4.373,14.968s12.167-5.041,12.167-5.041Z" transform="translate(-103.633 -156.783)" fill="#263238"/>
          </g>
        </g>
      </g>
    </g>
  </g>
</svg>
