<svg xmlns="http://www.w3.org/2000/svg" width="50" height="54.468" viewBox="0 0 50 54.468">
  <g id="img33" transform="translate(-21)">
    <circle id="Elipse_13668" data-name="Elipse 13668" cx="1.064" cy="1.064" r="1.064" transform="translate(52.174 36.383)" fill="#2142dc"/>
    <path id="Trazado_1059200" data-name="Trazado 1059200" d="M67.769,20.458a3.2,3.2,0,0,0-3.152-2.692H58.864l-3.209-5.852a5.318,5.318,0,1,0-5.1-3.554,6.445,6.445,0,0,0-6.046,5.255L43.722,17.9a3.174,3.174,0,0,0-1.445-.349H36.418l-5.612-7.315-.011-.014q-.113-.151-.237-.29a5.321,5.321,0,1,0-6.2-.661A6.389,6.389,0,0,0,21,14.894V27.34a11.459,11.459,0,0,0,3.723,8.46V53.4a1.064,1.064,0,0,0,1.064,1.064h7.447A1.064,1.064,0,0,0,34.3,53.4v-1.6a3.73,3.73,0,0,0-2.66-3.569V21.717L32.922,23a3.171,3.171,0,0,0,2.257.935h7.1a3.239,3.239,0,0,0,.34-.018l-.055.3a17.34,17.34,0,0,0-.285,3.1l-.517,9.816-4.538,7.619-2.673,3.186a1.064,1.064,0,0,0,.131,1.5l5.7,4.787a1.064,1.064,0,0,0,1.5-.131l1.026-1.222a3.73,3.73,0,0,0,.2-4.523l2.8-4.135-.44,4.844q0,.048,0,.1V53.4a1.064,1.064,0,0,0,1.064,1.064h7.447A1.064,1.064,0,0,0,55.043,53.4v-1.6a3.73,3.73,0,0,0-2.5-3.518l.991-5.947a1.064,1.064,0,1,0-2.1-.35l-1.015,6.091H47.7l.958-10.542a1.064,1.064,0,0,0-.229-.761l-2.041-2.551A9.075,9.075,0,0,1,44.4,28.583V28.4h6.554l.788,4.463a1.064,1.064,0,1,0,2.1-.37l-.91-5.157.98-5.557.686.991a3.192,3.192,0,0,0,2.624,1.375h6.332V53.4a1.064,1.064,0,1,0,2.128,0V24.149a1.568,1.568,0,0,1,.011-.186,3.209,3.209,0,0,0,1.686-1.406,1.6,1.6,0,0,1,1.494,1.593v.532a1.064,1.064,0,1,0,2.128,0v-.532A3.729,3.729,0,0,0,67.769,20.458ZM47.6,50.213h3.723a1.6,1.6,0,0,1,1.6,1.6v.532H47.6ZM55.574,3.4A3.191,3.191,0,1,1,52.383,6.6,3.2,3.2,0,0,1,55.574,3.4ZM27.915,2.128a3.191,3.191,0,1,1-3.191,3.191A3.2,3.2,0,0,1,27.915,2.128ZM26.479,34.511l-.089-.076a9.333,9.333,0,0,1-3.2-6.031h6.323V48.085h-2.66V35.319a1.064,1.064,0,0,0-.372-.808Zm5.691,17.3v.532H26.851V50.213h3.723A1.6,1.6,0,0,1,32.17,51.809Zm6.915-30H35.179a1.057,1.057,0,0,1-.752-.312l-5.76-5.76a1.064,1.064,0,0,0-1.5,1.5l2.348,2.348v6.687H23.128V14.894a4.26,4.26,0,0,1,4.255-4.255,2.109,2.109,0,0,1,1.72.875c.012.017.025.033.038.049l5.909,7.7a1.064,1.064,0,0,0,.844.416h3.191Zm3.191,0H41.213V19.681h1.064a1.068,1.068,0,0,1,.993.681l-.2,1.093A1.06,1.06,0,0,1,42.277,21.809Zm-1,29.689-.342.407-4.075-3.419,1.368-1.63,2.852,2.393a1.6,1.6,0,0,1,.2,2.248Zm3.445-15.937L46.5,37.777l-.186,2.05-4.766,7.034-2.071-1.738,4.248-7.132a1.065,1.065,0,0,0,.148-.489l.154-2.922a11.092,11.092,0,0,0,.7.98Zm16.7-13.539h-4.2a1.064,1.064,0,0,1-.875-.458l-4.153-6a1.064,1.064,0,0,0-1.749,1.211l1.745,2.52-1.231,6.981H44.442a15.169,15.169,0,0,1,.212-1.675L46.6,14a4.306,4.306,0,0,1,4.969-3.452,2.118,2.118,0,0,1,1.491,1.064l4.239,7.73a1.064,1.064,0,0,0,.933.552h3.191Zm3.191,0H63.553V19.894h1.064a1.064,1.064,0,0,1,0,2.128Z" transform="translate(0)" fill="#2142dc"/>
  </g>
</svg>
