<svg xmlns="http://www.w3.org/2000/svg" width="33.601" height="57.025" viewBox="0 0 33.601 57.025">
  <g id="img31" transform="translate(-105.148)">
    <g id="Group_1311741" data-name="Group 1311741" transform="translate(105.149 0)">
      <path id="Path_1059187" data-name="Path 1059187" d="M126.07,27.254l9.666-9.666A10.306,10.306,0,0,0,121.949,2.3a10.306,10.306,0,0,0-13.787,15.286l9.666,9.666a5.77,5.77,0,0,0,3.007,1.6v2.841a7.154,7.154,0,0,0-.683-.791,7.239,7.239,0,0,0-6.966-1.868,1.114,1.114,0,0,0-.789.789,7.243,7.243,0,0,0,2.744,7.711H109.7a1.114,1.114,0,0,0-1.114,1.114v5.012a1.114,1.114,0,0,0,1.114,1.114h.727l1.516,9.094a3.467,3.467,0,0,0,3.326,3.158h13.366a3.467,3.467,0,0,0,3.326-3.158l1.516-9.094h.727a1.114,1.114,0,0,0,1.114-1.114V38.647a1.114,1.114,0,0,0-1.114-1.114h-5.444a7.163,7.163,0,0,0,.876-.745,7.239,7.239,0,0,0,1.868-6.966,1.114,1.114,0,0,0-.789-.789,7.239,7.239,0,0,0-6.966,1.868,7.157,7.157,0,0,0-.683.791V28.85a5.769,5.769,0,0,0,3.007-1.6ZM109.737,16.013A8.078,8.078,0,1,1,121.161,4.589a1.114,1.114,0,0,0,1.575,0,8.078,8.078,0,0,1,11.424,11.424l-9.666,9.666a3.6,3.6,0,0,1-5.091,0Zm4.683,15.043A4.984,4.984,0,0,1,120,36.632a4.984,4.984,0,0,1-5.576-5.576Zm18.667,11.489h-6.127a1.114,1.114,0,0,0,0,2.228h4.255L129.761,53.5c-.1.6-.455,1.3-1.129,1.3H115.266c-.674,0-1.029-.7-1.129-1.3l-1.455-8.728h4.254a1.114,1.114,0,0,0,0-2.228H110.81V39.761h22.277Zm-7.766-10.07a5.005,5.005,0,0,1,4.156-1.42,4.984,4.984,0,0,1-5.576,5.576A5.006,5.006,0,0,1,125.321,32.475Z" transform="translate(-105.148 0)" fill="#2142dc"/>
      <path id="Path_1059188" data-name="Path 1059188" d="M203,106.019a1.114,1.114,0,0,0-1.482-.533,3.128,3.128,0,1,1-2.447-5.753v2.923a1.114,1.114,0,0,0,1.114,1.114h3.3l1.239,2.61a1.114,1.114,0,1,0,2.013-.955l-1.541-3.246a1.114,1.114,0,0,0-1.006-.636H201.3V99.528h2.448a1.114,1.114,0,0,0,0-2.228h-3.562a5.356,5.356,0,1,0,2.282,10.2A1.114,1.114,0,0,0,203,106.019Z" transform="translate(-184.841 -86.462)" fill="#2142dc"/>
      <path id="Path_1059189" data-name="Path 1059189" d="M229.663,62.317a1.671,1.671,0,0,0,0-3.342h0A1.671,1.671,0,0,0,229.663,62.317Z" transform="translate(-214.317 -52.406)" fill="#2142dc"/>
      <path id="Path_1059190" data-name="Path 1059190" d="M247.137,384.19a1.114,1.114,0,0,0,0-2.228h0A1.114,1.114,0,0,0,247.137,384.19Z" transform="translate(-230.337 -339.417)" fill="#2142dc"/>
    </g>
  </g>
</svg>
