<svg xmlns="http://www.w3.org/2000/svg" width="124" height="124" viewBox="0 0 124 124">
  <g id="img36" transform="translate(-1234.5 -458)">
    <g id="Elipse_12108" data-name="Elipse 12108" transform="translate(1241.5 465)" fill="#2142dc" stroke="rgba(255,255,255,0.4)" stroke-width="7">
      <circle cx="55" cy="55" r="55" stroke="none"/>
      <circle cx="55" cy="55" r="58.5" fill="none"/>
    </g>
    <g id="Grupo_1311750" data-name="Grupo 1311750" transform="translate(1260.57 466.461)">
      <g id="Grupo_1311749" data-name="Grupo 1311749" transform="translate(0 20.485)">
        <path id="Trazado_1059206" data-name="Trazado 1059206" d="M147.089,37.656a5.982,5.982,0,0,0,5.991-5.472,1.464,1.464,0,0,0-.378-1.115,1.481,1.481,0,0,0-1.091-.481h-.017L148.7,24.015h7.465V40.43H151.2a1.053,1.053,0,1,0,0,2.105h12.03a1.053,1.053,0,0,0,0-2.105h-4.963V24.015h7.465l-2.892,6.573h-.017a1.482,1.482,0,0,0-1.091.481,1.463,1.463,0,0,0-.378,1.115,6.016,6.016,0,0,0,11.982,0,1.464,1.464,0,0,0-.378-1.115,1.481,1.481,0,0,0-1.091-.481h-.017l-2.918-6.631a1.052,1.052,0,0,0-.343-2.047H158.272v-.372a1.053,1.053,0,0,0-2.105,0v.372H145.845a1.052,1.052,0,0,0-.343,2.047l-2.918,6.631h-.017a1.482,1.482,0,0,0-1.091.481,1.463,1.463,0,0,0-.378,1.115A5.982,5.982,0,0,0,147.089,37.656Zm20.261-2.105a3.886,3.886,0,0,1-3.769-2.858h7.537A3.886,3.886,0,0,1,167.35,35.551Zm2.205-4.963h-4.411l2.205-5.012Zm-22.467,4.963a3.886,3.886,0,0,1-3.769-2.858h7.537A3.886,3.886,0,0,1,147.089,35.551Zm0-9.975,2.205,5.012h-4.411Z" transform="translate(-121.289 -20.485)" fill="#e8ebfc"/>
        <path id="Trazado_1059207" data-name="Trazado 1059207" d="M183.945,223.362a1.2,1.2,0,0,1,.625-.858,3.313,3.313,0,0,0-1.1-6.211,1.208,1.208,0,0,1-.954-1.652,3.314,3.314,0,0,0-4.831-4.054,1.208,1.208,0,0,1-1.792-.652,3.313,3.313,0,0,0-6.307,0,1.208,1.208,0,0,1-1.792.652,3.314,3.314,0,0,0-4.831,4.054,1.208,1.208,0,0,1-.954,1.652,3.313,3.313,0,0,0-1.1,6.211,1.208,1.208,0,0,1,.331,1.878,3.313,3.313,0,0,0,3.153,5.462,1.207,1.207,0,0,1,.448-.011V240.04h-2.071a1.053,1.053,0,0,0,0,2.105h2.072v3.525a1.809,1.809,0,0,0,2.865,1.469l4.861-3.495,4.861,3.5a1.809,1.809,0,0,0,2.865-1.469v-3.525h2.072a1.053,1.053,0,0,0,0-2.105H180.3v-10.1a1.2,1.2,0,0,1,.782-.1,3.313,3.313,0,0,0,3.153-5.462A1.2,1.2,0,0,1,183.945,223.362Zm-10.312,18.449a1.807,1.807,0,0,0-2.112,0l-4.565,3.282v-11.43a3.429,3.429,0,0,0,2.246.851,3.262,3.262,0,0,0,2.588-1.287,1.208,1.208,0,0,1,1.907,0,3.263,3.263,0,0,0,3.749,1.079,3.435,3.435,0,0,0,.751-.384v11.17Zm9.953-21.168a3.313,3.313,0,0,0-.908,5.151,1.208,1.208,0,0,1-1.15,1.992,3.314,3.314,0,0,0-4.007,3.362,1.208,1.208,0,0,1-2.161.787,3.314,3.314,0,0,0-5.231,0,1.208,1.208,0,0,1-2.161-.787,3.316,3.316,0,0,0-3.3-3.437,3.34,3.34,0,0,0-.7.075,1.208,1.208,0,0,1-1.15-1.992,3.313,3.313,0,0,0-.908-5.151,1.208,1.208,0,0,1,.4-2.265,3.314,3.314,0,0,0,2.616-4.53,1.208,1.208,0,0,1,1.761-1.478,3.314,3.314,0,0,0,4.916-1.789,1.208,1.208,0,0,1,2.3,0,3.314,3.314,0,0,0,4.916,1.789,1.208,1.208,0,0,1,1.761,1.478,3.314,3.314,0,0,0,2.615,4.53,1.208,1.208,0,0,1,.4,2.265Z" transform="translate(-136.814 -181.371)" fill="#e8ebfc"/>
        <path id="Trazado_1059208" data-name="Trazado 1059208" d="M218.929,256.188a6.584,6.584,0,0,0-5.944,3.7,1.053,1.053,0,0,0,1.889.93,4.517,4.517,0,1,1,0,3.983,1.053,1.053,0,0,0-1.889.93,6.623,6.623,0,1,0,5.944-9.543Z" transform="translate(-182.999 -223.107)" fill="#e8ebfc"/>
        <path id="Trazado_1059209" data-name="Trazado 1059209" d="M19.506,177.1V147.254a1.756,1.756,0,0,0-1.754-1.754H9.544a1.053,1.053,0,0,0,0,2.105H17.4v29.144H14.028v-3.52a1.475,1.475,0,0,0-1.474-1.474h-5.6a1.475,1.475,0,0,0-1.474,1.474v3.52H2.105V147.605H4.632a1.053,1.053,0,0,0,0-2.105H1.754A1.756,1.756,0,0,0,0,147.254V177.1a1.756,1.756,0,0,0,1.754,1.754h16A1.756,1.756,0,0,0,19.506,177.1ZM7.583,173.861h4.339v2.888H7.583Z" transform="translate(0 -127.954)" fill="#e8ebfc"/>
        <path id="Trazado_1059210" data-name="Trazado 1059210" d="M31,180.553v1.28a1.053,1.053,0,0,0,2.105,0v-1.28a1.053,1.053,0,0,0-2.105,0Z" transform="translate(-26.645 -157.182)" fill="#e8ebfc"/>
        <path id="Trazado_1059211" data-name="Trazado 1059211" d="M63.043,182.886a1.053,1.053,0,0,0,1.053-1.053v-1.28a1.053,1.053,0,0,0-2.105,0v1.28A1.053,1.053,0,0,0,63.043,182.886Z" transform="translate(-53.29 -157.182)" fill="#e8ebfc"/>
        <path id="Trazado_1059212" data-name="Trazado 1059212" d="M94.038,182.886a1.053,1.053,0,0,0,1.053-1.053v-1.28a1.053,1.053,0,0,0-2.105,0v1.28A1.053,1.053,0,0,0,94.038,182.886Z" transform="translate(-79.934 -157.182)" fill="#e8ebfc"/>
        <path id="Trazado_1059213" data-name="Trazado 1059213" d="M33.1,217.043a1.053,1.053,0,1,0-2.105,0v1.28a1.053,1.053,0,1,0,2.105,0Z" transform="translate(-26.645 -188.551)" fill="#e8ebfc"/>
        <path id="Trazado_1059214" data-name="Trazado 1059214" d="M61.99,218.323a1.053,1.053,0,1,0,2.105,0v-1.28a1.053,1.053,0,1,0-2.105,0Z" transform="translate(-53.29 -188.551)" fill="#e8ebfc"/>
        <path id="Trazado_1059215" data-name="Trazado 1059215" d="M92.985,218.323a1.053,1.053,0,1,0,2.105,0v-1.28a1.053,1.053,0,1,0-2.105,0Z" transform="translate(-79.934 -188.551)" fill="#e8ebfc"/>
        <path id="Trazado_1059216" data-name="Trazado 1059216" d="M33.1,253.532a1.053,1.053,0,0,0-2.105,0v1.28a1.053,1.053,0,1,0,2.105,0Z" transform="translate(-26.645 -219.918)" fill="#e8ebfc"/>
        <path id="Trazado_1059217" data-name="Trazado 1059217" d="M61.99,254.812a1.053,1.053,0,1,0,2.105,0v-1.28a1.053,1.053,0,0,0-2.105,0Z" transform="translate(-53.29 -219.918)" fill="#e8ebfc"/>
        <path id="Trazado_1059218" data-name="Trazado 1059218" d="M92.985,254.812a1.053,1.053,0,1,0,2.105,0v-1.28a1.053,1.053,0,0,0-2.105,0Z" transform="translate(-79.934 -219.918)" fill="#e8ebfc"/>
        <path id="Trazado_1059219" data-name="Trazado 1059219" d="M32.048,288.968a1.053,1.053,0,0,0-1.053,1.053v1.28a1.053,1.053,0,0,0,2.105,0v-1.28A1.053,1.053,0,0,0,32.048,288.968Z" transform="translate(-26.645 -251.286)" fill="#e8ebfc"/>
        <path id="Trazado_1059220" data-name="Trazado 1059220" d="M61.99,291.3a1.053,1.053,0,0,0,2.105,0v-1.28a1.053,1.053,0,1,0-2.105,0Z" transform="translate(-53.29 -251.286)" fill="#e8ebfc"/>
        <path id="Trazado_1059221" data-name="Trazado 1059221" d="M92.985,291.3a1.053,1.053,0,0,0,2.105,0v-1.28a1.053,1.053,0,1,0-2.105,0Z" transform="translate(-79.934 -251.286)" fill="#e8ebfc"/>
        <path id="Trazado_1059222" data-name="Trazado 1059222" d="M390.77,140.843h-.137V136.93a3.877,3.877,0,0,0-2.506-3.615l-1.052-.394a5.312,5.312,0,1,0-8.608,0l-1.052.394a3.877,3.877,0,0,0-2.506,3.615v3.913h-.137a1.756,1.756,0,0,0-1.754,1.754v3.334a1.756,1.756,0,0,0,1.754,1.754h.137v2.991a1.053,1.053,0,0,0,2.105,0v-2.991h11.513V158.7h-2.056V150.79A1.475,1.475,0,0,0,385,149.316h-4.454a1.475,1.475,0,0,0-1.474,1.474V158.7h-2.056v-3.109a1.053,1.053,0,1,0-2.105,0v3.459a1.756,1.756,0,0,0,1.754,1.754h12.214a1.756,1.756,0,0,0,1.754-1.754V147.686h.137a1.756,1.756,0,0,0,1.754-1.754V142.6a1.756,1.756,0,0,0-1.754-1.754Zm-6.4,17.855h-3.19v-7.276h3.19Zm-1.6-32.091a3.207,3.207,0,1,1-3.207,3.207A3.211,3.211,0,0,1,382.771,126.606Zm-5.756,10.324a1.762,1.762,0,0,1,1.139-1.643l2.11-.79h0a5.3,5.3,0,0,0,5.006,0h0l2.11.79a1.762,1.762,0,0,1,1.139,1.643v3.913H377.015V136.93Zm13.4,8.65h-15.3v-2.632h15.3Z" transform="translate(-320.664 -109.902)" fill="#e8ebfc"/>
        <path id="Trazado_1059223" data-name="Trazado 1059223" d="M75.325,398.956H65.148A1.054,1.054,0,0,1,64.1,397.9v-4.351a1.053,1.053,0,1,0-2.105,0V397.9a3.161,3.161,0,0,0,3.158,3.158H75.325a1.053,1.053,0,0,0,0-2.105Z" transform="translate(-53.29 -340.287)" fill="#e8ebfc"/>
        <path id="Trazado_1059224" data-name="Trazado 1059224" d="M359.115,392.5a1.053,1.053,0,0,0-1.053,1.053V397.9a1.054,1.054,0,0,1-1.053,1.053H346.553a1.053,1.053,0,0,0,0,2.105H357.01a3.161,3.161,0,0,0,3.158-3.158v-4.351A1.053,1.053,0,0,0,359.115,392.5Z" transform="translate(-297.009 -340.287)" fill="#e8ebfc"/>
      </g>
    </g>
  </g>
</svg>
