<svg xmlns="http://www.w3.org/2000/svg" width="70" height="70" viewBox="0 0 70 70">
  <g id="img42" transform="translate(-269 -958.088)">
    <circle id="Elipse_5614" data-name="Elipse 5614" cx="35" cy="35" r="35" transform="translate(269 958.087)" fill="#fff"/>
    <g id="Grupo_1311753" data-name="Grupo 1311753" transform="translate(284 972.956)">
      <g id="Grupo_1311752" data-name="Grupo 1311752" transform="translate(0 0.142)">
        <path id="Trazado_1059237" data-name="Trazado 1059237" d="M37.564,4.182H35.581a8.614,8.614,0,0,0-14.6,0H2.436A2.438,2.438,0,0,0,0,6.618V31.434A2.438,2.438,0,0,0,2.436,33.87H15.99L15.4,38.557H12.969a.781.781,0,0,0,0,1.563H27.031a.781.781,0,0,0,0-1.562H24.6L24.01,33.87H37.564A2.438,2.438,0,0,0,40,31.434V6.618a2.438,2.438,0,0,0-2.436-2.436Zm-28.821,25A11.062,11.062,0,0,0,8.085,27.2c-.553-1.3-.419-2.372.359-2.876.795-.515,2.2-.383,3.359.864,1.512,1.633,3.129,1.157,4.31.809,1.111-.327,1.813-.49,2.589.125a11.634,11.634,0,0,1-.612,3.055H8.743Zm11.545-3.82a13.3,13.3,0,0,0-1.645-6.406.781.781,0,0,0-1.368.755,11.715,11.715,0,0,1,1.407,4.633,4.7,4.7,0,0,0-3.011.16c-1.228.361-1.906.509-2.722-.372a4.258,4.258,0,0,0-5.355-1.114c-1.134.735-1.978,2.382-.946,4.8a10.71,10.71,0,0,1,.487,1.365H1.562V19.191a2.12,2.12,0,0,1,.467,0c3.279.387,4.624-.977,5.134-1.824a4.209,4.209,0,0,0,.154-3.725,11.723,11.723,0,0,1,5.341,1.447.781.781,0,0,0,.755-1.368,13.345,13.345,0,0,0-11.851-.481V8.87H19.689A8.578,8.578,0,0,0,20.777,12.9l-.591,2.2a1.372,1.372,0,0,0,.367,1.346A1.392,1.392,0,0,0,21.9,16.8l2.191-.588A8.624,8.624,0,0,0,36.874,8.87h1.564V29.182H19.73A13.251,13.251,0,0,0,20.288,25.362ZM5.626,13.725a2.861,2.861,0,0,1,.2,2.842c-.545.906-1.828,1.289-3.612,1.078a3.717,3.717,0,0,0-.65-.021V14.982A11.709,11.709,0,0,1,5.626,13.725Zm31.939-7.98a.874.874,0,0,1,.873.873v.689H36.76a8.518,8.518,0,0,0-.414-1.563ZM28.281,1.682a7.032,7.032,0,1,1-3.67,13.03A.781.781,0,0,0,24,14.623l-2.226.6.6-2.226a.781.781,0,0,0-.089-.611A7.055,7.055,0,0,1,28.281,1.682ZM2.436,5.745h17.78A8.52,8.52,0,0,0,19.8,7.307H1.562V6.618a.874.874,0,0,1,.873-.873ZM23.021,38.557H16.979l.586-4.687h4.871Zm14.543-6.25H2.436a.874.874,0,0,1-.873-.873v-.69H38.438v.69a.874.874,0,0,1-.873.873Z" transform="translate(0 -0.142)" fill="#2142dc"/>
        <path id="Trazado_1059238" data-name="Trazado 1059238" d="M304.072,85.95a3.781,3.781,0,0,0,1.6-.358.781.781,0,0,0-.666-1.414,2.194,2.194,0,1,1-1.716-4.035v2.05a.781.781,0,0,0,.781.781h2.313l1.066,2.246a.781.781,0,1,0,1.412-.67l-1.278-2.692a.781.781,0,0,0-.706-.446h-2.026V80h1.717a.781.781,0,0,0,0-1.562h-2.5A3.757,3.757,0,0,0,304.072,85.95Z" transform="translate(-276.871 -72.32)" fill="#2142dc"/>
        <path id="Trazado_1059239" data-name="Trazado 1059239" d="M334.42,42.456a1.172,1.172,0,0,0,0-2.344h0A1.172,1.172,0,0,0,334.42,42.456Z" transform="translate(-307.219 -36.989)" fill="#2142dc"/>
        <path id="Trazado_1059240" data-name="Trazado 1059240" d="M366.775,325.859h-6.168a.781.781,0,0,0,0,1.563h6.168A.781.781,0,0,0,366.775,325.859Z" transform="translate(-331.718 -300.412)" fill="#2142dc"/>
        <path id="Trazado_1059241" data-name="Trazado 1059241" d="M305.426,285.858H294.059a.781.781,0,0,0,0,1.563h11.367A.781.781,0,0,0,305.426,285.858Z" transform="translate(-270.369 -263.536)" fill="#2142dc"/>
        <path id="Trazado_1059242" data-name="Trazado 1059242" d="M294.059,247.419h11.367a.781.781,0,0,0,0-1.562H294.059A.781.781,0,0,0,294.059,247.419Z" transform="translate(-270.369 -226.66)" fill="#2142dc"/>
        <path id="Trazado_1059243" data-name="Trazado 1059243" d="M193.615,199.819h0a.781.781,0,1,0,.782.781A.781.781,0,0,0,193.614,199.819Z" transform="translate(-177.768 -184.219)" fill="#2142dc"/>
      </g>
    </g>
  </g>
</svg>
