<svg xmlns="http://www.w3.org/2000/svg" width="70" height="70" viewBox="0 0 70 70">
  <g id="img44" transform="translate(-269 -958.088)">
    <circle id="Elipse_5614" data-name="Elipse 5614" cx="35" cy="35" r="35" transform="translate(269 958.087)" fill="#fff"/>
    <g id="Grupo_1311757" data-name="Grupo 1311757" transform="translate(284 973.316)">
      <g id="Grupo_1311756" data-name="Grupo 1311756" transform="translate(0 0.001)">
        <path id="Trazado_1059248" data-name="Trazado 1059248" d="M30.17,34.877a10.934,10.934,0,0,1-7.511-2.558,7.744,7.744,0,0,0-4.954-1.993h-.01V26.359a2.368,2.368,0,0,0-1.583-2.231V18.341a3.7,3.7,0,0,0,.427-.367l2.238-2.238A3.832,3.832,0,0,0,19.9,12.961a4.241,4.241,0,0,0-1.1-2.776L10.526.929A2.6,2.6,0,0,0,8.676,0,2.282,2.282,0,0,0,6.99.69L.836,6.844A2.806,2.806,0,0,0,.009,9.058a2.515,2.515,0,0,0,1.035,1.848l10.011,7.151q.163.116.328.219v5.852A2.368,2.368,0,0,0,9.8,26.359v3.967h-.01A2.367,2.367,0,0,0,7.427,32.69v4.748A2.565,2.565,0,0,0,9.989,40H30.17a2.562,2.562,0,0,0,0-5.124ZM1.952,9.635a.943.943,0,0,1-.386-.706,1.247,1.247,0,0,1,.375-.981L8.095,1.8a.737.737,0,0,1,.538-.231,1.058,1.058,0,0,1,.729.407l8.282,9.256a2.452,2.452,0,0,1,.03,3.4l-2.238,2.238c-1.031,1.031-2.514.6-3.47-.083Zm11.967,9.409a3.913,3.913,0,0,0,.631-.051v5h-1.6V18.931a4.327,4.327,0,0,0,.973.113Zm-2.555,7.315a.8.8,0,0,1,.8-.8h3.166a.8.8,0,0,1,.8.8v3.967H11.364V26.359ZM30.17,38.438H9.989a1,1,0,0,1-1-1V32.69a.8.8,0,0,1,.8-.8h7.914a6.325,6.325,0,0,1,4.031,1.691,12.548,12.548,0,0,0,8.434,2.86,1,1,0,0,1,0,2Z" transform="translate(0 -0.001)" fill="#2142dc"/>
        <path id="Trazado_1059249" data-name="Trazado 1059249" d="M148.077,140.2a2.349,2.349,0,0,0,1.672-.692,2.364,2.364,0,1,0-1.672.692Zm-.567-2.931a.8.8,0,1,1,0,1.134A.805.805,0,0,1,147.51,137.27Z" transform="translate(-134.329 -124.893)" fill="#2142dc"/>
        <path id="Trazado_1059250" data-name="Trazado 1059250" d="M289.184,141H275.121a1.564,1.564,0,0,0-1.562,1.562v5.211l-1.106,1.106a1.564,1.564,0,0,0,0,2.21l1.106,1.106v4.43a1.564,1.564,0,0,0,1.563,1.562h3.516a.781.781,0,0,0,0-1.562h-3.516v-4.754a.781.781,0,0,0-.229-.552l-1.335-1.335,1.335-1.335a.781.781,0,0,0,.229-.552v-5.535h14.063v14.063h-3.516a.781.781,0,0,0,0,1.562h3.516a1.564,1.564,0,0,0,1.562-1.562V142.562A1.564,1.564,0,0,0,289.184,141Z" transform="translate(-250.746 -129.985)" fill="#2142dc"/>
        <path id="Trazado_1059251" data-name="Trazado 1059251" d="M345.79,194.743a3.337,3.337,0,0,0-4.144-.447,3.321,3.321,0,0,0-4.144,5.143l2.671,2.671a2.1,2.1,0,0,0,2.947,0l2.671-2.671A3.325,3.325,0,0,0,345.79,194.743Zm-1.1,3.591L342.014,201a.527.527,0,0,1-.737,0l-2.671-2.67a1.758,1.758,0,0,1,2.486-2.487.786.786,0,0,0,1.1,0,1.758,1.758,0,0,1,2.487,2.487Z" transform="translate(-310.24 -178.635)" fill="#2142dc"/>
        <path id="Trazado_1059252" data-name="Trazado 1059252" d="M393.561,341.783a.781.781,0,0,0-.781-.781h0a.781.781,0,1,0,.782.781Z" transform="translate(-361.373 -314.362)" fill="#2142dc"/>
      </g>
    </g>
  </g>
</svg>
