<svg xmlns="http://www.w3.org/2000/svg" width="90" height="90" viewBox="0 0 90 90">
  <g id="img7" transform="translate(-209.422 -2899.773)">
    <rect id="Rectángulo_454209" data-name="Rectángulo 454209" width="90" height="90" rx="10" transform="translate(209.422 2899.773)" fill="#fff"/>
    <g id="Grupo_1185942" data-name="Grupo 1185942" transform="translate(220.121 2900.483)">
      <g id="Grupo_1185933" data-name="Grupo 1185933" transform="translate(14.903 53.882)">
        <g id="Grupo_1185928" data-name="Grupo 1185928" transform="translate(0 3.654)">
          <path id="Trazado_999296" data-name="Trazado 999296" d="M153.621,358.245a11.631,11.631,0,0,0,2.792,7.66h-42.09a1.331,1.331,0,0,1-1.087-.556,13.559,13.559,0,0,1,0-14.208,1.332,1.332,0,0,1,1.087-.556h42.09A11.633,11.633,0,0,0,153.621,358.245Z" transform="translate(-111.226 -350.585)" fill="#fb3a82"/>
          <path id="Trazado_999297" data-name="Trazado 999297" d="M124.071,350.587,112.2,363.444a13.45,13.45,0,0,1-.971-5.2,12.156,12.156,0,0,1,2.01-7.1,1.33,1.33,0,0,1,1.087-.556Z" transform="translate(-111.229 -350.587)" fill="#fb1466"/>
          <path id="Trazado_999298" data-name="Trazado 999298" d="M188.186,358.245a11.631,11.631,0,0,0,2.792,7.66H148.247s-2.456-2.487-2.456-7.66,2.456-7.66,2.456-7.66h42.731A11.633,11.633,0,0,0,188.186,358.245Z" transform="translate(-141.16 -350.585)" fill="#e0d3ce"/>
          <g id="Grupo_1185927" data-name="Grupo 1185927" transform="translate(4.631 0)">
            <path id="Trazado_999299" data-name="Trazado 999299" d="M154,350.587l-8.166,8.845c-.028-.378-.044-.773-.044-1.184,0-5.174,2.456-7.66,2.456-7.66Z" transform="translate(-145.79 -350.587)" fill="#cdbfbb"/>
            <path id="Trazado_999300" data-name="Trazado 999300" d="M429.462,358.252a11.63,11.63,0,0,0,2.792,7.66h-5.063a11.9,11.9,0,0,1,0-15.319h5.063A11.627,11.627,0,0,0,429.462,358.252Z" transform="translate(-387.067 -350.591)" fill="#cdbfbb"/>
          </g>
        </g>
        <g id="Grupo_1185932" data-name="Grupo 1185932" transform="translate(5.766)">
          <g id="Grupo_1185930" data-name="Grupo 1185930" transform="translate(0)">
            <path id="Trazado_999301" data-name="Trazado 999301" d="M201.189,325.541a2.223,2.223,0,0,1-2.223,2.223H156.483a2.224,2.224,0,0,1,0-4.447h42.483A2.224,2.224,0,0,1,201.189,325.541Z" transform="translate(-154.26 -323.317)" fill="#fb3a82"/>
            <g id="Grupo_1185929" data-name="Grupo 1185929">
              <path id="Trazado_999302" data-name="Trazado 999302" d="M164.707,323.317l-4.1,4.447h-4.12a2.224,2.224,0,0,1,0-4.447Z" transform="translate(-154.26 -323.317)" fill="#fb1466"/>
              <path id="Trazado_999303" data-name="Trazado 999303" d="M462.25,325.544a2.226,2.226,0,0,1-2.225,2.225h-4.312a2.224,2.224,0,0,0,0-4.448h4.312A2.224,2.224,0,0,1,462.25,325.544Z" transform="translate(-415.32 -323.32)" fill="#fb1466"/>
            </g>
          </g>
          <g id="Grupo_1185931" data-name="Grupo 1185931" transform="translate(0 18.18)">
            <path id="Trazado_999304" data-name="Trazado 999304" d="M198.963,463.443H156.48a2.223,2.223,0,1,1,0-4.447h42.483a2.223,2.223,0,1,1,0,4.447Z" transform="translate(-154.257 -458.996)" fill="#fb3a82"/>
            <path id="Trazado_999305" data-name="Trazado 999305" d="M462.25,461.223a2.223,2.223,0,0,1-2.225,2.223h-4.312a2.223,2.223,0,1,0,0-4.446h4.312A2.224,2.224,0,0,1,462.25,461.223Z" transform="translate(-415.32 -459)" fill="#fb1466"/>
          </g>
        </g>
      </g>
      <g id="Grupo_1185941" data-name="Grupo 1185941" transform="translate(-0.001 12.193)">
        <g id="Grupo_1185936" data-name="Grupo 1185936" transform="translate(1.005 26.556)">
          <g id="Grupo_1185934" data-name="Grupo 1185934" transform="translate(0 8.505)">
            <path id="Trazado_999306" data-name="Trazado 999306" d="M36.77,277.447l-3.59-3.59L8.745,296.414a3.869,3.869,0,1,0,5.468,5.468Z" transform="translate(-7.5 -273.857)" fill="#873f30"/>
            <path id="Trazado_999307" data-name="Trazado 999307" d="M15.333,309.13a3.871,3.871,0,0,1-5.471,0,3.831,3.831,0,0,1-.944-1.542,3.864,3.864,0,0,0,3.927-.94c.037-.037.074-.077.11-.115L35.513,282.1,38,284.582,15.44,309.017C15.4,309.056,15.368,309.094,15.333,309.13Z" transform="translate(-8.728 -280.992)" fill="#6c3328"/>
          </g>
          <path id="Trazado_999308" data-name="Trazado 999308" d="M198.9,210.382l-8.266,9.86,3.377,3.376,9.86-8.266Z" transform="translate(-166.097 -210.382)" fill="#873f30"/>
          <path id="Trazado_999309" data-name="Trazado 999309" d="M207.5,210.382l-2.671,3.186.8.8a1.511,1.511,0,0,1,0,2.136l-5.066,5.066,2.047,2.046,9.86-8.266Z" transform="translate(-174.693 -210.382)" fill="#6c3328"/>
          <g id="Grupo_1185935" data-name="Grupo 1185935" transform="translate(21.804 7.841)">
            <path id="Trazado_999310" data-name="Trazado 999310" d="M174.21,276.319l-3.278-3.278a2.426,2.426,0,0,1,3.432-3.432l3.278,3.278a2.426,2.426,0,0,1-3.432,3.432Z" transform="translate(-170.222 -268.899)" fill="#ba5d4f"/>
            <path id="Trazado_999311" data-name="Trazado 999311" d="M187.357,286.039a2.426,2.426,0,0,1-3.431,0l-2.484-2.484a2.426,2.426,0,1,0,3.432-3.432l2.484,2.484A2.425,2.425,0,0,1,187.357,286.039Z" transform="translate(-179.938 -278.619)" fill="#a34f41"/>
          </g>
        </g>
        <g id="Grupo_1185937" data-name="Grupo 1185937" transform="translate(26.666 4.021)">
          <path id="Trazado_999312" data-name="Trazado 999312" d="M0,0H10.294V16.161H0Z" transform="translate(11.426 0) rotate(45)" fill="#ba5d4f"/>
          <path id="Trazado_999313" data-name="Trazado 999313" d="M0,0H10.294V16.161H0Z" transform="translate(23.22 34.656) rotate(-135)" fill="#a34f41"/>
        </g>
        <g id="Grupo_1185940" data-name="Grupo 1185940" transform="translate(0 0)">
          <path id="Trazado_999314" data-name="Trazado 999314" d="M177.452,36.644l-.253-.253a2.455,2.455,0,0,1,0-3.472l12.506-12.506a2.455,2.455,0,0,1,3.472,0l.253.253a2.455,2.455,0,0,1,0,3.472L180.923,36.644A2.455,2.455,0,0,1,177.452,36.644Z" transform="translate(-152.833 -18.689)" fill="#873f30"/>
          <path id="Trazado_999315" data-name="Trazado 999315" d="M348.962,208.154l.253.253a2.455,2.455,0,0,0,3.472,0L365.193,195.9a2.455,2.455,0,0,0,0-3.472l-.253-.253a2.455,2.455,0,0,0-3.472,0l-12.506,12.506A2.455,2.455,0,0,0,348.962,208.154Z" transform="translate(-301.581 -167.437)" fill="#6c3328"/>
          <g id="Grupo_1185939" data-name="Grupo 1185939">
            <path id="Trazado_999316" data-name="Trazado 999316" d="M0,0H11.56V24.408H0Z" transform="translate(48.529 8.625) rotate(45)" fill="#fcc16d"/>
            <path id="Trazado_999317" data-name="Trazado 999317" d="M0,0H24.408V5.851H0Z" transform="translate(35.304 29.928) rotate(-45)" fill="#fca62f"/>
            <path id="Trazado_999318" data-name="Trazado 999318" d="M242.253,67.821l-2-.819a1.841,1.841,0,0,0-2,.4l-14.06,14.06a1.841,1.841,0,0,0-.4,2l.819,2a1.227,1.227,0,0,0,2,.4l16.045-16.045A1.228,1.228,0,0,0,242.253,67.821Z" transform="translate(-193.684 -59.54)" fill="#873f30"/>
            <path id="Trazado_999319" data-name="Trazado 999319" d="M306.829,132.4l.819,2a1.841,1.841,0,0,1-.4,2l-14.06,14.06a1.841,1.841,0,0,1-2,.4l-2-.819a1.227,1.227,0,0,1-.4-2L304.825,132A1.228,1.228,0,0,1,306.829,132.4Z" transform="translate(-249.774 -115.631)" fill="#6c3328"/>
            <g id="Grupo_1185938" data-name="Grupo 1185938">
              <path id="Trazado_999320" data-name="Trazado 999320" d="M65.375,71.057h-.748a10.393,10.393,0,0,1-.866-1.65,1.005,1.005,0,0,0-1.857.769c.124.3.263.593.409.881H22.892a3.215,3.215,0,0,0-.876.122A11.682,11.682,0,0,1,20.539,65.2c0-.438.019-.87.057-1.293H39.851a1,1,0,0,0,0-2.01H21.443L23.8,59.334h38.5a12.544,12.544,0,0,0-.967,2.558H48.132a1,1,0,0,0,0,2.01H60.99c-.039.408-.062.821-.064,1.237a1,1,0,0,0,1,1.009h0a1,1,0,0,0,1-1,10.753,10.753,0,0,1,1.69-5.813h.75a3.228,3.228,0,1,0,0-6.457H52.813l11.51-11.51a3.46,3.46,0,0,0,0-4.893l-.253-.253a3.458,3.458,0,0,0-4.715-.165l-1.779-1.779.606-.606a2.839,2.839,0,0,0,.622-3.09l-.819-2a2.227,2.227,0,0,0-1.617-1.342l-1.4-1.4a1,1,0,1,0-1.421,1.421l.688.688L38.4,43.788,33.741,39.13,49.579,23.292l.617.617a1,1,0,1,0,1.421-1.421L50.29,21.161a2.228,2.228,0,0,0-1.342-1.617h0l-2-.819a2.84,2.84,0,0,0-3.09.622l-.606.606-1.779-1.779a3.458,3.458,0,0,0-.165-4.715l-.253-.253a3.46,3.46,0,0,0-4.893,0L23.655,25.713a3.46,3.46,0,0,0,0,4.893l.253.253a3.458,3.458,0,0,0,4.715.165L30.4,32.8l-.606.606a2.84,2.84,0,0,0-.622,3.089l.819,2a2.227,2.227,0,0,0,1.594,1.336l-5.039,6.011A3.433,3.433,0,0,0,22.012,50.2l-2.285,2.11a1,1,0,0,0,1.363,1.477L23.2,51.837l2.49,2.49L6.979,74.6A2.864,2.864,0,1,1,2.931,70.55L17.61,57a1,1,0,1,0-1.363-1.477L1.567,69.073a4.874,4.874,0,0,0,3.3,8.456h.1a4.833,4.833,0,0,0,3.484-1.567l6.023-6.525a11.582,11.582,0,0,0,1.616,3.445A2.34,2.34,0,0,0,18,73.86h1.693a3.223,3.223,0,0,0,3.2,3.653H65.375a3.228,3.228,0,0,0,0-6.457Zm1.218-14.951a1.22,1.22,0,0,1-1.219,1.219H25.66l1.67-1.81a3.435,3.435,0,0,0,3.428-.627H65.375a1.22,1.22,0,0,1,1.218,1.219Zm-30.318-11.6-5.819,4.878-2.314-2.314,4.878-5.819Zm-4.384,8.37a3.451,3.451,0,0,0-.21-1.9l6.011-5.039a2.227,2.227,0,0,0,1.336,1.594l2,.819a2.84,2.84,0,0,0,3.089-.622l.606-.606,1.779,1.779a3.466,3.466,0,0,0-.4,3.971H31.892ZM61.623,37.218a1.44,1.44,0,0,1,1.025.424l.253.253a1.45,1.45,0,0,1,0,2.05L50.395,52.452a1.45,1.45,0,0,1-2.05,0l-.253-.253a1.451,1.451,0,0,1,0-2.05L60.6,37.643A1.44,1.44,0,0,1,61.623,37.218Zm-3.7.253L47.92,47.478l-1.772-1.772L56.154,35.7Zm-18.21,7.841L55.761,29.268a.211.211,0,0,1,.154-.066.245.245,0,0,1,.048,0,.214.214,0,0,1,.162.134l.819,2a.834.834,0,0,1-.183.908L42.7,46.312a.834.834,0,0,1-.908.183l-2-.819a.223.223,0,0,1-.073-.363ZM26.354,29.862a1.44,1.44,0,0,1-1.025-.425l-.253-.253a1.45,1.45,0,0,1,0-2.05L37.583,14.628a1.45,1.45,0,0,1,2.05,0l.253.253a1.45,1.45,0,0,1,0,2.05L27.38,29.438a1.442,1.442,0,0,1-1.025.424Zm3.7-.253L40.057,19.6l1.772,1.772L31.823,31.381Zm1.167,5.22,14.06-14.06a.834.834,0,0,1,.908-.183l2,.819a.222.222,0,0,1,.073.363L32.216,37.812a.222.222,0,0,1-.363-.073l-.819-2a.834.834,0,0,1,.183-.908Zm-7.4,14.187a1.421,1.421,0,0,1,2.427-1.005l3.278,3.278a1.421,1.421,0,0,1-2.01,2.01L24.23,50.022a1.412,1.412,0,0,1-.416-1.005Zm-6.081,22.7a10.139,10.139,0,0,1-1.61-4.061l2.409-2.609c0,.05,0,.1,0,.149a13.943,13.943,0,0,0,1.559,6.655H18A.327.327,0,0,1,17.732,71.717ZM65.375,75.5H22.892a1.219,1.219,0,0,1,0-2.437H65.375a1.219,1.219,0,1,1,0,2.437Z" transform="translate(0.001 -12.193)"/>
              <path id="Trazado_999321" data-name="Trazado 999321" d="M203.332,417.166a1,1,0,0,0,0,2.01h23.412a1,1,0,1,0,0-2.01Z" transform="translate(-175.216 -362.902)"/>
            </g>
          </g>
        </g>
      </g>
    </g>
  </g>
</svg>
