<svg xmlns="http://www.w3.org/2000/svg" width="120" height="120" viewBox="0 0 120 120">
  <g id="img8" transform="translate(-388.711 -10669)">
    <rect id="Rect치ngulo_402033" data-name="Rect치ngulo 402033" width="120" height="120" rx="10" transform="translate(388.711 10669)" fill="#2142dc"/>
    <rect id="Rect치ngulo_454167" data-name="Rect치ngulo 454167" width="100" height="100" rx="10" transform="translate(398.711 10679)" fill="#bcc6f5"/>
    <g id="Grupo_1311785" data-name="Grupo 1311785" transform="translate(413.778 10694.067)">
      <g id="Grupo_1311783" data-name="Grupo 1311783" transform="translate(2.095 2.095)">
        <g id="Grupo_1311769" data-name="Grupo 1311769" transform="translate(0 10.946)">
          <path id="Trazado_1059287" data-name="Trazado 1059287" d="M26.081,12V27.324H2V12Z" transform="translate(-2 -12)" fill="#b4dd7f"/>
        </g>
        <g id="Grupo_1311770" data-name="Grupo 1311770" transform="translate(17.514 53.635)">
          <path id="Trazado_1059288" data-name="Trazado 1059288" d="M66.162,51V61.946a1.1,1.1,0,0,1-1.095,1.095H19.095A1.1,1.1,0,0,1,18,61.946V58.662H52.436a2.3,2.3,0,0,0,.613-.088,1.96,1.96,0,0,0,.493-.208Z" transform="translate(-18 -51)" fill="#ffeaa7"/>
        </g>
        <g id="Grupo_1311771" data-name="Grupo 1311771" transform="translate(17.514 0)">
          <path id="Trazado_1059289" data-name="Trazado 1059289" d="M40.987,12.946A3.279,3.279,0,0,0,44.27,9.662a1.1,1.1,0,0,0-1.095-1.095l.2-.2a3.057,3.057,0,0,0,.9-2.167,3,3,0,0,0-.514-1.686L42.727,2.974A2.168,2.168,0,0,0,40.91,2H66.162V55.635H62.047a10.37,10.37,0,0,1-4.641-1.095L53.049,63.21a2.3,2.3,0,0,1-.613.088H18V28.27h6.568l.46.23a18.533,18.533,0,0,0,8.3,1.959H31.135a4.377,4.377,0,0,0-4.378,4.378v1.095a1.1,1.1,0,0,0,1.095,1.095h19.7a1.1,1.1,0,0,0,1.095-1.095V34.838A4.377,4.377,0,0,0,44.27,30.46h4.378a2.2,2.2,0,0,0,2.189-2.189,2.205,2.205,0,0,0-2.189-2.189h2.189a2.205,2.205,0,0,0,2.189-2.189A2.2,2.2,0,0,0,50.838,21.7a2.205,2.205,0,0,0,2.189-2.189,2.2,2.2,0,0,0-2.189-2.189,2.205,2.205,0,0,0,2.189-2.189,2.2,2.2,0,0,0-2.189-2.189H44.27a2.14,2.14,0,0,0-1.543.646,2.472,2.472,0,0,0-.274.317Z" transform="translate(-18 -2)" fill="#e6e9ed"/>
        </g>
        <g id="Grupo_1311772" data-name="Grupo 1311772" transform="translate(52.563 52.541)">
          <path id="Trazado_1059290" data-name="Trazado 1059290" d="M63.133,51.095,50.513,58.461a1.96,1.96,0,0,1-.493.208L54.377,50a10.37,10.37,0,0,0,4.641,1.095Z" transform="translate(-50.02 -50)" fill="#b4dd7f"/>
        </g>
        <g id="Grupo_1311773" data-name="Grupo 1311773" transform="translate(21.892 39.406)">
          <path id="Trazado_1059291" data-name="Trazado 1059291" d="M49.584,38.077a4.48,4.48,0,0,1,1.27,7.837l-1.423,1.073a2.877,2.877,0,0,0-1.16,2.31,4.036,4.036,0,0,1-4.028,4.028H42.907a2.89,2.89,0,0,0-2.047.843,4.58,4.58,0,0,1-5.779.58l-1.226-.821a3.633,3.633,0,0,0-4.006,0l-1.314.887A4.2,4.2,0,0,1,22,51.31v-.066a3.915,3.915,0,0,1,.668-2.2l1.007-1.521a3,3,0,0,0,.514-1.686,3.057,3.057,0,0,0-.9-2.167l-.383-.383a3.105,3.105,0,0,1-.909-2.2v-.044A3.036,3.036,0,0,1,25.043,38H29.41a6.91,6.91,0,0,0-.843,3.284c0,4.236,3.919,7.662,8.757,7.662s8.757-3.426,8.757-7.662A6.909,6.909,0,0,0,45.238,38h4.127Z" transform="translate(-22 -38)" fill="#ffc729"/>
        </g>
        <g id="Grupo_1311774" data-name="Grupo 1311774" transform="translate(28.46 38.311)">
          <path id="Trazado_1059292" data-name="Trazado 1059292" d="M29.565,37H43.948a7.278,7.278,0,0,1,.722,1.095,6.909,6.909,0,0,1,.843,3.284c0,4.236-3.919,7.662-8.757,7.662S28,45.615,28,41.378a6.91,6.91,0,0,1,.843-3.284A7.279,7.279,0,0,1,29.565,37Z" transform="translate(-28 -37)" fill="#fcd770"/>
        </g>
        <g id="Grupo_1311775" data-name="Grupo 1311775" transform="translate(30.649 0)">
          <path id="Trazado_1059293" data-name="Trazado 1059293" d="M42.621,4.518A3,3,0,0,1,43.135,6.2a3.057,3.057,0,0,1-.9,2.167l-.2.2H34.006a14.43,14.43,0,0,0-2.671.241L30.9,8.371A3.057,3.057,0,0,1,30,6.2a3,3,0,0,1,.514-1.686l1.029-1.543A2.168,2.168,0,0,1,33.36,2h6.414a2.168,2.168,0,0,1,1.817.974Z" transform="translate(-30 -2)" fill="#b27946"/>
        </g>
        <g id="Grupo_1311776" data-name="Grupo 1311776" transform="translate(32.838 10.946)">
          <path id="Trazado_1059294" data-name="Trazado 1059294" d="M40.757,14.189a2.2,2.2,0,0,0,2.189,2.189,2.205,2.205,0,0,0-2.189,2.189,2.2,2.2,0,0,0,2.189,2.189,2.205,2.205,0,0,0-2.189,2.189,2.2,2.2,0,0,0,2.189,2.189,2.205,2.205,0,0,0-2.189,2.189,2.2,2.2,0,0,0,2.189,2.189H32V15.24a5.349,5.349,0,0,0,1.467-1.8A2.615,2.615,0,0,1,35.8,12h3.864l1.467.963A2.16,2.16,0,0,0,40.757,14.189Z" transform="translate(-32 -12)" fill="#cf9e76"/>
        </g>
        <g id="Grupo_1311777" data-name="Grupo 1311777" transform="translate(26.27 28.46)">
          <path id="Trazado_1059295" data-name="Trazado 1059295" d="M47.892,32.378v1.095A1.1,1.1,0,0,1,46.8,34.568h-19.7A1.1,1.1,0,0,1,26,33.473V32.378A4.377,4.377,0,0,1,30.378,28H43.514A4.377,4.377,0,0,1,47.892,32.378Z" transform="translate(-26 -28)" fill="#aab2bd"/>
        </g>
        <g id="Grupo_1311778" data-name="Grupo 1311778" transform="translate(41.595 15.324)">
          <path id="Trazado_1059296" data-name="Trazado 1059296" d="M48.757,16a2.2,2.2,0,0,1,2.189,2.189,2.205,2.205,0,0,1-2.189,2.189H42.189A2.2,2.2,0,0,1,40,18.189,2.205,2.205,0,0,1,42.189,16Z" transform="translate(-40 -16)" fill="#f0d0b4"/>
        </g>
        <g id="Grupo_1311779" data-name="Grupo 1311779" transform="translate(41.595 24.081)">
          <path id="Trazado_1059297" data-name="Trazado 1059297" d="M48.111,24.646a2.14,2.14,0,0,1,.646,1.543,2.2,2.2,0,0,1-2.189,2.189H42.189A2.2,2.2,0,0,1,40,26.189,2.205,2.205,0,0,1,42.189,24h4.378A2.14,2.14,0,0,1,48.111,24.646Z" transform="translate(-40 -24)" fill="#f0d0b4"/>
        </g>
        <g id="Grupo_1311780" data-name="Grupo 1311780" transform="translate(41.595 19.703)">
          <path id="Trazado_1059298" data-name="Trazado 1059298" d="M48.757,20a2.2,2.2,0,0,1,2.189,2.189,2.205,2.205,0,0,1-2.189,2.189H42.189A2.2,2.2,0,0,1,40,22.189,2.205,2.205,0,0,1,42.189,20Z" transform="translate(-40 -20)" fill="#f0d0b4"/>
        </g>
        <g id="Grupo_1311781" data-name="Grupo 1311781" transform="translate(41.595 10.946)">
          <path id="Trazado_1059299" data-name="Trazado 1059299" d="M42.189,12h6.568a2.2,2.2,0,0,1,2.189,2.189,2.205,2.205,0,0,1-2.189,2.189H42.189A2.2,2.2,0,0,1,40,14.189a2.16,2.16,0,0,1,.372-1.226,2.472,2.472,0,0,1,.274-.317A2.14,2.14,0,0,1,42.189,12Z" transform="translate(-40 -12)" fill="#f0d0b4"/>
        </g>
        <g id="Grupo_1311782" data-name="Grupo 1311782" transform="translate(24.081 6.568)">
          <path id="Trazado_1059300" data-name="Trazado 1059300" d="M32.757,15.618V29.892a18.533,18.533,0,0,1-8.3-1.959L24,27.7V12.378a14.911,14.911,0,0,1,7.9-4.138A14.43,14.43,0,0,1,34.574,8h8.034A1.1,1.1,0,0,1,43.7,9.095a3.279,3.279,0,0,1-3.284,3.284H36.555a2.615,2.615,0,0,0-2.331,1.445A5.349,5.349,0,0,1,32.757,15.618Z" transform="translate(-24 -8)" fill="#f0d0b4"/>
        </g>
      </g>
      <g id="Grupo_1311784" data-name="Grupo 1311784" transform="translate(1 1)">
        <path id="Trazado_1059301" data-name="Trazado 1059301" d="M66.676,1V54.635H63.651a9.313,9.313,0,0,1-4.147-.98l-.977-.488L53.943,62.3H20.7V29.46h5.215l.231.115a19.5,19.5,0,0,0,3.059,1.215,5.44,5.44,0,0,0-1.937,4.143v1.095a2.191,2.191,0,0,0,2.189,2.189h19.7a2.191,2.191,0,0,0,2.189-2.189V34.933a5.451,5.451,0,0,0-1.1-3.284h0A3.273,3.273,0,0,0,53.3,27.143,3.255,3.255,0,0,0,54.876,21.8a3.234,3.234,0,0,0,0-4.378,3.27,3.27,0,0,0-2.43-5.473H46.365a4.333,4.333,0,0,0,.609-2.189,2.171,2.171,0,0,0-.546-1.432A4.086,4.086,0,0,0,46.277,4L45.25,2.462A3.279,3.279,0,0,0,42.518,1H36.1a3.279,3.279,0,0,0-2.732,1.462L32.345,4a4.08,4.08,0,0,0-.2,4.235,15.918,15.918,0,0,0-6.417,3.709H1V29.46H18.514V66.676A2.191,2.191,0,0,0,20.7,68.865H66.676a2.191,2.191,0,0,0,2.189-2.189V1ZM36.746,9.757h8.038a2.191,2.191,0,0,1-2.189,2.189H38.733a3.679,3.679,0,0,0-3.311,2.047,4.194,4.194,0,0,1-3.773,2.331v2.189a6.417,6.417,0,0,0,2.189-.4V29.4a17.509,17.509,0,0,1-6.568-1.717V13.523a13.749,13.749,0,0,1,9.476-3.767Zm16.794,9.851A1.1,1.1,0,0,1,52.446,20.7H45.879a1.095,1.095,0,0,1,0-2.189h6.568A1.1,1.1,0,0,1,53.541,19.608ZM43.449,17.419a3.234,3.234,0,0,0,0,4.378,3.234,3.234,0,0,0,0,4.378A3.183,3.183,0,0,0,42.8,29.46H36.027V16.771a6.4,6.4,0,0,0,1.353-1.8,1.5,1.5,0,0,1,1.353-.836h3.862c.071,0,.138-.018.208-.021a3.189,3.189,0,0,0,.646,3.3Zm5.714,18.608H29.46V34.933a3.288,3.288,0,0,1,3.284-3.284H45.879a3.288,3.288,0,0,1,3.284,3.284Zm1.095-6.568H45.879a1.095,1.095,0,0,1,0-2.189h4.378a1.095,1.095,0,0,1,0,2.189Zm2.189-4.378H45.879a1.095,1.095,0,1,1,0-2.189h6.568a1.095,1.095,0,1,1,0,2.189Zm1.095-9.851a1.1,1.1,0,0,1-1.095,1.095H45.879a1.095,1.095,0,1,1,0-2.189h6.568A1.1,1.1,0,0,1,53.541,15.23ZM34.412,7.688a1.96,1.96,0,0,1-.245-2.472l1.027-1.54a1.1,1.1,0,0,1,.911-.487h6.413a1.1,1.1,0,0,1,.911.487l1.028,1.54A1.957,1.957,0,0,1,44.784,6.3a1.932,1.932,0,0,1-.475,1.264H36.745a16.211,16.211,0,0,0-2.278.177ZM3.189,14.135H25.081V27.27H3.189ZM59.525,56.056a11.541,11.541,0,0,0,4.126.768h.071l-6.48,3.781ZM20.7,66.676V64.487h33.34a3.289,3.289,0,0,0,1.655-.448l10.978-6.4v9.04Z" transform="translate(-1 -1)"/>
        <path id="Trazado_1059302" data-name="Trazado 1059302" d="M28.808,36.376A8.066,8.066,0,0,0,27,41.437c0,4.828,4.42,8.757,9.851,8.757S46.7,46.266,46.7,41.437a8.066,8.066,0,0,0-1.808-5.061L43.183,37.74a5.9,5.9,0,0,1,1.331,3.7c0,3.622-3.437,6.568-7.662,6.568s-7.662-2.946-7.662-6.568a5.892,5.892,0,0,1,1.331-3.7Z" transform="translate(1.46 2.347)"/>
        <path id="Trazado_1059303" data-name="Trazado 1059303" d="M21.851,48.527A5.108,5.108,0,0,0,21,51.407a5.3,5.3,0,0,0,5.295,5.3h0a5.276,5.276,0,0,0,2.937-.89l1.315-.877a2.561,2.561,0,0,1,2.8,0l1.219.813a5.674,5.674,0,0,0,7.161-.709A1.812,1.812,0,0,1,43,54.514h1.343a5.127,5.127,0,0,0,5.121-5.121,1.809,1.809,0,0,1,.72-1.44l1.427-1.071a5.577,5.577,0,0,0-1.583-9.753l-.218-.072-.693,2.076.218.072a3.389,3.389,0,0,1,.962,5.926L48.866,46.2a4.009,4.009,0,0,0-1.6,3.191,2.934,2.934,0,0,1-2.931,2.931H43a4.02,4.02,0,0,0-2.821,1.168,3.575,3.575,0,0,1-4.4.436l-1.219-.813a4.786,4.786,0,0,0-5.225,0l-1.315.877a3.1,3.1,0,0,1-1.723.522h0a3.084,3.084,0,0,1-2.2-.91,3.132,3.132,0,0,1-.91-2.269,2.856,2.856,0,0,1,.483-1.593l1.01-1.515a4.148,4.148,0,0,0-.519-5.233l-.387-.387a2.031,2.031,0,0,1-.587-1.474,1.943,1.943,0,0,1,1.944-1.943h1.34V37h-1.34A4.134,4.134,0,0,0,21,41.181a4.172,4.172,0,0,0,1.228,2.973l.387.387a1.959,1.959,0,0,1,.245,2.471Z" transform="translate(0.892 2.406)"/>
        <path id="Trazado_1059304" data-name="Trazado 1059304" d="M31,39h8.757v2.189H31Z" transform="translate(1.838 2.595)"/>
        <path id="Trazado_1059305" data-name="Trazado 1059305" d="M35,43h4.378v2.189H35Z" transform="translate(2.216 2.973)"/>
        <path id="Trazado_1059306" data-name="Trazado 1059306" d="M51,27h8.757v2.189H51Z" transform="translate(3.73 1.46)"/>
        <path id="Trazado_1059307" data-name="Trazado 1059307" d="M53,23h6.568v2.189H53Z" transform="translate(3.919 1.081)"/>
        <path id="Trazado_1059308" data-name="Trazado 1059308" d="M53,19h6.568v2.189H53Z" transform="translate(3.919 0.703)"/>
        <path id="Trazado_1059309" data-name="Trazado 1059309" d="M53,15h6.568v2.189H53Z" transform="translate(3.919 0.324)"/>
        <path id="Trazado_1059310" data-name="Trazado 1059310" d="M53,11h6.568v2.189H53Z" transform="translate(3.919 -0.054)"/>
        <path id="Trazado_1059311" data-name="Trazado 1059311" d="M51,7h8.757V9.189H51Z" transform="translate(3.73 -0.432)"/>
      </g>
    </g>
  </g>
</svg>
