<svg xmlns="http://www.w3.org/2000/svg" width="120" height="120" viewBox="0 0 120 120">
  <g id="img9" transform="translate(-388.711 -10669)">
    <rect id="Rect치ngulo_402033" data-name="Rect치ngulo 402033" width="120" height="120" rx="10" transform="translate(388.711 10669)" fill="#2142dc"/>
    <rect id="Rect치ngulo_454167" data-name="Rect치ngulo 454167" width="100" height="100" rx="10" transform="translate(398.711 10679)" fill="#bcc6f5"/>
    <g id="Grupo_1311799" data-name="Grupo 1311799" transform="translate(415.896 10696.157)">
      <g id="Grupo_1311797" data-name="Grupo 1311797" transform="translate(2.026 2.026)">
        <g id="Grupo_1311786" data-name="Grupo 1311786" transform="translate(0 6.158)">
          <path id="Trazado_1059312" data-name="Trazado 1059312" d="M28.683,18.263h.842a17.822,17.822,0,0,1-8.108,2.053,6.16,6.16,0,1,0-7.1,7.1v7.266H13.289V33.606a2.988,2.988,0,0,0-1.847-2.771c-.01,0-.031-.01-.041-.01a2.984,2.984,0,0,0-3.274.636l-.77.77-2.9-2.9.77-.77a2.984,2.984,0,0,0,.636-3.274c0-.01-.01-.031-.01-.041a2.988,2.988,0,0,0-2.771-1.847H2V19.289H3.078a2.988,2.988,0,0,0,2.771-1.847c0-.01.01-.031.01-.041a2.984,2.984,0,0,0-.636-3.274l-.77-.77,2.9-2.9.77.77a2.984,2.984,0,0,0,3.274.636c.01,0,.031-.01.041-.01a2.988,2.988,0,0,0,1.847-2.771V8h4.105V9.078a2.988,2.988,0,0,0,1.847,2.771c.01,0,.031.01.041.01a2.984,2.984,0,0,0,3.274-.636l.77-.77,1.283,1.283a2.244,2.244,0,0,0-.031.369,2.059,2.059,0,0,0,2.053,2.053h2.053a2.068,2.068,0,0,0-2.053,2.053A2.059,2.059,0,0,0,28.683,18.263Z" transform="translate(-2 -8)" fill="#fcd770"/>
        </g>
        <g id="Grupo_1311787" data-name="Grupo 1311787" transform="translate(42.888 30.788)">
          <path id="Trazado_1059313" data-name="Trazado 1059313" d="M62.479,43.289v4.105H61.4a2.988,2.988,0,0,0-2.771,1.847c0,.01-.01.031-.01.041a2.984,2.984,0,0,0,.636,3.274l.77.77-2.9,2.9-.77-.77a2.984,2.984,0,0,0-3.274-.636c-.01,0-.031.01-.041.01a2.988,2.988,0,0,0-1.847,2.771v1.078H47.084V57.606a2.988,2.988,0,0,0-1.847-2.771c-.01,0-.031-.01-.041-.01A2.9,2.9,0,0,0,43.79,54.6c.441-.534.872-1.078,1.273-1.642.482-.667.934-1.365,1.355-2.083h.01a6.159,6.159,0,1,0,3.654-11.618c.051-.688.082-1.385.082-2.094V32h1.026v1.078a2.988,2.988,0,0,0,1.847,2.771c.01,0,.031.01.041.01a2.984,2.984,0,0,0,3.274-.636l.77-.77,2.9,2.9-.77.77A2.984,2.984,0,0,0,58.62,41.4c0,.01.01.031.01.041A2.988,2.988,0,0,0,61.4,43.289Z" transform="translate(-43.79 -32)" fill="#fcd770"/>
        </g>
        <g id="Grupo_1311788" data-name="Grupo 1311788" transform="translate(53.367 4.105)">
          <path id="Trazado_1059314" data-name="Trazado 1059314" d="M62.21,7.026V19.342a1.029,1.029,0,0,1-1.026,1.026H55.026A1.029,1.029,0,0,1,54,19.342V6h7.184A1.029,1.029,0,0,1,62.21,7.026Z" transform="translate(-54 -6)" fill="#ff826e"/>
        </g>
        <g id="Grupo_1311789" data-name="Grupo 1311789" transform="translate(32.841)">
          <path id="Trazado_1059315" data-name="Trazado 1059315" d="M43.257,8.147c-.072-.113-.133-.226-.195-.339V7.788a3.066,3.066,0,0,0-2.73-1.683H37.079A3.083,3.083,0,0,1,34,3.026,1.029,1.029,0,0,1,35.026,2h7.666a18.733,18.733,0,0,1,10.4,3.151l1.437.954V18.42a18.52,18.52,0,0,1-4.105,2.494V19.447l-3.4.677a17.474,17.474,0,0,1-3.51.349,17.987,17.987,0,0,1-5.172-.77,18.407,18.407,0,0,1-3.13-1.283h4.947v-4.5a6.915,6.915,0,0,1,1.078-3.715,7.036,7.036,0,0,1,2.022-2.063Z" transform="translate(-34 -2)" fill="#f0d0b4"/>
        </g>
        <g id="Grupo_1311790" data-name="Grupo 1311790" transform="translate(12.315 14.368)">
          <path id="Trazado_1059316" data-name="Trazado 1059316" d="M44.573,55.019a26.966,26.966,0,0,1-12.1,8.19c-.318-.1-.626-.216-.934-.328a2.058,2.058,0,0,0,.934-1.724A2.068,2.068,0,0,0,30.42,59.1h4.105a2.059,2.059,0,0,0,2.053-2.053,1.919,1.919,0,0,0-.031-.349,22.862,22.862,0,0,0,10.294-19.12V24.036a23.2,23.2,0,0,1-2.8.174,21.7,21.7,0,0,1-11.566-3.079A21.7,21.7,0,0,1,20.907,24.21a23.2,23.2,0,0,1-2.8-.174V37.583a22.944,22.944,0,0,0,.626,5.337v.01a18.79,18.79,0,0,0-3.951,1.088A26.749,26.749,0,0,1,14,37.583v-18.5l3.4.677a17.474,17.474,0,0,0,3.51.349H21.1a17.822,17.822,0,0,0,8.108-2.053h.01a17.8,17.8,0,0,0,1.6-.954L32.473,16l1.652,1.1a17.8,17.8,0,0,0,1.6.954h.01a18.407,18.407,0,0,0,3.13,1.283,17.987,17.987,0,0,0,5.172.77,17.474,17.474,0,0,0,3.51-.349l3.4-.677v18.5c0,.708-.031,1.406-.082,2.094A26.747,26.747,0,0,1,47.2,51.294c-.421.718-.872,1.416-1.355,2.083-.4.564-.831,1.108-1.273,1.642Z" transform="translate(-14 -16)" fill="#aab2bd"/>
        </g>
        <g id="Grupo_1311791" data-name="Grupo 1311791" transform="translate(24.631 4.105)">
          <path id="Trazado_1059317" data-name="Trazado 1059317" d="M43.272,7.7c.062.113.123.226.195.339a7.036,7.036,0,0,0-2.022,2.063H28.053A2.059,2.059,0,0,1,26,8.053,2.068,2.068,0,0,1,28.053,6h12.49a3.066,3.066,0,0,1,2.73,1.683Z" transform="translate(-26 -6)" fill="#f0d0b4"/>
        </g>
        <g id="Grupo_1311792" data-name="Grupo 1311792" transform="translate(22.578 8.21)">
          <path id="Trazado_1059318" data-name="Trazado 1059318" d="M28.105,10H41.5a6.915,6.915,0,0,0-1.078,3.715v.39H26.053A2.059,2.059,0,0,1,24,12.053a2.244,2.244,0,0,1,.031-.369A2.08,2.08,0,0,1,26.053,10Z" transform="translate(-24 -10)" fill="#f0d0b4"/>
        </g>
        <g id="Grupo_1311793" data-name="Grupo 1311793" transform="translate(24.631 12.315)">
          <path id="Trazado_1059319" data-name="Trazado 1059319" d="M40.368,14v4.105H35.411a17.8,17.8,0,0,1-1.6-.954l-1.652-1.1-1.652,1.1a17.8,17.8,0,0,1-1.6.954h-.852A2.059,2.059,0,0,1,26,16.053,2.068,2.068,0,0,1,28.053,14Z" transform="translate(-26 -14)" fill="#f0d0b4"/>
        </g>
        <g id="Grupo_1311794" data-name="Grupo 1311794" transform="translate(8.21 41.051)">
          <path id="Trazado_1059320" data-name="Trazado 1059320" d="M34.631,54.315a2.007,2.007,0,0,1,1.447.606,1.97,1.97,0,0,1,.575,1.1,1.919,1.919,0,0,1,.031.349,2.059,2.059,0,0,1-2.053,2.053H30.526a2.068,2.068,0,0,1,2.053,2.053,2.058,2.058,0,0,1-.934,1.724,2.1,2.1,0,0,1-1.119.328H21.7A18.738,18.738,0,0,1,10,58.42V46.105l1.437-.954a18.53,18.53,0,0,1,7.4-2.9,18.259,18.259,0,0,1,3-.246h5.614a1.029,1.029,0,0,1,1.026,1.026,3.083,3.083,0,0,1-3.079,3.079h9.237a2.068,2.068,0,0,1,2.053,2.053,2.059,2.059,0,0,1-2.053,2.053h2.053a2.068,2.068,0,0,1,2.053,2.053,2.059,2.059,0,0,1-2.053,2.053Z" transform="translate(-10 -42)" fill="#f0d0b4"/>
        </g>
        <g id="Grupo_1311795" data-name="Grupo 1311795" transform="translate(16.421 19.499)">
          <path id="Trazado_1059321" data-name="Trazado 1059321" d="M43.934,24.079A21.7,21.7,0,0,1,32.368,21,21.7,21.7,0,0,1,20.8,24.079,23.2,23.2,0,0,1,18,23.9V37.451a22.944,22.944,0,0,0,.626,5.337v.01a18.259,18.259,0,0,1,3-.246h5.614a1.029,1.029,0,0,1,1.026,1.026,3.083,3.083,0,0,1-3.079,3.079H34.42a2.068,2.068,0,0,1,2.053,2.053,2.059,2.059,0,0,1-2.053,2.053h2.053a2.068,2.068,0,0,1,2.053,2.053,2.059,2.059,0,0,1-2.053,2.053H34.42a2.007,2.007,0,0,1,1.447.606,1.97,1.97,0,0,1,.575,1.1,22.862,22.862,0,0,0,10.294-19.12V23.9a23.2,23.2,0,0,1-2.8.174Z" transform="translate(-18 -21)" fill="#5cd6b3"/>
        </g>
        <g id="Grupo_1311796" data-name="Grupo 1311796" transform="translate(0 45.156)">
          <path id="Trazado_1059322" data-name="Trazado 1059322" d="M10.21,58.315v1.026a1.029,1.029,0,0,1-1.026,1.026H3.026A1.029,1.029,0,0,1,2,59.342V47.026A1.029,1.029,0,0,1,3.026,46H10.21Z" transform="translate(-2 -46)" fill="#ff826e"/>
        </g>
      </g>
      <g id="Grupo_1311798" data-name="Grupo 1311798" transform="translate(1 1)">
        <path id="Trazado_1059323" data-name="Trazado 1059323" d="M62.577,5.105H55.7l-1.179-.787A19.7,19.7,0,0,0,43.563,1H35.894a2.055,2.055,0,0,0-2.053,2.053,4.067,4.067,0,0,0,.571,2.054h-5.7a3.069,3.069,0,0,0-2.853,4.224,3.061,3.061,0,0,0-1.467.894L23.352,9.186l-1.5,1.494a1.98,1.98,0,0,1-2.2.4,1.958,1.958,0,0,1-1.213-1.815V7.158H12.289V9.267A2.013,2.013,0,0,1,8.877,10.68L7.383,9.186,3.028,13.541l1.493,1.494a1.985,1.985,0,0,1,.4,2.2,1.959,1.959,0,0,1-1.815,1.214H1V24.6H3.109a2.012,2.012,0,0,1,1.413,3.412L3.028,29.51l4.356,4.356,1.5-1.494a2.01,2.01,0,0,1,3.41,1.413v2.109h1.026v2.079a28.1,28.1,0,0,0,.625,5.834,19.784,19.784,0,0,0-2.835,1.562l-1.18.787H3.053A2.055,2.055,0,0,0,1,48.209V60.524a2.055,2.055,0,0,0,2.053,2.053H9.21a2.053,2.053,0,0,0,1.867-1.209,19.839,19.839,0,0,0,10.862,3.262h8.823a3.064,3.064,0,0,0,1.194-.241c.178.063.354.128.534.188l.325.109.325-.108a27.982,27.982,0,0,0,12.217-8.125,2.142,2.142,0,0,1,.612.148,1.959,1.959,0,0,1,1.214,1.815v2.109H53.34V58.415A2.011,2.011,0,0,1,56.752,57L58.246,58.5,62.6,54.141l-1.493-1.494a1.985,1.985,0,0,1-.4-2.2,1.959,1.959,0,0,1,1.815-1.214h2.109V43.078H62.52a2.012,2.012,0,0,1-1.413-3.412L62.6,38.171l-4.356-4.356-1.5,1.494a1.98,1.98,0,0,1-2.2.4A1.956,1.956,0,0,1,53.34,33.9V31.788H52.314v-10.2a19.87,19.87,0,0,0,2.237-1.273,2.053,2.053,0,0,0,1.868,1.212h6.158a2.055,2.055,0,0,0,2.053-2.053V7.158a2.055,2.055,0,0,0-2.053-2.053ZM28.71,7.158H41.2a1.993,1.993,0,0,1,1.561.763,7.924,7.924,0,0,0-1.186,1.29H28.71a1.026,1.026,0,1,1,0-2.053Zm6.328,9.485-1.912-1.275H40V17.42H36.341C35.9,17.18,35.459,16.925,35.038,16.643Zm-5.749.778H28.71a1.026,1.026,0,0,1,0-2.053H32.5l-1.911,1.275c-.423.282-.86.538-1.3.778Zm-2.631-6.158H40.476a7.946,7.946,0,0,0-.437,2.053H26.657a1.026,1.026,0,1,1,0-2.053ZM11.825,30.057a4.014,4.014,0,0,0-4.4.863l-.042.043L5.93,29.51l.043-.043a4.064,4.064,0,0,0-2.864-6.915H3.053V20.5h.056a4.064,4.064,0,0,0,2.864-6.915l-.043-.043,1.453-1.453.043.043a4.064,4.064,0,0,0,6.915-2.864V9.21h2.053v.056a4.064,4.064,0,0,0,6.915,2.864l.043-.043.228.229a3.074,3.074,0,0,0,2.276,2.933,3.049,3.049,0,0,0,.7,3.341,16.981,16.981,0,0,1-4.326.829,7.181,7.181,0,1,0-8.916,8.986v2.7a4.122,4.122,0,0,0-1.49-1.05Zm1.49-11.836v7.991a5.121,5.121,0,1,1,6.71-6.8,16.7,16.7,0,0,1-2.087-.265ZM9.21,60.524H3.053V48.209H9.21Zm21.552,2.053H21.939a17.765,17.765,0,0,1-10.676-3.6V47.732l.981-.655A17.655,17.655,0,0,1,22.066,44.1h5.617a2.053,2.053,0,0,1-2.048,2.053H22.546v2.053H34.867a1.026,1.026,0,0,1,0,2.053H22.552v2.053H36.92a1.026,1.026,0,0,1,0,2.053H22.552v2.053H34.867a1.026,1.026,0,0,1,0,2.053H22.552v2.053h8.21a1.026,1.026,0,1,1,0,2.053Zm-11.289-24.6V25.563c.591.045,1.183.068,1.77.068a23.18,23.18,0,0,0,10.545-2.365v22.89H29.165a4.063,4.063,0,0,0,.571-2.053,2.055,2.055,0,0,0-2.053-2.053H22.066a19.741,19.741,0,0,0-2.18.133,22.014,22.014,0,0,1-.414-4.212ZM39.985,53.206a3.07,3.07,0,0,0-2.265-2.825,3.069,3.069,0,0,0-2.853-4.224H33.841V23.266a23.166,23.166,0,0,0,10.545,2.365c.587,0,1.179-.023,1.77-.068V37.974A21.818,21.818,0,0,1,39.985,53.206Zm-6.2,8.934a3.1,3.1,0,0,0,.06-.589,3.044,3.044,0,0,0-.189-1.026h1.215a3.074,3.074,0,0,0,3.06-2.9A23.849,23.849,0,0,0,48.209,37.973V23.26l-1.156.148a21.181,21.181,0,0,1-2.667.17,20.607,20.607,0,0,1-11.031-2.926l-.54-.335-.54.335a20.607,20.607,0,0,1-11.031,2.926,21.193,21.193,0,0,1-2.667-.17L17.42,23.26V37.973a24.122,24.122,0,0,0,.437,4.533,19.522,19.522,0,0,0-1.981.549,26.111,26.111,0,0,1-.509-5.082V20.725l2.169.434a18.981,18.981,0,0,0,3.707.366A18.845,18.845,0,0,0,31.731,18.35l1.084-.723,1.084.723a18.842,18.842,0,0,0,10.488,3.175,19,19,0,0,0,3.708-.366l2.168-.434V37.974A25.939,25.939,0,0,1,33.781,62.14ZM52.087,41.374a5.124,5.124,0,0,1-1.826,9.914,5.113,5.113,0,0,1-1.236-.153,27.978,27.978,0,0,0,3.061-9.761Zm1.716-3.75a4.009,4.009,0,0,0,4.4-.862l.043-.043L59.7,38.172l-.043.043A4.064,4.064,0,0,0,62.52,45.13h.056v2.053H62.52A4.064,4.064,0,0,0,59.656,54.1l.043.043-1.453,1.453-.043-.043a4.063,4.063,0,0,0-6.915,2.864v.056H49.235v-.056a4.014,4.014,0,0,0-2.47-3.7q.634-.853,1.2-1.752a7.107,7.107,0,0,0,2.294.381,7.18,7.18,0,0,0,2-14.076c.02-.43.051-.857.051-1.291v-1.4A4.1,4.1,0,0,0,53.8,37.624ZM47.692,19.147a16.829,16.829,0,0,1-5.64.138V13.957a5.905,5.905,0,0,1,1.9-4.339,5.323,5.323,0,0,0,3.858,1.645h.4V9.21h-.4a3.3,3.3,0,0,1-2.968-1.849A4.05,4.05,0,0,0,41.2,5.105H37.942a2.053,2.053,0,0,1-2.048-2.053h7.669a17.655,17.655,0,0,1,9.823,2.973l.981.655V17.934a17.792,17.792,0,0,1-2.053,1.34V18.221Zm14.885.326H56.419V7.158h6.158Z" transform="translate(-1 -1)"/>
        <path id="Trazado_1059324" data-name="Trazado 1059324" d="M47.95,13.27a6.906,6.906,0,0,0-4.9,4.536l1.947.65a4.862,4.862,0,0,1,3.45-3.195l.956-.239-.5-1.99Z" transform="translate(0.105 -0.684)"/>
        <path id="Trazado_1059325" data-name="Trazado 1059325" d="M1,39H3.053v2.053H1Z" transform="translate(-1 -0.001)"/>
        <path id="Trazado_1059326" data-name="Trazado 1059326" d="M5,39H7.053v2.053H5Z" transform="translate(-0.895 -0.001)"/>
        <path id="Trazado_1059327" data-name="Trazado 1059327" d="M9,39h2.053v2.053H9Z" transform="translate(-0.79 -0.001)"/>
        <path id="Trazado_1059328" data-name="Trazado 1059328" d="M53,25h2.053v2.053H53Z" transform="translate(0.367 -0.369)"/>
        <path id="Trazado_1059329" data-name="Trazado 1059329" d="M57,25h2.053v2.053H57Z" transform="translate(0.472 -0.369)"/>
        <path id="Trazado_1059330" data-name="Trazado 1059330" d="M61,25h2.053v2.053H61Z" transform="translate(0.577 -0.369)"/>
      </g>
    </g>
  </g>
</svg>
